<?xml version="1.0" encoding="UTF-8"?>
<svg version="1.1" xmlns="http://www.w3.org/2000/svg" width="1024" height="1024">
<path d="M0 0 C1.93666172 0.17767977 3.87336437 0.35491379 5.81010437 0.53173828 C11.04294086 1.01072614 16.27519606 1.49581116 21.50737 1.98197556 C27.00555151 2.49174799 32.50426493 2.99571584 38.00292969 3.50024414 C47.2139835 4.34611313 56.42472817 5.19527576 65.63525391 6.046875 C81.74519201 7.53628421 97.85602584 9.01589539 113.9669342 10.49476624 C116.17123423 10.69711192 118.37553416 10.89945871 120.57983398 11.10180664 C122.19569381 11.25012357 122.19569381 11.25012357 123.84419727 11.40143681 C130.1710168 11.9822955 136.49773337 12.56425861 142.82434177 13.1474123 C145.81313232 13.42284623 148.8019577 13.69789979 151.79078674 13.97291565 C155.53494778 14.31751024 159.27893758 14.66388641 163.02281189 15.01158142 C170.42836405 15.69714941 177.83214683 16.37227616 185.24804688 16.93798828 C186.31951965 17.02158096 187.39099243 17.10517365 188.49493408 17.19129944 C190.33007728 17.33115482 192.16594403 17.46210146 194.00262451 17.58006287 C204.89473554 18.41137267 214.4806947 22.34958157 222.07421875 30.28515625 C227.29900899 36.85346398 229.8341094 44.02562569 229.84627151 52.36864471 C229.85011266 53.36131741 229.8539538 54.35399011 229.85791135 55.37674379 C229.85704487 56.45990736 229.85617838 57.54307092 229.85528564 58.65905762 C229.85974233 60.39364204 229.85974233 60.39364204 229.86428905 62.16326857 C229.87145994 65.36897274 229.87414762 68.57464424 229.87488651 71.78035522 C229.87674005 75.23916074 229.8842887 78.69795471 229.89102173 82.15675354 C229.90459114 89.71646783 229.91062707 97.27617682 229.91503239 104.83590126 C229.9177961 109.55555458 229.92203359 114.27520585 229.92653656 118.99485779 C229.9387254 132.06160605 229.94902678 145.12835268 229.95241165 158.19510651 C229.95263122 159.03100708 229.95285078 159.86690765 229.953077 160.72813854 C229.95329528 161.56603102 229.95351356 162.4039235 229.95373845 163.26720667 C229.95418192 164.96508439 229.95462848 166.66296212 229.95507812 168.36083984 C229.95529955 169.20304476 229.95552098 170.04524969 229.95574912 170.91297597 C229.95969998 184.56984202 229.97716449 198.22665481 230.00043765 211.88350028 C230.02413746 225.9037487 230.03661281 239.92397036 230.03777957 253.94423914 C230.03869689 261.816651 230.04446382 269.68899337 230.06259918 277.56138611 C230.07798141 284.26220505 230.08313163 290.96293303 230.07486108 297.66376626 C230.07094842 301.08313894 230.07191407 304.5023283 230.08591843 307.92167854 C230.09854842 311.62669684 230.09280963 315.33124052 230.08233643 319.03625488 C230.09039283 320.11941844 230.09844923 321.20258201 230.10674977 322.31856871 C230.04665037 331.37174739 230.04665037 331.37174739 226.71484375 335.34765625 C223.89868477 337.9760713 221.58464562 339.16766547 217.71484375 339.34765625 C213.22226634 337.87594986 209.97843437 336.62332743 207.71484375 332.34765625 C206.75432998 328.50520683 206.5640947 324.85768939 206.50952148 320.9050293 C206.48957626 319.62407883 206.46963104 318.34312836 206.44908142 317.02336121 C206.43210097 315.63536701 206.41522202 314.24737158 206.3984375 312.859375 C206.37784951 311.4316195 206.35685257 310.00386984 206.33546448 308.5761261 C206.28043422 304.8295873 206.23094148 301.08299524 206.18261719 297.33636475 C206.13226254 293.50870051 206.07664957 289.68111302 206.02148438 285.85351562 C205.91413599 278.35162762 205.81263988 270.84967551 205.71484375 263.34765625 C205.05484375 263.34765625 204.39484375 263.34765625 203.71484375 263.34765625 C203.71484375 262.02765625 203.71484375 260.70765625 203.71484375 259.34765625 C200.27454398 259.97939616 197.0215113 260.82587542 193.70141602 261.9230957 C192.72182922 262.24512466 191.74224243 262.56715363 190.73297119 262.89894104 C189.6764032 263.24939987 188.61983521 263.5998587 187.53125 263.9609375 C186.42094421 264.32642197 185.31063843 264.69190643 184.16668701 265.06846619 C181.77975169 265.85421598 179.39319826 266.64112662 177.00698853 267.42907715 C170.71936201 269.50449346 164.42826327 271.56930861 158.13671875 273.6328125 C156.88599075 274.04304657 155.63526276 274.45328064 154.34663391 274.87594604 C144.25974214 278.17948041 134.15416232 281.41881749 124.02734375 284.59765625 C123.28439056 284.83096649 122.54143738 285.06427673 121.77597046 285.30465698 C118.76196562 286.250875 115.74784039 287.19670724 112.73344421 288.14167786 C103.17640064 291.13974702 93.63367984 294.182866 84.08984375 297.22265625 C82.2387781 297.81195725 80.38770388 298.40123133 78.53662109 298.99047852 C71.03856421 301.37752761 63.54087556 303.76573185 56.04345703 306.15478516 C51.3424299 307.65275628 46.64127072 309.15031212 41.93997192 310.64743042 C40.08567433 311.23793524 38.2314058 311.82853135 36.37716675 312.41921997 C26.96446593 315.41720671 17.54940111 318.40688066 8.12109375 321.35546875 C7.36510391 321.59191101 6.60911407 321.82835327 5.83021545 322.07196045 C4.33758996 322.53871071 2.84496002 323.00544677 1.35232544 323.47216797 C-9.06119204 326.72873052 -19.44910694 330.03833022 -29.78515625 333.53515625 C-44.95561281 338.65984657 -60.24943525 343.3927333 -75.53295898 348.16674805 C-77.74333713 348.85722612 -79.95370497 349.54773718 -82.1640625 350.23828125 C-83.25861252 350.58018997 -84.35316254 350.92209869 -85.48088074 351.27436829 C-92.86907532 353.58486754 -100.24959855 355.91853177 -107.625 358.26953125 C-108.58631836 358.57574402 -109.54763672 358.88195679 -110.53808594 359.19744873 C-115.06710461 360.64065008 -119.59502182 362.087193 -124.12158203 363.53808594 C-125.71904182 364.0476317 -127.31653336 364.55707796 -128.9140625 365.06640625 C-129.63859116 365.29994812 -130.36311981 365.53348999 -131.10960388 365.77410889 C-136.0582354 367.34765625 -136.0582354 367.34765625 -138.28515625 367.34765625 C-138.27040756 368.12201019 -138.25565887 368.89636414 -138.24046326 369.69418335 C-138.10106114 377.07597628 -137.96817752 384.45784686 -137.84219265 391.83987999 C-137.7772406 395.63290985 -137.70997257 399.42586601 -137.63696289 403.21875 C-136.73349154 450.44586349 -136.73349154 450.44586349 -142.91015625 457.09765625 C-146.50156171 458.98786965 -150.27146617 460.2958743 -154.28515625 459.34765625 C-158.00754191 456.34632779 -160.47554683 453.01935101 -161.34375 448.28125 C-161.50208568 446.78559714 -161.62670964 445.28610325 -161.72265625 443.78515625 C-161.82682861 442.54088867 -161.82682861 442.54088867 -161.93310547 441.27148438 C-162.41775837 434.38607081 -162.17507036 427.59692591 -161.74609375 420.71606445 C-161.18400832 411.30031646 -161.19581613 401.90137797 -161.22265625 392.47265625 C-161.22558685 391.27286133 -161.22558685 391.27286133 -161.22857666 390.04882812 C-161.24067572 385.48172534 -161.25984865 380.91470418 -161.28515625 376.34765625 C-161.960625 376.21488281 -162.63609375 376.08210938 -163.33203125 375.9453125 C-164.2240625 375.76871094 -165.11609375 375.59210938 -166.03515625 375.41015625 C-167.35773438 375.14912109 -167.35773438 375.14912109 -168.70703125 374.8828125 C-170.91750678 374.42397137 -173.10027693 373.91429551 -175.28515625 373.34765625 C-175.61515625 374.00765625 -175.94515625 374.66765625 -176.28515625 375.34765625 C-176.28515625 374.35765625 -176.28515625 373.36765625 -176.28515625 372.34765625 C-177.35419189 372.24130859 -178.42322754 372.13496094 -179.5246582 372.02539062 C-185.27087169 371.30252328 -190.83517797 369.88317782 -196.453125 368.50390625 C-197.6280098 368.21918457 -198.80289459 367.93446289 -200.01338196 367.64111328 C-203.17789043 366.87335128 -206.34142197 366.10171485 -209.50454712 365.32827759 C-212.82124926 364.51832361 -216.13920298 363.71352918 -219.45703125 362.90820312 C-225.94043646 361.33369199 -232.42254029 359.75389915 -238.90423584 358.17236328 C-243.37055156 357.08289605 -247.83752704 355.99615369 -252.3046875 354.91015625 C-256.53363371 353.8819548 -260.7624889 352.85339351 -264.99072266 351.82226562 C-274.37814207 349.53407057 -283.77010926 347.26512946 -293.1640625 345.00390625 C-298.22529019 343.78527987 -303.28648145 342.56650229 -308.34765625 341.34765625 C-310.23757797 340.89264236 -310.23757797 340.89264236 -312.16567993 340.42843628 C-327.83368696 336.65444604 -343.48444779 332.82346025 -359.10803223 328.86978149 C-370.6237085 325.95973536 -382.17896574 323.26833727 -393.78198242 320.72875977 C-398.66999872 319.65250862 -403.54034543 318.57502941 -408.36083984 317.22509766 C-409.37787239 316.94162224 -409.37787239 316.94162224 -410.41545105 316.65242004 C-412.31705871 316.11553075 -414.2146963 315.56463749 -416.11206055 315.01293945 C-419.20046024 314.36541393 -420.38312972 314.47531555 -423.28515625 315.34765625 C-423.2762738 316.28646637 -423.26739136 317.22527649 -423.25823975 318.1925354 C-423.17707331 327.0497168 -423.11715227 335.90682252 -423.07790756 344.76429176 C-423.05705292 349.31779127 -423.02877432 353.87098999 -422.98339844 358.42431641 C-422.93986457 362.82042768 -422.91600317 367.21625004 -422.90564728 371.61256027 C-422.89826941 373.28788169 -422.88386196 374.9631877 -422.86223602 376.63838577 C-422.83310081 378.98924901 -422.82920432 381.33892601 -422.83105469 383.68994141 C-422.80948303 384.72356812 -422.80948303 384.72356812 -422.78747559 385.77807617 C-422.82959351 390.73942867 -424.17420681 393.53462158 -427.28515625 397.34765625 C-430.99903443 399.82357503 -433.98098186 399.88673093 -438.28515625 399.34765625 C-442.53780923 397.55209166 -444.22152493 395.40991439 -446.28515625 391.34765625 C-446.65988636 388.72285461 -446.65988636 388.72285461 -446.65937805 385.8605957 C-446.66639236 384.77025528 -446.67340668 383.67991486 -446.68063354 382.55653381 C-446.67298981 381.36998703 -446.66534607 380.18344025 -446.6574707 378.9609375 C-446.66112137 377.70337143 -446.66477203 376.44580536 -446.66853333 375.15013123 C-446.67792772 371.70534702 -446.66852516 368.26084775 -446.6552012 364.81608582 C-446.64385248 361.19867939 -446.64799736 357.58128631 -446.64994812 353.96386719 C-446.65083092 347.88097511 -446.63976121 341.79819448 -446.62133789 335.71533203 C-446.60024657 328.71210908 -446.59664426 321.70905022 -446.60289985 314.70580196 C-446.60862734 307.94458313 -446.60290336 301.18342131 -446.5917263 294.42221069 C-446.58711708 291.55812511 -446.58619046 288.69407482 -446.58831215 285.82998657 C-446.59057372 281.80975006 -446.57597302 277.78973595 -446.55981445 273.76953125 C-446.56229187 272.59917831 -446.56476929 271.42882538 -446.56732178 270.2230072 C-446.51777833 262.44060189 -445.66634836 255.00472641 -444.28515625 247.34765625 C-443.62515625 247.34765625 -442.96515625 247.34765625 -442.28515625 247.34765625 C-442.13626953 246.29191406 -442.13626953 246.29191406 -441.984375 245.21484375 C-438.83028149 232.28129829 -428.36868968 222.19885704 -417.41542053 215.46995544 C-408.431718 210.73702057 -398.64743475 208.23001 -388.79296875 206.0703125 C-387.51750183 205.78245377 -386.24203491 205.49459503 -384.92791748 205.19801331 C-381.47597216 204.41923649 -378.02143607 203.65260716 -374.56624603 202.88837433 C-370.90860603 202.07711425 -367.25354733 201.25437542 -363.59814453 200.43310547 C-355.99669139 198.72742716 -348.39221911 197.03553907 -340.78686523 195.34735107 C-336.41665081 194.37721788 -332.04709753 193.40413488 -327.67773438 192.43017578 C-315.87349622 189.79931145 -304.06838438 187.17256547 -292.26004028 184.56018066 C-265.18995131 178.56897967 -238.14585252 172.46277496 -211.11328125 166.3046875 C-210.18639118 166.09357582 -209.25950111 165.88246414 -208.30452347 165.66495514 C-199.80197943 163.72831665 -191.29953847 161.79122827 -182.79785156 159.85083008 C-146.05460572 151.46605529 -146.05460572 151.46605529 -129.265625 147.8203125 C-128.18770691 147.58327103 -127.10978882 147.34622955 -125.99920654 147.102005 C-115.29010166 144.80436463 -104.26815024 143.13272486 -93.28515625 143.34765625 C-93.28515625 143.67765625 -93.28515625 144.00765625 -93.28515625 144.34765625 C-90.64515625 144.67765625 -88.00515625 145.00765625 -85.28515625 145.34765625 C-84.78886719 144.64640625 -84.29257812 143.94515625 -83.78125 143.22265625 C-74.63824516 130.45367795 -74.63824516 130.45367795 -70.28515625 126.34765625 C-69.62515625 126.34765625 -68.96515625 126.34765625 -68.28515625 126.34765625 C-67.95515625 125.35765625 -67.62515625 124.36765625 -67.28515625 123.34765625 C-65.0703125 121.3046875 -65.0703125 121.3046875 -62.34765625 119.16015625 C-61.45175781 118.44472656 -60.55585937 117.72929687 -59.6328125 116.9921875 C-57.28515625 115.34765625 -57.28515625 115.34765625 -55.28515625 115.34765625 C-55.295149 113.67088303 -55.295149 113.67088303 -55.30534363 111.9602356 C-55.36630429 101.39718987 -55.41120055 90.83418009 -55.44059277 80.270998 C-55.45621185 74.8410722 -55.47738131 69.41128904 -55.51147461 63.98144531 C-55.54420225 58.73594648 -55.56203749 53.4905844 -55.56978798 48.2449913 C-55.57530748 46.24923426 -55.58608547 44.25348423 -55.60234642 42.2577858 C-55.62429903 39.45050453 -55.62711577 36.64377982 -55.62573242 33.83642578 C-55.64191116 32.61397911 -55.64191116 32.61397911 -55.65841675 31.36683655 C-55.60802633 21.84304712 -53.0850977 13.22134977 -46.28515625 6.34765625 C-32.4952996 -4.95550494 -16.5062629 -1.54611258 0 0 Z M-32.28515625 25.34765625 C-32.84764341 28.00636763 -33.07279489 30.04589107 -33.09375 32.71484375 C-33.11795517 33.47844208 -33.14216034 34.24204041 -33.167099 35.02877808 C-33.24023162 37.80213685 -33.26612084 40.57339817 -33.28515625 43.34765625 C-33.29589172 44.47627075 -33.3066272 45.60488525 -33.31768799 46.7677002 C-33.38857332 55.31115793 -33.38195964 63.85377927 -33.3538208 72.39733887 C-33.34342328 75.89769881 -33.3389887 79.39806643 -33.33398438 82.8984375 C-33.32339454 89.71486198 -33.30642404 96.5312569 -33.28515625 103.34765625 C-30.52797097 102.25373955 -27.79645584 101.13396143 -25.078125 99.9453125 C-4.1956692 91.05386599 13.8429715 92.42936883 35.98608398 95.33056641 C40.48086394 95.90913423 44.86177488 96.43048509 49.3984375 96.375 C50.49285156 96.36597656 51.58726562 96.35695313 52.71484375 96.34765625 C53.04484375 96.67765625 53.37484375 97.00765625 53.71484375 97.34765625 C55.96128113 97.69383045 58.21719684 97.9785922 60.47509766 98.23974609 C61.18266708 98.32285538 61.89023651 98.40596466 62.61924744 98.49159241 C64.16320801 98.67243428 65.70740125 98.85129784 67.25178909 99.02845383 C69.70967282 99.31069129 72.16683163 99.59860055 74.62387085 99.88809204 C81.61322544 100.71043317 88.6038532 101.5217395 95.59472656 102.33105469 C99.86942261 102.82632665 104.14337484 103.32767326 108.41697311 103.83232498 C110.03429191 104.02202597 111.65188416 104.20941255 113.26976395 104.39426804 C133.651432 106.72312517 153.23968556 109.05642655 167.71484375 125.34765625 C174.61227542 134.69352686 178.06818202 144.95102378 179.71484375 156.34765625 C180.57142578 156.47720703 180.57142578 156.47720703 181.4453125 156.609375 C187.92570787 157.73236879 193.74426991 159.7547847 199.83203125 162.2265625 C202.13663087 163.12279569 204.30460356 163.82951283 206.71484375 164.34765625 C207.89572201 158.76890615 207.84486076 153.33564715 207.81591797 147.6640625 C207.81434189 146.59993134 207.81276581 145.53580017 207.81114197 144.43942261 C207.80366702 140.929613 207.78766084 137.41992629 207.76953125 133.91015625 C207.76382236 132.70956573 207.75811348 131.50897522 207.7522316 130.27200317 C207.72073824 123.92379321 207.68182137 117.57567306 207.63769531 111.22753906 C207.59384811 104.67039782 207.57811101 98.11349627 207.56846428 91.55622864 C207.55560701 86.51176515 207.5209186 81.467619 207.48035049 76.42330933 C207.46485414 74.0056445 207.45776781 71.58791057 207.45925522 69.17019653 C207.45943444 65.78992451 207.42853844 62.41127355 207.39013672 59.03125 C207.40071861 57.53487503 207.40071861 57.53487503 207.41151428 56.00827026 C207.33523271 51.79072321 207.21123207 48.33198307 204.73513794 44.80493164 C200.79487665 41.59918197 197.67398196 40.95952135 192.71484375 40.34765625 C191.86953724 40.23784235 191.02423073 40.12802845 190.15330887 40.01488686 C187.30245839 39.6792315 184.4502074 39.39884214 181.59228516 39.13012695 C180.51037431 39.02391148 179.42846346 38.917696 178.31376743 38.80826187 C174.7318097 38.45799283 171.14913978 38.11567264 167.56640625 37.7734375 C165.02349992 37.52649327 162.48063886 37.2790825 159.93782043 37.03123474 C153.84138211 36.43837916 147.74446118 35.85074375 141.64725512 35.26584285 C136.7443878 34.79541044 131.84174112 34.32273861 126.9392395 33.84851074 C126.24493118 33.78135388 125.55062285 33.71419702 124.83527488 33.64500511 C123.43183165 33.50925475 122.02838853 33.3735033 120.62494552 33.23775077 C104.87963229 31.71517053 89.13308171 30.20563329 73.38622284 28.69913483 C68.85743545 28.26557248 64.32876484 27.83079942 59.80010223 27.39593601 C49.03236731 26.362106 38.26390542 25.33627826 27.49456024 24.31936264 C25.1642526 24.0987835 22.83409359 23.87669116 20.50396729 23.65420532 C16.91307029 23.31165016 13.32176014 22.97382895 9.73004723 22.63994026 C7.86701676 22.46577928 6.00439549 22.28725739 4.14179993 22.10850525 C-6.79795664 20.45946968 -6.79795664 20.45946968 -17.28515625 22.34765625 C-17.28515625 21.68765625 -17.28515625 21.02765625 -17.28515625 20.34765625 C-18.84518053 20.21134345 -20.40872801 20.11506499 -21.97265625 20.03515625 C-22.84277344 19.97714844 -23.71289062 19.91914063 -24.609375 19.859375 C-28.50035434 20.56940773 -29.8155256 22.31159423 -32.28515625 25.34765625 Z M-32.28515625 127.34765625 C-33.35765625 127.92644531 -34.43015625 128.50523437 -35.53515625 129.1015625 C-44.98624886 134.40549598 -54.56184643 139.93929081 -60.28515625 149.34765625 C-53.45015129 150.96493989 -46.64104956 152.09878474 -39.68530273 153.0559082 C-38.55876785 153.21397949 -37.43223297 153.37205078 -36.27156067 153.53491211 C-33.83774372 153.87624123 -31.40371949 154.21609501 -28.96951103 154.55462074 C-25.10334777 155.09330858 -21.23809398 155.63811682 -17.37306213 156.18486023 C-6.38768278 157.73872808 4.59817988 159.28890387 15.5871582 160.81713867 C22.3231116 161.75397644 29.05693582 162.70511584 35.78977776 163.66405296 C38.34087174 164.02488676 40.89265151 164.38090914 43.4451313 164.7318058 C77.45610475 169.41228808 77.45610475 169.41228808 90.83984375 177.72265625 C95.22616498 180.54787774 95.22616498 180.54787774 100.29150391 181.15600586 C104.92085236 180.06288271 109.32138993 178.5021273 113.79296875 176.890625 C114.75958435 176.54638992 115.72619995 176.20215485 116.72210693 175.8474884 C118.76366247 175.11935938 120.80435677 174.38881164 122.84423828 173.65600586 C125.93854107 172.54460357 129.03539888 171.44058959 132.1328125 170.33789062 C134.12385342 169.6267373 136.11474373 168.91516215 138.10546875 168.203125 C139.01935364 167.87692673 139.93323853 167.55072845 140.87481689 167.21464539 C146.87646655 165.05602914 152.80849528 162.75462885 158.71484375 160.34765625 C156.8417284 148.90039168 152.92582367 139.67101148 143.33984375 132.59765625 C131.14757129 125.77987152 112.95989028 125.94742135 99.32421875 124.2109375 C97.08570734 123.92381159 94.84720243 123.63663509 92.60870361 123.34941101 C87.93961579 122.75174857 83.27001616 122.15827311 78.60009766 121.56713867 C72.67084594 120.81574212 66.74377378 120.04841765 60.81707382 119.2771883 C56.2005031 118.67925216 51.58252877 118.0927512 46.96411896 117.50920677 C44.78073991 117.23146523 42.59786822 116.94969942 40.41558075 116.66350746 C29.85594797 115.2827343 19.39578715 114.10793746 8.73535156 114.05151367 C7.94245098 114.04505734 7.1495504 114.03860102 6.33262253 114.03194904 C-7.71783083 114.18075405 -20.21026879 120.76516552 -32.28515625 127.34765625 Z M-117.93359375 167.9453125 C-118.79180222 168.12036316 -119.65001068 168.29541382 -120.53422546 168.47576904 C-131.76986913 170.80919319 -142.92689508 173.49312269 -154.09033203 176.14624023 C-161.10700462 177.81334988 -168.12741939 179.46458223 -175.1484375 181.11328125 C-175.87981556 181.2850589 -176.61119362 181.45683655 -177.36473465 181.63381958 C-194.3954675 185.63054874 -211.45479805 189.4990203 -228.52160263 193.33839417 C-230.74076923 193.8376699 -232.95982662 194.33742845 -235.17886353 194.83728027 C-258.86067765 200.1698407 -282.56832266 205.38066176 -306.29378891 210.51532555 C-312.12925662 211.77850405 -317.96328324 213.048253 -323.796875 214.32006836 C-326.42557954 214.89169199 -329.05464936 215.46114615 -331.68457031 216.02709961 C-335.56103412 216.86147971 -339.43486037 217.70771739 -343.30859375 218.5546875 C-345.07836075 218.93280327 -345.07836075 218.93280327 -346.88388062 219.31855774 C-347.96166779 219.55608261 -349.03945496 219.79360748 -350.14990234 220.03833008 C-351.09707123 220.24371902 -352.04424011 220.44910797 -353.02011108 220.66072083 C-355.45732683 221.20552466 -355.45732683 221.20552466 -357.28515625 223.34765625 C-356.68832031 223.47180908 -356.09148437 223.59596191 -355.4765625 223.72387695 C-333.65774434 228.28499877 -311.94276134 233.28557648 -290.22232056 238.29048157 C-283.66794719 239.80053938 -277.11213513 241.30413063 -270.5546875 242.80078125 C-269.32201393 243.08213425 -269.32201393 243.08213425 -268.06443787 243.36917114 C-264.97645153 244.07380289 -261.88840111 244.77815282 -258.80026245 245.4821167 C-256.74827201 245.94996739 -254.69639271 246.41830277 -252.64453125 246.88671875 C-251.50467773 247.14662598 -250.36482422 247.4065332 -249.19042969 247.67431641 C-247.61374718 248.03973576 -246.03804644 248.41019514 -244.46903992 248.80728149 C-241.80038955 249.46760572 -239.12072158 250.06745553 -236.43774414 250.66699219 C-230.54683979 251.98645332 -224.65775058 253.31361478 -218.76995182 254.64684677 C-215.21711629 255.45086869 -211.66356674 256.25138975 -208.1081543 257.04394531 C-204.65208067 257.81453947 -201.19834686 258.59494516 -197.74590874 259.38166046 C-195.81737843 259.81853756 -193.88662816 260.24557871 -191.95582581 260.67230225 C-174.58518207 264.65300987 -159.21937926 270.67668907 -148.28515625 285.34765625 C-139.89742495 298.82100147 -138.96912907 311.52079666 -138.66015625 326.97265625 C-138.62189293 328.56512357 -138.58283664 330.15757204 -138.54296875 331.75 C-138.4478909 335.61572893 -138.3635361 339.48155419 -138.28515625 343.34765625 C-131.64417025 342.69524786 -125.55823447 340.69654027 -119.22265625 338.6640625 C-118.05124084 338.29301895 -116.87982544 337.9219754 -115.6729126 337.53968811 C-112.52545841 336.54145205 -109.37961735 335.53833022 -106.23451233 334.53272247 C-102.96711728 333.48921389 -99.69777803 332.45183005 -96.42871094 331.41357422 C-89.04476509 329.06688565 -81.66441775 326.70903661 -74.28515625 324.34765625 C-73.38869385 324.06094055 -72.49223145 323.77422485 -71.56860352 323.4788208 C-60.19637521 319.84057585 -48.83557432 316.16744947 -37.489151 312.44946289 C-33.94283363 311.28792729 -30.39549506 310.12953573 -26.84765625 308.97265625 C-26.12190399 308.73595215 -25.39615173 308.49924805 -24.64840698 308.25537109 C-13.23463482 304.53955467 -1.78941274 300.92631294 9.66796875 297.34765625 C10.72416507 297.01775759 10.72416507 297.01775759 11.80169868 296.68119431 C18.93169136 294.45486172 26.06301516 292.23283781 33.19619465 290.01673698 C47.41660524 285.59817592 61.61308786 281.13400855 75.71484375 276.34765625 C80.64895112 274.67841195 85.57791332 273.0522661 90.58984375 271.62890625 C91.59402344 271.33628906 92.59820313 271.04367187 93.6328125 270.7421875 C95.71633883 270.13746313 97.80237447 269.54132841 99.890625 268.953125 C100.88449219 268.66050781 101.87835937 268.36789062 102.90234375 268.06640625 C103.80339844 267.80794922 104.70445312 267.54949219 105.6328125 267.28320312 C106.31988281 266.97447266 107.00695312 266.66574219 107.71484375 266.34765625 C108.88997451 262.82226396 108.86562909 259.63976087 108.83984375 255.97265625 C108.83500977 255.25875732 108.83017578 254.5448584 108.82519531 253.80932617 C108.62419579 235.76157876 105.86190535 220.37848677 93.71484375 206.34765625 C83.68594431 197.54313548 74.02256701 191.97286856 60.80859375 189.51171875 C59.90911011 189.34258972 59.00962646 189.17346069 58.08288574 188.99920654 C45.20476523 186.63709872 32.24120841 184.78932725 19.28704834 182.90093994 C16.48999371 182.49156866 13.69385069 182.07614427 10.89768219 181.66077042 C7.53518253 181.16215139 4.17186587 180.66916352 0.80859375 180.17578125 C-0.43402222 179.99146545 -1.67663818 179.80714966 -2.95690918 179.61724854 C-4.11001587 179.44997253 -5.26312256 179.28269653 -6.45117188 179.11035156 C-7.46038696 178.96253235 -8.46960205 178.81471313 -9.50939941 178.66241455 C-12.13080359 178.36515915 -14.64994427 178.28882985 -17.28515625 178.34765625 C-17.61515625 179.00765625 -17.94515625 179.66765625 -18.28515625 180.34765625 C-18.28515625 179.35765625 -18.28515625 178.36765625 -18.28515625 177.34765625 C-27.12594396 176.05930714 -35.9669691 174.77260299 -44.80829525 173.48795414 C-48.91438691 172.89128528 -53.02039693 172.29406635 -57.1262207 171.69555664 C-61.09418942 171.11716342 -65.06237209 170.54025913 -69.03070259 169.96435356 C-70.5389013 169.745215 -72.04702432 169.52555486 -73.55506706 169.30534554 C-95.73591135 165.96852216 -95.73591135 165.96852216 -117.93359375 167.9453125 Z M157.02734375 183.84765625 C155.46548077 184.39727659 153.90322172 184.94577263 152.34057617 185.49316406 C147.79162672 187.0918868 143.2522787 188.71658985 138.71484375 190.34765625 C137.455751 190.79888906 136.19663779 191.25006478 134.9375 191.70117188 C128.85195688 193.88653014 122.77755669 196.09975832 116.71484375 198.34765625 C118.07021012 202.83182856 119.90539858 206.68266926 122.15234375 210.78515625 C129.79672688 225.69386946 129.362606 241.95205924 129.71484375 258.34765625 C138.16418405 256.69215322 146.25984473 254.03522803 154.43359375 251.375 C155.94282372 250.88673639 157.45214329 250.39874963 158.96154785 249.911026 C162.10575364 248.89406384 165.24901802 247.87425877 168.39160156 246.85229492 C172.42637329 245.54037465 176.463209 244.23494207 180.50072479 242.93149471 C183.60858257 241.92753707 186.71546259 240.92058246 189.82203674 239.9126606 C191.31137296 239.42977197 192.80098667 238.94773835 194.2908783 238.46656609 C196.36222432 237.79703163 198.43225085 237.12357029 200.50195312 236.44897461 C201.68059937 236.06639999 202.85924561 235.68382538 204.0736084 235.28965759 C206.6063718 234.59895485 206.6063718 234.59895485 207.71484375 233.34765625 C207.93502799 229.21781394 207.90063048 225.08443628 207.90014648 220.94921875 C207.90230586 218.88389631 207.92037654 216.81913209 207.93945312 214.75390625 C207.98813656 203.8119096 207.75196846 194.48760132 199.71484375 186.34765625 C192.7185031 180.515217 185.74344261 177.90574722 176.61474609 177.98583984 C169.85899523 178.82874461 163.40714326 181.55645262 157.02734375 183.84765625 Z M-415.2421875 242.40234375 C-421.9226421 250.53140219 -423.72348613 257.85875148 -423.97265625 268.16015625 C-424.00681641 269.08119141 -424.04097656 270.00222656 -424.07617188 270.95117188 C-424.29787669 277.4168083 -424.32046215 283.87883144 -424.28515625 290.34765625 C-403.1836274 295.53066696 -382.05775006 300.60591859 -360.91015625 305.59765625 C-359.16921188 306.00871109 -359.16921188 306.00871109 -357.39309692 306.42807007 C-345.5432799 309.22542162 -333.69220233 312.01738528 -321.83969116 314.80329895 C-297.13392284 320.61180583 -272.45178171 326.49998407 -247.81149292 332.58068848 C-223.039253 338.69173243 -198.21422894 344.57529798 -173.38078308 350.43171692 C-172.36881363 350.67049057 -171.35684418 350.90926422 -170.31420898 351.15527344 C-169.43482162 351.36255066 -168.55543427 351.56982788 -167.6493988 351.78338623 C-165.52416878 352.29061151 -163.40361616 352.81294518 -161.28515625 353.34765625 C-159.0538788 348.88510136 -160.09931828 342.7760977 -160.09985352 337.81176758 C-160.09770145 335.58198953 -160.07964644 333.352735 -160.06054688 331.12304688 C-160.00393328 317.30971459 -159.99192476 303.73769589 -170.29296875 293.31640625 C-179.55943757 285.47810288 -191.60304661 283.36200623 -203.140625 280.6953125 C-204.58774444 280.35562524 -206.03472691 280.01535402 -207.48158264 279.67454529 C-211.34496828 278.76628899 -215.21023389 277.86629516 -219.07594299 276.96798706 C-223.09895442 276.0316382 -227.12015897 275.08759047 -231.14160156 274.14453125 C-240.07845654 272.05046489 -249.0180134 269.96809878 -257.95833588 267.88889313 C-260.9512088 267.19272714 -263.94392471 266.49588772 -266.93663692 265.79903126 C-280.99940352 262.52465331 -295.0635834 259.25640363 -309.13258362 256.00889587 C-310.0237236 255.80293289 -310.91486359 255.59696991 -311.83300781 255.38476562 C-312.6017926 255.20731812 -313.37057739 255.02987061 -314.16265869 254.8470459 C-315.4754295 254.53817197 -316.78647782 254.22173712 -318.09446716 253.89320374 C-321.31812195 253.09041672 -324.55365563 252.33864068 -327.78833008 251.58178711 C-328.53844864 251.40607681 -329.2885672 251.23036652 -330.06141663 251.04933167 C-336.95970074 249.43465783 -343.85992768 247.82833742 -350.76080799 246.22479916 C-355.39207471 245.14847202 -360.02261988 244.06922885 -364.65161133 242.9831543 C-369.13503959 241.9313221 -373.62016758 240.88705093 -378.1065731 239.84799385 C-379.8123536 239.45156909 -381.5175157 239.05247332 -383.22202492 238.6506176 C-385.61100479 238.08790612 -388.00204969 237.53493484 -390.39379883 236.98413086 C-391.09170532 236.81738861 -391.78961182 236.65064636 -392.50866699 236.47885132 C-402.28051369 234.25832604 -408.33207778 235.14741817 -415.2421875 242.40234375 Z " fill="#3D3A36" transform="translate(620.28515625,288.65234375)"/>
<path d="M0 0 C2.97 0.495 2.97 0.495 6 1 C6 1.33 6 1.66 6 2 C4.35 2 2.7 2 1 2 C0.67 1.34 0.34 0.68 0 0 Z " fill="#3D3A36" transform="translate(807,470)"/>
<path d="M0 0 C0.33 0 0.66 0 1 0 C1 2.31 1 4.62 1 7 C0.67 7 0.34 7 0 7 C0 4.69 0 2.38 0 0 Z " fill="#3D3A36" transform="translate(172,633)"/>
<path d="M0 0 C1.98 0 3.96 0 6 0 C6 0.33 6 0.66 6 1 C4.02 1 2.04 1 0 1 C0 0.67 0 0.34 0 0 Z " fill="#3D3A36" transform="translate(677,384)"/>
<path d="M0 0 C0.33 0 0.66 0 1 0 C1 1.65 1 3.3 1 5 C0.67 5 0.34 5 0 5 C0 3.35 0 1.7 0 0 Z " fill="#3D3A36" transform="translate(172,612)"/>
<path d="M0 0 C1.98 0.99 1.98 0.99 4 2 C2.68 1.67 1.36 1.34 0 1 C0 0.67 0 0.34 0 0 Z " fill="#3D3A36" transform="translate(496,432)"/>
<path d="M0 0 C0.66 0 1.32 0 2 0 C1.67 0.99 1.34 1.98 1 3 C0.67 2.01 0.34 1.02 0 0 Z " fill="#3D3A36" transform="translate(562,400)"/>
<path d="M0 0 C1 4 1 4 1 4 Z " fill="#3D3A36" transform="translate(172,641)"/>
<path d="M0 0 C0.66 0 1.32 0 2 0 C2 0.66 2 1.32 2 2 C1.34 2 0.68 2 0 2 C0 1.34 0 0.68 0 0 Z " fill="#3D3A36" transform="translate(305,629)"/>
<path d="M0 0 C4 1 4 1 4 1 Z " fill="#3D3A36" transform="translate(330,609)"/>
<path d="M0 0 C1 4 1 4 1 4 Z " fill="#3D3A36" transform="translate(172,596)"/>
<path d="M0 0 C0.66 0 1.32 0 2 0 C2 0.66 2 1.32 2 2 C1.34 2 0.68 2 0 2 C0 1.34 0 0.68 0 0 Z " fill="#3D3A36" transform="translate(445,581)"/>
<path d="M0 0 C0.66 0 1.32 0 2 0 C2 0.66 2 1.32 2 2 C1.34 2 0.68 2 0 2 C0 1.34 0 0.68 0 0 Z " fill="#3D3A36" transform="translate(308,502)"/>
<path d="M0 0 C0.66 0 1.32 0 2 0 C2 0.66 2 1.32 2 2 C1.34 2 0.68 2 0 2 C0 1.34 0 0.68 0 0 Z " fill="#3D3A36" transform="translate(216,496)"/>
<path d="M0 0 C4 1 4 1 4 1 Z " fill="#3D3A36" transform="translate(692,456)"/>
<path d="M0 0 C4 1 4 1 4 1 Z " fill="#3D3A36" transform="translate(713,414)"/>
<path d="M0 0 C4 1 4 1 4 1 Z " fill="#3D3A36" transform="translate(658,407)"/>
<path d="M0 0 C0.33 0.66 0.66 1.32 1 2 C0.34 1.67 -0.32 1.34 -1 1 C-0.67 0.67 -0.34 0.34 0 0 Z " fill="#3D3A36" transform="translate(177,686)"/>
<path d="" fill="#3D3A36" transform="translate(0,0)"/>
<path d="M0 0 C3 1 3 1 3 1 Z " fill="#3D3A36" transform="translate(434,662)"/>
<path d="M0 0 C0.99 0.495 0.99 0.495 2 1 C1.01 1.495 1.01 1.495 0 2 C0 1.34 0 0.68 0 0 Z " fill="#3D3A36" transform="translate(403,654)"/>
<path d="M0 0 C0.99 0.495 0.99 0.495 2 1 C1.01 1.495 1.01 1.495 0 2 C0 1.34 0 0.68 0 0 Z " fill="#3D3A36" transform="translate(267,622)"/>
<path d="" fill="#3D3A36" transform="translate(0,0)"/>
<path d="M0 0 C3 1 3 1 3 1 Z " fill="#3D3A36" transform="translate(416,571)"/>
<path d="M0 0 C3 1 3 1 3 1 Z " fill="#3D3A36" transform="translate(393,566)"/>
<path d="" fill="#3D3A36" transform="translate(0,0)"/>
<path d="M0 0 C0.99 0.495 0.99 0.495 2 1 C1.01 1.495 1.01 1.495 0 2 C0 1.34 0 0.68 0 0 Z " fill="#3D3A36" transform="translate(384,536)"/>
<path d="M0 0 C3 1 3 1 3 1 Z " fill="#3D3A36" transform="translate(240,491)"/>
<path d="M0 0 C0.66 0.66 1.32 1.32 2 2 C1.34 2 0.68 2 0 2 C0 1.34 0 0.68 0 0 Z " fill="#3D3A36" transform="translate(280,481)"/>
<path d="M0 0 C3 1 3 1 3 1 Z " fill="#3D3A36" transform="translate(288,480)"/>
<path d="" fill="#3D3A36" transform="translate(0,0)"/>
<path d="M0 0 C3 1 3 1 3 1 Z " fill="#3D3A36" transform="translate(616,470)"/>
<path d="M0 0 C0.33 0.66 0.66 1.32 1 2 C0.34 1.67 -0.32 1.34 -1 1 C-0.67 0.67 -0.34 0.34 0 0 Z " fill="#3D3A36" transform="translate(751,456)"/>
<path d="M0 0 C0.66 0.66 1.32 1.32 2 2 C1.34 2 0.68 2 0 2 C0 1.34 0 0.68 0 0 Z " fill="#3D3A36" transform="translate(761,422)"/>
<path d="M0 0 C3 1 3 1 3 1 Z " fill="#3D3A36" transform="translate(757,394)"/>
<path d="M0 0 C3 1 3 1 3 1 Z " fill="#3D3A36" transform="translate(741,392)"/>
<path d="" fill="#3D3A36" transform="translate(0,0)"/>
<path d="M0 0 C3 1 3 1 3 1 Z " fill="#3D3A36" transform="translate(692,319)"/>
<path d="M0 0 C3 1 3 1 3 1 Z " fill="#3D3A36" transform="translate(679,318)"/>
<path d="" fill="#3D3A36" transform="translate(0,0)"/>
<path d="" fill="#3D3A36" transform="translate(0,0)"/>
<path d="" fill="#3D3A36" transform="translate(0,0)"/>
<path d="M0 0 C2 1 2 1 2 1 Z " fill="#3D3A36" transform="translate(491,654)"/>
<path d="M0 0 C2 1 2 1 2 1 Z " fill="#3D3A36" transform="translate(437,632)"/>
<path d="M0 0 C2 1 2 1 2 1 Z " fill="#3D3A36" transform="translate(572,631)"/>
<path d="M0 0 C2 1 2 1 2 1 Z " fill="#3D3A36" transform="translate(313,631)"/>
<path d="" fill="#3D3A36" transform="translate(0,0)"/>
<path d="" fill="#3D3A36" transform="translate(0,0)"/>
<path d="M0 0 C2 1 2 1 2 1 Z " fill="#3D3A36" transform="translate(398,624)"/>
<path d="M0 0 C2 1 2 1 2 1 Z " fill="#3D3A36" transform="translate(268,620)"/>
<path d="M0 0 C2 1 2 1 2 1 Z " fill="#3D3A36" transform="translate(521,618)"/>
<path d="M0 0 C2 1 2 1 2 1 Z " fill="#3D3A36" transform="translate(824,617)"/>
<path d="M0 0 C2 1 2 1 2 1 Z " fill="#3D3A36" transform="translate(364,617)"/>
<path d="" fill="#3D3A36" transform="translate(0,0)"/>
<path d="M0 0 C2 1 2 1 2 1 Z " fill="#3D3A36" transform="translate(243,614)"/>
<path d="M0 0 C2 1 2 1 2 1 Z " fill="#3D3A36" transform="translate(326,608)"/>
<path d="" fill="#3D3A36" transform="translate(0,0)"/>
<path d="M0 0 C2 1 2 1 2 1 Z " fill="#3D3A36" transform="translate(294,600)"/>
<path d="" fill="#3D3A36" transform="translate(0,0)"/>
<path d="" fill="#3D3A36" transform="translate(0,0)"/>
<path d="M0 0 C2 1 2 1 2 1 Z " fill="#3D3A36" transform="translate(266,593)"/>
<path d="M0 0 C2 1 2 1 2 1 Z " fill="#3D3A36" transform="translate(600,592)"/>
<path d="" fill="#3D3A36" transform="translate(0,0)"/>
<path d="" fill="#3D3A36" transform="translate(0,0)"/>
<path d="" fill="#3D3A36" transform="translate(0,0)"/>
<path d="" fill="#3D3A36" transform="translate(0,0)"/>
<path d="M0 0 C2 1 2 1 2 1 Z " fill="#3D3A36" transform="translate(748,572)"/>
<path d="M0 0 C2 1 2 1 2 1 Z " fill="#3D3A36" transform="translate(387,566)"/>
<path d="M0 0 C2 1 2 1 2 1 Z " fill="#3D3A36" transform="translate(697,562)"/>
<path d="M0 0 C2 1 2 1 2 1 Z " fill="#3D3A36" transform="translate(360,558)"/>
<path d="" fill="#3D3A36" transform="translate(0,0)"/>
<path d="M0 0 C2 1 2 1 2 1 Z " fill="#3D3A36" transform="translate(419,545)"/>
<path d="M0 0 C2 1 2 1 2 1 Z " fill="#3D3A36" transform="translate(288,541)"/>
<path d="" fill="#3D3A36" transform="translate(0,0)"/>
<path d="" fill="#3D3A36" transform="translate(0,0)"/>
<path d="" fill="#3D3A36" transform="translate(0,0)"/>
<path d="M0 0 C2 1 2 1 2 1 Z " fill="#3D3A36" transform="translate(257,534)"/>
<path d="" fill="#3D3A36" transform="translate(0,0)"/>
<path d="" fill="#3D3A36" transform="translate(0,0)"/>
<path d="" fill="#3D3A36" transform="translate(0,0)"/>
<path d="M0 0 C2 1 2 1 2 1 Z " fill="#3D3A36" transform="translate(311,520)"/>
<path d="M0 0 C2 1 2 1 2 1 Z " fill="#3D3A36" transform="translate(720,509)"/>
<path d="" fill="#3D3A36" transform="translate(0,0)"/>
<path d="" fill="#3D3A36" transform="translate(0,0)"/>
<path d="M0 0 C2 1 2 1 2 1 Z " fill="#3D3A36" transform="translate(220,496)"/>
<path d="M0 0 C2 1 2 1 2 1 Z " fill="#3D3A36" transform="translate(825,495)"/>
<path d="M0 0 C2 1 2 1 2 1 Z " fill="#3D3A36" transform="translate(699,486)"/>
<path d="" fill="#3D3A36" transform="translate(0,0)"/>
<path d="M0 0 C2 1 2 1 2 1 Z " fill="#3D3A36" transform="translate(320,472)"/>
<path d="M0 0 C2 1 2 1 2 1 Z " fill="#3D3A36" transform="translate(447,471)"/>
<path d="M0 0 C2 1 2 1 2 1 Z " fill="#3D3A36" transform="translate(362,464)"/>
<path d="M0 0 C2 1 2 1 2 1 Z " fill="#3D3A36" transform="translate(430,448)"/>
<path d="" fill="#3D3A36" transform="translate(0,0)"/>
<path d="" fill="#3D3A36" transform="translate(0,0)"/>
<path d="M0 0 C2 1 2 1 2 1 Z " fill="#3D3A36" transform="translate(582,422)"/>
<path d="" fill="#3D3A36" transform="translate(0,0)"/>
<path d="M0 0 C2 1 2 1 2 1 Z " fill="#3D3A36" transform="translate(651,406)"/>
<path d="M0 0 C2 1 2 1 2 1 Z " fill="#3D3A36" transform="translate(754,393)"/>
<path d="" fill="#3D3A36" transform="translate(0,0)"/>
<path d="M0 0 C2 1 2 1 2 1 Z " fill="#3D3A36" transform="translate(687,385)"/>
<path d="M0 0 C2 1 2 1 2 1 Z " fill="#3D3A36" transform="translate(595,384)"/>
<path d="M0 0 C2 1 2 1 2 1 Z " fill="#3D3A36" transform="translate(817,331)"/>
<path d="M0 0 C2 1 2 1 2 1 Z " fill="#3D3A36" transform="translate(766,326)"/>
<path d="M0 0 C2 1 2 1 2 1 Z " fill="#3D3A36" transform="translate(763,326)"/>
<path d="M0 0 C2 1 2 1 2 1 Z " fill="#3D3A36" transform="translate(612,311)"/>
<path d="M0 0 C2 1 2 1 2 1 Z " fill="#3D3A36" transform="translate(609,311)"/>
<path d="M0 0 C2 1 2 1 2 1 Z " fill="#3D3A36" transform="translate(802,304)"/>
<path d="" fill="#3D3A36" transform="translate(0,0)"/>
<path d="" fill="#3D3A36" transform="translate(0,0)"/>
<path d="" fill="#3D3A36" transform="translate(0,0)"/>
<path d="" fill="#3D3A36" transform="translate(0,0)"/>
<path d="" fill="#3D3A36" transform="translate(0,0)"/>
<path d="" fill="#3D3A36" transform="translate(0,0)"/>
<path d="" fill="#3D3A36" transform="translate(0,0)"/>
<path d="" fill="#3D3A36" transform="translate(0,0)"/>
<path d="" fill="#3D3A36" transform="translate(0,0)"/>
<path d="" fill="#3D3A36" transform="translate(0,0)"/>
<path d="" fill="#3D3A36" transform="translate(0,0)"/>
<path d="" fill="#3D3A36" transform="translate(0,0)"/>
<path d="" fill="#3D3A36" transform="translate(0,0)"/>
<path d="" fill="#3D3A36" transform="translate(0,0)"/>
<path d="" fill="#3D3A36" transform="translate(0,0)"/>
<path d="" fill="#3D3A36" transform="translate(0,0)"/>
<path d="" fill="#3D3A36" transform="translate(0,0)"/>
<path d="" fill="#3D3A36" transform="translate(0,0)"/>
<path d="" fill="#3D3A36" transform="translate(0,0)"/>
<path d="" fill="#3D3A36" transform="translate(0,0)"/>
<path d="" fill="#3D3A36" transform="translate(0,0)"/>
<path d="" fill="#3D3A36" transform="translate(0,0)"/>
<path d="" fill="#3D3A36" transform="translate(0,0)"/>
<path d="" fill="#3D3A36" transform="translate(0,0)"/>
<path d="" fill="#3D3A36" transform="translate(0,0)"/>
<path d="" fill="#3D3A36" transform="translate(0,0)"/>
<path d="" fill="#3D3A36" transform="translate(0,0)"/>
<path d="" fill="#3D3A36" transform="translate(0,0)"/>
<path d="" fill="#3D3A36" transform="translate(0,0)"/>
<path d="" fill="#3D3A36" transform="translate(0,0)"/>
<path d="" fill="#3D3A36" transform="translate(0,0)"/>
<path d="" fill="#3D3A36" transform="translate(0,0)"/>
<path d="" fill="#3D3A36" transform="translate(0,0)"/>
<path d="" fill="#3D3A36" transform="translate(0,0)"/>
<path d="" fill="#3D3A36" transform="translate(0,0)"/>
<path d="" fill="#3D3A36" transform="translate(0,0)"/>
<path d="" fill="#3D3A36" transform="translate(0,0)"/>
<path d="" fill="#3D3A36" transform="translate(0,0)"/>
<path d="" fill="#3D3A36" transform="translate(0,0)"/>
<path d="" fill="#3D3A36" transform="translate(0,0)"/>
<path d="" fill="#3D3A36" transform="translate(0,0)"/>
<path d="" fill="#3D3A36" transform="translate(0,0)"/>
<path d="" fill="#3D3A36" transform="translate(0,0)"/>
<path d="" fill="#3D3A36" transform="translate(0,0)"/>
<path d="" fill="#3D3A36" transform="translate(0,0)"/>
<path d="" fill="#3D3A36" transform="translate(0,0)"/>
<path d="" fill="#3D3A36" transform="translate(0,0)"/>
<path d="" fill="#3D3A36" transform="translate(0,0)"/>
<path d="" fill="#3D3A36" transform="translate(0,0)"/>
<path d="" fill="#3D3A36" transform="translate(0,0)"/>
<path d="" fill="#3D3A36" transform="translate(0,0)"/>
<path d="" fill="#3D3A36" transform="translate(0,0)"/>
<path d="" fill="#3D3A36" transform="translate(0,0)"/>
<path d="" fill="#3D3A36" transform="translate(0,0)"/>
<path d="" fill="#3D3A36" transform="translate(0,0)"/>
<path d="" fill="#3D3A36" transform="translate(0,0)"/>
<path d="" fill="#3D3A36" transform="translate(0,0)"/>
<path d="" fill="#3D3A36" transform="translate(0,0)"/>
<path d="" fill="#3D3A36" transform="translate(0,0)"/>
<path d="" fill="#3D3A36" transform="translate(0,0)"/>
<path d="" fill="#3D3A36" transform="translate(0,0)"/>
<path d="" fill="#3D3A36" transform="translate(0,0)"/>
<path d="" fill="#3D3A36" transform="translate(0,0)"/>
<path d="" fill="#3D3A36" transform="translate(0,0)"/>
<path d="" fill="#3D3A36" transform="translate(0,0)"/>
<path d="" fill="#3D3A36" transform="translate(0,0)"/>
<path d="" fill="#3D3A36" transform="translate(0,0)"/>
<path d="" fill="#3D3A36" transform="translate(0,0)"/>
<path d="" fill="#3D3A36" transform="translate(0,0)"/>
<path d="" fill="#3D3A36" transform="translate(0,0)"/>
<path d="" fill="#3D3A36" transform="translate(0,0)"/>
<path d="" fill="#3D3A36" transform="translate(0,0)"/>
<path d="" fill="#3D3A36" transform="translate(0,0)"/>
<path d="" fill="#3D3A36" transform="translate(0,0)"/>
<path d="" fill="#3D3A36" transform="translate(0,0)"/>
<path d="" fill="#3D3A36" transform="translate(0,0)"/>
<path d="" fill="#3D3A36" transform="translate(0,0)"/>
<path d="" fill="#3D3A36" transform="translate(0,0)"/>
<path d="" fill="#3D3A36" transform="translate(0,0)"/>
<path d="" fill="#3D3A36" transform="translate(0,0)"/>
<path d="" fill="#3D3A36" transform="translate(0,0)"/>
<path d="" fill="#3D3A36" transform="translate(0,0)"/>
<path d="" fill="#3D3A36" transform="translate(0,0)"/>
<path d="" fill="#3D3A36" transform="translate(0,0)"/>
<path d="" fill="#3D3A36" transform="translate(0,0)"/>
<path d="" fill="#3D3A36" transform="translate(0,0)"/>
<path d="" fill="#3D3A36" transform="translate(0,0)"/>
<path d="" fill="#3D3A36" transform="translate(0,0)"/>
<path d="" fill="#3D3A36" transform="translate(0,0)"/>
<path d="" fill="#3D3A36" transform="translate(0,0)"/>
<path d="" fill="#3D3A36" transform="translate(0,0)"/>
<path d="" fill="#3D3A36" transform="translate(0,0)"/>
<path d="" fill="#3D3A36" transform="translate(0,0)"/>
<path d="" fill="#3D3A36" transform="translate(0,0)"/>
<path d="" fill="#3D3A36" transform="translate(0,0)"/>
<path d="" fill="#3D3A36" transform="translate(0,0)"/>
<path d="" fill="#3D3A36" transform="translate(0,0)"/>
<path d="" fill="#3D3A36" transform="translate(0,0)"/>
<path d="" fill="#3D3A36" transform="translate(0,0)"/>
<path d="" fill="#3D3A36" transform="translate(0,0)"/>
<path d="" fill="#3D3A36" transform="translate(0,0)"/>
<path d="" fill="#3D3A36" transform="translate(0,0)"/>
<path d="" fill="#3D3A36" transform="translate(0,0)"/>
<path d="" fill="#3D3A36" transform="translate(0,0)"/>
<path d="" fill="#3D3A36" transform="translate(0,0)"/>
<path d="" fill="#3D3A36" transform="translate(0,0)"/>
<path d="" fill="#3D3A36" transform="translate(0,0)"/>
<path d="" fill="#3D3A36" transform="translate(0,0)"/>
<path d="" fill="#3D3A36" transform="translate(0,0)"/>
<path d="" fill="#3D3A36" transform="translate(0,0)"/>
<path d="" fill="#3D3A36" transform="translate(0,0)"/>
<path d="" fill="#3D3A36" transform="translate(0,0)"/>
<path d="" fill="#3D3A36" transform="translate(0,0)"/>
<path d="" fill="#3D3A36" transform="translate(0,0)"/>
<path d="" fill="#3D3A36" transform="translate(0,0)"/>
<path d="" fill="#3D3A36" transform="translate(0,0)"/>
<path d="" fill="#3D3A36" transform="translate(0,0)"/>
<path d="" fill="#3D3A36" transform="translate(0,0)"/>
<path d="" fill="#3D3A36" transform="translate(0,0)"/>
<path d="" fill="#3D3A36" transform="translate(0,0)"/>
<path d="" fill="#3D3A36" transform="translate(0,0)"/>
<path d="" fill="#3D3A36" transform="translate(0,0)"/>
<path d="" fill="#3D3A36" transform="translate(0,0)"/>
<path d="" fill="#3D3A36" transform="translate(0,0)"/>
<path d="" fill="#3D3A36" transform="translate(0,0)"/>
<path d="" fill="#3D3A36" transform="translate(0,0)"/>
<path d="" fill="#3D3A36" transform="translate(0,0)"/>
<path d="" fill="#3D3A36" transform="translate(0,0)"/>
<path d="" fill="#3D3A36" transform="translate(0,0)"/>
<path d="" fill="#3D3A36" transform="translate(0,0)"/>
<path d="" fill="#3D3A36" transform="translate(0,0)"/>
<path d="" fill="#3D3A36" transform="translate(0,0)"/>
<path d="" fill="#3D3A36" transform="translate(0,0)"/>
<path d="" fill="#3D3A36" transform="translate(0,0)"/>
<path d="" fill="#3D3A36" transform="translate(0,0)"/>
<path d="" fill="#3D3A36" transform="translate(0,0)"/>
<path d="" fill="#3D3A36" transform="translate(0,0)"/>
<path d="" fill="#3D3A36" transform="translate(0,0)"/>
<path d="" fill="#3D3A36" transform="translate(0,0)"/>
<path d="" fill="#3D3A36" transform="translate(0,0)"/>
<path d="" fill="#3D3A36" transform="translate(0,0)"/>
<path d="" fill="#3D3A36" transform="translate(0,0)"/>
<path d="" fill="#3D3A36" transform="translate(0,0)"/>
<path d="" fill="#3D3A36" transform="translate(0,0)"/>
<path d="" fill="#3D3A36" transform="translate(0,0)"/>
<path d="" fill="#3D3A36" transform="translate(0,0)"/>
<path d="" fill="#3D3A36" transform="translate(0,0)"/>
<path d="" fill="#3D3A36" transform="translate(0,0)"/>
<path d="" fill="#3D3A36" transform="translate(0,0)"/>
<path d="" fill="#3D3A36" transform="translate(0,0)"/>
<path d="" fill="#3D3A36" transform="translate(0,0)"/>
<path d="" fill="#3D3A36" transform="translate(0,0)"/>
<path d="" fill="#3D3A36" transform="translate(0,0)"/>
<path d="" fill="#3D3A36" transform="translate(0,0)"/>
<path d="" fill="#3D3A36" transform="translate(0,0)"/>
<path d="" fill="#3D3A36" transform="translate(0,0)"/>
<path d="" fill="#3D3A36" transform="translate(0,0)"/>
<path d="" fill="#3D3A36" transform="translate(0,0)"/>
<path d="" fill="#3D3A36" transform="translate(0,0)"/>
<path d="" fill="#3D3A36" transform="translate(0,0)"/>
<path d="" fill="#3D3A36" transform="translate(0,0)"/>
<path d="" fill="#3D3A36" transform="translate(0,0)"/>
<path d="" fill="#3D3A36" transform="translate(0,0)"/>
<path d="" fill="#3D3A36" transform="translate(0,0)"/>
<path d="" fill="#3D3A36" transform="translate(0,0)"/>
<path d="" fill="#3D3A36" transform="translate(0,0)"/>
<path d="" fill="#3D3A36" transform="translate(0,0)"/>
<path d="" fill="#3D3A36" transform="translate(0,0)"/>
<path d="" fill="#3D3A36" transform="translate(0,0)"/>
<path d="" fill="#3D3A36" transform="translate(0,0)"/>
<path d="" fill="#3D3A36" transform="translate(0,0)"/>
<path d="" fill="#3D3A36" transform="translate(0,0)"/>
<path d="" fill="#3D3A36" transform="translate(0,0)"/>
<path d="" fill="#3D3A36" transform="translate(0,0)"/>
<path d="" fill="#3D3A36" transform="translate(0,0)"/>
<path d="" fill="#3D3A36" transform="translate(0,0)"/>
<path d="" fill="#3D3A36" transform="translate(0,0)"/>
<path d="" fill="#3D3A36" transform="translate(0,0)"/>
<path d="" fill="#3D3A36" transform="translate(0,0)"/>
<path d="" fill="#3D3A36" transform="translate(0,0)"/>
<path d="" fill="#3D3A36" transform="translate(0,0)"/>
<path d="" fill="#3D3A36" transform="translate(0,0)"/>
<path d="" fill="#3D3A36" transform="translate(0,0)"/>
<path d="" fill="#3D3A36" transform="translate(0,0)"/>
<path d="" fill="#3D3A36" transform="translate(0,0)"/>
<path d="" fill="#3D3A36" transform="translate(0,0)"/>
<path d="" fill="#3D3A36" transform="translate(0,0)"/>
<path d="" fill="#3D3A36" transform="translate(0,0)"/>
<path d="" fill="#3D3A36" transform="translate(0,0)"/>
<path d="" fill="#3D3A36" transform="translate(0,0)"/>
<path d="" fill="#3D3A36" transform="translate(0,0)"/>
<path d="" fill="#3D3A36" transform="translate(0,0)"/>
<path d="" fill="#3D3A36" transform="translate(0,0)"/>
<path d="" fill="#3D3A36" transform="translate(0,0)"/>
<path d="" fill="#3D3A36" transform="translate(0,0)"/>
<path d="" fill="#3D3A36" transform="translate(0,0)"/>
<path d="" fill="#3D3A36" transform="translate(0,0)"/>
<path d="" fill="#3D3A36" transform="translate(0,0)"/>
<path d="" fill="#3D3A36" transform="translate(0,0)"/>
<path d="" fill="#3D3A36" transform="translate(0,0)"/>
<path d="" fill="#3D3A36" transform="translate(0,0)"/>
<path d="" fill="#3D3A36" transform="translate(0,0)"/>
<path d="" fill="#3D3A36" transform="translate(0,0)"/>
<path d="" fill="#3D3A36" transform="translate(0,0)"/>
<path d="" fill="#3D3A36" transform="translate(0,0)"/>
<path d="" fill="#3D3A36" transform="translate(0,0)"/>
<path d="" fill="#3D3A36" transform="translate(0,0)"/>
<path d="" fill="#3D3A36" transform="translate(0,0)"/>
<path d="" fill="#3D3A36" transform="translate(0,0)"/>
<path d="" fill="#3D3A36" transform="translate(0,0)"/>
<path d="" fill="#3D3A36" transform="translate(0,0)"/>
<path d="" fill="#3D3A36" transform="translate(0,0)"/>
<path d="" fill="#3D3A36" transform="translate(0,0)"/>
<path d="" fill="#3D3A36" transform="translate(0,0)"/>
<path d="" fill="#3D3A36" transform="translate(0,0)"/>
<path d="" fill="#3D3A36" transform="translate(0,0)"/>
<path d="" fill="#3D3A36" transform="translate(0,0)"/>
<path d="" fill="#3D3A36" transform="translate(0,0)"/>
<path d="" fill="#3D3A36" transform="translate(0,0)"/>
<path d="" fill="#3D3A36" transform="translate(0,0)"/>
<path d="" fill="#3D3A36" transform="translate(0,0)"/>
<path d="" fill="#3D3A36" transform="translate(0,0)"/>
<path d="" fill="#3D3A36" transform="translate(0,0)"/>
<path d="" fill="#3D3A36" transform="translate(0,0)"/>
<path d="" fill="#3D3A36" transform="translate(0,0)"/>
<path d="" fill="#3D3A36" transform="translate(0,0)"/>
<path d="" fill="#3D3A36" transform="translate(0,0)"/>
<path d="" fill="#3D3A36" transform="translate(0,0)"/>
<path d="" fill="#3D3A36" transform="translate(0,0)"/>
<path d="" fill="#3D3A36" transform="translate(0,0)"/>
<path d="" fill="#3D3A36" transform="translate(0,0)"/>
<path d="" fill="#3D3A36" transform="translate(0,0)"/>
<path d="" fill="#3D3A36" transform="translate(0,0)"/>
<path d="" fill="#3D3A36" transform="translate(0,0)"/>
<path d="" fill="#3D3A36" transform="translate(0,0)"/>
<path d="" fill="#3D3A36" transform="translate(0,0)"/>
<path d="" fill="#3D3A36" transform="translate(0,0)"/>
<path d="" fill="#3D3A36" transform="translate(0,0)"/>
<path d="" fill="#3D3A36" transform="translate(0,0)"/>
<path d="" fill="#3D3A36" transform="translate(0,0)"/>
<path d="" fill="#3D3A36" transform="translate(0,0)"/>
<path d="" fill="#3D3A36" transform="translate(0,0)"/>
<path d="" fill="#3D3A36" transform="translate(0,0)"/>
<path d="" fill="#3D3A36" transform="translate(0,0)"/>
<path d="" fill="#3D3A36" transform="translate(0,0)"/>
<path d="" fill="#3D3A36" transform="translate(0,0)"/>
<path d="" fill="#3D3A36" transform="translate(0,0)"/>
<path d="" fill="#3D3A36" transform="translate(0,0)"/>
<path d="" fill="#3D3A36" transform="translate(0,0)"/>
<path d="" fill="#3D3A36" transform="translate(0,0)"/>
<path d="" fill="#3D3A36" transform="translate(0,0)"/>
<path d="" fill="#3D3A36" transform="translate(0,0)"/>
<path d="" fill="#3D3A36" transform="translate(0,0)"/>
<path d="" fill="#3D3A36" transform="translate(0,0)"/>
<path d="" fill="#3D3A36" transform="translate(0,0)"/>
<path d="" fill="#3D3A36" transform="translate(0,0)"/>
<path d="" fill="#3D3A36" transform="translate(0,0)"/>
<path d="" fill="#3D3A36" transform="translate(0,0)"/>
<path d="" fill="#3D3A36" transform="translate(0,0)"/>
<path d="" fill="#3D3A36" transform="translate(0,0)"/>
<path d="" fill="#3D3A36" transform="translate(0,0)"/>
<path d="" fill="#3D3A36" transform="translate(0,0)"/>
<path d="" fill="#3D3A36" transform="translate(0,0)"/>
<path d="" fill="#3D3A36" transform="translate(0,0)"/>
<path d="" fill="#3D3A36" transform="translate(0,0)"/>
<path d="" fill="#3D3A36" transform="translate(0,0)"/>
<path d="" fill="#3D3A36" transform="translate(0,0)"/>
<path d="" fill="#3D3A36" transform="translate(0,0)"/>
<path d="" fill="#3D3A36" transform="translate(0,0)"/>
<path d="" fill="#3D3A36" transform="translate(0,0)"/>
<path d="" fill="#3D3A36" transform="translate(0,0)"/>
<path d="" fill="#3D3A36" transform="translate(0,0)"/>
<path d="" fill="#3D3A36" transform="translate(0,0)"/>
<path d="" fill="#3D3A36" transform="translate(0,0)"/>
<path d="" fill="#3D3A36" transform="translate(0,0)"/>
<path d="" fill="#3D3A36" transform="translate(0,0)"/>
<path d="" fill="#3D3A36" transform="translate(0,0)"/>
<path d="" fill="#3D3A36" transform="translate(0,0)"/>
<path d="" fill="#3D3A36" transform="translate(0,0)"/>
<path d="" fill="#3D3A36" transform="translate(0,0)"/>
<path d="" fill="#3D3A36" transform="translate(0,0)"/>
<path d="" fill="#3D3A36" transform="translate(0,0)"/>
<path d="" fill="#3D3A36" transform="translate(0,0)"/>
<path d="" fill="#3D3A36" transform="translate(0,0)"/>
<path d="" fill="#3D3A36" transform="translate(0,0)"/>
<path d="" fill="#3D3A36" transform="translate(0,0)"/>
<path d="" fill="#3D3A36" transform="translate(0,0)"/>
<path d="" fill="#3D3A36" transform="translate(0,0)"/>
<path d="" fill="#3D3A36" transform="translate(0,0)"/>
<path d="" fill="#3D3A36" transform="translate(0,0)"/>
<path d="" fill="#3D3A36" transform="translate(0,0)"/>
<path d="" fill="#3D3A36" transform="translate(0,0)"/>
<path d="" fill="#3D3A36" transform="translate(0,0)"/>
<path d="" fill="#3D3A36" transform="translate(0,0)"/>
<path d="" fill="#3D3A36" transform="translate(0,0)"/>
<path d="" fill="#3D3A36" transform="translate(0,0)"/>
<path d="" fill="#3D3A36" transform="translate(0,0)"/>
<path d="" fill="#3D3A36" transform="translate(0,0)"/>
<path d="" fill="#3D3A36" transform="translate(0,0)"/>
<path d="" fill="#3D3A36" transform="translate(0,0)"/>
<path d="" fill="#3D3A36" transform="translate(0,0)"/>
<path d="" fill="#3D3A36" transform="translate(0,0)"/>
<path d="" fill="#3D3A36" transform="translate(0,0)"/>
<path d="" fill="#3D3A36" transform="translate(0,0)"/>
<path d="" fill="#3D3A36" transform="translate(0,0)"/>
<path d="" fill="#3D3A36" transform="translate(0,0)"/>
<path d="" fill="#3D3A36" transform="translate(0,0)"/>
<path d="" fill="#3D3A36" transform="translate(0,0)"/>
<path d="" fill="#3D3A36" transform="translate(0,0)"/>
<path d="" fill="#3D3A36" transform="translate(0,0)"/>
<path d="" fill="#3D3A36" transform="translate(0,0)"/>
<path d="" fill="#3D3A36" transform="translate(0,0)"/>
<path d="" fill="#3D3A36" transform="translate(0,0)"/>
<path d="" fill="#3D3A36" transform="translate(0,0)"/>
<path d="" fill="#3D3A36" transform="translate(0,0)"/>
<path d="" fill="#3D3A36" transform="translate(0,0)"/>
<path d="" fill="#3D3A36" transform="translate(0,0)"/>
<path d="" fill="#3D3A36" transform="translate(0,0)"/>
<path d="" fill="#3D3A36" transform="translate(0,0)"/>
<path d="" fill="#3D3A36" transform="translate(0,0)"/>
<path d="" fill="#3D3A36" transform="translate(0,0)"/>
<path d="" fill="#3D3A36" transform="translate(0,0)"/>
<path d="" fill="#3D3A36" transform="translate(0,0)"/>
<path d="" fill="#3D3A36" transform="translate(0,0)"/>
<path d="" fill="#3D3A36" transform="translate(0,0)"/>
<path d="" fill="#3D3A36" transform="translate(0,0)"/>
<path d="" fill="#3D3A36" transform="translate(0,0)"/>
<path d="" fill="#3D3A36" transform="translate(0,0)"/>
<path d="" fill="#3D3A36" transform="translate(0,0)"/>
<path d="" fill="#3D3A36" transform="translate(0,0)"/>
<path d="" fill="#3D3A36" transform="translate(0,0)"/>
<path d="" fill="#3D3A36" transform="translate(0,0)"/>
<path d="" fill="#3D3A36" transform="translate(0,0)"/>
<path d="" fill="#3D3A36" transform="translate(0,0)"/>
<path d="" fill="#3D3A36" transform="translate(0,0)"/>
<path d="" fill="#3D3A36" transform="translate(0,0)"/>
<path d="" fill="#3D3A36" transform="translate(0,0)"/>
<path d="" fill="#3D3A36" transform="translate(0,0)"/>
<path d="" fill="#3D3A36" transform="translate(0,0)"/>
<path d="" fill="#3D3A36" transform="translate(0,0)"/>
<path d="" fill="#3D3A36" transform="translate(0,0)"/>
<path d="" fill="#3D3A36" transform="translate(0,0)"/>
<path d="" fill="#3D3A36" transform="translate(0,0)"/>
<path d="" fill="#3D3A36" transform="translate(0,0)"/>
<path d="" fill="#3D3A36" transform="translate(0,0)"/>
<path d="" fill="#3D3A36" transform="translate(0,0)"/>
<path d="" fill="#3D3A36" transform="translate(0,0)"/>
<path d="" fill="#3D3A36" transform="translate(0,0)"/>
<path d="" fill="#3D3A36" transform="translate(0,0)"/>
<path d="" fill="#3D3A36" transform="translate(0,0)"/>
<path d="" fill="#3D3A36" transform="translate(0,0)"/>
<path d="" fill="#3D3A36" transform="translate(0,0)"/>
<path d="" fill="#3D3A36" transform="translate(0,0)"/>
<path d="" fill="#3D3A36" transform="translate(0,0)"/>
<path d="" fill="#3D3A36" transform="translate(0,0)"/>
<path d="" fill="#3D3A36" transform="translate(0,0)"/>
<path d="" fill="#3D3A36" transform="translate(0,0)"/>
<path d="" fill="#3D3A36" transform="translate(0,0)"/>
<path d="" fill="#3D3A36" transform="translate(0,0)"/>
<path d="" fill="#3D3A36" transform="translate(0,0)"/>
<path d="" fill="#3D3A36" transform="translate(0,0)"/>
<path d="" fill="#3D3A36" transform="translate(0,0)"/>
<path d="" fill="#3D3A36" transform="translate(0,0)"/>
<path d="" fill="#3D3A36" transform="translate(0,0)"/>
<path d="" fill="#3D3A36" transform="translate(0,0)"/>
<path d="" fill="#3D3A36" transform="translate(0,0)"/>
<path d="" fill="#3D3A36" transform="translate(0,0)"/>
<path d="" fill="#3D3A36" transform="translate(0,0)"/>
<path d="" fill="#3D3A36" transform="translate(0,0)"/>
<path d="" fill="#3D3A36" transform="translate(0,0)"/>
<path d="" fill="#3D3A36" transform="translate(0,0)"/>
<path d="" fill="#3D3A36" transform="translate(0,0)"/>
<path d="" fill="#3D3A36" transform="translate(0,0)"/>
<path d="" fill="#3D3A36" transform="translate(0,0)"/>
<path d="" fill="#3D3A36" transform="translate(0,0)"/>
<path d="" fill="#3D3A36" transform="translate(0,0)"/>
<path d="" fill="#3D3A36" transform="translate(0,0)"/>
<path d="" fill="#3D3A36" transform="translate(0,0)"/>
<path d="" fill="#3D3A36" transform="translate(0,0)"/>
<path d="" fill="#3D3A36" transform="translate(0,0)"/>
<path d="" fill="#3D3A36" transform="translate(0,0)"/>
<path d="" fill="#3D3A36" transform="translate(0,0)"/>
<path d="" fill="#3D3A36" transform="translate(0,0)"/>
<path d="" fill="#3D3A36" transform="translate(0,0)"/>
<path d="" fill="#3D3A36" transform="translate(0,0)"/>
<path d="" fill="#3D3A36" transform="translate(0,0)"/>
<path d="" fill="#3D3A36" transform="translate(0,0)"/>
<path d="" fill="#3D3A36" transform="translate(0,0)"/>
<path d="" fill="#3D3A36" transform="translate(0,0)"/>
<path d="" fill="#3D3A36" transform="translate(0,0)"/>
<path d="" fill="#3D3A36" transform="translate(0,0)"/>
<path d="" fill="#3D3A36" transform="translate(0,0)"/>
<path d="" fill="#3D3A36" transform="translate(0,0)"/>
<path d="" fill="#3D3A36" transform="translate(0,0)"/>
<path d="" fill="#3D3A36" transform="translate(0,0)"/>
<path d="" fill="#3D3A36" transform="translate(0,0)"/>
<path d="" fill="#3D3A36" transform="translate(0,0)"/>
<path d="" fill="#3D3A36" transform="translate(0,0)"/>
<path d="" fill="#3D3A36" transform="translate(0,0)"/>
<path d="" fill="#3D3A36" transform="translate(0,0)"/>
<path d="" fill="#3D3A36" transform="translate(0,0)"/>
<path d="" fill="#3D3A36" transform="translate(0,0)"/>
<path d="" fill="#3D3A36" transform="translate(0,0)"/>
</svg>
