<?xml version="1.0" encoding="UTF-8"?>
<svg version="1.1" xmlns="http://www.w3.org/2000/svg" width="1024" height="1024">
<path d="M0 0 C1.28003906 -0.00773437 2.56007812 -0.01546875 3.87890625 -0.0234375 C11.54890402 -0.00757401 18.46561198 0.00867332 25.3125 3.8125 C30.61228099 9.71797024 31.17495823 18.44861539 32.10986328 26.04638672 C32.31293594 27.60657784 32.31293594 27.60657784 32.52011108 29.19828796 C32.96187019 32.60773666 33.39104718 36.01864536 33.8203125 39.4296875 C34.12664081 41.80871634 34.43385439 44.18763134 34.74191284 46.56643677 C35.54820695 52.80806737 36.34423866 59.05096104 37.13757324 65.29425049 C38.41176434 75.308282 39.70130018 85.32034686 40.99139023 95.33234024 C41.44056179 98.83019214 41.88518601 102.32859942 42.32913208 105.82711792 C42.60229962 107.96141786 42.87555912 110.09570603 43.14892578 112.22998047 C43.33282867 113.69338615 43.33282867 113.69338615 43.52044678 115.18635559 C43.63528412 116.07778763 43.75012146 116.96921967 43.86843872 117.88766479 C43.96686129 118.66226484 44.06528385 119.43686489 44.16668892 120.23493767 C44.47836375 122.44704228 44.47836375 122.44704228 45.5 125.25 C45.80326508 127.99871509 46.06850969 130.74203595 46.3125 133.49609375 C47.53797355 146.44715523 49.2436594 159.33516647 50.95898438 172.22875977 C51.41705073 175.67511946 51.8646952 179.12275435 52.31015015 182.57076359 C52.74150461 185.8931518 53.18395606 189.21404054 53.625 192.53515625 C53.78339355 193.76935806 53.94178711 195.00355988 54.10498047 196.27516174 C54.25854004 197.41162643 54.41209961 198.54809113 54.5703125 199.71899414 C54.70195801 200.71790176 54.83360352 201.71680939 54.96923828 202.74598694 C55.38796693 205.48290517 55.38796693 205.48290517 57.5 208.25 C60.4648745 208.5308473 63.21936644 208.61758654 66.18481445 208.57470703 C67.53382843 208.57295471 67.53382843 208.57295471 68.91009521 208.57116699 C71.8947215 208.56395671 74.87878273 208.5357186 77.86328125 208.5078125 C79.93352244 208.49967887 82.00376988 208.49301469 84.07402039 208.48776245 C89.53518497 208.47060882 94.99610339 208.43634411 100.45715332 208.39770508 C109.18820516 208.33862349 117.9193807 208.30462064 126.65056419 208.27193832 C129.70226827 208.25797725 132.75384628 208.23637838 135.80549622 208.21365356 C137.67933056 208.20362738 139.55316578 208.19376163 141.42700195 208.18408203 C142.27550217 208.17577362 143.12400238 208.16746521 143.99821472 208.15890503 C145.17796371 208.15446381 145.17796371 208.15446381 146.38154602 208.14993286 C147.0601534 208.14511461 147.73876078 208.14029636 148.43793201 208.13533211 C150.5 208.25 150.5 208.25 155.5 209.25 C155.5 188.79 155.5 168.33 155.5 147.25 C153.85 147.25 152.2 147.25 150.5 147.25 C150.5 146.92 150.5 146.59 150.5 146.25 C149.61739502 146.23018066 148.73479004 146.21036133 147.82543945 146.18994141 C144.53578043 146.11162134 141.24656036 146.02492145 137.95727539 145.93261719 C136.5364627 145.89444851 135.11555737 145.85957487 133.69458008 145.828125 C131.64631145 145.78220935 129.59867392 145.72426195 127.55078125 145.6640625 C126.32012939 145.6326416 125.08947754 145.6012207 123.8215332 145.56884766 C119.60451072 145.16403829 116.62871539 144.49964918 113.75 141.3125 C111.0848208 136.91495432 111.41843783 133.22529249 111.5 128.25 C110.84 128.25 110.18 128.25 109.5 128.25 C109.5 126.6 109.5 124.95 109.5 123.25 C110.16 123.25 110.82 123.25 111.5 123.25 C111.335 122.321875 111.17 121.39375 111 120.4375 C110.56102724 117.63904866 110.5 115.06973401 110.5 112.25 C110.18197057 110.58034549 109.85015049 108.91321482 109.5 107.25 C110.16 106.92 110.82 106.59 111.5 106.25 C111.5 105.59 111.5 104.93 111.5 104.25 C110.84 104.25 110.18 104.25 109.5 104.25 C109.5 102.6 109.5 100.95 109.5 99.25 C110.16 99.25 110.82 99.25 111.5 99.25 C111.87125 97.3628125 111.87125 97.3628125 112.25 95.4375 C112.95982115 92.60821288 113.30798547 91.44841501 115.375 89.3125 C119.78307145 87.10846428 123.98563869 87.11591535 128.83764648 87.15234375 C129.93907738 87.15453415 129.93907738 87.15453415 131.0627594 87.1567688 C132.65924691 87.16057278 134.25573021 87.16668724 135.85220146 87.17483521 C138.41027032 87.18769698 140.96828656 87.19414331 143.52638245 87.19897461 C149.90325592 87.21229918 156.2800818 87.23604509 162.65692139 87.26037598 C168.87413935 87.28374633 175.09134118 87.30156988 181.30859375 87.3125 C182.18335735 87.31435303 183.05812096 87.31620605 183.95939255 87.31811523 C194.96019529 87.33542217 205.9182149 87.16083022 216.91015625 86.6875 C227.08915943 86.25190872 237.13654277 86.36686464 247.31230164 86.83224487 C259.2712239 87.37202536 271.2185818 87.40117076 283.18798828 87.38037109 C286.94958316 87.37489135 290.7110644 87.38042279 294.47265625 87.38671875 C296.88541693 87.38605975 299.29817754 87.3847823 301.7109375 87.3828125 C302.82536224 87.38483673 303.93978699 87.38686096 305.08798218 87.38894653 C306.63843735 87.38421829 306.63843735 87.38421829 308.22021484 87.37939453 C309.12250824 87.37859894 310.02480164 87.37780334 310.95443726 87.37698364 C313.56055431 87.24697929 315.95113199 86.79025547 318.5 86.25 C325.68388372 85.93605135 332.90263526 86.15674825 340.08251953 86.49633789 C358.23903083 87.34656645 376.30348943 87.20097457 394.46813965 86.85510254 C398.32242396 86.7831427 402.17683717 86.71894014 406.03125 86.65429688 C410.36481638 86.5814713 414.69835806 86.50808459 419.03179932 86.42811584 C420.30553406 86.4048674 421.5792688 86.38161896 422.89160156 86.35766602 C424.00263245 86.33688492 425.11366333 86.31610382 426.25836182 86.29469299 C429.67264028 86.24761978 433.0854408 86.24255679 436.5 86.25 C436.83 85.59 437.16 84.93 437.5 84.25 C437.83 85.24 438.16 86.23 438.5 87.25 C439.43457031 87.16621094 440.36914062 87.08242188 441.33203125 86.99609375 C450.01922112 86.32260209 458.4209333 86.28163072 467.11450195 86.93139648 C471.15112736 87.21590691 474.53290391 87.21895444 478.5 86.25 C482.34501995 86.01056652 485.80753408 86.01917803 489.5 87.25 C491.28714834 87.3438368 493.07757858 87.38070531 494.8671875 87.3828125 C495.91777344 87.38410156 496.96835937 87.38539063 498.05078125 87.38671875 C499.14777344 87.38285156 500.24476563 87.37898438 501.375 87.375 C503.00888672 87.38080078 503.00888672 87.38080078 504.67578125 87.38671875 C505.72894531 87.38542969 506.78210938 87.38414062 507.8671875 87.3828125 C508.82737793 87.38168457 509.78756836 87.38055664 510.77685547 87.37939453 C513.45182425 87.25228915 515.88858196 86.82157039 518.5 86.25 C523.91500353 85.92064379 529.29558421 86.29829918 534.69140625 86.765625 C540.3222051 87.18097249 545.8866119 87.30530817 551.53125 87.2421875 C552.30424942 87.2343222 553.07724884 87.22645691 553.87367249 87.21835327 C557.06119657 87.18196822 560.24838589 87.13931502 563.43554688 87.07861328 C565.80082402 87.03620602 568.16569651 87.01285354 570.53125 86.9921875 C571.24381958 86.97356659 571.95638916 86.95494568 572.69055176 86.9357605 C577.37393805 86.91179723 580.56091374 87.70312627 584.5 90.25 C589.29994315 99.0223099 588.54007845 107.87866719 588.1875 117.5625 C588.15205078 118.84318359 588.11660156 120.12386719 588.08007812 121.44335938 C587.46953311 139.14916468 587.46953311 139.14916468 583.625 143.25 C579.08379513 145.38703759 574.62655693 145.45202011 569.671875 145.56640625 C568.67534912 145.59438293 568.67534912 145.59438293 567.65869141 145.6229248 C565.18925621 145.69095681 562.71961333 145.75127465 560.25 145.8125 C554.7225 145.956875 549.195 146.10125 543.5 146.25 C543.5 166.71 543.5 187.17 543.5 208.25 C576.17 208.25 608.84 208.25 642.5 208.25 C644.17325635 198.3741649 644.17325635 198.3741649 645.0625 188.5625 C645.39491917 182.35508083 645.39491917 182.35508083 646.5 181.25 C646.79913782 179.63775155 647.03974311 178.01458831 647.25610352 176.38916016 C647.39617325 175.34942047 647.53624298 174.30968079 647.68055725 173.23843384 C647.90249001 171.53099503 647.90249001 171.53099503 648.12890625 169.7890625 C648.28286362 168.61475677 648.43682098 167.44045105 648.59544373 166.2305603 C648.92143753 163.72726314 649.24493015 161.22363923 649.56616211 158.71972656 C650.05254334 154.95212613 650.55615167 151.18709961 651.06054688 147.421875 C652.81950989 133.95402903 654.02117379 120.83421069 653.5 107.25 C654.16 106.92 654.82 106.59 655.5 106.25 C656.78594715 102.27963915 657.07839815 98.08107738 657.57568359 93.95239258 C657.72960823 92.70036041 657.72960823 92.70036041 657.88664246 91.42303467 C658.10914598 89.61218483 658.33062153 87.80120846 658.55118942 85.99012184 C658.90168779 83.11789612 659.25638924 80.24621984 659.61245728 77.37467957 C660.62466016 69.21048436 661.63416529 61.04598213 662.62890625 52.87963867 C663.23805063 47.88140738 663.85627394 42.88436928 664.48030472 37.88797569 C664.71567719 35.98952058 664.94769964 34.09064685 665.17621994 32.19135475 C665.49743077 29.52462585 665.8302241 26.85956868 666.16552734 24.19458008 C666.25602859 23.41970749 666.34652985 22.6448349 666.43977356 21.84648132 C667.25192475 15.54757531 668.64180206 9.26957166 672 3.8125 C680.03612016 -1.2100751 691.59001002 -0.0850074 700.6875 -0.0625 C702.00169922 -0.07861328 703.31589844 -0.09472656 704.66992188 -0.11132812 C711.61493936 -0.1148304 717.27968266 0.01573584 723.5 3.25 C727.59987 7.94673646 727.7747677 12.15213751 727.5 18.25 C727.11585836 22.2062189 726.58430765 26.1387093 726.04663086 30.07666016 C725.89211267 31.24061184 725.73759449 32.40456352 725.57839394 33.60378647 C725.15473689 36.78984912 724.72662658 39.97527731 724.29687238 43.16052198 C723.83970169 46.55889935 723.38890037 49.95811982 722.93797302 53.35733032 C722.75179904 54.76033661 722.56561984 56.1633422 722.37943554 57.56634712 C722.2396198 58.62005953 722.2396198 58.62005953 722.0969795 59.69505906 C721.8096172 61.85885063 721.52158626 64.02255227 721.23338032 66.18623161 C719.19977848 81.46008008 717.2215353 96.74096866 715.25390625 112.0234375 C715.16742939 112.69503686 715.08095252 113.36663622 714.99185514 114.05858707 C714.20603125 120.16233457 713.42083713 126.2661628 712.63718605 132.37018967 C711.66110993 139.97278663 710.68181213 147.57495484 709.69860703 155.17663324 C708.98695529 160.68082705 708.27882481 166.18546718 707.5732531 171.69044363 C707.15919663 174.92027202 706.7432539 178.14983694 706.32434273 181.37903976 C702.91223083 206.55657827 702.91223083 206.55657827 703.4375 231.875 C704.21737991 240.37518043 704.80565518 248.70863567 704.5 257.25 C705.16 257.58 705.82 257.91 706.5 258.25 C706.49041512 258.98370441 706.48083023 259.71740883 706.4709549 260.47334671 C706.41847034 267.58865556 706.71895424 274.587765 707.32617188 281.67480469 C707.41395401 282.746353 707.50173615 283.81790131 707.59217834 284.92192078 C707.87993836 288.42228746 708.17442203 291.92205506 708.46875 295.421875 C708.6710517 297.87416374 708.87282523 300.32649611 709.07409668 302.77886963 C709.60267659 309.20727157 710.13651435 315.63522415 710.67205811 322.06304932 C711.53007927 332.36361499 712.38316741 342.66457988 713.23036194 352.96604156 C713.52663666 356.55351395 713.82706835 360.14062168 714.12780762 363.72772217 C714.3099852 365.93272516 714.49200068 368.13774155 714.67382812 370.34277344 C714.8000631 371.82824928 714.8000631 371.82824928 714.92884827 373.34373474 C716.13786661 388.15366677 716.13786661 388.15366677 713.5 392.6875 C710.25984521 395.45513221 708.57675288 396.19886635 704.4296875 396.42578125 C701.49431804 396.15838929 699.74967544 395.10267389 697.5 393.25 C695.04802692 389.57204038 694.92681568 386.44118547 694.5703125 382.16015625 C694.49136749 381.29729507 694.41242249 380.4344339 694.33108521 379.54542542 C694.1505401 377.56779585 693.97358449 375.58983663 693.79943848 373.6116333 C693.47240274 369.94018053 693.12774453 366.27064842 692.78027344 362.60107422 C692.17343578 356.18936148 691.5775892 349.77670514 690.98905563 343.36328697 C690.6468449 339.63505881 690.30267479 335.90703696 689.95361328 332.17944336 C689.60967843 328.50632871 689.270727 324.83278496 688.935215 321.15889168 C688.80854829 319.78065375 688.68021389 318.40256787 688.55004501 317.0246563 C687.80051705 309.07475987 687.31503304 301.23660437 687.5 293.25 C686.84 293.25 686.18 293.25 685.5 293.25 C685.51740234 291.97769531 685.51740234 291.97769531 685.53515625 290.6796875 C685.60087875 282.13576189 685.22474688 273.76577586 684.5 265.25 C682.58302063 265.39166357 680.66642277 265.53849584 678.75 265.6875 C677.68265625 265.76871094 676.6153125 265.84992188 675.515625 265.93359375 C673.06320038 266.19090773 670.86078709 266.56812218 668.5 267.25 C668.5 266.59 668.5 265.93 668.5 265.25 C667.84 265.25 667.18 265.25 666.5 265.25 C666.69335938 266.40371094 666.88671875 267.55742188 667.0859375 268.74609375 C668.59580114 278.07670018 669.74561359 287.35210542 670.4140625 296.78125 C671.43876508 310.33252143 672.94058921 323.81397065 674.5 337.3125 C675.53527194 346.28805208 676.54273899 355.26577532 677.5 364.25 C677.6848999 365.94875275 677.6848999 365.94875275 677.87353516 367.68182373 C678.22678364 370.99329183 678.55474897 374.30628991 678.875 377.62109375 C678.98400635 378.61996109 679.0930127 379.61882843 679.20532227 380.64796448 C679.82785063 387.493361 679.82785063 387.493361 678.1796875 391.29711914 C676.07655067 393.74232139 674.50245911 395.02172128 671.5 396.25 C667.43259729 396.25 665.14011333 395.64829274 661.6875 393.5 C658.28787092 388.44912252 658.13048981 383.21492806 657.5 377.25 C657.24169584 375.08932059 656.97415194 372.92996229 656.70385742 370.77075195 C656.52903924 369.36243209 656.35974561 367.95341318 656.1965332 366.54370117 C655.85163223 363.62930611 655.43156632 361.04469895 654.5 358.25 C654.43353785 355.99444066 654.50144059 353.7592882 654.5625 351.50390625 C654.59079714 349.3102429 654.59079714 349.3102429 654.02124023 347.50024414 C653.36151777 344.65215892 653.24777095 341.91328208 653.09765625 338.9921875 C652.70208288 332.24440787 652.04375762 325.5389935 651.30859375 318.8203125 C651.14346786 317.30724518 651.14346786 317.30724518 650.9750061 315.76361084 C650.51471788 311.57044249 650.04949802 307.37783901 649.58129883 303.18554688 C649.23624503 300.08507728 648.89713417 296.98399906 648.55859375 293.8828125 C648.45236191 292.94825226 648.34613007 292.01369202 648.23667908 291.05081177 C647.62429088 285.41291881 647.40216753 279.92139534 647.5 274.25 C646.84 273.92 646.18 273.59 645.5 273.25 C645.5 270.61 645.5 267.97 645.5 265.25 C611.51 265.25 577.52 265.25 542.5 265.25 C542.83 281.09 543.16 296.93 543.5 313.25 C543.57936748 325.18546843 543.64524821 337.11585063 543.62695312 349.05078125 C543.62426471 352.16396863 543.62924319 355.27712953 543.63394356 358.39031315 C543.63754934 361.44354259 543.63641406 364.49675597 543.63381577 367.54998589 C543.63315727 368.97602789 543.63393638 370.40207144 543.63629532 371.82811165 C543.63884514 373.78522842 543.6342674 375.74235052 543.62939453 377.69946289 C543.62820114 379.35094078 543.62820114 379.35094078 543.62698364 381.03578186 C543.26778451 390.12785341 543.26778451 390.12785341 540.875 393.625 C537.67311472 395.81576361 535.3645127 396.18220153 531.5 396.25 C527.24779784 394.51046275 525.49736343 392.31591195 523.5 388.25 C523.0606842 384.90621948 523.0606842 384.90621948 522.97290039 381.02685547 C522.94407304 379.95648481 522.94407304 379.95648481 522.91466331 378.86449051 C522.85599724 376.49044974 522.81977329 374.11669274 522.78515625 371.7421875 C522.75102356 370.04954293 522.7165151 368.35690589 522.68165588 366.66427612 C522.32225697 347.18832222 522.59830235 327.71284791 522.89489746 308.23797607 C522.96745667 303.36185172 523.03112378 298.48561041 523.09570312 293.609375 C523.22212786 284.15611644 523.35863704 274.70304697 523.5 265.25 C518.22 265.25 512.94 265.25 507.5 265.25 C507.83 305.84 508.16 346.43 508.5 388.25 C507.84 388.25 507.18 388.25 506.5 388.25 C506.45875 389.013125 506.4175 389.77625 506.375 390.5625 C505.5 393.25 505.5 393.25 502.875 395.125 C498.83807445 396.47064185 496.58711509 396.38530975 492.5 395.25 C490.25 393.375 490.25 393.375 488.5 391.25 C487.97625793 390.81821442 487.45251587 390.38642883 486.91290283 389.94155884 C484.96076558 387.60441651 485.13174062 386.07985762 485.14355469 383.06005859 C485.13905304 381.47359024 485.13905304 381.47359024 485.13446045 379.85507202 C485.14680725 378.71438263 485.15915405 377.57369324 485.171875 376.3984375 C485.17374817 375.22866364 485.17562134 374.05888977 485.17755127 372.85366821 C485.18427665 370.38060659 485.19820065 367.9075557 485.21875 365.43457031 C485.24993139 361.6333639 485.25972233 357.83257166 485.265625 354.03125 C485.2747935 351.6328074 485.28516878 349.23436905 485.296875 346.8359375 C485.30112488 345.69119965 485.30537476 344.54646179 485.30975342 343.36703491 C485.32416473 341.79002304 485.32416473 341.79002304 485.33886719 340.18115234 C485.34569519 339.25088226 485.35252319 338.32061218 485.35955811 337.3621521 C485.5 335.25 485.5 335.25 486.5 334.25 C486.17 334.25 485.84 334.25 485.5 334.25 C485.5 330.62 485.5 326.99 485.5 323.25 C486.16 323.25 486.82 323.25 487.5 323.25 C486.84 322.26 486.18 321.27 485.5 320.25 C485.9375 318.125 485.9375 318.125 486.5 316.25 C486.17 315.92 485.84 315.59 485.5 315.25 C485.45758277 312.91705225 485.45907063 310.58297433 485.5 308.25 C485.5 307.59 485.5 306.93 485.5 306.25 C485.5 296.58333333 485.5 286.91666667 485.5 277.25 C485.83 277.25 486.16 277.25 486.5 277.25 C486.5 273.95 486.5 270.65 486.5 267.25 C486.17 267.25 485.84 267.25 485.5 267.25 C485.5 257.02 485.5 246.79 485.5 236.25 C485.83 236.25 486.16 236.25 486.5 236.25 C486.58636719 235.4765625 486.67273438 234.703125 486.76171875 233.90625 C487.91665347 225.34489903 489.95368109 219.19582481 496.5 213.375 C501.76305308 209.64700407 506.26553954 208.92496619 512.625 208.6875 C518.14062517 208.49322879 518.14062517 208.49322879 523.5 207.25 C523.54629168 199.59192785 523.58185303 191.93387016 523.60362434 184.27569008 C523.61407224 180.71987601 523.62824959 177.1641575 523.65087891 173.60839844 C523.67671832 169.522777 523.68646444 165.43725631 523.6953125 161.3515625 C523.70563507 160.07133209 523.71595764 158.79110168 523.72659302 157.47207642 C523.72674408 156.29100311 523.72689514 155.10992981 523.72705078 153.89306641 C523.731492 152.84937897 523.73593323 151.80569153 523.74050903 150.7303772 C523.74819002 148.07448232 523.74819002 148.07448232 521.5 146.25 C518.9184904 145.94816135 518.9184904 145.94816135 515.85029411 146.00390434 C514.03643866 145.9979312 514.03643866 145.9979312 512.18593967 145.99183738 C510.83195666 145.99754419 509.47797442 146.00343539 508.12399292 146.00949097 C506.69508511 146.00861955 505.2661776 146.00686976 503.83727181 146.00431263 C499.89680542 145.99982246 495.95644694 146.00786558 492.01599431 146.01786876 C487.77195431 146.02647703 483.52792078 146.02358496 479.28387451 146.02206421 C471.92615178 146.02101369 464.56846442 146.02730768 457.21075058 146.03853989 C446.57263544 146.05476937 435.93453747 146.06000027 425.29641129 146.06251587 C408.03825537 146.06689699 390.78011832 146.08021738 373.52197266 146.09912109 C356.75374445 146.11746912 339.98552137 146.13163089 323.21728516 146.14013672 C322.18431013 146.14066217 321.15133511 146.14118761 320.08705781 146.14172898 C314.90511046 146.14433899 309.72316307 146.14686642 304.54121566 146.14935279 C261.52746337 146.17009827 218.51373413 146.20588417 175.5 146.25 C175.5 166.71 175.5 187.17 175.5 208.25 C181.77 208.58 188.04 208.91 194.5 209.25 C203.53012048 213.76506024 203.53012048 213.76506024 205.875 217.1875 C206.33648437 217.83589844 206.79796875 218.48429688 207.2734375 219.15234375 C215.23546361 232.76892981 211.64868896 254.58048329 211.6343255 269.76517749 C211.63175672 273.34060916 211.63415187 276.91603854 211.63571167 280.49147034 C211.63752061 286.49179553 211.63516104 292.49210834 211.63037109 298.49243164 C211.62493345 305.38272898 211.62669271 312.27299669 211.6321975 319.1632933 C211.63676823 325.12816601 211.6373599 331.09302992 211.63475883 337.05790383 C211.63321734 340.59892991 211.63294263 344.13994219 211.63629532 347.68096733 C211.65617614 372.77841734 211.65617614 372.77841734 211.24169922 383.29711914 C211.19649139 384.54844131 211.15128357 385.79976349 211.10470581 387.08900452 C210.39120786 390.81869216 209.13772107 392.56174661 206.5 395.25 C203.84779691 396.34673607 201.35322561 396.454207 198.5 396.25 C194.87909244 394.67569236 193.70744716 393.56117074 191.5 390.25 C191.10986284 388.2603005 190.76797351 386.25980131 190.5 384.25 C190.17 384.25 189.84 384.25 189.5 384.25 C189.5 355.91666667 189.5 327.58333333 189.5 299.25 C189.49476318 298.53674561 189.48952637 297.82349121 189.48413086 297.08862305 C189.46331915 294.03825844 189.45035542 290.98790805 189.4375 287.9375 C189.42912109 286.87853516 189.42074219 285.81957031 189.41210938 284.72851562 C189.40888672 283.70822266 189.40566406 282.68792969 189.40234375 281.63671875 C189.39710693 280.70045654 189.39187012 279.76419434 189.38647461 278.79956055 C189.4906634 276.45968204 189.83561208 274.48750614 190.5 272.25 C190.17 272.25 189.84 272.25 189.5 272.25 C189.5 269.94 189.5 267.63 189.5 265.25 C184.88 265.58 180.26 265.91 175.5 266.25 C175.50222061 267.67074326 175.50444122 269.09148651 175.50672913 270.55528259 C175.52702026 283.95888688 175.54206106 297.3624885 175.55181217 310.7661047 C175.55695875 317.65665747 175.56397011 324.54719875 175.57543945 331.43774414 C175.58650721 338.0902205 175.59228828 344.74268807 175.59487724 351.39517403 C175.59672176 353.93041738 175.60032363 356.4656601 175.60573006 359.00089836 C175.61301206 362.55782344 175.61398792 366.1146995 175.61352539 369.67163086 C175.61712067 370.71460831 175.62071594 371.75758575 175.62442017 372.83216858 C175.602108 388.7385376 175.602108 388.7385376 172.3125 393.25 C169.12009999 395.52015112 167.41216043 396.25 163.5 396.25 C160.1875 395.0625 160.1875 395.0625 157.5 393.25 C156.625 391.0625 156.625 391.0625 156.5 389.25 C155.51 389.25 154.52 389.25 153.5 389.25 C153.5 387.27 153.5 385.29 153.5 383.25 C153.83 383.25 154.16 383.25 154.5 383.25 C154.83 344.97 155.16 306.69 155.5 267.25 C153.23515144 266.11757572 151.97813186 266.11384326 149.46310425 266.09178162 C148.61893951 266.0819928 147.77477478 266.07220398 146.9050293 266.06211853 C145.977146 266.05636307 145.0492627 266.0506076 144.09326172 266.04467773 C143.11761261 266.03477814 142.1419635 266.02487854 141.13674927 266.01467896 C137.90108698 265.98300689 134.66540999 265.95828398 131.4296875 265.93359375 C129.19051728 265.91302915 126.95135099 265.89203282 124.71218872 265.87062073 C118.81031467 265.81534904 112.90840529 265.76596226 107.00646973 265.71777344 C100.98735397 265.66759559 94.96828971 265.61189015 88.94921875 265.55664062 C77.13285645 265.44899672 65.31644951 265.34756562 53.5 265.25 C52.44856017 274.67296953 51.40488767 284.09675906 50.37078857 293.52164745 C49.89024218 297.89921364 49.40714776 302.27646556 48.91796875 306.65307617 C48.44490169 310.88642358 47.97886932 315.12049446 47.51745605 319.35512733 C47.34130879 320.96069615 47.16274032 322.56600148 46.98156738 324.17101097 C46.01879529 332.71497513 45.29862417 341.01144737 45.63378906 349.62934875 C45.49131347 352.42015116 44.83849295 353.84157852 43.5 356.25 C43.09978244 358.74228827 42.78294989 361.17680299 42.53515625 363.68359375 C42.3732631 365.15171657 42.21114683 366.6198148 42.04882812 368.08789062 C41.80353506 370.38932393 41.56213254 372.69107427 41.32543945 374.9934082 C41.0931654 377.22471913 40.84616493 379.45404106 40.59765625 381.68359375 C40.5319191 382.36707382 40.46618195 383.05055389 40.39845276 383.75474548 C39.92440953 387.93580219 38.99089538 390.84867469 36.5 394.25 C33.24253606 396.63045442 30.66054976 396.34054164 26.75 395.875 C25.76515625 395.76414062 24.7803125 395.65328125 23.765625 395.5390625 C23.01796875 395.44367188 22.2703125 395.34828125 21.5 395.25 C19.46786204 388.28266985 19.38893567 382.01592029 20.4375 374.9375 C21.24436131 368.95977849 21.68205769 363.2015784 21.47265625 357.15625 C21.5 355.25 21.5 355.25 22.5 354.25 C22.80135308 352.26826727 23.0409023 350.27710887 23.25610352 348.28417969 C23.39617325 347.00484558 23.53624298 345.72551147 23.68055725 344.40740967 C23.83030391 342.99559625 23.97974556 341.58375045 24.12890625 340.171875 C24.28422964 338.72469079 24.43974494 337.27752717 24.59544373 335.8303833 C24.92205592 332.78404718 25.24519589 329.73736563 25.56616211 326.69042969 C25.97430087 322.82005805 26.39253996 318.9508579 26.81375217 315.08189011 C27.13858764 312.08459654 27.45698433 309.08664325 27.77366447 306.08847809 C27.9250022 304.66437169 28.07844955 303.24048761 28.2341938 301.81685638 C29.20230339 292.93482174 29.68183101 284.18910143 29.5 275.25 C29.5 272.25 29.5 269.25 29.5 266.25 C24.55 265.92 19.6 265.59 14.5 265.25 C14.39623047 266.9211084 14.29246094 268.5922168 14.18554688 270.31396484 C12.86945596 291.00303906 11.21341878 311.65855304 9.46826172 332.31542969 C9.07319641 336.99426866 8.68513895 341.67366182 8.29869843 346.35321999 C7.9949408 350.01861138 7.68666884 353.68361309 7.37715149 357.34852219 C7.23207117 359.0745265 7.08853868 360.80066176 6.94670105 362.52693558 C4.71719279 389.59311417 4.71719279 389.59311417 0.9375 393.4375 C0.133125 394.035625 -0.67125 394.63375 -1.5 395.25 C-1.83 395.58 -2.16 395.91 -2.5 396.25 C-4.42578125 396.3046875 -4.42578125 396.3046875 -6.8125 396.125 C-7.98232422 396.05925781 -7.98232422 396.05925781 -9.17578125 395.9921875 C-12.52966248 394.92120022 -13.57336586 393.15078712 -15.5 390.25 C-15.96629333 387.4990387 -15.96629333 387.4990387 -15.88452148 384.24829102 C-15.87000411 383.61554795 -15.85548674 382.98280489 -15.84052944 382.33088779 C-15.47907972 370.98516855 -14.42669538 359.65459822 -13.51364064 348.34320903 C-13.23218033 344.84011408 -12.95759171 341.33648009 -12.68223572 337.832901 C-12.16038107 331.20566879 -11.63268069 324.57891634 -11.10271591 317.95232826 C-10.44443431 309.71795538 -9.79337817 301.48301388 -9.14257812 293.24804688 C-8.91292926 290.34248959 -8.68323553 287.43693586 -8.45347595 284.53138733 C-8.36979229 283.47308467 -8.36979229 283.47308467 -8.28441805 282.39340216 C-7.90394909 277.58447505 -7.52139633 272.77571665 -7.13795471 267.96702576 C-7.03550446 266.68024933 -6.9330542 265.3934729 -6.82749939 264.06770325 C-6.63847941 261.69453252 -6.44903382 259.32139564 -6.2590332 256.94830322 C-3.73913382 225.28374874 -5.43555344 196.04403058 -9.54089355 164.61572266 C-10.20677732 159.4895039 -10.85332287 154.36084692 -11.50195312 149.23242188 C-12.45046195 141.7543444 -13.40598753 134.27723054 -14.37670898 126.80200195 C-14.47597183 126.03580032 -14.57523468 125.26959869 -14.67750549 124.48017883 C-15.11666539 121.10966075 -15.57364666 117.74491604 -16.06410217 114.38127136 C-16.44642737 111.63483889 -16.60506154 109.07900023 -16.5625 106.3125 C-16.55347656 105.54035156 -16.54445312 104.76820313 -16.53515625 103.97265625 C-16.52355469 103.40417969 -16.51195312 102.83570313 -16.5 102.25 C-17.16 101.92 -17.82 101.59 -18.5 101.25 C-18.87890625 98.43359375 -18.87890625 98.43359375 -19.0625 94.6875 C-19.09931885 94.0279834 -19.1361377 93.3684668 -19.17407227 92.68896484 C-19.33467156 89.7899942 -19.4704103 86.8900501 -19.60449219 83.98974609 C-19.67463972 82.50088078 -19.7483658 81.01217912 -19.82592773 79.52368164 C-19.89957646 78.1053393 -19.96437622 76.6865063 -20.01977539 75.26733398 C-20.10708502 73.58951631 -20.29422199 71.91743831 -20.5 70.25 C-21.16 69.92 -21.82 69.59 -22.5 69.25 C-22.76848813 66.88484796 -22.91684839 64.60789041 -22.99609375 62.234375 C-23.27284931 56.41526072 -23.72741738 50.66884616 -24.47265625 44.890625 C-24.60466934 43.85500427 -24.60466934 43.85500427 -24.73934937 42.79846191 C-25.10114354 39.98985144 -25.47145157 37.18243186 -25.84594727 34.37548828 C-29.11789562 9.67242031 -29.11789562 9.67242031 -25.5 4.625 C-18.23517035 -1.12632347 -8.82073326 -0.05329748 0 0 Z M-5.5 20.25 C-7.02036106 23.29072212 -6.15462257 26.21643867 -5.71484375 29.48291016 C-5.61881709 30.23308222 -5.52279043 30.98325428 -5.42385387 31.75615883 C-5.10087358 34.26791438 -4.76913552 36.77843624 -4.4375 39.2890625 C-4.20771116 41.06354575 -3.97849978 42.83810386 -3.74983215 44.61273193 C-3.26091361 48.39843205 -2.76825889 52.18361959 -2.27261353 55.96844482 C-1.50089637 61.86182252 -0.73717635 67.75621651 0.0246582 73.65087891 C0.27905704 75.61874531 0.53346684 77.5866103 0.78788757 79.55447388 C0.91368383 80.52752598 1.03948009 81.50057808 1.16908836 82.50311661 C1.55141728 85.45804074 1.93456739 88.41285733 2.31794739 91.36764526 C4.48987167 108.11411651 6.60432666 124.86727404 8.6875 141.625 C8.98109351 143.98258791 9.27471238 146.34017266 9.56835938 148.69775391 C10.21364598 153.88166212 10.85741655 159.06575605 11.5 164.25 C13.36462016 164.25 15.2293011 164.24011489 17.09375 164.21484375 C18.0528125 164.20582031 19.011875 164.19679688 20 164.1875 C20.9590625 164.17589844 21.918125 164.16429687 22.90625 164.15234375 C25.5 164.25 25.5 164.25 28.5 165.25 C27.92080284 155.40079036 26.8779619 145.70804872 25.5 135.9375 C25.31999895 134.61267277 25.14031026 133.28780307 24.9609375 131.96289062 C24.683536 126.20671272 24.683536 126.20671272 22.5 121.25 C22.30753343 119.06341323 22.17149772 116.87182294 22.05859375 114.6796875 C21.58380101 106.52223638 20.64243122 98.47649145 19.5625 90.375 C19.39107633 89.00653542 19.2198517 87.63804589 19.04882812 86.26953125 C18.87931641 84.98691406 18.70980469 83.70429688 18.53515625 82.3828125 C18.3844165 81.22668457 18.23367676 80.07055664 18.07836914 78.87939453 C17.88750732 78.01169434 17.69664551 77.14399414 17.5 76.25 C16.84 75.92 16.18 75.59 15.5 75.25 C15.52827881 74.53271729 15.55655762 73.81543457 15.58569336 73.07641602 C15.78331214 63.78109465 14.73092448 54.86647136 13.41870117 45.6809082 C13.0587805 43.16146348 12.71095928 40.64056913 12.36523438 38.11914062 C12.14130801 36.50511343 11.91672311 34.89117742 11.69140625 33.27734375 C11.58719864 32.52944077 11.48299103 31.78153778 11.37562561 31.01097107 C10.90278584 27.70909035 10.41233004 24.46226016 9.5 21.25 C6.18929162 20.24890485 3.19915231 20.14643866 -0.25 20.1875 C-1.23484375 20.19652344 -2.2196875 20.20554687 -3.234375 20.21484375 C-4.35585937 20.23224609 -4.35585937 20.23224609 -5.5 20.25 Z M689.5 20.25 C688.03626928 24.64119216 687.13401005 27.92491997 686.57373047 32.38891602 C686.41923935 33.59517136 686.26474823 34.8014267 686.10557556 36.04423523 C685.9444075 37.35092667 685.78323944 38.6576181 685.6171875 40.00390625 C685.44051131 41.39918561 685.26325595 42.79439173 685.08546448 44.18952942 C684.6077833 47.94890915 684.13725402 51.7091521 683.66804123 55.46959686 C682.87726497 61.79195701 682.07282501 68.11260673 681.27158165 74.43364716 C680.96318624 76.86855546 680.65560236 79.30356535 680.34809875 81.73858643 C678.98015758 92.55621902 677.56978723 103.36763744 676.12890625 114.17578125 C675.94042611 115.59283367 675.75198975 117.00989192 675.56359863 118.42695618 C674.84778481 123.80791934 674.13127719 129.18876577 673.40545654 134.56838989 C672.91032748 138.24031958 672.42140717 141.91302993 671.93359375 145.5859375 C671.78716934 146.65681107 671.64074493 147.72768463 671.48988342 148.83100891 C670.76095644 154.36116471 670.34720639 159.67199235 670.5 165.25 C672.77057377 165.30398987 675.04151288 165.34278742 677.3125 165.375 C678.57707031 165.39820313 679.84164062 165.42140625 681.14453125 165.4453125 C684.6338024 165.52581918 684.6338024 165.52581918 687.5 163.25 C688.09709243 160.55824277 688.5063502 158.03216138 688.81640625 155.3046875 C688.91839828 154.50201447 689.02039032 153.69934143 689.12547302 152.87234497 C689.45045685 150.2912873 689.75674241 147.70839867 690.0625 145.125 C690.27155315 143.43864873 690.48182702 141.75244832 690.69335938 140.06640625 C691.10926084 136.7363611 691.51570436 133.40537164 691.91455078 130.07324219 C692.29075691 126.94109289 692.68407209 123.81206557 693.09716797 120.68457031 C693.23770851 119.60890305 693.23770851 119.60890305 693.38108826 118.51150513 C693.63392903 116.58558009 693.89089926 114.66019843 694.14819336 112.73486328 C694.56650339 109.18916751 694.56650339 109.18916751 694.49047852 105.36279297 C694.5 102.25 694.5 102.25 695.5 101.25 C695.79906315 99.62064554 696.0396995 97.98051232 696.25610352 96.33813477 C696.39617325 95.28936661 696.53624298 94.24059845 696.68055725 93.16004944 C696.82851242 92.01539719 696.97646759 90.87074493 697.12890625 89.69140625 C697.28286362 88.51795151 697.43682098 87.34449677 697.59544373 86.13548279 C697.92120744 83.64146968 698.24471061 81.14716046 698.56616211 78.65258789 C699.05647421 74.85912055 699.5580457 71.06726003 700.06054688 67.27539062 C700.37569209 64.85165239 700.69016605 62.42782676 701.00390625 60.00390625 C701.22887535 58.31425499 701.22887535 58.31425499 701.45838928 56.59046936 C702.28315173 50.10202064 702.69779729 43.7901644 702.5 37.25 C702.83 37.25 703.16 37.25 703.5 37.25 C704.16 31.64 704.82 26.03 705.5 20.25 C700.22 20.25 694.94 20.25 689.5 20.25 Z M15.5 71.25 C16.5 75.25 16.5 75.25 16.5 75.25 Z M111.5 99.25 C111.17 100.24 110.84 101.23 110.5 102.25 C111.16 102.25 111.82 102.25 112.5 102.25 C112.17 101.26 111.84 100.27 111.5 99.25 Z M133.5 107.25 C133.5 112.53 133.5 117.81 133.5 123.25 C276.06 123.25 418.62 123.25 565.5 123.25 C565.83 118.3 566.16 113.35 566.5 108.25 C565.39408745 106.9187073 565.39408745 106.9187073 562.60580486 107.1258015 C561.29387112 107.12618122 559.98193738 107.12656094 558.63024807 107.12695217 C557.53445116 107.1252214 557.53445116 107.1252214 556.41651693 107.12345567 C553.93744073 107.12078206 551.45842784 107.12531724 548.97935486 107.12974548 C547.19657789 107.12930993 545.41380098 107.12843533 543.63102442 107.12715632 C538.70779579 107.12490817 533.7845887 107.12893698 528.86136281 107.13393438 C523.56139904 107.13823413 518.26143658 107.13679279 512.96147156 107.1360321 C503.77085518 107.13550657 494.58024587 107.13865647 485.38963127 107.14426994 C472.10138004 107.15238092 458.81313225 107.15499975 445.52487881 107.15625793 C423.96799995 107.15844909 402.41112486 107.16511089 380.85424805 107.17456055 C359.90795918 107.18373303 338.96167133 107.19081466 318.01538086 107.19506836 C316.72526149 107.19533108 315.43514213 107.19559381 314.10592823 107.19586449 C307.63408009 107.19716948 301.16223195 107.1984332 294.69038379 107.19967639 C240.96025323 107.21005098 187.23012686 107.22774511 133.5 107.25 Z M110.5 124.25 C111.5 127.25 111.5 127.25 111.5 127.25 Z M14.5 184.25 C14.91005616 192.44033227 15.4053775 200.29043449 17.5 208.25 C22.05780049 209.49939706 26.4670765 210.0840199 30.9375 208.25 C31.453125 207.92 31.96875 207.59 32.5 207.25 C32.83 207.58 33.16 207.91 33.5 208.25 C34.48437646 205.10062692 34.47587391 202.76893102 33.9765625 199.51953125 C33.8425 198.63458984 33.7084375 197.74964844 33.5703125 196.83789062 C33.42335938 195.92201172 33.27640625 195.00613281 33.125 194.0625 C32.98578125 193.13501953 32.8465625 192.20753906 32.703125 191.25195312 C32.37457996 186.90770656 32.37457996 186.90770656 30.5 183.25 C28.18925832 183.15067608 25.87537058 183.12030382 23.5625 183.125 C22.29535156 183.12242187 21.02820313 183.11984375 19.72265625 183.1171875 C16.60845111 183.02493931 16.60845111 183.02493931 14.5 184.25 Z M667.5 184.25 C666.4300502 189.22578598 665.43094269 194.20446081 664.75 199.25 C664.65203125 199.971875 664.5540625 200.69375 664.453125 201.4375 C664.29851083 203.50757036 664.29851083 203.50757036 666.5 205.25 C666.5 206.57 666.5 207.89 666.5 209.25 C668.24991334 209.27715383 669.99994945 209.29646551 671.75 209.3125 C672.72453125 209.32410156 673.6990625 209.33570313 674.703125 209.34765625 C677.15758678 209.26195577 679.16168914 208.95706066 681.5 208.25 C683.14733759 200.26920915 684.00877547 192.38105861 684.5 184.25 C675.93239316 182.83969015 675.93239316 182.83969015 667.5 184.25 Z M664.5 204.25 C665.5 208.25 665.5 208.25 665.5 208.25 Z M17.5 227.25 C16.14836811 236.73052482 16.14836811 236.73052482 15.5 246.25 C61.7 246.25 107.9 246.25 155.5 246.25 C155.5 239.98 155.5 233.71 155.5 227.25 C109.96 227.25 64.42 227.25 17.5 227.25 Z M174.5 227.25 C174.40697333 233.05899896 174.47080297 238.51590227 175.5 244.25 C175.17 244.91 174.84 245.57 174.5 246.25 C175.7375 246.25 176.975 246.25 178.25 246.25 C181 246.25 183.75 246.25 186.5 246.25 C188.17225729 245.94595322 189.84080104 245.61871088 191.5 245.25 C191.527193 243.66676312 191.54648306 242.08338938 191.5625 240.5 C191.57410156 239.61828125 191.58570313 238.7365625 191.59765625 237.828125 C191.46243667 234.25832803 191.35149623 232.04277236 188.6875 229.5625 C184.06929104 226.79157463 179.76398137 227.16226698 174.5 227.25 Z M508.5 230.25 C507.35922343 233.67232972 507.40184883 236.33673217 507.4375 239.9375 C507.44652344 241.11699219 507.45554687 242.29648437 507.46484375 243.51171875 C507.47644531 244.41535156 507.48804688 245.31898438 507.5 246.25 C510.8 246.25 514.1 246.25 517.5 246.25 C517.83 245.59 518.16 244.93 518.5 244.25 C519.16 244.91 519.82 245.57 520.5 246.25 C521.49 246.25 522.48 246.25 523.5 246.25 C523.83 240.31 524.16 234.37 524.5 228.25 C516.07322798 226.84213778 516.07322798 226.84213778 508.5 230.25 Z M542.5 227.25 C542.47302863 229.85423592 542.45317511 232.45819244 542.4375 235.0625 C542.42912109 235.80048828 542.42074219 236.53847656 542.41210938 237.29882812 C542.39740172 240.54922068 542.46468298 243.14404895 543.5 246.25 C589.7 246.25 635.9 246.25 683.5 246.25 C683.94460209 231.8733752 683.94460209 231.8733752 680.5 227.25 C677.99653898 226.80180179 677.99653898 226.80180179 675.02047729 226.88923645 C673.85657471 226.88511246 672.69267212 226.88098846 671.49349976 226.8767395 C670.21028839 226.88752533 668.92707703 226.89831116 667.60498047 226.90942383 C666.24509703 226.91026971 664.88521223 226.90979572 663.52532959 226.90809631 C659.82709957 226.9072334 656.12915977 226.92490669 652.43099737 226.94581819 C648.56860661 226.9645359 644.70620964 226.96633154 640.84378052 226.96989441 C633.52684391 226.97922935 626.21004132 227.00386262 618.8931638 227.03394288 C610.56439515 227.06744193 602.2356202 227.08396156 593.90680099 227.09902918 C576.77112306 227.130411 559.63557569 227.18319951 542.5 227.25 Z M486.5 256.25 C486.5 258.23 486.5 260.21 486.5 262.25 C486.83 262.25 487.16 262.25 487.5 262.25 C487.5 260.27 487.5 258.29 487.5 256.25 C487.17 256.25 486.84 256.25 486.5 256.25 Z M31.5 265.25 C32.5 269.25 32.5 269.25 32.5 269.25 Z M486.5 280.25 C487.5 283.25 487.5 283.25 487.5 283.25 Z M190.5 283.25 C191.5 287.25 191.5 287.25 191.5 287.25 Z M486.5 284.25 C487.5 287.25 487.5 287.25 487.5 287.25 Z M486.5 288.25 C487.5 290.25 487.5 290.25 487.5 290.25 Z M486.5 291.25 C487.5 295.25 487.5 295.25 487.5 295.25 Z M190.5 304.25 C191.5 306.25 191.5 306.25 191.5 306.25 Z M190.5 316.25 C191.5 319.25 191.5 319.25 191.5 319.25 Z M190.5 324.25 C191.5 327.25 191.5 327.25 191.5 327.25 Z M190.5 328.25 C190.5 333.2 190.5 338.15 190.5 343.25 C190.83 343.25 191.16 343.25 191.5 343.25 C191.5 338.3 191.5 333.35 191.5 328.25 C191.17 328.25 190.84 328.25 190.5 328.25 Z M486.5 336.25 C486.5 346.15 486.5 356.05 486.5 366.25 C486.83 366.25 487.16 366.25 487.5 366.25 C487.5 356.35 487.5 346.45 487.5 336.25 C487.17 336.25 486.84 336.25 486.5 336.25 Z M190.5 344.25 C191.5 347.25 191.5 347.25 191.5 347.25 Z M190.5 352.25 C191.5 355.25 191.5 355.25 191.5 355.25 Z M190.5 361.25 C191.5 363.25 191.5 363.25 191.5 363.25 Z M190.5 364.25 C191.5 367.25 191.5 367.25 191.5 367.25 Z M486.5 367.25 C486.5 369.56 486.5 371.87 486.5 374.25 C486.83 374.25 487.16 374.25 487.5 374.25 C487.5 371.94 487.5 369.63 487.5 367.25 C487.17 367.25 486.84 367.25 486.5 367.25 Z M190.5 368.25 C191.5 371.25 191.5 371.25 191.5 371.25 Z M190.5 372.25 C191.5 374.25 191.5 374.25 191.5 374.25 Z M486.5 376.25 C486.5 379.88 486.5 383.51 486.5 387.25 C486.83 387.25 487.16 387.25 487.5 387.25 C487.5 383.62 487.5 379.99 487.5 376.25 C487.17 376.25 486.84 376.25 486.5 376.25 Z " fill="#FFFFFF" transform="translate(162.5,316.75)"/>
<path d="M0 0 C4.29 0 8.58 0 13 0 C13 0.33 13 0.66 13 1 C8.71 1 4.42 1 0 1 C0 0.67 0 0.34 0 0 Z " fill="#FFFFFF" transform="translate(391,463)"/>
<path d="M0 0 C2 2 2 2 2.1953125 4.1640625 C2.16050781 5.38222656 2.16050781 5.38222656 2.125 6.625 C2.10695313 7.44226563 2.08890625 8.25953125 2.0703125 9.1015625 C2.04710937 9.72804688 2.02390625 10.35453125 2 11 C1.67 11 1.34 11 1 11 C0.67 7.37 0.34 3.74 0 0 Z " fill="#FFFFFF" transform="translate(849,630)"/>
<path d="M0 0 C3.96 0 7.92 0 12 0 C12 0.33 12 0.66 12 1 C8.04 1 4.08 1 0 1 C0 0.67 0 0.34 0 0 Z " fill="#FFFFFF" transform="translate(599,463)"/>
<path d="M0 0 C0.33 0 0.66 0 1 0 C1 3.63 1 7.26 1 11 C0.67 11 0.34 11 0 11 C0 7.37 0 3.74 0 0 Z " fill="#FFFFFF" transform="translate(671,690)"/>
<path d="M0 0 C0.33 0 0.66 0 1 0 C1 3.63 1 7.26 1 11 C0.67 11 0.34 11 0 11 C0 7.37 0 3.74 0 0 Z " fill="#FFFFFF" transform="translate(671,660)"/>
<path d="M0 0 C0.33 0 0.66 0 1 0 C1 3.63 1 7.26 1 11 C0.67 11 0.34 11 0 11 C0 7.37 0 3.74 0 0 Z " fill="#FFFFFF" transform="translate(671,634)"/>
<path d="M0 0 C0.33 0 0.66 0 1 0 C1 2.97 1 5.94 1 9 C0.67 9 0.34 9 0 9 C0 6.03 0 3.06 0 0 Z " fill="#FFFFFF" transform="translate(671,646)"/>
<path d="M0 0 C0.33 0 0.66 0 1 0 C1 2.97 1 5.94 1 9 C0.67 9 0.34 9 0 9 C0 6.03 0 3.06 0 0 Z " fill="#FFFFFF" transform="translate(671,583)"/>
<path d="M0 0 C0.33 0 0.66 0 1 0 C1 1.98 1 3.96 1 6 C0.34 5.34 -0.32 4.68 -1 4 C-0.625 1.875 -0.625 1.875 0 0 Z " fill="#FFFFFF" transform="translate(849,623)"/>
<path d="M0 0 C0.33 0 0.66 0 1 0 C1 2.31 1 4.62 1 7 C0.67 7 0.34 7 0 7 C0 4.69 0 2.38 0 0 Z " fill="#FFFFFF" transform="translate(316,692)"/>
<path d="M0 0 C0.33 0 0.66 0 1 0 C1 2.31 1 4.62 1 7 C0.67 7 0.34 7 0 7 C0 4.69 0 2.38 0 0 Z " fill="#FFFFFF" transform="translate(848,614)"/>
<path d="M0 0 C0.33 0 0.66 0 1 0 C1 2.31 1 4.62 1 7 C0.67 7 0.34 7 0 7 C0 4.69 0 2.38 0 0 Z " fill="#FFFFFF" transform="translate(648,585)"/>
<path d="M0 0 C2.31 0 4.62 0 7 0 C7 0.33 7 0.66 7 1 C4.69 1 2.38 1 0 1 C0 0.67 0 0.34 0 0 Z " fill="#FFFFFF" transform="translate(719,463)"/>
<path d="M0 0 C0.33 0 0.66 0 1 0 C1 1.98 1 3.96 1 6 C0.67 6 0.34 6 0 6 C0 4.02 0 2.04 0 0 Z " fill="#FFFFFF" transform="translate(817,679)"/>
<path d="M0 0 C0.33 0 0.66 0 1 0 C1 1.98 1 3.96 1 6 C0.67 6 0.34 6 0 6 C0 4.02 0 2.04 0 0 Z " fill="#FFFFFF" transform="translate(316,610)"/>
<path d="M0 0 C0.33 0 0.66 0 1 0 C1 1.98 1 3.96 1 6 C0.67 6 0.34 6 0 6 C0 4.02 0 2.04 0 0 Z " fill="#FFFFFF" transform="translate(809,603)"/>
<path d="M0 0 C0.33 0 0.66 0 1 0 C1 1.98 1 3.96 1 6 C0.67 6 0.34 6 0 6 C0 4.02 0 2.04 0 0 Z " fill="#FFFFFF" transform="translate(192,502)"/>
<path d="M0 0 C1.98 0 3.96 0 6 0 C6 0.33 6 0.66 6 1 C4.02 1 2.04 1 0 1 C0 0.67 0 0.34 0 0 Z " fill="#FFFFFF" transform="translate(616,463)"/>
<path d="M0 0 C1.98 0 3.96 0 6 0 C6 0.33 6 0.66 6 1 C4.02 1 2.04 1 0 1 C0 0.67 0 0.34 0 0 Z " fill="#FFFFFF" transform="translate(496,463)"/>
<path d="M0 0 C1.98 0 3.96 0 6 0 C6 0.33 6 0.66 6 1 C4.02 1 2.04 1 0 1 C0 0.67 0 0.34 0 0 Z " fill="#FFFFFF" transform="translate(352,463)"/>
<path d="M0 0 C0.33 0 0.66 0 1 0 C1 1.98 1 3.96 1 6 C0.67 6 0.34 6 0 6 C0 4.02 0 2.04 0 0 Z " fill="#FFFFFF" transform="translate(847,375)"/>
<path d="M0 0 C0.99 0.495 0.99 0.495 2 1 C1.67 1.99 1.34 2.98 1 4 C0.67 2.68 0.34 1.36 0 0 Z " fill="#FFFFFF" transform="translate(648,706)"/>
<path d="M0 0 C0.33 0 0.66 0 1 0 C1 1.65 1 3.3 1 5 C0.67 5 0.34 5 0 5 C0 3.35 0 1.7 0 0 Z " fill="#FFFFFF" transform="translate(316,635)"/>
<path d="M0 0 C0.33 0 0.66 0 1 0 C1 1.65 1 3.3 1 5 C0.67 5 0.34 5 0 5 C0 3.35 0 1.7 0 0 Z " fill="#FFFFFF" transform="translate(671,616)"/>
<path d="M0 0 C0.33 0 0.66 0 1 0 C1 1.65 1 3.3 1 5 C0.67 5 0.34 5 0 5 C0 3.35 0 1.7 0 0 Z " fill="#FFFFFF" transform="translate(671,608)"/>
<path d="M0 0 C0.33 0 0.66 0 1 0 C1 1.65 1 3.3 1 5 C0.67 5 0.34 5 0 5 C0 3.35 0 1.7 0 0 Z " fill="#FFFFFF" transform="translate(316,604)"/>
<path d="M0 0 C1.65 0 3.3 0 5 0 C5 0.33 5 0.66 5 1 C3.35 1 1.7 1 0 1 C0 0.67 0 0.34 0 0 Z " fill="#FFFFFF" transform="translate(716,583)"/>
<path d="M0 0 C1.65 0 3.3 0 5 0 C5 0.33 5 0.66 5 1 C3.35 1 1.7 1 0 1 C0 0.67 0 0.34 0 0 Z " fill="#FFFFFF" transform="translate(710,583)"/>
<path d="M0 0 C1.65 0 3.3 0 5 0 C5 0.33 5 0.66 5 1 C3.35 1 1.7 1 0 1 C0 0.67 0 0.34 0 0 Z " fill="#FFFFFF" transform="translate(680,583)"/>
<path d="M0 0 C0.99 0.33 1.98 0.66 3 1 C2.01 1.33 1.02 1.66 0 2 C0 1.34 0 0.68 0 0 Z " fill="#FFFFFF" transform="translate(192,520)"/>
<path d="M0 0 C0 3 0 3 0 3 Z " fill="#FFFFFF" transform="translate(145,704)"/>
<path d="M0 0 C1 4 1 4 1 4 Z " fill="#FFFFFF" transform="translate(856,703)"/>
<path d="M0 0 C1 4 1 4 1 4 Z " fill="#FFFFFF" transform="translate(352,703)"/>
<path d="M0 0 C1 4 1 4 1 4 Z " fill="#FFFFFF" transform="translate(316,686)"/>
<path d="M0 0 C1 4 1 4 1 4 Z " fill="#FFFFFF" transform="translate(816,670)"/>
<path d="M0 0 C1 4 1 4 1 4 Z " fill="#FFFFFF" transform="translate(184,664)"/>
<path d="M0 0 C1 4 1 4 1 4 Z " fill="#FFFFFF" transform="translate(148,657)"/>
<path d="M0 0 C1 4 1 4 1 4 Z " fill="#FFFFFF" transform="translate(316,623)"/>
<path d="M0 0 C1 4 1 4 1 4 Z " fill="#FFFFFF" transform="translate(175,616)"/>
<path d="M0 0 C1 4 1 4 1 4 Z " fill="#FFFFFF" transform="translate(152,608)"/>
<path d="M0 0 C4 1 4 1 4 1 Z " fill="#FFFFFF" transform="translate(836,583)"/>
<path d="M0 0 C4 1 4 1 4 1 Z " fill="#FFFFFF" transform="translate(803,583)"/>
<path d="M0 0 C4 1 4 1 4 1 Z " fill="#FFFFFF" transform="translate(796,583)"/>
<path d="M0 0 C4 1 4 1 4 1 Z " fill="#FFFFFF" transform="translate(740,583)"/>
<path d="M0 0 C4 1 4 1 4 1 Z " fill="#FFFFFF" transform="translate(274,583)"/>
<path d="M0 0 C4 1 4 1 4 1 Z " fill="#FFFFFF" transform="translate(259,583)"/>
<path d="M0 0 C4 1 4 1 4 1 Z " fill="#FFFFFF" transform="translate(180,583)"/>
<path d="M0 0 C1 4 1 4 1 4 Z " fill="#FFFFFF" transform="translate(316,558)"/>
<path d="M0 0 C1 4 1 4 1 4 Z " fill="#FFFFFF" transform="translate(316,547)"/>
<path d="M0 0 C1 4 1 4 1 4 Z " fill="#FFFFFF" transform="translate(316,521)"/>
<path d="M0 0 C1 4 1 4 1 4 Z " fill="#FFFFFF" transform="translate(316,500)"/>
<path d="M0 0 C1 4 1 4 1 4 Z " fill="#FFFFFF" transform="translate(316,484)"/>
<path d="M0 0 C1 4 1 4 1 4 Z " fill="#FFFFFF" transform="translate(316,476)"/>
<path d="M0 0 C4 1 4 1 4 1 Z " fill="#FFFFFF" transform="translate(714,463)"/>
<path d="M0 0 C4 1 4 1 4 1 Z " fill="#FFFFFF" transform="translate(645,463)"/>
<path d="M0 0 C4 1 4 1 4 1 Z " fill="#FFFFFF" transform="translate(631,463)"/>
<path d="M0 0 C4 1 4 1 4 1 Z " fill="#FFFFFF" transform="translate(576,463)"/>
<path d="M0 0 C4 1 4 1 4 1 Z " fill="#FFFFFF" transform="translate(552,463)"/>
<path d="M0 0 C0 3 0 3 0 3 Z " fill="#FFFFFF" transform="translate(817,419)"/>
<path d="M0 0 C0.66 0.66 1.32 1.32 2 2 C1.34 2 0.68 2 0 2 C0 1.34 0 0.68 0 0 Z " fill="#FFFFFF" transform="translate(688,710)"/>
<path d="M0 0 C0.33 0.66 0.66 1.32 1 2 C0.34 1.67 -0.32 1.34 -1 1 C-0.67 0.67 -0.34 0.34 0 0 Z " fill="#FFFFFF" transform="translate(703,710)"/>
<path d="" fill="#FFFFFF" transform="translate(0,0)"/>
<path d="" fill="#FFFFFF" transform="translate(0,0)"/>
<path d="" fill="#FFFFFF" transform="translate(0,0)"/>
<path d="" fill="#FFFFFF" transform="translate(0,0)"/>
<path d="" fill="#FFFFFF" transform="translate(0,0)"/>
<path d="" fill="#FFFFFF" transform="translate(0,0)"/>
<path d="" fill="#FFFFFF" transform="translate(0,0)"/>
<path d="" fill="#FFFFFF" transform="translate(0,0)"/>
<path d="M0 0 C3 1 3 1 3 1 Z " fill="#FFFFFF" transform="translate(788,583)"/>
<path d="M0 0 C3 1 3 1 3 1 Z " fill="#FFFFFF" transform="translate(772,583)"/>
<path d="M0 0 C3 1 3 1 3 1 Z " fill="#FFFFFF" transform="translate(736,583)"/>
<path d="M0 0 C3 1 3 1 3 1 Z " fill="#FFFFFF" transform="translate(240,583)"/>
<path d="M0 0 C3 1 3 1 3 1 Z " fill="#FFFFFF" transform="translate(228,583)"/>
<path d="M0 0 C3 1 3 1 3 1 Z " fill="#FFFFFF" transform="translate(188,583)"/>
<path d="M0 0 C3 1 3 1 3 1 Z " fill="#FFFFFF" transform="translate(797,561)"/>
<path d="M0 0 C3 1 3 1 3 1 Z " fill="#FFFFFF" transform="translate(341,561)"/>
<path d="M0 0 C0.33 0.66 0.66 1.32 1 2 C0.34 1.67 -0.32 1.34 -1 1 C-0.67 0.67 -0.34 0.34 0 0 Z " fill="#FFFFFF" transform="translate(684,560)"/>
<path d="" fill="#FFFFFF" transform="translate(0,0)"/>
<path d="" fill="#FFFFFF" transform="translate(0,0)"/>
<path d="" fill="#FFFFFF" transform="translate(0,0)"/>
<path d="M0 0 C0.66 0 1.32 0 2 0 C1.67 0.66 1.34 1.32 1 2 C0.67 1.34 0.34 0.68 0 0 Z " fill="#FFFFFF" transform="translate(152,495)"/>
<path d="" fill="#FFFFFF" transform="translate(0,0)"/>
<path d="" fill="#FFFFFF" transform="translate(0,0)"/>
<path d="M0 0 C3 1 3 1 3 1 Z " fill="#FFFFFF" transform="translate(640,463)"/>
<path d="M0 0 C3 1 3 1 3 1 Z " fill="#FFFFFF" transform="translate(623,463)"/>
<path d="M0 0 C3 1 3 1 3 1 Z " fill="#FFFFFF" transform="translate(612,463)"/>
<path d="M0 0 C3 1 3 1 3 1 Z " fill="#FFFFFF" transform="translate(592,463)"/>
<path d="M0 0 C3 1 3 1 3 1 Z " fill="#FFFFFF" transform="translate(536,463)"/>
<path d="M0 0 C3 1 3 1 3 1 Z " fill="#FFFFFF" transform="translate(504,463)"/>
<path d="M0 0 C3 1 3 1 3 1 Z " fill="#FFFFFF" transform="translate(464,463)"/>
<path d="M0 0 C3 1 3 1 3 1 Z " fill="#FFFFFF" transform="translate(448,463)"/>
<path d="M0 0 C3 1 3 1 3 1 Z " fill="#FFFFFF" transform="translate(432,463)"/>
<path d="M0 0 C3 1 3 1 3 1 Z " fill="#FFFFFF" transform="translate(416,463)"/>
<path d="M0 0 C3 1 3 1 3 1 Z " fill="#FFFFFF" transform="translate(384,463)"/>
<path d="M0 0 C3 1 3 1 3 1 Z " fill="#FFFFFF" transform="translate(368,463)"/>
<path d="M0 0 C3 1 3 1 3 1 Z " fill="#FFFFFF" transform="translate(344,463)"/>
<path d="" fill="#FFFFFF" transform="translate(0,0)"/>
<path d="" fill="#FFFFFF" transform="translate(0,0)"/>
<path d="" fill="#FFFFFF" transform="translate(0,0)"/>
<path d="" fill="#FFFFFF" transform="translate(0,0)"/>
<path d="M0 0 C0.99 0.495 0.99 0.495 2 1 C1.01 1.495 1.01 1.495 0 2 C0 1.34 0 0.68 0 0 Z " fill="#FFFFFF" transform="translate(865,339)"/>
<path d="M0 0 C2 1 2 1 2 1 Z " fill="#FFFFFF" transform="translate(838,711)"/>
<path d="M0 0 C2 1 2 1 2 1 Z " fill="#FFFFFF" transform="translate(145,708)"/>
<path d="" fill="#FFFFFF" transform="translate(0,0)"/>
<path d="" fill="#FFFFFF" transform="translate(0,0)"/>
<path d="" fill="#FFFFFF" transform="translate(0,0)"/>
<path d="" fill="#FFFFFF" transform="translate(0,0)"/>
<path d="" fill="#FFFFFF" transform="translate(0,0)"/>
<path d="" fill="#FFFFFF" transform="translate(0,0)"/>
<path d="" fill="#FFFFFF" transform="translate(0,0)"/>
<path d="" fill="#FFFFFF" transform="translate(0,0)"/>
<path d="" fill="#FFFFFF" transform="translate(0,0)"/>
<path d="" fill="#FFFFFF" transform="translate(0,0)"/>
<path d="" fill="#FFFFFF" transform="translate(0,0)"/>
<path d="" fill="#FFFFFF" transform="translate(0,0)"/>
<path d="" fill="#FFFFFF" transform="translate(0,0)"/>
<path d="" fill="#FFFFFF" transform="translate(0,0)"/>
<path d="" fill="#FFFFFF" transform="translate(0,0)"/>
<path d="" fill="#FFFFFF" transform="translate(0,0)"/>
<path d="" fill="#FFFFFF" transform="translate(0,0)"/>
<path d="" fill="#FFFFFF" transform="translate(0,0)"/>
<path d="M0 0 C2 1 2 1 2 1 Z " fill="#FFFFFF" transform="translate(844,583)"/>
<path d="M0 0 C2 1 2 1 2 1 Z " fill="#FFFFFF" transform="translate(841,583)"/>
<path d="M0 0 C2 1 2 1 2 1 Z " fill="#FFFFFF" transform="translate(784,583)"/>
<path d="M0 0 C2 1 2 1 2 1 Z " fill="#FFFFFF" transform="translate(761,583)"/>
<path d="M0 0 C2 1 2 1 2 1 Z " fill="#FFFFFF" transform="translate(756,583)"/>
<path d="M0 0 C2 1 2 1 2 1 Z " fill="#FFFFFF" transform="translate(753,583)"/>
<path d="M0 0 C2 1 2 1 2 1 Z " fill="#FFFFFF" transform="translate(732,583)"/>
<path d="M0 0 C2 1 2 1 2 1 Z " fill="#FFFFFF" transform="translate(729,583)"/>
<path d="M0 0 C2 1 2 1 2 1 Z " fill="#FFFFFF" transform="translate(676,583)"/>
<path d="M0 0 C2 1 2 1 2 1 Z " fill="#FFFFFF" transform="translate(348,583)"/>
<path d="M0 0 C2 1 2 1 2 1 Z " fill="#FFFFFF" transform="translate(312,583)"/>
<path d="M0 0 C2 1 2 1 2 1 Z " fill="#FFFFFF" transform="translate(300,583)"/>
<path d="M0 0 C2 1 2 1 2 1 Z " fill="#FFFFFF" transform="translate(293,583)"/>
<path d="M0 0 C2 1 2 1 2 1 Z " fill="#FFFFFF" transform="translate(289,583)"/>
<path d="M0 0 C2 1 2 1 2 1 Z " fill="#FFFFFF" transform="translate(245,583)"/>
<path d="M0 0 C2 1 2 1 2 1 Z " fill="#FFFFFF" transform="translate(237,583)"/>
<path d="M0 0 C2 1 2 1 2 1 Z " fill="#FFFFFF" transform="translate(232,583)"/>
<path d="" fill="#FFFFFF" transform="translate(0,0)"/>
<path d="M0 0 C2 1 2 1 2 1 Z " fill="#FFFFFF" transform="translate(727,561)"/>
<path d="M0 0 C2 1 2 1 2 1 Z " fill="#FFFFFF" transform="translate(186,561)"/>
<path d="" fill="#FFFFFF" transform="translate(0,0)"/>
<path d="M0 0 C2 1 2 1 2 1 Z " fill="#FFFFFF" transform="translate(648,544)"/>
<path d="M0 0 C2 1 2 1 2 1 Z " fill="#FFFFFF" transform="translate(340,523)"/>
<path d="M0 0 C2 1 2 1 2 1 Z " fill="#FFFFFF" transform="translate(183,523)"/>
<path d="" fill="#FFFFFF" transform="translate(0,0)"/>
<path d="" fill="#FFFFFF" transform="translate(0,0)"/>
<path d="M0 0 C2 1 2 1 2 1 Z " fill="#FFFFFF" transform="translate(844,502)"/>
<path d="M0 0 C2 1 2 1 2 1 Z " fill="#FFFFFF" transform="translate(182,502)"/>
<path d="" fill="#FFFFFF" transform="translate(0,0)"/>
<path d="" fill="#FFFFFF" transform="translate(0,0)"/>
<path d="" fill="#FFFFFF" transform="translate(0,0)"/>
<path d="" fill="#FFFFFF" transform="translate(0,0)"/>
<path d="" fill="#FFFFFF" transform="translate(0,0)"/>
<path d="" fill="#FFFFFF" transform="translate(0,0)"/>
<path d="M0 0 C2 1 2 1 2 1 Z " fill="#FFFFFF" transform="translate(808,488)"/>
<path d="" fill="#FFFFFF" transform="translate(0,0)"/>
<path d="" fill="#FFFFFF" transform="translate(0,0)"/>
<path d="M0 0 C2 1 2 1 2 1 Z " fill="#FFFFFF" transform="translate(728,463)"/>
<path d="M0 0 C2 1 2 1 2 1 Z " fill="#FFFFFF" transform="translate(711,463)"/>
<path d="M0 0 C2 1 2 1 2 1 Z " fill="#FFFFFF" transform="translate(668,463)"/>
<path d="M0 0 C2 1 2 1 2 1 Z " fill="#FFFFFF" transform="translate(663,463)"/>
<path d="M0 0 C2 1 2 1 2 1 Z " fill="#FFFFFF" transform="translate(628,463)"/>
<path d="M0 0 C2 1 2 1 2 1 Z " fill="#FFFFFF" transform="translate(596,463)"/>
<path d="M0 0 C2 1 2 1 2 1 Z " fill="#FFFFFF" transform="translate(588,463)"/>
<path d="M0 0 C2 1 2 1 2 1 Z " fill="#FFFFFF" transform="translate(584,463)"/>
<path d="M0 0 C2 1 2 1 2 1 Z " fill="#FFFFFF" transform="translate(560,463)"/>
<path d="M0 0 C2 1 2 1 2 1 Z " fill="#FFFFFF" transform="translate(512,463)"/>
<path d="M0 0 C2 1 2 1 2 1 Z " fill="#FFFFFF" transform="translate(484,463)"/>
<path d="M0 0 C2 1 2 1 2 1 Z " fill="#FFFFFF" transform="translate(476,463)"/>
<path d="M0 0 C2 1 2 1 2 1 Z " fill="#FFFFFF" transform="translate(472,463)"/>
<path d="M0 0 C2 1 2 1 2 1 Z " fill="#FFFFFF" transform="translate(440,463)"/>
<path d="M0 0 C2 1 2 1 2 1 Z " fill="#FFFFFF" transform="translate(436,463)"/>
<path d="M0 0 C2 1 2 1 2 1 Z " fill="#FFFFFF" transform="translate(420,463)"/>
<path d="M0 0 C2 1 2 1 2 1 Z " fill="#FFFFFF" transform="translate(408,463)"/>
<path d="M0 0 C2 1 2 1 2 1 Z " fill="#FFFFFF" transform="translate(388,463)"/>
<path d="M0 0 C2 1 2 1 2 1 Z " fill="#FFFFFF" transform="translate(376,463)"/>
<path d="M0 0 C2 1 2 1 2 1 Z " fill="#FFFFFF" transform="translate(372,463)"/>
<path d="M0 0 C2 1 2 1 2 1 Z " fill="#FFFFFF" transform="translate(364,463)"/>
<path d="M0 0 C2 1 2 1 2 1 Z " fill="#FFFFFF" transform="translate(360,463)"/>
<path d="M0 0 C2 1 2 1 2 1 Z " fill="#FFFFFF" transform="translate(340,463)"/>
<path d="M0 0 C2 1 2 1 2 1 Z " fill="#FFFFFF" transform="translate(287,463)"/>
<path d="M0 0 C2 1 2 1 2 1 Z " fill="#FFFFFF" transform="translate(278,462)"/>
<path d="" fill="#FFFFFF" transform="translate(0,0)"/>
<path d="" fill="#FFFFFF" transform="translate(0,0)"/>
<path d="" fill="#FFFFFF" transform="translate(0,0)"/>
<path d="" fill="#FFFFFF" transform="translate(0,0)"/>
<path d="" fill="#FFFFFF" transform="translate(0,0)"/>
<path d="" fill="#FFFFFF" transform="translate(0,0)"/>
<path d="" fill="#FFFFFF" transform="translate(0,0)"/>
<path d="" fill="#FFFFFF" transform="translate(0,0)"/>
<path d="" fill="#FFFFFF" transform="translate(0,0)"/>
<path d="" fill="#FFFFFF" transform="translate(0,0)"/>
<path d="" fill="#FFFFFF" transform="translate(0,0)"/>
<path d="" fill="#FFFFFF" transform="translate(0,0)"/>
<path d="" fill="#FFFFFF" transform="translate(0,0)"/>
<path d="" fill="#FFFFFF" transform="translate(0,0)"/>
<path d="" fill="#FFFFFF" transform="translate(0,0)"/>
<path d="" fill="#FFFFFF" transform="translate(0,0)"/>
<path d="" fill="#FFFFFF" transform="translate(0,0)"/>
<path d="M0 0 C2 1 2 1 2 1 Z " fill="#FFFFFF" transform="translate(819,401)"/>
<path d="" fill="#FFFFFF" transform="translate(0,0)"/>
<path d="" fill="#FFFFFF" transform="translate(0,0)"/>
<path d="" fill="#FFFFFF" transform="translate(0,0)"/>
<path d="M0 0 C2 1 2 1 2 1 Z " fill="#FFFFFF" transform="translate(824,360)"/>
<path d="" fill="#FFFFFF" transform="translate(0,0)"/>
<path d="M0 0 C2 1 2 1 2 1 Z " fill="#FFFFFF" transform="translate(864,344)"/>
<path d="" fill="#FFFFFF" transform="translate(0,0)"/>
<path d="M0 0 C2 1 2 1 2 1 Z " fill="#FFFFFF" transform="translate(852,339)"/>
<path d="M0 0 C2 1 2 1 2 1 Z " fill="#FFFFFF" transform="translate(833,320)"/>
<path d="" fill="#FFFFFF" transform="translate(0,0)"/>
<path d="" fill="#FFFFFF" transform="translate(0,0)"/>
<path d="" fill="#FFFFFF" transform="translate(0,0)"/>
<path d="" fill="#FFFFFF" transform="translate(0,0)"/>
<path d="" fill="#FFFFFF" transform="translate(0,0)"/>
<path d="" fill="#FFFFFF" transform="translate(0,0)"/>
<path d="" fill="#FFFFFF" transform="translate(0,0)"/>
<path d="" fill="#FFFFFF" transform="translate(0,0)"/>
<path d="" fill="#FFFFFF" transform="translate(0,0)"/>
<path d="" fill="#FFFFFF" transform="translate(0,0)"/>
<path d="" fill="#FFFFFF" transform="translate(0,0)"/>
<path d="" fill="#FFFFFF" transform="translate(0,0)"/>
<path d="" fill="#FFFFFF" transform="translate(0,0)"/>
<path d="" fill="#FFFFFF" transform="translate(0,0)"/>
<path d="" fill="#FFFFFF" transform="translate(0,0)"/>
<path d="" fill="#FFFFFF" transform="translate(0,0)"/>
<path d="" fill="#FFFFFF" transform="translate(0,0)"/>
<path d="" fill="#FFFFFF" transform="translate(0,0)"/>
<path d="" fill="#FFFFFF" transform="translate(0,0)"/>
<path d="" fill="#FFFFFF" transform="translate(0,0)"/>
<path d="" fill="#FFFFFF" transform="translate(0,0)"/>
<path d="" fill="#FFFFFF" transform="translate(0,0)"/>
<path d="" fill="#FFFFFF" transform="translate(0,0)"/>
<path d="" fill="#FFFFFF" transform="translate(0,0)"/>
<path d="" fill="#FFFFFF" transform="translate(0,0)"/>
<path d="" fill="#FFFFFF" transform="translate(0,0)"/>
<path d="" fill="#FFFFFF" transform="translate(0,0)"/>
<path d="" fill="#FFFFFF" transform="translate(0,0)"/>
<path d="" fill="#FFFFFF" transform="translate(0,0)"/>
<path d="" fill="#FFFFFF" transform="translate(0,0)"/>
<path d="" fill="#FFFFFF" transform="translate(0,0)"/>
<path d="" fill="#FFFFFF" transform="translate(0,0)"/>
<path d="" fill="#FFFFFF" transform="translate(0,0)"/>
<path d="" fill="#FFFFFF" transform="translate(0,0)"/>
<path d="" fill="#FFFFFF" transform="translate(0,0)"/>
<path d="" fill="#FFFFFF" transform="translate(0,0)"/>
<path d="" fill="#FFFFFF" transform="translate(0,0)"/>
<path d="" fill="#FFFFFF" transform="translate(0,0)"/>
<path d="" fill="#FFFFFF" transform="translate(0,0)"/>
<path d="" fill="#FFFFFF" transform="translate(0,0)"/>
<path d="" fill="#FFFFFF" transform="translate(0,0)"/>
<path d="" fill="#FFFFFF" transform="translate(0,0)"/>
<path d="" fill="#FFFFFF" transform="translate(0,0)"/>
<path d="" fill="#FFFFFF" transform="translate(0,0)"/>
<path d="" fill="#FFFFFF" transform="translate(0,0)"/>
<path d="" fill="#FFFFFF" transform="translate(0,0)"/>
<path d="" fill="#FFFFFF" transform="translate(0,0)"/>
<path d="" fill="#FFFFFF" transform="translate(0,0)"/>
<path d="" fill="#FFFFFF" transform="translate(0,0)"/>
<path d="" fill="#FFFFFF" transform="translate(0,0)"/>
<path d="" fill="#FFFFFF" transform="translate(0,0)"/>
<path d="" fill="#FFFFFF" transform="translate(0,0)"/>
<path d="" fill="#FFFFFF" transform="translate(0,0)"/>
<path d="" fill="#FFFFFF" transform="translate(0,0)"/>
<path d="" fill="#FFFFFF" transform="translate(0,0)"/>
<path d="" fill="#FFFFFF" transform="translate(0,0)"/>
<path d="" fill="#FFFFFF" transform="translate(0,0)"/>
<path d="" fill="#FFFFFF" transform="translate(0,0)"/>
<path d="" fill="#FFFFFF" transform="translate(0,0)"/>
<path d="" fill="#FFFFFF" transform="translate(0,0)"/>
<path d="" fill="#FFFFFF" transform="translate(0,0)"/>
<path d="" fill="#FFFFFF" transform="translate(0,0)"/>
<path d="" fill="#FFFFFF" transform="translate(0,0)"/>
<path d="" fill="#FFFFFF" transform="translate(0,0)"/>
<path d="" fill="#FFFFFF" transform="translate(0,0)"/>
<path d="" fill="#FFFFFF" transform="translate(0,0)"/>
<path d="" fill="#FFFFFF" transform="translate(0,0)"/>
<path d="" fill="#FFFFFF" transform="translate(0,0)"/>
<path d="" fill="#FFFFFF" transform="translate(0,0)"/>
<path d="" fill="#FFFFFF" transform="translate(0,0)"/>
<path d="" fill="#FFFFFF" transform="translate(0,0)"/>
<path d="" fill="#FFFFFF" transform="translate(0,0)"/>
<path d="" fill="#FFFFFF" transform="translate(0,0)"/>
<path d="" fill="#FFFFFF" transform="translate(0,0)"/>
<path d="" fill="#FFFFFF" transform="translate(0,0)"/>
<path d="" fill="#FFFFFF" transform="translate(0,0)"/>
<path d="" fill="#FFFFFF" transform="translate(0,0)"/>
<path d="" fill="#FFFFFF" transform="translate(0,0)"/>
<path d="" fill="#FFFFFF" transform="translate(0,0)"/>
<path d="" fill="#FFFFFF" transform="translate(0,0)"/>
<path d="" fill="#FFFFFF" transform="translate(0,0)"/>
<path d="" fill="#FFFFFF" transform="translate(0,0)"/>
<path d="" fill="#FFFFFF" transform="translate(0,0)"/>
<path d="" fill="#FFFFFF" transform="translate(0,0)"/>
<path d="" fill="#FFFFFF" transform="translate(0,0)"/>
<path d="" fill="#FFFFFF" transform="translate(0,0)"/>
<path d="" fill="#FFFFFF" transform="translate(0,0)"/>
<path d="" fill="#FFFFFF" transform="translate(0,0)"/>
<path d="" fill="#FFFFFF" transform="translate(0,0)"/>
<path d="" fill="#FFFFFF" transform="translate(0,0)"/>
<path d="" fill="#FFFFFF" transform="translate(0,0)"/>
<path d="" fill="#FFFFFF" transform="translate(0,0)"/>
<path d="" fill="#FFFFFF" transform="translate(0,0)"/>
<path d="" fill="#FFFFFF" transform="translate(0,0)"/>
<path d="" fill="#FFFFFF" transform="translate(0,0)"/>
<path d="" fill="#FFFFFF" transform="translate(0,0)"/>
<path d="" fill="#FFFFFF" transform="translate(0,0)"/>
<path d="" fill="#FFFFFF" transform="translate(0,0)"/>
<path d="" fill="#FFFFFF" transform="translate(0,0)"/>
<path d="" fill="#FFFFFF" transform="translate(0,0)"/>
<path d="" fill="#FFFFFF" transform="translate(0,0)"/>
<path d="" fill="#FFFFFF" transform="translate(0,0)"/>
<path d="" fill="#FFFFFF" transform="translate(0,0)"/>
<path d="" fill="#FFFFFF" transform="translate(0,0)"/>
<path d="" fill="#FFFFFF" transform="translate(0,0)"/>
<path d="" fill="#FFFFFF" transform="translate(0,0)"/>
<path d="" fill="#FFFFFF" transform="translate(0,0)"/>
<path d="" fill="#FFFFFF" transform="translate(0,0)"/>
<path d="" fill="#FFFFFF" transform="translate(0,0)"/>
<path d="" fill="#FFFFFF" transform="translate(0,0)"/>
<path d="" fill="#FFFFFF" transform="translate(0,0)"/>
<path d="" fill="#FFFFFF" transform="translate(0,0)"/>
<path d="" fill="#FFFFFF" transform="translate(0,0)"/>
<path d="" fill="#FFFFFF" transform="translate(0,0)"/>
<path d="" fill="#FFFFFF" transform="translate(0,0)"/>
<path d="" fill="#FFFFFF" transform="translate(0,0)"/>
<path d="" fill="#FFFFFF" transform="translate(0,0)"/>
<path d="" fill="#FFFFFF" transform="translate(0,0)"/>
<path d="" fill="#FFFFFF" transform="translate(0,0)"/>
<path d="" fill="#FFFFFF" transform="translate(0,0)"/>
<path d="" fill="#FFFFFF" transform="translate(0,0)"/>
<path d="" fill="#FFFFFF" transform="translate(0,0)"/>
<path d="" fill="#FFFFFF" transform="translate(0,0)"/>
<path d="" fill="#FFFFFF" transform="translate(0,0)"/>
<path d="" fill="#FFFFFF" transform="translate(0,0)"/>
<path d="" fill="#FFFFFF" transform="translate(0,0)"/>
<path d="" fill="#FFFFFF" transform="translate(0,0)"/>
<path d="" fill="#FFFFFF" transform="translate(0,0)"/>
<path d="" fill="#FFFFFF" transform="translate(0,0)"/>
<path d="" fill="#FFFFFF" transform="translate(0,0)"/>
<path d="" fill="#FFFFFF" transform="translate(0,0)"/>
<path d="" fill="#FFFFFF" transform="translate(0,0)"/>
<path d="" fill="#FFFFFF" transform="translate(0,0)"/>
<path d="" fill="#FFFFFF" transform="translate(0,0)"/>
<path d="" fill="#FFFFFF" transform="translate(0,0)"/>
<path d="" fill="#FFFFFF" transform="translate(0,0)"/>
<path d="" fill="#FFFFFF" transform="translate(0,0)"/>
<path d="" fill="#FFFFFF" transform="translate(0,0)"/>
<path d="" fill="#FFFFFF" transform="translate(0,0)"/>
<path d="" fill="#FFFFFF" transform="translate(0,0)"/>
<path d="" fill="#FFFFFF" transform="translate(0,0)"/>
<path d="" fill="#FFFFFF" transform="translate(0,0)"/>
<path d="" fill="#FFFFFF" transform="translate(0,0)"/>
<path d="" fill="#FFFFFF" transform="translate(0,0)"/>
<path d="" fill="#FFFFFF" transform="translate(0,0)"/>
<path d="" fill="#FFFFFF" transform="translate(0,0)"/>
<path d="" fill="#FFFFFF" transform="translate(0,0)"/>
<path d="" fill="#FFFFFF" transform="translate(0,0)"/>
<path d="" fill="#FFFFFF" transform="translate(0,0)"/>
<path d="" fill="#FFFFFF" transform="translate(0,0)"/>
<path d="" fill="#FFFFFF" transform="translate(0,0)"/>
<path d="" fill="#FFFFFF" transform="translate(0,0)"/>
<path d="" fill="#FFFFFF" transform="translate(0,0)"/>
<path d="" fill="#FFFFFF" transform="translate(0,0)"/>
<path d="" fill="#FFFFFF" transform="translate(0,0)"/>
<path d="" fill="#FFFFFF" transform="translate(0,0)"/>
<path d="" fill="#FFFFFF" transform="translate(0,0)"/>
<path d="" fill="#FFFFFF" transform="translate(0,0)"/>
<path d="" fill="#FFFFFF" transform="translate(0,0)"/>
<path d="" fill="#FFFFFF" transform="translate(0,0)"/>
<path d="" fill="#FFFFFF" transform="translate(0,0)"/>
<path d="" fill="#FFFFFF" transform="translate(0,0)"/>
<path d="" fill="#FFFFFF" transform="translate(0,0)"/>
<path d="" fill="#FFFFFF" transform="translate(0,0)"/>
<path d="" fill="#FFFFFF" transform="translate(0,0)"/>
<path d="" fill="#FFFFFF" transform="translate(0,0)"/>
<path d="" fill="#FFFFFF" transform="translate(0,0)"/>
<path d="" fill="#FFFFFF" transform="translate(0,0)"/>
<path d="" fill="#FFFFFF" transform="translate(0,0)"/>
<path d="" fill="#FFFFFF" transform="translate(0,0)"/>
<path d="" fill="#FFFFFF" transform="translate(0,0)"/>
<path d="" fill="#FFFFFF" transform="translate(0,0)"/>
<path d="" fill="#FFFFFF" transform="translate(0,0)"/>
<path d="" fill="#FFFFFF" transform="translate(0,0)"/>
<path d="" fill="#FFFFFF" transform="translate(0,0)"/>
<path d="" fill="#FFFFFF" transform="translate(0,0)"/>
<path d="" fill="#FFFFFF" transform="translate(0,0)"/>
<path d="" fill="#FFFFFF" transform="translate(0,0)"/>
<path d="" fill="#FFFFFF" transform="translate(0,0)"/>
<path d="" fill="#FFFFFF" transform="translate(0,0)"/>
<path d="" fill="#FFFFFF" transform="translate(0,0)"/>
<path d="" fill="#FFFFFF" transform="translate(0,0)"/>
<path d="" fill="#FFFFFF" transform="translate(0,0)"/>
<path d="" fill="#FFFFFF" transform="translate(0,0)"/>
<path d="" fill="#FFFFFF" transform="translate(0,0)"/>
<path d="" fill="#FFFFFF" transform="translate(0,0)"/>
<path d="" fill="#FFFFFF" transform="translate(0,0)"/>
<path d="" fill="#FFFFFF" transform="translate(0,0)"/>
<path d="" fill="#FFFFFF" transform="translate(0,0)"/>
<path d="" fill="#FFFFFF" transform="translate(0,0)"/>
<path d="" fill="#FFFFFF" transform="translate(0,0)"/>
<path d="" fill="#FFFFFF" transform="translate(0,0)"/>
<path d="" fill="#FFFFFF" transform="translate(0,0)"/>
<path d="" fill="#FFFFFF" transform="translate(0,0)"/>
<path d="" fill="#FFFFFF" transform="translate(0,0)"/>
<path d="" fill="#FFFFFF" transform="translate(0,0)"/>
<path d="" fill="#FFFFFF" transform="translate(0,0)"/>
<path d="" fill="#FFFFFF" transform="translate(0,0)"/>
<path d="" fill="#FFFFFF" transform="translate(0,0)"/>
<path d="" fill="#FFFFFF" transform="translate(0,0)"/>
<path d="" fill="#FFFFFF" transform="translate(0,0)"/>
<path d="" fill="#FFFFFF" transform="translate(0,0)"/>
<path d="" fill="#FFFFFF" transform="translate(0,0)"/>
<path d="" fill="#FFFFFF" transform="translate(0,0)"/>
<path d="" fill="#FFFFFF" transform="translate(0,0)"/>
<path d="" fill="#FFFFFF" transform="translate(0,0)"/>
<path d="" fill="#FFFFFF" transform="translate(0,0)"/>
<path d="" fill="#FFFFFF" transform="translate(0,0)"/>
<path d="" fill="#FFFFFF" transform="translate(0,0)"/>
<path d="" fill="#FFFFFF" transform="translate(0,0)"/>
<path d="" fill="#FFFFFF" transform="translate(0,0)"/>
<path d="" fill="#FFFFFF" transform="translate(0,0)"/>
<path d="" fill="#FFFFFF" transform="translate(0,0)"/>
<path d="" fill="#FFFFFF" transform="translate(0,0)"/>
<path d="" fill="#FFFFFF" transform="translate(0,0)"/>
<path d="" fill="#FFFFFF" transform="translate(0,0)"/>
<path d="" fill="#FFFFFF" transform="translate(0,0)"/>
<path d="" fill="#FFFFFF" transform="translate(0,0)"/>
<path d="" fill="#FFFFFF" transform="translate(0,0)"/>
<path d="" fill="#FFFFFF" transform="translate(0,0)"/>
<path d="" fill="#FFFFFF" transform="translate(0,0)"/>
<path d="" fill="#FFFFFF" transform="translate(0,0)"/>
<path d="" fill="#FFFFFF" transform="translate(0,0)"/>
<path d="" fill="#FFFFFF" transform="translate(0,0)"/>
<path d="" fill="#FFFFFF" transform="translate(0,0)"/>
<path d="" fill="#FFFFFF" transform="translate(0,0)"/>
<path d="" fill="#FFFFFF" transform="translate(0,0)"/>
<path d="" fill="#FFFFFF" transform="translate(0,0)"/>
<path d="" fill="#FFFFFF" transform="translate(0,0)"/>
<path d="" fill="#FFFFFF" transform="translate(0,0)"/>
<path d="" fill="#FFFFFF" transform="translate(0,0)"/>
<path d="" fill="#FFFFFF" transform="translate(0,0)"/>
<path d="" fill="#FFFFFF" transform="translate(0,0)"/>
<path d="" fill="#FFFFFF" transform="translate(0,0)"/>
<path d="" fill="#FFFFFF" transform="translate(0,0)"/>
<path d="" fill="#FFFFFF" transform="translate(0,0)"/>
<path d="" fill="#FFFFFF" transform="translate(0,0)"/>
<path d="" fill="#FFFFFF" transform="translate(0,0)"/>
<path d="" fill="#FFFFFF" transform="translate(0,0)"/>
<path d="" fill="#FFFFFF" transform="translate(0,0)"/>
<path d="" fill="#FFFFFF" transform="translate(0,0)"/>
<path d="" fill="#FFFFFF" transform="translate(0,0)"/>
<path d="" fill="#FFFFFF" transform="translate(0,0)"/>
<path d="" fill="#FFFFFF" transform="translate(0,0)"/>
<path d="" fill="#FFFFFF" transform="translate(0,0)"/>
<path d="" fill="#FFFFFF" transform="translate(0,0)"/>
<path d="" fill="#FFFFFF" transform="translate(0,0)"/>
<path d="" fill="#FFFFFF" transform="translate(0,0)"/>
<path d="" fill="#FFFFFF" transform="translate(0,0)"/>
<path d="" fill="#FFFFFF" transform="translate(0,0)"/>
<path d="" fill="#FFFFFF" transform="translate(0,0)"/>
<path d="" fill="#FFFFFF" transform="translate(0,0)"/>
<path d="" fill="#FFFFFF" transform="translate(0,0)"/>
<path d="" fill="#FFFFFF" transform="translate(0,0)"/>
<path d="" fill="#FFFFFF" transform="translate(0,0)"/>
<path d="" fill="#FFFFFF" transform="translate(0,0)"/>
<path d="" fill="#FFFFFF" transform="translate(0,0)"/>
<path d="" fill="#FFFFFF" transform="translate(0,0)"/>
<path d="" fill="#FFFFFF" transform="translate(0,0)"/>
<path d="" fill="#FFFFFF" transform="translate(0,0)"/>
<path d="" fill="#FFFFFF" transform="translate(0,0)"/>
<path d="" fill="#FFFFFF" transform="translate(0,0)"/>
<path d="" fill="#FFFFFF" transform="translate(0,0)"/>
<path d="" fill="#FFFFFF" transform="translate(0,0)"/>
<path d="" fill="#FFFFFF" transform="translate(0,0)"/>
<path d="" fill="#FFFFFF" transform="translate(0,0)"/>
<path d="" fill="#FFFFFF" transform="translate(0,0)"/>
<path d="" fill="#FFFFFF" transform="translate(0,0)"/>
<path d="" fill="#FFFFFF" transform="translate(0,0)"/>
<path d="" fill="#FFFFFF" transform="translate(0,0)"/>
<path d="" fill="#FFFFFF" transform="translate(0,0)"/>
<path d="" fill="#FFFFFF" transform="translate(0,0)"/>
<path d="" fill="#FFFFFF" transform="translate(0,0)"/>
<path d="" fill="#FFFFFF" transform="translate(0,0)"/>
<path d="" fill="#FFFFFF" transform="translate(0,0)"/>
<path d="" fill="#FFFFFF" transform="translate(0,0)"/>
<path d="" fill="#FFFFFF" transform="translate(0,0)"/>
<path d="" fill="#FFFFFF" transform="translate(0,0)"/>
<path d="" fill="#FFFFFF" transform="translate(0,0)"/>
<path d="" fill="#FFFFFF" transform="translate(0,0)"/>
<path d="" fill="#FFFFFF" transform="translate(0,0)"/>
<path d="" fill="#FFFFFF" transform="translate(0,0)"/>
<path d="" fill="#FFFFFF" transform="translate(0,0)"/>
<path d="" fill="#FFFFFF" transform="translate(0,0)"/>
<path d="" fill="#FFFFFF" transform="translate(0,0)"/>
<path d="" fill="#FFFFFF" transform="translate(0,0)"/>
<path d="" fill="#FFFFFF" transform="translate(0,0)"/>
<path d="" fill="#FFFFFF" transform="translate(0,0)"/>
<path d="" fill="#FFFFFF" transform="translate(0,0)"/>
<path d="" fill="#FFFFFF" transform="translate(0,0)"/>
<path d="" fill="#FFFFFF" transform="translate(0,0)"/>
<path d="" fill="#FFFFFF" transform="translate(0,0)"/>
<path d="" fill="#FFFFFF" transform="translate(0,0)"/>
<path d="" fill="#FFFFFF" transform="translate(0,0)"/>
<path d="" fill="#FFFFFF" transform="translate(0,0)"/>
<path d="" fill="#FFFFFF" transform="translate(0,0)"/>
<path d="" fill="#FFFFFF" transform="translate(0,0)"/>
<path d="" fill="#FFFFFF" transform="translate(0,0)"/>
<path d="" fill="#FFFFFF" transform="translate(0,0)"/>
<path d="" fill="#FFFFFF" transform="translate(0,0)"/>
<path d="" fill="#FFFFFF" transform="translate(0,0)"/>
<path d="" fill="#FFFFFF" transform="translate(0,0)"/>
<path d="" fill="#FFFFFF" transform="translate(0,0)"/>
<path d="" fill="#FFFFFF" transform="translate(0,0)"/>
<path d="" fill="#FFFFFF" transform="translate(0,0)"/>
<path d="" fill="#FFFFFF" transform="translate(0,0)"/>
<path d="" fill="#FFFFFF" transform="translate(0,0)"/>
<path d="" fill="#FFFFFF" transform="translate(0,0)"/>
<path d="" fill="#FFFFFF" transform="translate(0,0)"/>
<path d="" fill="#FFFFFF" transform="translate(0,0)"/>
<path d="" fill="#FFFFFF" transform="translate(0,0)"/>
<path d="" fill="#FFFFFF" transform="translate(0,0)"/>
<path d="" fill="#FFFFFF" transform="translate(0,0)"/>
<path d="" fill="#FFFFFF" transform="translate(0,0)"/>
<path d="" fill="#FFFFFF" transform="translate(0,0)"/>
</svg>
