<?xml version="1.0" encoding="UTF-8"?>
<svg version="1.1" xmlns="http://www.w3.org/2000/svg" width="512" height="512">
<path d="M0 0 C1.20255936 0.00323273 1.20255936 0.00323273 2.42941284 0.00653076 C16.09516334 0.0650724 29.40620224 0.85982135 42.875 3.3125 C43.98101562 3.51117676 45.08703125 3.70985352 46.2265625 3.91455078 C62.67727083 6.95802301 78.27153331 11.30419917 93.875 17.3125 C94.638125 17.59706055 95.40125 17.88162109 96.1875 18.17480469 C112.34057247 24.21057328 127.61131552 32.64697696 141.875 42.3125 C142.720625 42.88484375 143.56625 43.4571875 144.4375 44.046875 C149.34489614 47.42819063 154.08613992 50.97668108 158.7578125 54.67578125 C160.77397678 56.23440271 162.83533446 57.68556536 164.9375 59.125 C165.906875 59.846875 166.87625 60.56875 167.875 61.3125 C167.875 61.9725 167.875 62.6325 167.875 63.3125 C168.42768555 63.54066406 168.98037109 63.76882812 169.54980469 64.00390625 C172.54746403 65.69095518 174.6426506 67.82062518 177.078125 70.25 C177.5607782 70.73073975 178.0434314 71.21147949 178.54071045 71.70678711 C179.55499064 72.71971093 180.56676804 73.73514638 181.57617188 74.75292969 C183.12671972 76.31423165 184.68770503 77.86452497 186.25 79.4140625 C187.23501734 80.40040061 188.21941453 81.3873585 189.203125 82.375 C190.0993457 83.27347656 190.99556641 84.17195313 191.91894531 85.09765625 C193.875 87.3125 193.875 87.3125 193.875 89.3125 C194.535 89.3125 195.195 89.3125 195.875 89.3125 C197.390625 91 197.390625 91 199.125 93.3125 C199.7540625 94.14652344 200.383125 94.98054688 201.03125 95.83984375 C201.6396875 96.65582031 202.248125 97.47179687 202.875 98.3125 C203.3390625 98.91191406 203.803125 99.51132813 204.28125 100.12890625 C212.33466593 110.59366473 219.93259426 121.50777485 225.875 133.3125 C226.49313903 134.51189948 227.11165424 135.71110513 227.73046875 136.91015625 C234.38746531 149.91319649 241.02258516 163.12025406 244.98828125 177.22265625 C245.6782632 179.62695457 246.45000043 181.92578703 247.2890625 184.27734375 C249.43110769 190.65287457 250.63903149 197.22385162 251.9375 203.8125 C252.19337891 205.0603125 252.44925781 206.308125 252.71289062 207.59375 C255.96859727 223.93086923 257.2594576 239.8500896 257.1875 256.5 C257.18534485 257.40179993 257.1831897 258.30359985 257.18096924 259.23272705 C257.12896817 272.81522548 256.5891408 285.96858406 253.875 299.3125 C253.57698486 300.859375 253.57698486 300.859375 253.27294922 302.4375 C250.07387903 318.84741209 245.65907044 334.62982777 239.875 350.3125 C239.58512207 351.10333984 239.29524414 351.89417969 238.99658203 352.70898438 C234.71666229 364.19206152 229.0828291 374.76444081 222.875 385.3125 C222.51229004 385.9317334 222.14958008 386.5509668 221.77587891 387.18896484 C217.23377368 394.89451278 212.24084042 402.16181161 206.875 409.3125 C206.39675781 409.97378906 205.91851562 410.63507813 205.42578125 411.31640625 C192.69882838 428.7840579 177.21315351 445.38319124 159.875 458.3125 C159.30330078 458.7446582 158.73160156 459.17681641 158.14257812 459.62207031 C150.28086849 465.55721114 142.3049454 471.20379164 133.875 476.3125 C133.16166504 476.7552124 132.44833008 477.1979248 131.71337891 477.65405273 C125.59857024 481.40388164 119.35541152 484.68001091 112.875 487.75 C111.87315674 488.22518066 110.87131348 488.70036133 109.83911133 489.18994141 C91.28442131 497.88805188 72.65663214 503.65995086 52.6875 508.125 C51.71917236 508.34430176 50.75084473 508.56360352 49.75317383 508.78955078 C48.36908325 509.08901611 48.36908325 509.08901611 46.95703125 509.39453125 C46.14468018 509.57218018 45.3323291 509.7498291 44.49536133 509.93286133 C41.875 510.3125 41.875 510.3125 34.875 510.3125 C34.875 449.9225 34.875 389.5325 34.875 327.3125 C54.345 327.3125 73.815 327.3125 93.875 327.3125 C93.875 324.3425 93.875 321.3725 93.875 318.3125 C94.00361682 316.78288838 94.16582374 315.25476567 94.39404297 313.73681641 C94.5077121 312.95795074 94.62138123 312.17908508 94.73849487 311.37661743 C94.86346344 310.5639743 94.98843201 309.75133118 95.1171875 308.9140625 C95.30983688 307.60240616 95.30983688 307.60240616 95.50637817 306.26425171 C95.91483525 303.4877253 96.33168146 300.71255634 96.75 297.9375 C98.77496501 284.41766823 100.56204374 270.92145797 101.875 257.3125 C101.05036758 257.31472061 100.22573517 257.31694122 99.37611389 257.31922913 C91.62101743 257.33923052 83.86593339 257.35447335 76.11081791 257.36431217 C72.123428 257.36954036 68.13605933 257.37663684 64.14868164 257.38793945 C60.30374886 257.39877061 56.45883655 257.40477732 52.61388969 257.40737724 C51.14381017 257.40923108 49.67373182 257.41285091 48.20366096 257.41823006 C46.15145533 257.42544355 44.09933533 257.42649081 42.04711914 257.42602539 C40.87685684 257.428246 39.70659454 257.43046661 38.50086975 257.43275452 C35.875 257.3125 35.875 257.3125 34.875 256.3125 C34.76609152 254.77521491 34.72595361 253.2329852 34.71386719 251.69189453 C34.70425964 250.70641632 34.6946521 249.72093811 34.68475342 248.70559692 C34.6783786 247.09175613 34.6783786 247.09175613 34.671875 245.4453125 C34.66617493 244.34081757 34.66047485 243.23632263 34.65460205 242.09835815 C34.64512877 239.74950117 34.63860889 237.40063076 34.63476562 235.05175781 C34.62513479 231.48738608 34.59416449 227.92360937 34.5625 224.359375 C34.55596262 222.07552425 34.55071505 219.79166938 34.546875 217.5078125 C34.5345282 216.45216095 34.5221814 215.3965094 34.50946045 214.30886841 C34.5453393 202.15039391 37.74840248 189.14178971 46.0546875 179.8828125 C62.38704263 164.87024365 84.94652725 169.3125 105.875 169.3125 C105.545 150.1725 105.215 131.0325 104.875 111.3125 C76.86754411 106.14983532 49.89913222 103.02570929 21.875 110.3125 C20.03808594 110.76302734 20.03808594 110.76302734 18.1640625 111.22265625 C-1.99656985 116.75366109 -16.71438505 129.76808303 -27.05859375 147.65625 C-35.79868073 164.34699675 -39.40402315 180.67950707 -39.5390625 199.37890625 C-39.55780003 201.02515099 -39.57737532 202.67138638 -39.5977478 204.31761169 C-39.64880223 208.62304138 -39.68856972 212.92850212 -39.72589111 217.23406982 C-39.76609929 221.63854483 -39.81711442 226.04289368 -39.8671875 230.44726562 C-39.96363024 239.06892382 -40.04813496 247.69064512 -40.125 256.3125 C-42.84978152 257.67489076 -44.99340855 257.43219958 -48.04345703 257.42602539 C-49.93124878 257.42584412 -49.93124878 257.42584412 -51.85717773 257.42565918 C-53.19905649 257.42062321 -54.54093476 257.4154566 -55.8828125 257.41015625 C-57.70800415 257.40864563 -57.70800415 257.40864563 -59.57006836 257.40710449 C-64.13005511 257.40185922 -68.69002847 257.38789804 -73.25 257.375 C-83.43875 257.354375 -93.6275 257.33375 -104.125 257.3125 C-104.125 280.4125 -104.125 303.5125 -104.125 327.3125 C-83.005 327.3125 -61.885 327.3125 -40.125 327.3125 C-40.10245521 350.894699 -40.08402213 374.47688931 -40.07318783 398.05909634 C-40.06802431 409.00790733 -40.06098054 419.95671117 -40.04956055 430.90551758 C-40.03961542 440.44482731 -40.03314698 449.98413185 -40.03091151 459.52344662 C-40.02960411 464.57774023 -40.02651642 469.63201903 -40.01926994 474.68630791 C-40.01251243 479.43778784 -40.01038249 484.18924677 -40.01189232 488.94073105 C-40.01161587 490.68993684 -40.00960916 492.4391433 -40.00579453 494.18834496 C-40.00086146 496.56585148 -40.00200026 498.94327736 -40.00474548 501.32078552 C-40.00037622 502.37280872 -40.00037622 502.37280872 -39.99591869 503.44608492 C-40.01087879 508.19837879 -40.01087879 508.19837879 -41.125 509.3125 C-75.79600984 508.44626887 -111.66057513 489.97222799 -140.0390625 471.32421875 C-142.66249396 469.6140071 -145.31320165 467.98236533 -148 466.375 C-149.03125 465.694375 -150.0625 465.01375 -151.125 464.3125 C-151.125 463.6525 -151.125 462.9925 -151.125 462.3125 C-151.8159375 462.09335937 -152.506875 461.87421875 -153.21875 461.6484375 C-156.87525037 459.96762685 -159.64031033 457.57908827 -162.625 454.9375 C-163.23520996 454.40439209 -163.84541992 453.87128418 -164.47412109 453.32202148 C-166.36597287 451.66122254 -168.24677051 449.98867903 -170.125 448.3125 C-170.69379883 447.80831543 -171.26259766 447.30413086 -171.84863281 446.78466797 C-183.34374913 436.5581416 -193.65867775 425.61514112 -202.87109375 413.28515625 C-204.47092598 411.17515222 -206.08450281 409.149388 -207.79296875 407.1328125 C-209.86458328 404.62744283 -211.43644938 402.15854738 -212.98828125 399.3125 C-214.29419639 397.01480737 -215.73501235 394.83305723 -217.1875 392.625 C-224.93366111 380.51221243 -232.10356507 367.8031861 -237.125 354.3125 C-237.61869884 353.03733677 -238.11356952 351.76262686 -238.609375 350.48828125 C-243.53326734 337.68706992 -247.42601859 324.87008884 -250.25 311.4375 C-250.50136719 310.28636719 -250.75273437 309.13523437 -251.01171875 307.94921875 C-254.62238995 290.99229695 -255.53099911 274.78513494 -255.5 257.5 C-255.49945618 256.36388275 -255.49891235 255.2277655 -255.49835205 254.05722046 C-255.46174878 237.45353544 -254.89881778 221.54590666 -251.125 205.3125 C-250.90537598 204.30912598 -250.68575195 203.30575195 -250.45947266 202.27197266 C-244.58637476 175.64975607 -235.05176422 150.74463687 -221.125 127.3125 C-220.77937012 126.72597656 -220.43374023 126.13945313 -220.07763672 125.53515625 C-216.01175815 118.66193172 -211.65585919 112.10462291 -206.8828125 105.703125 C-205.42083379 103.71483395 -204.06572699 101.71067094 -202.75 99.625 C-202.21375 98.861875 -201.6775 98.09875 -201.125 97.3125 C-200.465 97.3125 -199.805 97.3125 -199.125 97.3125 C-198.85816406 96.72726563 -198.59132812 96.14203125 -198.31640625 95.5390625 C-197.09968941 93.26519824 -195.78450677 91.60084086 -194.0625 89.6875 C-193.44117188 88.99398437 -192.81984375 88.30046875 -192.1796875 87.5859375 C-191.50164062 86.83570312 -190.82359375 86.08546875 -190.125 85.3125 C-189.40570313 84.50039062 -188.68640625 83.68828125 -187.9453125 82.8515625 C-168.40336738 60.87532664 -168.40336738 60.87532664 -158.125 56.3125 C-158.125 55.6525 -158.125 54.9925 -158.125 54.3125 C-156.3063437 52.88355576 -154.41559147 51.54611022 -152.5 50.25 C-151.91822998 49.85514404 -151.33645996 49.46028809 -150.73706055 49.0534668 C-144.27383784 44.69081306 -137.71926315 40.47354346 -131.125 36.3125 C-130.320625 35.79042969 -129.51625 35.26835938 -128.6875 34.73046875 C-114.36035874 25.70138493 -97.07311435 17.52770013 -80.74536133 13.07226562 C-78.03325269 12.28589815 -75.39648643 11.3630255 -72.734375 10.421875 C-65.76067641 8.08666031 -58.71034895 6.59385289 -51.5 5.1875 C-50.27410156 4.93613281 -49.04820312 4.68476562 -47.78515625 4.42578125 C-31.89799407 1.27474493 -16.18429179 -0.07936077 0 0 Z " fill="#FFFFFF" transform="translate(255.125,0.6875)"/>
</svg>
