<?xml version="1.0" encoding="UTF-8"?>
<svg version="1.1" xmlns="http://www.w3.org/2000/svg" width="1024" height="1024">
<path d="M0 0 C0.70756439 0.30022064 1.41512878 0.60044128 2.14413452 0.90975952 C5.59586201 2.37541109 9.04258718 3.85107349 12.48144531 5.34667969 C13.7323096 5.88242368 14.98328077 6.41791819 16.234375 6.953125 C17.3287085 7.4277417 18.42304199 7.9023584 19.55053711 8.39135742 C22.43728134 9.38193251 24.49905206 9.63027923 27.51953125 9.41015625 C27.51953125 10.07015625 27.51953125 10.73015625 27.51953125 11.41015625 C30.22659469 12.22709856 32.93504521 13.03882119 35.64453125 13.84765625 C36.40507813 14.07775391 37.165625 14.30785156 37.94921875 14.54492188 C39.07070312 14.8784668 39.07070312 14.8784668 40.21484375 15.21875 C40.89562988 15.42298584 41.57641602 15.62722168 42.27783203 15.83764648 C48.63865719 17.46214387 54.69588849 17.52763927 61.21875 17.47265625 C62.24958206 17.46886963 63.28041412 17.46508301 64.34248352 17.46118164 C68.73219772 17.44492244 73.12181699 17.41689123 77.51147461 17.38964844 C80.72639524 17.37141592 83.94130015 17.35941138 87.15625 17.34765625 C88.13059494 17.33935791 89.10493988 17.33105957 90.10881042 17.32250977 C103.13288958 17.27678116 116.60479089 17.8220191 126.51953125 27.41015625 C134.76801176 37.33920036 137.66021919 46.92208451 137.68447876 59.6295166 C137.69012425 60.56320283 137.69576974 61.49688905 137.70158631 62.4588688 C137.7193202 65.596923 137.7300212 68.73496137 137.74072266 71.87304688 C137.75191969 74.13026468 137.76352086 76.38748051 137.77549458 78.64469433 C137.80688516 84.82013594 137.83193197 90.99558885 137.85564685 97.17106414 C137.87901729 103.0645357 137.90654 108.95798718 137.93359803 114.85144275 C138.0043419 130.35369155 138.06342833 145.85597816 138.12028137 161.35828317 C138.13895449 166.43764795 138.15829326 171.51700988 138.17801285 176.5963707 C138.71442781 314.90810646 138.71442781 314.90810646 138.23674774 383.82876587 C138.21151022 387.49469866 138.1893096 391.16064279 138.16799897 394.82660025 C138.12468845 402.25760444 138.07009888 409.68837498 138.00103569 417.11919212 C137.97992081 419.48863499 137.96165215 421.85810536 137.94658089 424.22759438 C137.92529703 427.37562501 137.89170612 430.52326876 137.85424805 433.67114258 C137.85051996 434.56911812 137.84679188 435.46709366 137.84295082 436.39228058 C137.74927967 442.56617088 137.06076543 447.69758409 133.95703125 453.16015625 C128.26338634 458.41582848 120.63702423 458.8589445 113.20703125 458.7734375 C112.35326904 458.773936 111.49950684 458.77443451 110.61987305 458.77494812 C108.82826389 458.77262447 107.03665039 458.76299805 105.24511719 458.74633789 C102.52639094 458.72271585 99.80864695 458.72579424 97.08984375 458.73242188 C95.33723383 458.72684433 93.58462797 458.71973397 91.83203125 458.7109375 C91.03176514 458.71184891 90.23149902 458.71276031 89.40698242 458.71369934 C83.36680153 458.63903328 76.3715237 458.50781736 71.36328125 454.82421875 C70.91984375 454.23382812 70.47640625 453.6434375 70.01953125 453.03515625 C69.55546875 452.44992187 69.09140625 451.8646875 68.61328125 451.26171875 C66.7286938 448.07138142 66.39443892 444.97995977 66.39927673 441.3225708 C66.39790207 440.51772751 66.3965274 439.71288422 66.39511108 438.88365173 C66.39870636 438.00971268 66.40230164 437.13577362 66.40600586 436.23535156 C66.40585983 435.30817825 66.40571381 434.38100494 66.40556335 433.42573547 C66.40625963 430.36322688 66.41403876 427.30077921 66.421875 424.23828125 C66.42374019 422.11407505 66.42516362 419.98986841 66.42616272 417.86566162 C66.42997994 412.2761313 66.43980347 406.68662698 66.4508667 401.09710693 C66.46109788 395.39286653 66.465664 389.68862193 66.47070312 383.984375 C66.48142643 372.79295733 66.49849334 361.60155895 66.51953125 350.41015625 C55.02356429 350.37373173 55.02356429 350.37373173 43.53125 350.62890625 C42.16341694 350.67464353 40.79557817 350.72021012 39.42773438 350.765625 C38.39338257 350.80115479 38.39338257 350.80115479 37.33813477 350.83740234 C24.62306487 351.27148309 11.93775281 351.51587737 -0.78637695 351.37304688 C-1.77855225 351.36466797 -2.77072754 351.35628906 -3.79296875 351.34765625 C-4.65535156 351.33605469 -5.51773437 351.32445312 -6.40625 351.3125 C-8.54318561 351.27290849 -8.54318561 351.27290849 -10.48046875 352.41015625 C-10.48046875 351.75015625 -10.48046875 351.09015625 -10.48046875 350.41015625 C-22.76322628 349.63021018 -22.76322628 349.63021018 -34.48046875 352.41015625 C-34.48046875 351.75015625 -34.48046875 351.09015625 -34.48046875 350.41015625 C-36.73075204 350.55155106 -38.98069081 350.69843628 -41.23046875 350.84765625 C-42.4834375 350.92886719 -43.73640625 351.01007813 -45.02734375 351.09375 C-47.66364428 351.33531147 -49.96084169 351.65299559 -52.48046875 352.41015625 C-52.48046875 352.08015625 -52.48046875 351.75015625 -52.48046875 351.41015625 C-67.00046875 351.41015625 -81.52046875 351.41015625 -96.48046875 351.41015625 C-96.81046875 352.07015625 -97.14046875 352.73015625 -97.48046875 353.41015625 C-97.98578125 353.09433594 -98.49109375 352.77851562 -99.01171875 352.453125 C-102.34647027 351.04429801 -105.37394522 350.93918965 -108.98046875 350.72265625 C-110.945 350.59310547 -110.945 350.59310547 -112.94921875 350.4609375 C-116.82923482 350.38812597 -116.82923482 350.38812597 -120.48046875 351.41015625 C-120.81046875 352.07015625 -121.14046875 352.73015625 -121.48046875 353.41015625 C-122.47046875 353.08015625 -123.46046875 352.75015625 -124.48046875 352.41015625 C-124.48046875 351.75015625 -124.48046875 351.09015625 -124.48046875 350.41015625 C-133.72046875 350.41015625 -142.96046875 350.41015625 -152.48046875 350.41015625 C-152.15046875 351.40015625 -151.82046875 352.39015625 -151.48046875 353.41015625 C-153.46046875 353.08015625 -155.44046875 352.75015625 -157.48046875 352.41015625 C-157.48046875 351.75015625 -157.48046875 351.09015625 -157.48046875 350.41015625 C-158.22296875 350.59578125 -158.96546875 350.78140625 -159.73046875 350.97265625 C-162.54618805 351.42061159 -163.78911374 351.10069921 -166.48046875 350.41015625 C-167.86247847 350.32193932 -169.24799189 350.27957092 -170.6328125 350.27734375 C-171.40947266 350.27605469 -172.18613281 350.27476562 -172.98632812 350.2734375 C-173.78876953 350.27730469 -174.59121094 350.28117187 -175.41796875 350.28515625 C-176.21654297 350.28128906 -177.01511719 350.27742188 -177.83789062 350.2734375 C-178.61583984 350.27472656 -179.39378906 350.27601563 -180.1953125 350.27734375 C-180.897771 350.27847168 -181.60022949 350.27959961 -182.32397461 350.28076172 C-184.52694562 350.3533299 -184.52694562 350.3533299 -186.80834961 350.9453125 C-190.16120554 351.52857771 -193.12756974 351.26228953 -196.51953125 350.98046875 C-205.42928541 350.32097345 -214.30941103 350.25787936 -223.24023438 350.27978516 C-225.90109696 350.28524996 -228.56179807 350.27974745 -231.22265625 350.2734375 C-232.92057329 350.27409665 -234.61849023 350.27537442 -236.31640625 350.27734375 C-237.50524918 350.2743074 -237.50524918 350.2743074 -238.71810913 350.27120972 C-242.7294487 350.19804066 -242.7294487 350.19804066 -246.48046875 351.41015625 C-246.48046875 352.07015625 -246.48046875 352.73015625 -246.48046875 353.41015625 C-248.46046875 353.08015625 -250.44046875 352.75015625 -252.48046875 352.41015625 C-252.48046875 351.75015625 -252.48046875 351.09015625 -252.48046875 350.41015625 C-253.05796875 350.74015625 -253.63546875 351.07015625 -254.23046875 351.41015625 C-256.48046875 352.41015625 -256.48046875 352.41015625 -260.48046875 352.41015625 C-260.48046875 351.75015625 -260.48046875 351.09015625 -260.48046875 350.41015625 C-261.34671875 350.59578125 -262.21296875 350.78140625 -263.10546875 350.97265625 C-266.53199503 351.41683558 -269.12259246 351.12970117 -272.48046875 350.41015625 C-272.48046875 351.07015625 -272.48046875 351.73015625 -272.48046875 352.41015625 C-273.80558472 352.19685669 -273.80558472 352.19685669 -275.1574707 351.97924805 C-284.32177242 350.61668857 -293.23206396 350.12366526 -302.49145508 350.2043457 C-304.70470372 350.22296529 -306.9175394 350.22485198 -309.13085938 350.22460938 C-316.87829639 350.15370124 -316.87829639 350.15370124 -324.48046875 351.41015625 C-326.06651618 351.15604985 -327.65234031 350.9004459 -329.23681641 350.63671875 C-334.3524125 350.12014931 -339.5449729 350.64336311 -344.66796875 350.91015625 C-346.99452042 351.03012106 -349.32134535 351.14492763 -351.6484375 351.25390625 C-352.67219482 351.30740234 -353.69595215 351.36089844 -354.75073242 351.41601562 C-357.26435475 351.41062014 -359.07327082 351.02631727 -361.48046875 350.41015625 C-363.50515586 350.32924533 -365.53231494 350.30256726 -367.55859375 350.3125 C-369.29882812 350.31733398 -369.29882812 350.31733398 -371.07421875 350.32226562 C-372.28078125 350.33064453 -373.48734375 350.33902344 -374.73046875 350.34765625 C-376.56351563 350.35442383 -376.56351563 350.35442383 -378.43359375 350.36132812 C-381.44926821 350.3731081 -384.46484373 350.38955772 -387.48046875 350.41015625 C-387.81046875 351.07015625 -388.14046875 351.73015625 -388.48046875 352.41015625 C-388.48046875 351.75015625 -388.48046875 351.09015625 -388.48046875 350.41015625 C-392.48045312 350.38087709 -396.48040951 350.36326406 -400.48046875 350.34765625 C-402.16849609 350.33508789 -402.16849609 350.33508789 -403.890625 350.32226562 C-409.86806144 350.30478774 -415.56500882 350.58665835 -421.48046875 351.41015625 C-424.35546875 350.97265625 -424.35546875 350.97265625 -426.48046875 350.41015625 C-428.51625575 350.23120121 -428.51625575 350.23120121 -430.08517456 351.43130493 C-432.21078921 354.44592033 -431.86485849 357.51912385 -431.80517578 361.07177734 C-431.80400757 361.8511264 -431.80283936 362.63047546 -431.80163574 363.43344116 C-431.79443426 366.01709328 -431.76618608 368.60008929 -431.73828125 371.18359375 C-431.73013966 372.98661713 -431.72347837 374.78964775 -431.7182312 376.59268188 C-431.7010858 381.35208734 -431.66685252 386.11120983 -431.62817383 390.8704834 C-431.56911616 398.45177398 -431.53479402 406.03319978 -431.50240707 413.6146431 C-431.48860324 416.24718748 -431.46697017 418.87957499 -431.44412231 421.51205444 C-431.24974793 448.88883983 -431.24974793 448.88883983 -436.48046875 454.41015625 C-442.36946131 459.15406692 -450.58015489 458.56690247 -457.8203125 458.578125 C-458.58670547 458.5814534 -459.35309845 458.5847818 -460.14271545 458.58821106 C-461.75195726 458.59323818 -463.36120934 458.5956207 -464.97045898 458.59545898 C-467.40821754 458.5976475 -469.84552419 458.61585366 -472.28320312 458.63476562 C-479.95175756 458.66076139 -487.02189856 458.38521897 -494.48046875 456.41015625 C-495.14046875 456.74015625 -495.80046875 457.07015625 -496.48046875 457.41015625 C-500.4367989 450.81627267 -502.72998927 445.44903458 -502.73215103 437.5962038 C-502.73505791 436.93242219 -502.73796479 436.26864057 -502.74095976 435.58474436 C-502.74825293 433.36266247 -502.74131966 431.1408573 -502.73443604 428.91877747 C-502.73674076 427.30864038 -502.73991736 425.69850434 -502.74389052 424.0883705 C-502.75224601 419.66511939 -502.74810976 415.24195449 -502.74191809 410.81870306 C-502.73739752 406.04758644 -502.74437552 401.27648476 -502.74987793 396.50537109 C-502.75877881 387.15784523 -502.75684653 377.81035145 -502.75105265 368.46282432 C-502.74653755 360.86389749 -502.7459226 353.26497965 -502.74810028 345.66605186 C-502.74840675 344.58487451 -502.74871321 343.50369716 -502.74902897 342.38975685 C-502.74966842 340.1933621 -502.75031684 337.99696735 -502.75097415 335.8005726 C-502.75667983 315.19508985 -502.75011653 294.58962489 -502.73937342 273.98414507 C-502.73044402 256.31062881 -502.73198444 238.63713883 -502.74121094 220.96362305 C-502.75192028 200.44007535 -502.75612381 179.91654326 -502.74998641 159.39299315 C-502.74934932 157.20310859 -502.74872058 155.01322403 -502.74810028 152.82333946 C-502.74779173 151.74589011 -502.74748318 150.66844075 -502.74716528 149.55834142 C-502.74543986 141.97269084 -502.74835028 134.38705018 -502.75305939 126.80140114 C-502.75867587 117.55065611 -502.75713588 108.29994501 -502.7464979 99.04920385 C-502.74125057 94.33093459 -502.73916837 89.61272186 -502.7457962 84.89445305 C-502.75177758 80.57087264 -502.74844453 76.24740086 -502.7378411 71.92383023 C-502.73561625 70.36393295 -502.73672268 68.80402639 -502.74159268 67.24413512 C-502.78220449 53.14897705 -502.30155596 40.02636323 -492.3671875 29.08203125 C-485.07243263 22.27863292 -477.8365586 18.46265287 -467.84375 18.09375 C-466.72121826 18.05193604 -465.59868652 18.01012207 -464.44213867 17.96704102 C-462.63579956 17.90794556 -462.63579956 17.90794556 -460.79296875 17.84765625 C-459.54942627 17.80374756 -458.30588379 17.75983887 -457.0246582 17.71459961 C-448.73289956 17.44583407 -440.46276632 17.40179328 -432.16796875 17.47265625 C-411.16014157 17.53598664 -393.5491505 12.60369083 -374.47265625 3.76489258 C-368.50497796 1.06297949 -362.42533321 -1.37834064 -356.35546875 -3.83984375 C-355.65660553 -4.12330658 -354.95774231 -4.40676941 -354.23770142 -4.69882202 C-311.81448115 -21.86641305 -269.01615247 -33.75920913 -223.48046875 -38.58984375 C-222.54146729 -38.69224365 -221.60246582 -38.79464355 -220.63500977 -38.90014648 C-144.15040609 -46.01722398 -70.11212454 -29.82806095 0 0 Z M-354.12109375 18.45703125 C-355.36887352 18.98465309 -355.36887352 18.98465309 -356.64186096 19.52293396 C-360.72127871 21.25163611 -364.79510999 22.99210645 -368.86108398 24.75219727 C-376.42578273 28.00919868 -384.0212162 31.08880394 -391.8125 33.765625 C-392.83086189 34.12543205 -392.83086189 34.12543205 -393.86979675 34.49250793 C-404.74627999 38.10535725 -415.88573077 38.69822113 -427.26171875 38.71875 C-429.83984635 38.74387491 -432.4179713 38.76927335 -434.99609375 38.79492188 C-439.00976294 38.82379542 -443.02338132 38.84810109 -447.03710938 38.86645508 C-450.94549388 38.88538261 -454.85350648 38.92743701 -458.76171875 38.96875 C-460.56485535 38.96892372 -460.56485535 38.96892372 -462.40441895 38.96910095 C-464.0827179 38.98910912 -464.0827179 38.98910912 -465.79492188 39.00952148 C-466.77497192 39.01459213 -467.75502197 39.01966278 -468.76477051 39.02488708 C-473.27224707 39.66435126 -475.8127991 41.63120832 -478.73046875 45.03515625 C-482.08821831 51.51081611 -481.62794608 59.06382436 -481.60072327 66.23707581 C-481.60157769 67.07781031 -481.60243212 67.91854482 -481.60331243 68.78475612 C-481.60494747 71.57600882 -481.59947851 74.36720019 -481.59399414 77.15844727 C-481.59371182 79.16960143 -481.59387089 81.18075569 -481.59443665 83.19190979 C-481.59472285 88.63336114 -481.58885468 94.07479033 -481.58186269 99.51623654 C-481.57559973 105.20971135 -481.57502302 110.90318671 -481.57383728 116.59666443 C-481.57073264 127.36990684 -481.56253093 138.14313907 -481.55248779 148.91637701 C-481.54129973 161.18479108 -481.53580942 173.45320564 -481.53079236 185.72162354 C-481.52034759 210.95114008 -481.50276494 236.18064759 -481.48046875 261.41015625 C-424.68789957 261.44437714 -367.89532937 261.47622041 -311.10275269 261.49484253 C-309.84286149 261.4952567 -309.84286149 261.4952567 -308.55751796 261.49567924 C-290.30566754 261.50166441 -272.05381701 261.50720486 -253.80196632 261.51228691 C-244.85186424 261.51478168 -235.90176219 261.51737478 -226.95166016 261.52001953 C-226.06099543 261.52028105 -225.1703307 261.52054257 -224.25267613 261.52081201 C-195.35957309 261.52934176 -166.46647785 261.54436962 -137.57337954 261.56275069 C-107.89344785 261.58159813 -78.21352047 261.59392301 -48.5335829 261.59798623 C-44.34595502 261.59856258 -40.15832717 261.59921385 -35.97069931 261.59991074 C-34.73436505 261.60011301 -34.73436505 261.60011301 -33.47305434 261.60031936 C-20.18054863 261.60268706 -6.88805624 261.61197464 6.40444403 261.62382032 C19.75287346 261.63556924 33.10128963 261.64009864 46.44972406 261.637159 C54.38998202 261.63563249 62.33019161 261.63974086 70.27044087 261.65175134 C76.18474551 261.66008986 82.09901624 261.65810309 88.01332463 261.65195404 C90.41711415 261.65110279 92.82090764 261.65369311 95.22468923 261.65992261 C98.47170309 261.66785359 101.71847326 261.66368126 104.96548271 261.65625191 C105.91641857 261.66150593 106.86735442 261.66675996 107.84710652 261.6721732 C108.70591775 261.66767862 109.56472899 261.66318403 110.44956481 261.65855324 C111.19296847 261.6588652 111.93637212 261.65917717 112.70230316 261.65949858 C114.77039101 261.56224408 114.77039101 261.56224408 116.51953125 259.41015625 C116.76264228 257.33508611 116.76264228 257.33508611 116.64453125 255.03515625 C116.61746094 253.87886719 116.61746094 253.87886719 116.58984375 252.69921875 C116.55503906 251.56613281 116.55503906 251.56613281 116.51953125 250.41015625 C116.51953125 249.09015625 116.51953125 247.77015625 116.51953125 246.41015625 C116.45566587 244.83033728 116.38202107 243.25089585 116.30078125 241.671875 C116.25566406 240.76888672 116.21054687 239.86589844 116.1640625 238.93554688 C116.06830361 237.05530813 115.97195688 235.17509922 115.875 233.29492188 C115.18447308 219.41533076 115.18447308 219.41533076 116.51953125 215.41015625 C115.85953125 215.41015625 115.19953125 215.41015625 114.51953125 215.41015625 C114.84953125 214.21390625 115.17953125 213.01765625 115.51953125 211.78515625 C116.41218948 208.25224128 116.7024917 205.06936516 116.51953125 201.41015625 C115.85953125 201.41015625 115.19953125 201.41015625 114.51953125 201.41015625 C114.76268633 200.36404427 114.76268633 200.36404427 115.01075363 199.29679871 C115.55433054 196.21271614 115.65135085 193.35521002 115.65997314 190.22387695 C115.66568329 188.97893463 115.67139343 187.73399231 115.67727661 186.45132446 C115.67852178 185.07952891 115.67964692 183.70773324 115.68066406 182.3359375 C115.68529544 180.88520177 115.69032054 179.43446725 115.69570923 177.98373413 C115.70880009 174.0499361 115.71527112 170.11615511 115.71971989 166.18233871 C115.72265457 163.72406537 115.72676001 161.26579665 115.73122406 158.80752563 C115.74488716 151.11404919 115.75456093 143.42058334 115.75842595 135.7270956 C115.76291091 126.84906925 115.78048399 117.97119653 115.80942655 109.0932169 C115.83103407 102.22684952 115.84112965 95.36052543 115.84246707 88.49412441 C115.84351531 84.39434839 115.84942761 80.29471702 115.86728668 76.19497681 C115.88375246 72.34045464 115.88593027 68.48618617 115.87714767 64.63164139 C115.87637663 63.21790513 115.88072898 61.8041553 115.89060593 60.39045334 C115.90330716 58.45915547 115.89566354 56.52775586 115.88702393 54.59643555 C115.88849049 53.51613571 115.88995705 52.43583588 115.89146805 51.32279968 C115.3114597 46.78074441 113.38252453 44.22413961 110.10351562 41.13134766 C104.82600034 38.59684611 99.95945301 38.84571966 94.17578125 38.87109375 C92.97449585 38.85930084 91.77321045 38.84750793 90.53552246 38.83535767 C86.69672754 38.80011282 82.85847456 38.79093779 79.01953125 38.78515625 C75.20931724 38.76871624 71.39934204 38.74640488 67.5892334 38.71353149 C65.22284033 38.69419332 62.85633934 38.68453412 60.48986816 38.68661499 C48.18195317 38.60880374 36.63931267 36.91632147 25.01953125 32.84765625 C23.50516479 32.33235352 23.50516479 32.33235352 21.96020508 31.80664062 C13.63894613 28.92354212 5.48366503 25.66524117 -2.61328125 22.20483398 C-3.47308594 21.83946533 -4.33289063 21.47409668 -5.21875 21.09765625 C-5.97196533 20.77152344 -6.72518066 20.44539063 -7.5012207 20.109375 C-9.60206019 19.24360627 -9.60206019 19.24360627 -12.48046875 19.41015625 C-12.81046875 18.75015625 -13.14046875 18.09015625 -13.48046875 17.41015625 C-15.87165381 16.34205423 -18.23780751 15.38438413 -20.6875 14.46875 C-21.43173218 14.18499008 -22.17596436 13.90123016 -22.94274902 13.60887146 C-25.38966868 12.67985982 -27.84085538 11.76286432 -30.29296875 10.84765625 C-31.12670013 10.53435364 -31.96043152 10.22105103 -32.81942749 9.89825439 C-65.71128306 -5.16523006 -65.71128306 -5.16523006 -99.48046875 -8.58984375 C-99.48046875 -9.24984375 -99.48046875 -9.90984375 -99.48046875 -10.58984375 C-103.83267746 -11.43362558 -108.18751305 -12.26299993 -112.54296875 -13.08984375 C-113.77208984 -13.32832031 -115.00121094 -13.56679688 -116.26757812 -13.8125 C-118.06098633 -14.15087891 -118.06098633 -14.15087891 -119.890625 -14.49609375 C-120.98511963 -14.70556641 -122.07961426 -14.91503906 -123.20727539 -15.13085938 C-126.66714503 -15.61602048 -129.99215477 -15.59633112 -133.48046875 -15.58984375 C-133.81046875 -15.91984375 -134.14046875 -16.24984375 -134.48046875 -16.58984375 C-136.872108 -16.89448803 -139.24369496 -17.13900718 -141.64453125 -17.34375 C-142.37964935 -17.40914978 -143.11476746 -17.47454956 -143.87216187 -17.54193115 C-146.28270896 -17.75266 -148.69386736 -17.95405718 -151.10546875 -18.15234375 C-151.92756836 -18.22021088 -152.74966797 -18.288078 -153.59667969 -18.35800171 C-223.09293622 -24.00660778 -290.37707704 -8.49846854 -354.12109375 18.45703125 Z M115.51953125 223.41015625 C116.51953125 225.41015625 116.51953125 225.41015625 116.51953125 225.41015625 Z M-481.48046875 282.41015625 C-481.48046875 297.92015625 -481.48046875 313.43015625 -481.48046875 329.41015625 C-284.80046875 329.41015625 -88.12046875 329.41015625 114.51953125 329.41015625 C115.42284172 326.70022485 115.6458201 325.13541655 115.64892578 322.35351562 C115.65207794 321.54257446 115.6552301 320.7316333 115.65847778 319.89611816 C115.65645355 319.02418823 115.65442932 318.1522583 115.65234375 317.25390625 C115.65330048 316.35522827 115.6542572 315.45655029 115.65524292 314.53063965 C115.6559233 312.63094004 115.65407891 310.7312381 115.64990234 308.83154297 C115.6445521 305.92149643 115.64985214 303.01160423 115.65625 300.1015625 C115.65558919 298.25651008 115.65430798 296.41145775 115.65234375 294.56640625 C115.65436798 293.69447632 115.65639221 292.82254639 115.65847778 291.92419434 C115.65374954 290.70778259 115.65374954 290.70778259 115.64892578 289.46679688 C115.64813019 288.75414673 115.64733459 288.04149658 115.64651489 287.30725098 C115.58454114 285.18491494 115.58454114 285.18491494 114.51953125 282.41015625 C-82.16046875 282.41015625 -278.84046875 282.41015625 -481.48046875 282.41015625 Z M115.51953125 327.41015625 C116.51953125 329.41015625 116.51953125 329.41015625 116.51953125 329.41015625 Z M-474.48046875 349.72265625 C-475.84171875 349.80966797 -475.84171875 349.80966797 -477.23046875 349.8984375 C-479.85310624 350.22343524 -479.85310624 350.22343524 -481.48046875 353.41015625 C-481.66475137 356.15911463 -481.73272501 358.80516913 -481.70751953 361.5534668 C-481.70781158 362.38295837 -481.70810364 363.21244995 -481.70840454 364.06707764 C-481.70701054 366.81044962 -481.69144607 369.55355043 -481.67578125 372.296875 C-481.67205137 374.1983068 -481.66920428 376.09974052 -481.66720581 378.00117493 C-481.6595674 383.00714418 -481.63991709 388.01299748 -481.61779785 393.0189209 C-481.59734392 398.12653027 -481.58820506 403.23415836 -481.578125 408.34179688 C-481.55667141 418.36464249 -481.52148754 428.38737159 -481.48046875 438.41015625 C-471.91046875 438.41015625 -462.34046875 438.41015625 -452.48046875 438.41015625 C-452.81046875 437.09015625 -453.14046875 435.77015625 -453.48046875 434.41015625 C-453.56994287 431.67954359 -453.606724 428.97529656 -453.59399414 426.24511719 C-453.59414017 425.42523315 -453.59428619 424.60534912 -453.59443665 423.76062012 C-453.59374093 421.05523009 -453.58596447 418.34990923 -453.578125 415.64453125 C-453.57625961 413.76694781 -453.57483628 411.88936388 -453.57383728 410.01177979 C-453.57002164 405.07326918 -453.56019946 400.13478804 -453.5491333 395.19628906 C-453.53889871 390.15560301 -453.53433527 385.1149122 -453.52929688 380.07421875 C-453.51857636 370.18618498 -453.50151135 360.29817307 -453.48046875 350.41015625 C-460.50096294 348.94555346 -467.34398333 349.26374839 -474.48046875 349.72265625 Z M91.51953125 352.41015625 C91.51953125 351.75015625 91.51953125 351.09015625 91.51953125 350.41015625 C90.19953125 350.41015625 88.87953125 350.41015625 87.51953125 350.41015625 C87.51953125 379.45015625 87.51953125 408.49015625 87.51953125 438.41015625 C97.08953125 438.41015625 106.65953125 438.41015625 116.51953125 438.41015625 C115.19953125 438.08015625 113.87953125 437.75015625 112.51953125 437.41015625 C114.00453125 436.91515625 114.00453125 436.91515625 115.51953125 436.41015625 C115.51953125 435.42710007 115.51953125 434.44404388 115.51953125 433.43119812 C115.51953125 407.09085083 115.51953125 380.75050354 115.51953125 354.41015625 C115.18953125 353.75015625 114.85953125 353.09015625 114.51953125 352.41015625 C114.84953125 351.75015625 115.17953125 351.09015625 115.51953125 350.41015625 C106.75256601 349.13496131 99.5951285 348.28644702 91.51953125 352.41015625 Z " fill="#3D3A36" transform="translate(693.48046875,302.58984375)"/>
<path d="M0 0 C5.94 0 11.88 0 18 0 C18 0.33 18 0.66 18 1 C12.06 1 6.12 1 0 1 C0 0.67 0 0.34 0 0 Z " fill="#3D3A36" transform="translate(256,343)"/>
<path d="M0 0 C3.96 0 7.92 0 12 0 C12 0.33 12 0.66 12 1 C8.04 1 4.08 1 0 1 C0 0.67 0 0.34 0 0 Z " fill="#3D3A36" transform="translate(243,343)"/>
<path d="M0 0 C1.98 0 3.96 0 6 0 C6 0.33 6 0.66 6 1 C4.02 1 2.04 1 0 1 C0 0.67 0 0.34 0 0 Z " fill="#3D3A36" transform="translate(772,343)"/>
<path d="M0 0 C1.32 0 2.64 0 4 0 C3.67 0.66 3.34 1.32 3 2 C2.01 1.34 1.02 0.68 0 0 Z " fill="#3D3A36" transform="translate(625,654)"/>
<path d="M0 0 C1.65 0 3.3 0 5 0 C5 0.33 5 0.66 5 1 C3.35 1 1.7 1 0 1 C0 0.67 0 0.34 0 0 Z " fill="#3D3A36" transform="translate(608,654)"/>
<path d="M0 0 C1.65 0 3.3 0 5 0 C5 0.33 5 0.66 5 1 C3.35 1 1.7 1 0 1 C0 0.67 0 0.34 0 0 Z " fill="#3D3A36" transform="translate(779,343)"/>
<path d="M0 0 C1.32 0.33 2.64 0.66 4 1 C3.01 1.33 2.02 1.66 1 2 C0.67 1.34 0.34 0.68 0 0 Z " fill="#3D3A36" transform="translate(475,286)"/>
<path d="M0 0 C0.66 0 1.32 0 2 0 C2 0.66 2 1.32 2 2 C1.34 2 0.68 2 0 2 C0 1.34 0 0.68 0 0 Z " fill="#3D3A36" transform="translate(782,654)"/>
<path d="M0 0 C4 1 4 1 4 1 Z " fill="#3D3A36" transform="translate(673,654)"/>
<path d="M0 0 C4 1 4 1 4 1 Z " fill="#3D3A36" transform="translate(617,654)"/>
<path d="M0 0 C4 1 4 1 4 1 Z " fill="#3D3A36" transform="translate(545,654)"/>
<path d="M0 0 C4 1 4 1 4 1 Z " fill="#3D3A36" transform="translate(481,654)"/>
<path d="M0 0 C4 1 4 1 4 1 Z " fill="#3D3A36" transform="translate(465,654)"/>
<path d="M0 0 C0.66 0.33 1.32 0.66 2 1 C1.01 1 0.02 1 -1 1 C-0.67 0.67 -0.34 0.34 0 0 Z " fill="#3D3A36" transform="translate(438,654)"/>
<path d="M0 0 C4 1 4 1 4 1 Z " fill="#3D3A36" transform="translate(757,343)"/>
<path d="M0 0 C4 1 4 1 4 1 Z " fill="#3D3A36" transform="translate(804,320)"/>
<path d="M0 0 C4 1 4 1 4 1 Z " fill="#3D3A36" transform="translate(215,320)"/>
<path d="M0 0 C0.99 0 1.98 0 3 0 C2.67 0.66 2.34 1.32 2 2 C1.34 1.34 0.68 0.68 0 0 Z " fill="#3D3A36" transform="translate(539,286)"/>
<path d="M0 0 C0.99 0.33 1.98 0.66 3 1 C2.01 1 1.02 1 0 1 C0 0.67 0 0.34 0 0 Z " fill="#3D3A36" transform="translate(536,285)"/>
<path d="M0 0 C0.66 0.33 1.32 0.66 2 1 C1.01 1 0.02 1 -1 1 C-0.67 0.67 -0.34 0.34 0 0 Z " fill="#3D3A36" transform="translate(408,272)"/>
<path d="M0 0 C3 1 3 1 3 1 Z " fill="#3D3A36" transform="translate(784,739)"/>
<path d="M0 0 C3 1 3 1 3 1 Z " fill="#3D3A36" transform="translate(216,739)"/>
<path d="" fill="#3D3A36" transform="translate(0,0)"/>
<path d="M0 0 C3 1 3 1 3 1 Z " fill="#3D3A36" transform="translate(802,654)"/>
<path d="M0 0 C3 1 3 1 3 1 Z " fill="#3D3A36" transform="translate(690,654)"/>
<path d="M0 0 C3 1 3 1 3 1 Z " fill="#3D3A36" transform="translate(633,654)"/>
<path d="M0 0 C0.99 0.495 0.99 0.495 2 1 C1.01 1.495 1.01 1.495 0 2 C0 1.34 0 0.68 0 0 Z " fill="#3D3A36" transform="translate(574,654)"/>
<path d="M0 0 C3 1 3 1 3 1 Z " fill="#3D3A36" transform="translate(562,654)"/>
<path d="M0 0 C0.99 0.495 0.99 0.495 2 1 C1.01 1.495 1.01 1.495 0 2 C0 1.34 0 0.68 0 0 Z " fill="#3D3A36" transform="translate(550,654)"/>
<path d="M0 0 C3 1 3 1 3 1 Z " fill="#3D3A36" transform="translate(515,654)"/>
<path d="M0 0 C3 1 3 1 3 1 Z " fill="#3D3A36" transform="translate(370,654)"/>
<path d="M0 0 C0.99 0.495 0.99 0.495 2 1 C1.01 1.495 1.01 1.495 0 2 C0 1.34 0 0.68 0 0 Z " fill="#3D3A36" transform="translate(214,654)"/>
<path d="M0 0 C3 1 3 1 3 1 Z " fill="#3D3A36" transform="translate(214,562)"/>
<path d="M0 0 C3 1 3 1 3 1 Z " fill="#3D3A36" transform="translate(764,343)"/>
<path d="M0 0 C3 1 3 1 3 1 Z " fill="#3D3A36" transform="translate(236,343)"/>
<path d="M0 0 C0.66 0 1.32 0 2 0 C1.67 0.66 1.34 1.32 1 2 C0.67 1.34 0.34 0.68 0 0 Z " fill="#3D3A36" transform="translate(706,333)"/>
<path d="M0 0 C3 1 3 1 3 1 Z " fill="#3D3A36" transform="translate(640,307)"/>
<path d="M0 0 C3 1 3 1 3 1 Z " fill="#3D3A36" transform="translate(529,285)"/>
<path d="M0 0 C3 1 3 1 3 1 Z " fill="#3D3A36" transform="translate(456,264)"/>
<path d="M0 0 C2 1 2 1 2 1 Z " fill="#3D3A36" transform="translate(192,755)"/>
<path d="M0 0 C2 1 2 1 2 1 Z " fill="#3D3A36" transform="translate(800,739)"/>
<path d="M0 0 C2 1 2 1 2 1 Z " fill="#3D3A36" transform="translate(789,739)"/>
<path d="M0 0 C2 1 2 1 2 1 Z " fill="#3D3A36" transform="translate(230,738)"/>
<path d="M0 0 C2 1 2 1 2 1 Z " fill="#3D3A36" transform="translate(799,737)"/>
<path d="" fill="#3D3A36" transform="translate(0,0)"/>
<path d="" fill="#3D3A36" transform="translate(0,0)"/>
<path d="" fill="#3D3A36" transform="translate(0,0)"/>
<path d="" fill="#3D3A36" transform="translate(0,0)"/>
<path d="" fill="#3D3A36" transform="translate(0,0)"/>
<path d="" fill="#3D3A36" transform="translate(0,0)"/>
<path d="" fill="#3D3A36" transform="translate(0,0)"/>
<path d="" fill="#3D3A36" transform="translate(0,0)"/>
<path d="" fill="#3D3A36" transform="translate(0,0)"/>
<path d="M0 0 C2 1 2 1 2 1 Z " fill="#3D3A36" transform="translate(795,654)"/>
<path d="M0 0 C2 1 2 1 2 1 Z " fill="#3D3A36" transform="translate(790,654)"/>
<path d="M0 0 C2 1 2 1 2 1 Z " fill="#3D3A36" transform="translate(745,654)"/>
<path d="M0 0 C2 1 2 1 2 1 Z " fill="#3D3A36" transform="translate(726,654)"/>
<path d="M0 0 C2 1 2 1 2 1 Z " fill="#3D3A36" transform="translate(715,654)"/>
<path d="M0 0 C2 1 2 1 2 1 Z " fill="#3D3A36" transform="translate(707,654)"/>
<path d="M0 0 C2 1 2 1 2 1 Z " fill="#3D3A36" transform="translate(694,654)"/>
<path d="M0 0 C2 1 2 1 2 1 Z " fill="#3D3A36" transform="translate(670,654)"/>
<path d="M0 0 C2 1 2 1 2 1 Z " fill="#3D3A36" transform="translate(667,654)"/>
<path d="M0 0 C2 1 2 1 2 1 Z " fill="#3D3A36" transform="translate(649,654)"/>
<path d="M0 0 C2 1 2 1 2 1 Z " fill="#3D3A36" transform="translate(638,654)"/>
<path d="M0 0 C2 1 2 1 2 1 Z " fill="#3D3A36" transform="translate(598,654)"/>
<path d="M0 0 C2 1 2 1 2 1 Z " fill="#3D3A36" transform="translate(542,654)"/>
<path d="M0 0 C2 1 2 1 2 1 Z " fill="#3D3A36" transform="translate(526,654)"/>
<path d="M0 0 C2 1 2 1 2 1 Z " fill="#3D3A36" transform="translate(523,654)"/>
<path d="M0 0 C2 1 2 1 2 1 Z " fill="#3D3A36" transform="translate(491,654)"/>
<path d="M0 0 C2 1 2 1 2 1 Z " fill="#3D3A36" transform="translate(488,654)"/>
<path d="M0 0 C2 1 2 1 2 1 Z " fill="#3D3A36" transform="translate(451,654)"/>
<path d="M0 0 C2 1 2 1 2 1 Z " fill="#3D3A36" transform="translate(403,654)"/>
<path d="M0 0 C2 1 2 1 2 1 Z " fill="#3D3A36" transform="translate(379,654)"/>
<path d="M0 0 C2 1 2 1 2 1 Z " fill="#3D3A36" transform="translate(355,654)"/>
<path d="M0 0 C2 1 2 1 2 1 Z " fill="#3D3A36" transform="translate(347,654)"/>
<path d="M0 0 C2 1 2 1 2 1 Z " fill="#3D3A36" transform="translate(323,654)"/>
<path d="M0 0 C2 1 2 1 2 1 Z " fill="#3D3A36" transform="translate(307,654)"/>
<path d="M0 0 C2 1 2 1 2 1 Z " fill="#3D3A36" transform="translate(299,654)"/>
<path d="M0 0 C2 1 2 1 2 1 Z " fill="#3D3A36" transform="translate(291,654)"/>
<path d="M0 0 C2 1 2 1 2 1 Z " fill="#3D3A36" transform="translate(283,654)"/>
<path d="M0 0 C2 1 2 1 2 1 Z " fill="#3D3A36" transform="translate(275,654)"/>
<path d="" fill="#3D3A36" transform="translate(0,0)"/>
<path d="" fill="#3D3A36" transform="translate(0,0)"/>
<path d="M0 0 C2 1 2 1 2 1 Z " fill="#3D3A36" transform="translate(744,343)"/>
<path d="" fill="#3D3A36" transform="translate(0,0)"/>
<path d="M0 0 C2 1 2 1 2 1 Z " fill="#3D3A36" transform="translate(276,343)"/>
<path d="M0 0 C2 1 2 1 2 1 Z " fill="#3D3A36" transform="translate(232,343)"/>
<path d="M0 0 C2 1 2 1 2 1 Z " fill="#3D3A36" transform="translate(228,343)"/>
<path d="M0 0 C2 1 2 1 2 1 Z " fill="#3D3A36" transform="translate(223,343)"/>
<path d="M0 0 C2 1 2 1 2 1 Z " fill="#3D3A36" transform="translate(289,341)"/>
<path d="" fill="#3D3A36" transform="translate(0,0)"/>
<path d="M0 0 C2 1 2 1 2 1 Z " fill="#3D3A36" transform="translate(208,322)"/>
<path d="" fill="#3D3A36" transform="translate(0,0)"/>
<path d="" fill="#3D3A36" transform="translate(0,0)"/>
<path d="M0 0 C2 1 2 1 2 1 Z " fill="#3D3A36" transform="translate(702,305)"/>
<path d="M0 0 C2 1 2 1 2 1 Z " fill="#3D3A36" transform="translate(700,304)"/>
<path d="M0 0 C2 1 2 1 2 1 Z " fill="#3D3A36" transform="translate(320,304)"/>
<path d="M0 0 C2 1 2 1 2 1 Z " fill="#3D3A36" transform="translate(401,301)"/>
<path d="M0 0 C2 1 2 1 2 1 Z " fill="#3D3A36" transform="translate(585,292)"/>
<path d="M0 0 C2 1 2 1 2 1 Z " fill="#3D3A36" transform="translate(547,286)"/>
<path d="M0 0 C2 1 2 1 2 1 Z " fill="#3D3A36" transform="translate(544,286)"/>
<path d="M0 0 C2 1 2 1 2 1 Z " fill="#3D3A36" transform="translate(489,285)"/>
<path d="M0 0 C2 1 2 1 2 1 Z " fill="#3D3A36" transform="translate(369,282)"/>
<path d="M0 0 C2 1 2 1 2 1 Z " fill="#3D3A36" transform="translate(577,266)"/>
<path d="M0 0 C2 1 2 1 2 1 Z " fill="#3D3A36" transform="translate(452,264)"/>
<path d="" fill="#3D3A36" transform="translate(0,0)"/>
<path d="" fill="#3D3A36" transform="translate(0,0)"/>
<path d="" fill="#3D3A36" transform="translate(0,0)"/>
<path d="" fill="#3D3A36" transform="translate(0,0)"/>
<path d="" fill="#3D3A36" transform="translate(0,0)"/>
<path d="" fill="#3D3A36" transform="translate(0,0)"/>
<path d="" fill="#3D3A36" transform="translate(0,0)"/>
<path d="" fill="#3D3A36" transform="translate(0,0)"/>
<path d="" fill="#3D3A36" transform="translate(0,0)"/>
<path d="" fill="#3D3A36" transform="translate(0,0)"/>
<path d="" fill="#3D3A36" transform="translate(0,0)"/>
<path d="" fill="#3D3A36" transform="translate(0,0)"/>
<path d="" fill="#3D3A36" transform="translate(0,0)"/>
<path d="" fill="#3D3A36" transform="translate(0,0)"/>
<path d="" fill="#3D3A36" transform="translate(0,0)"/>
<path d="" fill="#3D3A36" transform="translate(0,0)"/>
<path d="" fill="#3D3A36" transform="translate(0,0)"/>
<path d="" fill="#3D3A36" transform="translate(0,0)"/>
<path d="" fill="#3D3A36" transform="translate(0,0)"/>
<path d="" fill="#3D3A36" transform="translate(0,0)"/>
<path d="" fill="#3D3A36" transform="translate(0,0)"/>
<path d="" fill="#3D3A36" transform="translate(0,0)"/>
<path d="" fill="#3D3A36" transform="translate(0,0)"/>
<path d="" fill="#3D3A36" transform="translate(0,0)"/>
<path d="" fill="#3D3A36" transform="translate(0,0)"/>
<path d="" fill="#3D3A36" transform="translate(0,0)"/>
<path d="" fill="#3D3A36" transform="translate(0,0)"/>
<path d="" fill="#3D3A36" transform="translate(0,0)"/>
<path d="" fill="#3D3A36" transform="translate(0,0)"/>
<path d="" fill="#3D3A36" transform="translate(0,0)"/>
<path d="" fill="#3D3A36" transform="translate(0,0)"/>
<path d="" fill="#3D3A36" transform="translate(0,0)"/>
<path d="" fill="#3D3A36" transform="translate(0,0)"/>
<path d="" fill="#3D3A36" transform="translate(0,0)"/>
<path d="" fill="#3D3A36" transform="translate(0,0)"/>
<path d="" fill="#3D3A36" transform="translate(0,0)"/>
<path d="" fill="#3D3A36" transform="translate(0,0)"/>
<path d="" fill="#3D3A36" transform="translate(0,0)"/>
<path d="" fill="#3D3A36" transform="translate(0,0)"/>
<path d="" fill="#3D3A36" transform="translate(0,0)"/>
<path d="" fill="#3D3A36" transform="translate(0,0)"/>
<path d="" fill="#3D3A36" transform="translate(0,0)"/>
<path d="" fill="#3D3A36" transform="translate(0,0)"/>
<path d="" fill="#3D3A36" transform="translate(0,0)"/>
<path d="" fill="#3D3A36" transform="translate(0,0)"/>
<path d="" fill="#3D3A36" transform="translate(0,0)"/>
<path d="" fill="#3D3A36" transform="translate(0,0)"/>
<path d="" fill="#3D3A36" transform="translate(0,0)"/>
<path d="" fill="#3D3A36" transform="translate(0,0)"/>
<path d="" fill="#3D3A36" transform="translate(0,0)"/>
<path d="" fill="#3D3A36" transform="translate(0,0)"/>
<path d="" fill="#3D3A36" transform="translate(0,0)"/>
<path d="" fill="#3D3A36" transform="translate(0,0)"/>
<path d="" fill="#3D3A36" transform="translate(0,0)"/>
<path d="" fill="#3D3A36" transform="translate(0,0)"/>
<path d="" fill="#3D3A36" transform="translate(0,0)"/>
<path d="" fill="#3D3A36" transform="translate(0,0)"/>
<path d="" fill="#3D3A36" transform="translate(0,0)"/>
<path d="" fill="#3D3A36" transform="translate(0,0)"/>
<path d="" fill="#3D3A36" transform="translate(0,0)"/>
<path d="" fill="#3D3A36" transform="translate(0,0)"/>
<path d="" fill="#3D3A36" transform="translate(0,0)"/>
<path d="" fill="#3D3A36" transform="translate(0,0)"/>
<path d="" fill="#3D3A36" transform="translate(0,0)"/>
<path d="" fill="#3D3A36" transform="translate(0,0)"/>
<path d="" fill="#3D3A36" transform="translate(0,0)"/>
<path d="" fill="#3D3A36" transform="translate(0,0)"/>
<path d="" fill="#3D3A36" transform="translate(0,0)"/>
<path d="" fill="#3D3A36" transform="translate(0,0)"/>
<path d="" fill="#3D3A36" transform="translate(0,0)"/>
<path d="" fill="#3D3A36" transform="translate(0,0)"/>
<path d="" fill="#3D3A36" transform="translate(0,0)"/>
<path d="" fill="#3D3A36" transform="translate(0,0)"/>
<path d="" fill="#3D3A36" transform="translate(0,0)"/>
<path d="" fill="#3D3A36" transform="translate(0,0)"/>
<path d="" fill="#3D3A36" transform="translate(0,0)"/>
<path d="" fill="#3D3A36" transform="translate(0,0)"/>
<path d="" fill="#3D3A36" transform="translate(0,0)"/>
<path d="" fill="#3D3A36" transform="translate(0,0)"/>
<path d="" fill="#3D3A36" transform="translate(0,0)"/>
<path d="" fill="#3D3A36" transform="translate(0,0)"/>
<path d="" fill="#3D3A36" transform="translate(0,0)"/>
<path d="" fill="#3D3A36" transform="translate(0,0)"/>
<path d="" fill="#3D3A36" transform="translate(0,0)"/>
<path d="" fill="#3D3A36" transform="translate(0,0)"/>
<path d="" fill="#3D3A36" transform="translate(0,0)"/>
<path d="" fill="#3D3A36" transform="translate(0,0)"/>
<path d="" fill="#3D3A36" transform="translate(0,0)"/>
<path d="" fill="#3D3A36" transform="translate(0,0)"/>
<path d="" fill="#3D3A36" transform="translate(0,0)"/>
<path d="" fill="#3D3A36" transform="translate(0,0)"/>
<path d="" fill="#3D3A36" transform="translate(0,0)"/>
<path d="" fill="#3D3A36" transform="translate(0,0)"/>
<path d="" fill="#3D3A36" transform="translate(0,0)"/>
<path d="" fill="#3D3A36" transform="translate(0,0)"/>
<path d="" fill="#3D3A36" transform="translate(0,0)"/>
<path d="" fill="#3D3A36" transform="translate(0,0)"/>
<path d="" fill="#3D3A36" transform="translate(0,0)"/>
<path d="" fill="#3D3A36" transform="translate(0,0)"/>
<path d="" fill="#3D3A36" transform="translate(0,0)"/>
<path d="" fill="#3D3A36" transform="translate(0,0)"/>
<path d="" fill="#3D3A36" transform="translate(0,0)"/>
<path d="" fill="#3D3A36" transform="translate(0,0)"/>
<path d="" fill="#3D3A36" transform="translate(0,0)"/>
<path d="" fill="#3D3A36" transform="translate(0,0)"/>
<path d="" fill="#3D3A36" transform="translate(0,0)"/>
<path d="" fill="#3D3A36" transform="translate(0,0)"/>
<path d="" fill="#3D3A36" transform="translate(0,0)"/>
<path d="" fill="#3D3A36" transform="translate(0,0)"/>
<path d="" fill="#3D3A36" transform="translate(0,0)"/>
<path d="" fill="#3D3A36" transform="translate(0,0)"/>
<path d="" fill="#3D3A36" transform="translate(0,0)"/>
<path d="" fill="#3D3A36" transform="translate(0,0)"/>
<path d="" fill="#3D3A36" transform="translate(0,0)"/>
<path d="" fill="#3D3A36" transform="translate(0,0)"/>
<path d="" fill="#3D3A36" transform="translate(0,0)"/>
<path d="" fill="#3D3A36" transform="translate(0,0)"/>
<path d="" fill="#3D3A36" transform="translate(0,0)"/>
<path d="" fill="#3D3A36" transform="translate(0,0)"/>
<path d="" fill="#3D3A36" transform="translate(0,0)"/>
<path d="" fill="#3D3A36" transform="translate(0,0)"/>
<path d="" fill="#3D3A36" transform="translate(0,0)"/>
<path d="" fill="#3D3A36" transform="translate(0,0)"/>
<path d="" fill="#3D3A36" transform="translate(0,0)"/>
<path d="" fill="#3D3A36" transform="translate(0,0)"/>
<path d="" fill="#3D3A36" transform="translate(0,0)"/>
<path d="" fill="#3D3A36" transform="translate(0,0)"/>
<path d="" fill="#3D3A36" transform="translate(0,0)"/>
<path d="" fill="#3D3A36" transform="translate(0,0)"/>
<path d="" fill="#3D3A36" transform="translate(0,0)"/>
<path d="" fill="#3D3A36" transform="translate(0,0)"/>
<path d="" fill="#3D3A36" transform="translate(0,0)"/>
<path d="" fill="#3D3A36" transform="translate(0,0)"/>
<path d="" fill="#3D3A36" transform="translate(0,0)"/>
<path d="" fill="#3D3A36" transform="translate(0,0)"/>
<path d="" fill="#3D3A36" transform="translate(0,0)"/>
<path d="" fill="#3D3A36" transform="translate(0,0)"/>
<path d="" fill="#3D3A36" transform="translate(0,0)"/>
<path d="" fill="#3D3A36" transform="translate(0,0)"/>
<path d="" fill="#3D3A36" transform="translate(0,0)"/>
<path d="" fill="#3D3A36" transform="translate(0,0)"/>
<path d="" fill="#3D3A36" transform="translate(0,0)"/>
<path d="" fill="#3D3A36" transform="translate(0,0)"/>
<path d="" fill="#3D3A36" transform="translate(0,0)"/>
<path d="" fill="#3D3A36" transform="translate(0,0)"/>
<path d="" fill="#3D3A36" transform="translate(0,0)"/>
<path d="" fill="#3D3A36" transform="translate(0,0)"/>
<path d="" fill="#3D3A36" transform="translate(0,0)"/>
<path d="" fill="#3D3A36" transform="translate(0,0)"/>
<path d="" fill="#3D3A36" transform="translate(0,0)"/>
<path d="" fill="#3D3A36" transform="translate(0,0)"/>
<path d="" fill="#3D3A36" transform="translate(0,0)"/>
<path d="" fill="#3D3A36" transform="translate(0,0)"/>
<path d="" fill="#3D3A36" transform="translate(0,0)"/>
<path d="" fill="#3D3A36" transform="translate(0,0)"/>
<path d="" fill="#3D3A36" transform="translate(0,0)"/>
<path d="" fill="#3D3A36" transform="translate(0,0)"/>
<path d="" fill="#3D3A36" transform="translate(0,0)"/>
<path d="" fill="#3D3A36" transform="translate(0,0)"/>
<path d="" fill="#3D3A36" transform="translate(0,0)"/>
<path d="" fill="#3D3A36" transform="translate(0,0)"/>
<path d="" fill="#3D3A36" transform="translate(0,0)"/>
<path d="" fill="#3D3A36" transform="translate(0,0)"/>
<path d="" fill="#3D3A36" transform="translate(0,0)"/>
<path d="" fill="#3D3A36" transform="translate(0,0)"/>
<path d="" fill="#3D3A36" transform="translate(0,0)"/>
<path d="" fill="#3D3A36" transform="translate(0,0)"/>
<path d="" fill="#3D3A36" transform="translate(0,0)"/>
<path d="" fill="#3D3A36" transform="translate(0,0)"/>
<path d="" fill="#3D3A36" transform="translate(0,0)"/>
<path d="" fill="#3D3A36" transform="translate(0,0)"/>
<path d="" fill="#3D3A36" transform="translate(0,0)"/>
<path d="" fill="#3D3A36" transform="translate(0,0)"/>
<path d="" fill="#3D3A36" transform="translate(0,0)"/>
<path d="" fill="#3D3A36" transform="translate(0,0)"/>
<path d="" fill="#3D3A36" transform="translate(0,0)"/>
<path d="" fill="#3D3A36" transform="translate(0,0)"/>
<path d="" fill="#3D3A36" transform="translate(0,0)"/>
<path d="" fill="#3D3A36" transform="translate(0,0)"/>
<path d="" fill="#3D3A36" transform="translate(0,0)"/>
<path d="" fill="#3D3A36" transform="translate(0,0)"/>
<path d="" fill="#3D3A36" transform="translate(0,0)"/>
<path d="" fill="#3D3A36" transform="translate(0,0)"/>
<path d="" fill="#3D3A36" transform="translate(0,0)"/>
<path d="" fill="#3D3A36" transform="translate(0,0)"/>
<path d="" fill="#3D3A36" transform="translate(0,0)"/>
<path d="" fill="#3D3A36" transform="translate(0,0)"/>
<path d="" fill="#3D3A36" transform="translate(0,0)"/>
<path d="" fill="#3D3A36" transform="translate(0,0)"/>
<path d="" fill="#3D3A36" transform="translate(0,0)"/>
<path d="" fill="#3D3A36" transform="translate(0,0)"/>
<path d="" fill="#3D3A36" transform="translate(0,0)"/>
<path d="" fill="#3D3A36" transform="translate(0,0)"/>
<path d="" fill="#3D3A36" transform="translate(0,0)"/>
<path d="" fill="#3D3A36" transform="translate(0,0)"/>
<path d="" fill="#3D3A36" transform="translate(0,0)"/>
<path d="" fill="#3D3A36" transform="translate(0,0)"/>
<path d="" fill="#3D3A36" transform="translate(0,0)"/>
<path d="" fill="#3D3A36" transform="translate(0,0)"/>
<path d="" fill="#3D3A36" transform="translate(0,0)"/>
<path d="" fill="#3D3A36" transform="translate(0,0)"/>
<path d="" fill="#3D3A36" transform="translate(0,0)"/>
<path d="" fill="#3D3A36" transform="translate(0,0)"/>
<path d="" fill="#3D3A36" transform="translate(0,0)"/>
<path d="" fill="#3D3A36" transform="translate(0,0)"/>
<path d="" fill="#3D3A36" transform="translate(0,0)"/>
<path d="" fill="#3D3A36" transform="translate(0,0)"/>
<path d="" fill="#3D3A36" transform="translate(0,0)"/>
<path d="" fill="#3D3A36" transform="translate(0,0)"/>
<path d="" fill="#3D3A36" transform="translate(0,0)"/>
<path d="" fill="#3D3A36" transform="translate(0,0)"/>
<path d="" fill="#3D3A36" transform="translate(0,0)"/>
<path d="" fill="#3D3A36" transform="translate(0,0)"/>
<path d="" fill="#3D3A36" transform="translate(0,0)"/>
<path d="" fill="#3D3A36" transform="translate(0,0)"/>
<path d="" fill="#3D3A36" transform="translate(0,0)"/>
<path d="" fill="#3D3A36" transform="translate(0,0)"/>
<path d="" fill="#3D3A36" transform="translate(0,0)"/>
<path d="" fill="#3D3A36" transform="translate(0,0)"/>
<path d="" fill="#3D3A36" transform="translate(0,0)"/>
<path d="" fill="#3D3A36" transform="translate(0,0)"/>
<path d="" fill="#3D3A36" transform="translate(0,0)"/>
<path d="" fill="#3D3A36" transform="translate(0,0)"/>
<path d="" fill="#3D3A36" transform="translate(0,0)"/>
<path d="" fill="#3D3A36" transform="translate(0,0)"/>
<path d="" fill="#3D3A36" transform="translate(0,0)"/>
<path d="" fill="#3D3A36" transform="translate(0,0)"/>
<path d="" fill="#3D3A36" transform="translate(0,0)"/>
<path d="" fill="#3D3A36" transform="translate(0,0)"/>
<path d="" fill="#3D3A36" transform="translate(0,0)"/>
<path d="" fill="#3D3A36" transform="translate(0,0)"/>
<path d="" fill="#3D3A36" transform="translate(0,0)"/>
<path d="" fill="#3D3A36" transform="translate(0,0)"/>
<path d="" fill="#3D3A36" transform="translate(0,0)"/>
<path d="" fill="#3D3A36" transform="translate(0,0)"/>
<path d="" fill="#3D3A36" transform="translate(0,0)"/>
<path d="" fill="#3D3A36" transform="translate(0,0)"/>
<path d="" fill="#3D3A36" transform="translate(0,0)"/>
<path d="" fill="#3D3A36" transform="translate(0,0)"/>
<path d="" fill="#3D3A36" transform="translate(0,0)"/>
<path d="" fill="#3D3A36" transform="translate(0,0)"/>
<path d="" fill="#3D3A36" transform="translate(0,0)"/>
<path d="" fill="#3D3A36" transform="translate(0,0)"/>
<path d="" fill="#3D3A36" transform="translate(0,0)"/>
<path d="" fill="#3D3A36" transform="translate(0,0)"/>
<path d="" fill="#3D3A36" transform="translate(0,0)"/>
<path d="" fill="#3D3A36" transform="translate(0,0)"/>
<path d="" fill="#3D3A36" transform="translate(0,0)"/>
<path d="" fill="#3D3A36" transform="translate(0,0)"/>
<path d="" fill="#3D3A36" transform="translate(0,0)"/>
<path d="" fill="#3D3A36" transform="translate(0,0)"/>
<path d="" fill="#3D3A36" transform="translate(0,0)"/>
<path d="" fill="#3D3A36" transform="translate(0,0)"/>
<path d="" fill="#3D3A36" transform="translate(0,0)"/>
<path d="" fill="#3D3A36" transform="translate(0,0)"/>
</svg>
