<?xml version="1.0" encoding="UTF-8"?>
<svg version="1.1" xmlns="http://www.w3.org/2000/svg" width="512" height="512">
<path d="M0 0 C1.16019974 -0.00507454 2.32039948 -0.01014909 3.51575679 -0.0153774 C5.41362947 -0.01612404 5.41362947 -0.01612404 7.34984303 -0.01688576 C8.71503998 -0.02090419 10.08023575 -0.02534304 11.4454301 -0.03016531 C15.19191559 -0.0420949 18.93838822 -0.04777088 22.68488896 -0.05234647 C26.72813799 -0.05831656 30.77137177 -0.0699231 34.81461048 -0.08063698 C44.57868954 -0.10513246 54.34277364 -0.11978583 64.10687396 -0.13269705 C66.86741423 -0.13641167 69.627954 -0.14038469 72.38849378 -0.14444971 C89.55098548 -0.16969367 106.71347803 -0.19173506 123.87598419 -0.20417786 C127.8493516 -0.2071073 131.82271897 -0.210069 135.79608631 -0.21308327 C136.78358412 -0.21382932 137.77108193 -0.21457537 138.78850392 -0.21534403 C154.76382801 -0.22798132 170.73904039 -0.26118383 186.71431234 -0.3028851 C203.13706497 -0.34540085 219.55976059 -0.36888416 235.98256809 -0.37409842 C245.19461491 -0.37750208 254.40648731 -0.38913303 263.61847973 -0.42220116 C271.46880607 -0.4503359 279.31892221 -0.46114266 287.16929504 -0.4500057 C291.16770975 -0.44485273 295.16568524 -0.44748355 299.16403484 -0.47247124 C329.30387868 -0.65065302 355.26919359 4.17172436 379.11420155 24.13701439 C379.82963123 24.70678001 380.54506092 25.27654564 381.2821703 25.86357689 C400.5874082 41.92280134 411.99494402 65.71965009 416.11420155 90.13701439 C416.49800465 94.86790359 416.52488888 99.56552057 416.5018816 104.31018639 C416.50606661 105.67959152 416.51155045 107.04899317 416.51820141 108.41838855 C416.53252212 112.13933047 416.52845377 115.86004839 416.5210346 119.58100188 C416.51627167 123.61045068 416.52884023 127.63985316 416.53905201 131.66928673 C416.55618491 139.54719597 416.55709146 147.42502525 416.55183911 155.30294827 C416.54778564 161.71122944 416.54925489 168.11948712 416.55458736 174.52776718 C416.55533579 175.44238196 416.55608421 176.35699675 416.55685531 177.29932713 C416.55838691 179.15781223 416.55992525 181.01629732 416.56147028 182.87478241 C416.57517555 200.27529288 416.56977167 217.67575831 416.55828506 235.07626774 C416.54835617 250.96512647 416.56129094 266.85386868 416.58521926 282.74270944 C416.60965257 299.09113624 416.61920766 315.43950887 416.61256653 331.78795356 C416.60908352 340.95282708 416.61124538 350.11761107 416.62881756 359.2824707 C416.64359265 367.08471441 416.64410611 374.88680554 416.62674665 382.68904642 C416.61827745 386.66289319 416.61598597 390.63646801 416.6313982 394.61030006 C416.74334426 425.73588829 411.95450159 451.76309892 391.11420155 476.13701439 C390.47611561 476.90916283 389.83802967 477.68131126 389.1806078 478.47685814 C373.52802361 496.90092605 349.90146017 508.67871306 326.11420155 512.13701439 C324.15376199 512.22613794 322.19086209 512.2694504 320.22840309 512.27402878 C319.06820335 512.27910332 317.90800361 512.28417786 316.71264631 512.28940618 C315.44739785 512.28990394 314.18214939 512.29040169 312.87856007 512.29091454 C311.51336311 512.29493297 310.14816734 512.29937182 308.78297299 512.30419409 C305.0364875 512.31612368 301.29001487 512.32179966 297.54351413 512.32637525 C293.5002651 512.33234534 289.45703132 512.34395187 285.41379261 512.35466576 C275.64971355 512.37916124 265.88562945 512.39381461 256.12152913 512.40672582 C253.36098886 512.41044044 250.60044909 512.41441347 247.83990932 512.41847849 C230.67741762 512.44372245 213.51492506 512.46576384 196.3524189 512.47820663 C192.3790515 512.48113608 188.40568412 512.48409778 184.43231678 512.48711205 C182.95107006 512.48823112 182.95107006 512.48823112 181.43989917 512.4893728 C165.46457508 512.5020101 149.4893627 512.5352126 133.51409075 512.57691388 C117.09133812 512.61942962 100.6686425 512.64291294 84.24583501 512.6481272 C75.03378818 512.65153086 65.82191579 512.6631618 56.60992336 512.69622993 C48.75959702 512.72436468 40.90948088 512.73517144 33.05910806 512.72403447 C29.06069334 512.71888151 25.06271785 512.72151233 21.06436825 512.74650002 C-13.37204411 512.94986366 -41.44437663 505.59018195 -66.88579845 481.13701439 C-91.28049906 456.07753926 -96.68254867 426.43188499 -96.52476275 393.0281558 C-96.51123585 388.9899212 -96.52687987 384.95177531 -96.53858471 380.91354942 C-96.55685187 373.02890894 -96.54852311 365.14451819 -96.53049649 357.25988577 C-96.51640603 350.84647055 -96.51259145 344.4331226 -96.51593876 338.01969337 C-96.5164162 337.10298068 -96.51689364 336.18626798 -96.51738555 335.24177612 C-96.518412 333.37886168 -96.51946736 331.51594726 -96.52055132 329.65303285 C-96.52909602 313.2234901 -96.51251503 296.79406706 -96.48272228 280.36455345 C-96.45388091 264.45922889 -96.44680874 248.55407669 -96.46221447 232.64873314 C-96.4790119 215.28304778 -96.48297554 197.91744403 -96.46550411 180.5517565 C-96.46365992 178.69673897 -96.4618252 176.84172142 -96.46000004 174.98670387 C-96.45908795 174.07425203 -96.45817586 173.16180018 -96.45723613 172.22169828 C-96.45165345 165.8224273 -96.45491655 159.42319646 -96.46154499 153.02392769 C-96.46931203 145.2162997 -96.46240481 137.40884073 -96.43736995 129.60124658 C-96.42495366 125.62535114 -96.41863157 121.6497178 -96.42991161 117.67381287 C-96.51726894 83.4680751 -89.74489736 56.19841142 -66.0303297 30.28545189 C-49.21798101 13.44247961 -24.24074399 0.05655323 0 0 Z M5.26038074 40.53572655 C4.1543355 40.58440386 4.1543355 40.58440386 3.0259459 40.63406456 C-13.99868021 41.6006995 -28.7226478 50.23094354 -40.13579845 62.51201439 C-55.29125066 80.44240855 -55.63441052 98.99275331 -55.5394218 121.38821363 C-55.52801654 125.37195686 -55.54561602 129.35559393 -55.5593214 133.33931541 C-55.58146137 141.12489716 -55.57679411 148.9102368 -55.5622582 156.69582772 C-55.55092935 163.02783637 -55.54945076 169.35977755 -55.55487728 175.69179344 C-55.55564345 176.59574874 -55.55640961 177.49970403 -55.55719899 178.43105191 C-55.55879775 180.26787895 -55.56041882 182.10470597 -55.56206195 183.94153297 C-55.57629238 201.13314463 -55.55996932 218.32462261 -55.53306012 235.51621234 C-55.5107238 250.24176794 -55.51460469 264.96712641 -55.53765392 279.69267845 C-55.56445988 296.8261295 -55.57491933 313.95946361 -55.5595926 331.0929327 C-55.55799999 332.92270023 -55.55642814 334.75246777 -55.55487728 336.58223534 C-55.5541059 337.48232801 -55.55333453 338.38242068 -55.55253977 339.30978888 C-55.54823714 345.62831459 -55.55547821 351.94676563 -55.56727505 358.26527977 C-55.58135201 365.97390863 -55.57739158 373.68228318 -55.55087133 381.39088321 C-55.53780255 385.31795466 -55.53246072 389.24460335 -55.54911709 393.17167091 C-55.64371801 417.52225259 -53.61523807 435.29978745 -36.26861095 453.85185814 C-23.0045798 466.57228146 -7.34557615 471.6099022 10.70555592 471.53142357 C12.04833652 471.53632252 13.3911129 471.54251694 14.73388225 471.54988146 C18.39511704 471.56617734 22.05613505 471.56398437 25.71739328 471.55850649 C29.67735125 471.55582337 33.6372531 471.57039213 37.597188 471.58260155 C45.34482364 471.60360483 53.09238436 471.6081993 60.84004512 471.60641366 C67.14209565 471.6051033 73.44412293 471.60892415 79.74616909 471.61633873 C81.56517706 471.61843806 83.38418503 471.62053566 85.20319301 471.62263155 C86.10872682 471.62367508 87.01426062 471.62471861 87.94723485 471.62579376 C105.05488637 471.64467603 122.16249498 471.6436523 139.27015261 471.63682443 C154.8947727 471.63125219 170.51922866 471.65206439 186.14381041 471.6851849 C202.21302636 471.71898168 218.28216381 471.73408267 234.35141593 471.72946787 C243.36262722 471.727229 252.37368688 471.73238052 261.38486767 471.75736046 C269.0580456 471.77845127 276.73098879 471.78188902 284.40417662 471.76306087 C288.31313178 471.75395013 292.22165019 471.75261497 296.13057041 471.77341652 C320.6351733 471.8951415 339.13964049 469.99486467 357.8290453 452.51982689 C370.27115442 439.5460037 375.58476473 424.26230896 375.50861073 406.58325768 C375.51350801 405.23237786 375.51970167 403.88150223 375.52706861 402.53063363 C375.54338567 398.84240632 375.54116713 395.15439392 375.53569365 391.46614325 C375.53301317 387.47892014 375.54757439 383.49175301 375.5597887 379.50455284 C375.58080318 371.70163617 375.5853858 363.89879387 375.58360082 356.09585223 C375.582291 349.74943285 375.58610854 343.40303659 375.59352589 337.05662155 C375.59562519 335.22553943 375.59772279 333.3944573 375.59981871 331.56337517 C375.60086223 330.65185939 375.60190576 329.74034361 375.60298091 328.80120613 C375.62186777 311.57627373 375.62083807 294.35138396 375.61401159 277.12644549 C375.60843924 261.39115579 375.62925118 245.65602905 375.66237205 229.92077742 C375.69616062 213.74198685 375.71127083 197.56327424 375.70665503 181.38444775 C375.7044153 172.31009667 375.70958031 163.23589614 375.73454762 154.16157532 C375.75562778 146.4345463 375.75908662 138.70775036 375.74024802 130.98071156 C375.73113073 127.04353463 375.72982267 123.10679147 375.75060368 119.16964912 C375.76946965 115.55511634 375.7646388 111.9413678 375.74205786 108.32686343 C375.73596835 106.42168792 375.75413836 104.5164806 375.77359438 102.6113947 C375.59796563 85.26098488 368.23516611 70.9760248 356.49701405 58.42217064 C335.46484864 38.25197923 309.06483972 39.98031479 281.96518612 40.00628972 C278.43130907 40.00857482 274.89743675 40.00504882 271.36356068 40.0023098 C264.45903794 39.99788555 257.55452613 39.99881378 250.65000299 40.00172244 C245.03124403 40.00399041 239.41248811 40.00428298 233.79372883 40.00319862 C232.99084143 40.00304539 232.18795403 40.00289216 231.36073671 40.00273428 C229.72910462 40.00241452 228.09747252 40.0020903 226.46584043 40.00176169 C211.19889726 39.9989165 195.93196011 40.00217843 180.66501793 40.00756206 C167.60315424 40.01202579 154.54129945 40.01125584 141.47943592 40.0066433 C126.2694394 40.0012746 111.05944816 39.99919469 95.84945083 40.00225556 C94.22294633 40.00257407 92.59644183 40.00288844 90.96993732 40.00319862 C90.16991547 40.0033529 89.36989362 40.00350717 88.54562868 40.00366613 C82.94435221 40.00452466 77.34307912 40.0030827 71.74180317 40.00071907 C64.90001477 39.99789515 58.05823783 39.9987133 51.21645072 40.00399981 C47.73457811 40.00660271 44.2527245 40.00770087 40.77085209 40.00435066 C23.01020069 39.98380686 23.01020069 39.98380686 5.26038074 40.53572655 Z " fill="#FFFFFF" transform="translate(95.88579845428467,-0.13701438903808594)"/>
<path d="M0 0 C1.2065625 0.30599121 1.2065625 0.30599121 2.4375 0.61816406 C13.88113884 3.6142692 24.49380308 7.58583956 35 13 C35.94875 13.47050781 36.8975 13.94101563 37.875 14.42578125 C51.12096996 21.26054773 62.48123963 30.5384068 73 41 C73.48597656 41.48194824 73.97195313 41.96389648 74.47265625 42.46044922 C95.87428184 63.9859943 109.43822351 93.13790928 114 123 C114.18304688 124.17175781 114.36609375 125.34351563 114.5546875 126.55078125 C116.57268305 143.38553657 116.09204943 161.51221729 112 178 C111.81195801 178.77537109 111.62391602 179.55074219 111.43017578 180.34960938 C101.98947191 217.99225679 78.47645838 250.14288567 45.875 271.0625 C31.39215628 279.66875167 16.35953056 285.96807626 0 290 C-0.70850098 290.17789062 -1.41700195 290.35578125 -2.14697266 290.5390625 C-22.43364582 295.38593772 -45.78372831 295.03436621 -66 290 C-67.1449292 289.72591309 -67.1449292 289.72591309 -68.31298828 289.44628906 C-95.55127506 282.72364807 -119.26926744 268.77660275 -139 249 C-139.93199219 248.07960938 -140.86398438 247.15921875 -141.82421875 246.2109375 C-160.02289147 227.36323937 -171.8498928 203.31188078 -178 178 C-178.26466064 176.94159912 -178.26466064 176.94159912 -178.53466797 175.86181641 C-183.38485198 155.57179986 -183.03541828 132.22049644 -178 112 C-177.81727539 111.23671387 -177.63455078 110.47342773 -177.44628906 109.68701172 C-170.72364807 82.44872494 -156.77660275 58.73073256 -137 39 C-136.07960937 38.06800781 -135.15921875 37.13601562 -134.2109375 36.17578125 C-100.02055612 3.1627546 -46.23668578 -11.79035487 0 0 Z M-105 65 C-105.48710449 65.43795898 -105.97420898 65.87591797 -106.47607422 66.32714844 C-125.41782112 83.57125725 -138.79740536 108.79500489 -140.13867188 134.67578125 C-141.18209862 166.38777065 -133.96401513 194.42604333 -111.98828125 218.33203125 C-93.37311023 237.93488795 -67.22019198 251.31990642 -39.90625 252.3359375 C-8.02398185 252.78522692 19.24484145 243.87685141 42.72583008 221.67919922 C61.09399014 203.70235188 73.5175794 177.63326375 74.30078125 151.765625 C74.32007362 149.59383217 74.32358661 147.42185022 74.3125 145.25 C74.30758545 144.10619873 74.3026709 142.96239746 74.29760742 141.78393555 C74.17837599 133.15830575 73.39741925 125.3232983 71 117 C70.6596875 115.77667969 70.319375 114.55335938 69.96875 113.29296875 C61.43152761 85.28741828 41.97612981 62.86208501 16.38671875 49.0078125 C-22.92770183 28.81059805 -72.40261502 35.45129132 -105 65 Z " fill="#FFFFFF" transform="translate(289,111)"/>
<path d="M0 0 C7.35656616 4.54676659 12.3747621 11.06803236 14.828125 19.33984375 C16.49520822 27.44372052 15.17907502 35.14507268 11.25 42.390625 C5.15743166 50.35970439 -1.89003294 54.90014788 -11.8125 56.265625 C-20.56149221 56.83532682 -28.5882629 53.79527479 -35.23046875 48.046875 C-41.99645025 40.6721291 -44.1184496 33.31172764 -44.03515625 23.56640625 C-43.42483326 16.76924747 -40.67025151 10.17789674 -35.75 5.390625 C-24.88959364 -2.75467977 -12.97930807 -6.06270311 0 0 Z " fill="#FFFFFF" transform="translate(415.75,84.609375)"/>
</svg>
