<?xml version="1.0" encoding="UTF-8"?>
<svg version="1.1" xmlns="http://www.w3.org/2000/svg" width="1024" height="1024">
<path d="M0 0 C21.69720735 -0.07019586 43.39439587 -0.12303992 65.09169388 -0.15543652 C75.16696222 -0.1708811 85.24215986 -0.19192444 95.31738281 -0.22631836 C104.10272291 -0.2562946 112.88801177 -0.27559249 121.67340159 -0.28226548 C126.32177371 -0.28616384 130.9699993 -0.29527498 135.61832428 -0.31719017 C140.00135872 -0.33768548 144.3841875 -0.34380767 148.76726532 -0.33932304 C150.36834331 -0.34014245 151.96942881 -0.34602994 153.57046509 -0.35761642 C165.7635925 -0.44146288 176.94195545 0.06475093 187.0625 7.59765625 C188.97021555 8.9784423 190.86960356 10.00613202 193 11 C193.46148438 10.61328125 193.92296875 10.2265625 194.3984375 9.828125 C202.09156461 3.68578636 208.88364203 0.84896492 218.78125 0.4050293 C219.99637016 0.34662259 219.99637016 0.34662259 221.23603821 0.28703594 C234.42768873 -0.26629413 247.64293768 -0.16499895 260.84395599 -0.16725707 C263.20955126 -0.16797545 265.57514099 -0.1701241 267.94073486 -0.17275429 C276.22042195 -0.18194645 284.50009313 -0.18609591 292.77978516 -0.18530273 C300.45928721 -0.18469981 308.13871953 -0.19530929 315.81820393 -0.2110464 C322.45480074 -0.22415509 329.09137478 -0.22948541 335.72798443 -0.22884732 C339.67344834 -0.22859383 343.61884971 -0.23136408 347.56430054 -0.24202538 C351.26796626 -0.25176588 354.9715102 -0.25174519 358.67518044 -0.24450874 C360.6636426 -0.2429803 362.65210493 -0.25126282 364.64054871 -0.25994873 C377.62169964 -0.2148642 389.86438794 1.07734986 399.8125 10.1875 C406.7242192 17.62209158 409.13891323 26.3058383 409.5625 36.1875 C409.6049585 37.15115479 409.64741699 38.11480957 409.69116211 39.10766602 C410.32980131 56.05794722 410.08138244 73.04115154 410 90 C410.58571777 89.83628906 411.17143555 89.67257812 411.77490234 89.50390625 C415.04373873 88.76362994 418.29424276 88.93619239 421.625 89 C426.45438585 89.28216898 426.45438585 89.28216898 431 88 C438.57062414 89.27369669 446.37884546 92.66076949 451.37890625 98.65234375 C452.31359344 100.06299711 453.16403112 101.52869477 454 103 C454.66 103.66 455.32 104.32 456 105 C456.26729965 107.37221718 456.26729965 107.37221718 456.29193115 110.40982056 C456.30598495 111.55901474 456.32003876 112.70820892 456.33451843 113.89222717 C456.33982071 115.15965256 456.34512299 116.42707794 456.35058594 117.73291016 C456.36315523 119.07669354 456.37656773 120.42046926 456.39076233 121.76423645 C456.42672704 125.42413429 456.45003742 129.08401362 456.4705801 132.74402666 C456.48899128 135.80706566 456.51373797 138.87003959 456.53855062 141.93303239 C456.5972004 149.17503707 456.64587052 156.41706126 456.68798828 163.65917969 C456.73137693 171.09691271 456.78941062 178.53442264 456.85523582 185.97198832 C456.91148051 192.37472696 456.95933223 198.77749054 457.0004847 205.18034399 C457.02503159 208.99602135 457.05236538 212.81161951 457.08739471 216.62721634 C457.46993387 259.48774978 457.46993387 259.48774978 450 268 C449.236875 268.886875 448.47375 269.77375 447.6875 270.6875 C441.22231016 276.25057033 434.76004178 280 426 280 C426.01571045 280.79172607 426.0314209 281.58345215 426.04760742 282.39916992 C426.11006699 285.99520695 426.14902635 289.5911297 426.1875 293.1875 C426.22520508 295.05631836 426.22520508 295.05631836 426.26367188 296.96289062 C426.27333984 298.16494141 426.28300781 299.36699219 426.29296875 300.60546875 C426.3086792 301.71043701 426.32438965 302.81540527 426.34057617 303.95385742 C425.95654631 307.38865356 425.04813635 309.24290535 423 312 C418.5015499 314.24922505 411.96466511 313.31118971 406.96972656 313.35009766 C405.41000452 313.3666628 403.85035858 313.39396089 402.29101562 313.43212891 C400.03996504 313.48692798 397.79069039 313.50877188 395.5390625 313.5234375 C394.84414703 313.54610687 394.14923157 313.56877625 393.43325806 313.59213257 C389.86613966 313.57658586 388.29696154 313.27134769 385.63085938 310.83520508 C383.92852488 307.87574243 383.08609045 305.44359517 382.3671875 302.11328125 C382.11839844 301.01048828 381.86960937 299.90769531 381.61328125 298.77148438 C381.36964844 297.63001953 381.12601563 296.48855469 380.875 295.3125 C380.37880277 293.03635426 379.87650142 290.76152793 379.3671875 288.48828125 C379.15175293 287.48321533 378.93631836 286.47814941 378.71435547 285.44262695 C378.16760286 282.84747181 378.16760286 282.84747181 376 281 C373.25340077 280.69118681 373.25340077 280.69118681 369.97547722 280.73828697 C368.68263876 280.73082148 367.3898003 280.72335599 366.05778491 280.71566427 C364.60947642 280.71744135 363.16116814 280.71940229 361.71286011 280.7215271 C360.18495484 280.7165286 358.65705222 280.71065413 357.12915337 280.70397437 C352.91507634 280.6881063 348.70106585 280.68473997 344.48696256 280.68332577 C339.94842185 280.67964354 335.40991816 280.66449404 330.87139893 280.65071106 C323.00295267 280.62839725 315.13451952 280.6134088 307.26604843 280.60334396 C295.88945308 280.58878125 284.51290333 280.56325128 273.13633467 280.53501268 C254.6802573 280.48950079 236.22417339 280.4529042 217.76806641 280.421875 C199.83576303 280.39170743 181.9034757 280.35736544 163.97119141 280.31738281 C162.86652849 280.31492126 161.76186557 280.31245972 160.62372802 280.30992357 C155.08216277 280.29754932 149.54059771 280.28509272 143.99903274 280.27259517 C97.99937751 280.16896157 51.99970236 280.07978007 6 280 C5.72792725 281.22541504 5.45585449 282.45083008 5.17553711 283.71337891 C4.81364468 285.34277463 4.4517466 286.97216909 4.08984375 288.6015625 C3.91110718 289.4066626 3.73237061 290.2117627 3.54821777 291.04125977 C-0.4989612 309.26051905 -0.4989612 309.26051905 -6 313 C-8.82739258 313.57763672 -8.82739258 313.57763672 -11.89453125 313.6796875 C-13.57579102 313.7415625 -13.57579102 313.7415625 -15.29101562 313.8046875 C-16.45310547 313.82789063 -17.61519531 313.85109375 -18.8125 313.875 C-19.96298828 313.92140625 -21.11347656 313.9678125 -22.29882812 314.015625 C-28.53730292 314.20152797 -34.12500234 314.23875651 -40 312 C-42.39153424 308.65253662 -42.2318199 305.50018901 -42.1953125 301.484375 C-42.18886719 300.23398437 -42.18242187 298.98359375 -42.17578125 297.6953125 C-42.15902344 296.39335938 -42.14226562 295.09140625 -42.125 293.75 C-42.11597656 292.43257812 -42.10695313 291.11515625 -42.09765625 289.7578125 C-42.07408533 286.50502538 -42.04118022 283.25260411 -42 280 C-42.60183105 279.94739014 -43.20366211 279.89478027 -43.82373047 279.84057617 C-44.62182129 279.76299072 -45.41991211 279.68540527 -46.2421875 279.60546875 C-47.02964355 279.53223389 -47.81709961 279.45899902 -48.62841797 279.38354492 C-55.29179479 278.30590801 -61.66458584 274.08499512 -66 269 C-71.77233748 259.76946033 -73.16001718 251.58210675 -73.12939453 240.87060547 C-73.13111286 240.09686584 -73.13283119 239.32312622 -73.13460159 238.52593994 C-73.13890392 235.97300082 -73.13598823 233.42012743 -73.1328125 230.8671875 C-73.13399826 229.0511167 -73.13552132 227.23504609 -73.13735962 225.41897583 C-73.14110599 219.57096858 -73.13353388 213.72300015 -73.125 207.875 C-73.12273023 205.87581384 -73.12049231 203.87662764 -73.11828613 201.87744141 C-73.10249534 189.12668071 -73.06564567 176.37606459 -73.01115417 163.62541199 C-73.00060226 161.14175595 -72.99080318 158.65809787 -72.9810791 156.17443848 C-72.94823784 148.24652629 -72.89192844 140.31955109 -72.79046631 132.39215088 C-72.76369733 130.14820013 -72.74329133 127.90416358 -72.72955322 125.66009521 C-72.7086502 122.60611129 -72.6628894 119.55356231 -72.609375 116.5 C-72.60813629 115.63948029 -72.60689758 114.77896057 -72.60562134 113.8923645 C-72.43885545 107.12483926 -70.52329437 101.87946514 -66.03515625 96.7578125 C-65.38417969 96.21898437 -64.73320312 95.68015625 -64.0625 95.125 C-63.41410156 94.57070313 -62.76570313 94.01640625 -62.09765625 93.4453125 C-57.80690701 90.48893034 -53.96442136 89.73829541 -48.8125 89.4375 C-44.75445989 89.28867058 -44.75445989 89.28867058 -41 88 C-38.44192238 88.08910158 -35.9237399 88.23294246 -33.375 88.4375 C-32.66859375 88.48970703 -31.9621875 88.54191406 -31.234375 88.59570312 C-29.48920013 88.72541207 -27.74454275 88.86204954 -26 89 C-26.00666183 88.28304962 -26.01332367 87.56609924 -26.02018738 86.8274231 C-26.08059368 80.03173111 -26.12612328 73.23607987 -26.15543652 66.44018745 C-26.17101405 62.94731202 -26.19210496 59.45466061 -26.22631836 55.96191406 C-26.26550694 51.93552647 -26.27977447 47.90936985 -26.29296875 43.8828125 C-26.30845261 42.64387238 -26.32393646 41.40493225 -26.33988953 40.12844849 C-26.34203708 28.94045892 -24.34929528 19.67948447 -17 11 C-12.00141568 6.17014426 -6.66737146 3.75944525 0 2 C0 1.34 0 0.68 0 0 Z M-4 23 C-9.04916651 29.54840906 -8.61276233 36.07187745 -8.6015625 44.10546875 C-8.6093472 45.47594212 -8.61801876 46.84641071 -8.62753296 48.21687317 C-8.64239434 51.07727781 -8.64191846 53.93718833 -8.63134766 56.79760742 C-8.61971516 60.46010913 -8.65374483 64.12060192 -8.700037 67.78277111 C-8.7295067 70.60789258 -8.73125723 73.43252833 -8.72501755 76.25777626 C-8.72653983 78.26310251 -8.75426228 80.26835357 -8.78237915 82.27348328 C-8.74811173 85.62494454 -8.66845659 88.71584208 -8 92 C-4.97147874 94.96099657 -2.94053905 95.68648698 1 97 C2 99 2 99 3 102 C3.24285233 102.62196762 3.48570465 103.24393524 3.73591614 103.88475037 C5.98019872 109.90804712 6.46816356 115.32992825 6.51171875 121.72265625 C6.52966995 122.70874374 6.54762115 123.69483124 6.56611633 124.71080017 C6.61984528 127.8279913 6.6539944 130.94503264 6.6875 134.0625 C6.72070613 136.1894738 6.75519879 138.31642793 6.79101562 140.44335938 C6.87555002 145.6287975 6.94253867 150.81419409 7 156 C7.51767944 155.72085754 8.03535889 155.44171509 8.56872559 155.15411377 C12.44754386 153.12669764 15.73072361 151.52125866 20.15625 151.171875 C21.0328125 151.09453125 21.909375 151.0171875 22.8125 150.9375 C23.699375 150.875625 24.58625 150.81375 25.5 150.75 C26.4178125 150.67265625 27.335625 150.5953125 28.28125 150.515625 C30.52008322 150.32905557 32.75896751 150.15751257 35 150 C34.88562349 147.27001324 34.75888594 144.5415418 34.625 141.8125 C34.5940625 141.04357422 34.563125 140.27464844 34.53125 139.48242188 C34.31383889 135.26102289 33.90256928 131.85927672 32 128 C32.66 128 33.32 128 34 128 C33.814375 127.4225 33.62875 126.845 33.4375 126.25 C33 124 33 124 33.5 122.125 C34.1747985 119.87525652 34.1747985 119.87525652 33.5 117.0625 C33 114 33 114 33.5625 111.4375 C34.11171814 108.37757037 33.33662024 106.7518652 32 104 C32.66 104 33.32 104 34 104 C34 103.01 34 102.02 34 101 C33.34 101 32.68 101 32 101 C32 99.35 32 97.7 32 96 C32.66 96 33.32 96 34 96 C34 95.01 34 94.02 34 93 C33.34 93 32.68 93 32 93 C32 91.35 32 89.7 32 88 C32.66 88 33.32 88 34 88 C34.05449838 86.27119018 34.09301688 84.54187288 34.125 82.8125 C34.14820313 81.84957031 34.17140625 80.88664062 34.1953125 79.89453125 C33.9913544 76.87187222 33.26874632 74.73230015 32 72 C32.66 72 33.32 72 34 72 C34 70.68 34 69.36 34 68 C33.67 67.67 33.34 67.34 33 67 C33.66 66.67 34.32 66.34 35 66 C35.37125 64.865625 35.7425 63.73125 36.125 62.5625 C36.90986061 60.64174938 36.90986061 60.64174938 38 59 C43.64707665 57.09165805 48.87877432 56.70642375 54.79931641 56.7253418 C55.6394075 56.72023087 56.4794986 56.71511993 57.345047 56.70985413 C60.09729306 56.69605431 62.84928615 56.69690692 65.6015625 56.69921875 C67.52631726 56.69532791 69.45107117 56.69099245 71.37582397 56.68623352 C75.3986897 56.67879303 79.42146761 56.67904782 83.44433594 56.68432617 C88.59354141 56.69013274 93.74238859 56.67315062 98.89153481 56.6499815 C102.86184786 56.63523979 106.83207455 56.63437281 110.80241013 56.63749123 C112.70097949 56.63697873 114.59955377 56.63175435 116.49809647 56.62167931 C119.15212526 56.60931706 121.80545473 56.61610404 124.45947266 56.62768555 C125.23884689 56.62004181 126.01822113 56.61239807 126.82121277 56.60452271 C131.60882638 56.65060612 134.97798234 57.36081925 139 60 C141.20231731 65.09948129 141.2579035 69.98107134 141.16015625 75.4296875 C141.15181007 76.64788177 141.15181007 76.64788177 141.14329529 77.89068604 C141.13089496 79.64104554 141.1142469 81.39137918 141.09375 83.1416626 C141.0402826 87.81828458 141.02125823 92.49499858 141.00390625 97.171875 C140.99996857 98.1371109 140.99603088 99.1023468 140.99197388 100.09683228 C140.9662472 110.77737938 141.21297571 121.44893157 141.5 132.125 C141.52409943 133.03183533 141.54819885 133.93867065 141.57302856 134.87298584 C141.70815974 139.91554553 141.85055571 144.95784494 142 150 C147.87427897 150.67464752 153.57788298 151.08555293 159.5 150.9375 C167.7334024 150.88760059 175.05607069 151.2260486 182 156 C182.66 156 183.32 156 184 156 C184.04676614 140.21408144 184.08201143 124.42818165 184.10362434 108.64221096 C184.1139273 101.31215025 184.12796885 93.98213265 184.15087891 86.65209961 C184.17084285 80.26161277 184.18372356 73.87115715 184.18817699 67.48063999 C184.19077929 64.09839166 184.19687531 60.71623264 184.21146011 57.33401299 C184.22597844 53.55392029 184.22797776 49.77401258 184.22705078 45.99389648 C184.23783661 44.32046173 184.23783661 44.32046173 184.24884033 42.61322021 C184.27839954 32.77093219 184.27839954 32.77093219 179.75 24.3125 C169.45681851 15.65687011 159.24103171 16.84938282 146.23803711 16.85473633 C144.77335017 16.85173835 143.30866402 16.84833437 141.84397888 16.84455872 C137.89367524 16.83578317 133.9433933 16.83338344 129.99308085 16.83274293 C127.52017606 16.83202918 125.04727669 16.82988882 122.57437325 16.82724571 C113.93393736 16.81801626 105.29351683 16.81390814 96.65307617 16.81469727 C88.61869999 16.81529861 80.58439082 16.80472948 72.5500316 16.7889536 C65.63169667 16.77585654 58.7133836 16.77051422 51.79503638 16.77115268 C47.67176896 16.77140686 43.5485613 16.76859903 39.42530632 16.75797462 C35.54858409 16.74825611 31.67197831 16.74824003 27.79525185 16.75549126 C26.37835901 16.75653218 24.96145876 16.75420365 23.54457855 16.7481308 C8.79534162 16.49241959 8.79534162 16.49241959 -4 23 Z M204 24 C200.37323176 28.64679681 199.87375685 33.42784989 199.87974548 39.19490051 C199.87837082 40.21988647 199.87699615 41.24487244 199.87557983 42.30091858 C199.87917511 43.41438156 199.88277039 44.52784454 199.88647461 45.67504883 C199.88632858 46.855961 199.88618256 48.03687317 199.8860321 49.25357056 C199.88660847 52.48252775 199.89161611 55.71144134 199.89860606 58.94038987 C199.90486677 62.31830546 199.90544555 65.69622196 199.90663147 69.07414246 C199.90973678 75.46656627 199.91793937 81.85897294 199.92798096 88.25138921 C199.93916696 95.53068713 199.94465881 102.80998588 199.94967639 110.08929026 C199.96012266 125.05953639 199.97770659 140.02976648 200 155 C200.66 155.33 201.32 155.66 202 156 C204.1849903 155.13869677 206.22785933 154.07265521 208.3203125 153.0078125 C216.05145142 150.10018299 224.63598526 150.94504926 232.75 151.12695312 C234.10738281 151.14338867 234.10738281 151.14338867 235.4921875 151.16015625 C236.31058105 151.17699463 237.12897461 151.19383301 237.97216797 151.21118164 C240.22859409 151.191446 240.22859409 151.191446 242 149 C241.70402727 147.6578789 241.35911783 146.326621 241 145 C240.89109642 142.45960512 240.83257542 139.9457784 240.82299805 137.4050293 C240.81314125 136.2652211 240.81314125 136.2652211 240.80308533 135.10238647 C240.78340892 132.59299614 240.77170296 130.08366547 240.76171875 127.57421875 C240.75764322 126.71505167 240.7535677 125.85588459 240.74936867 124.97068214 C240.72853298 120.42389799 240.71421994 115.87714379 240.70483398 111.33032227 C240.69376912 106.64287867 240.65936131 101.95590969 240.61966228 97.26863384 C240.59347792 93.65600216 240.58514059 90.04348337 240.58155251 86.43076515 C240.57669199 84.70325321 240.56509325 82.97574613 240.54651451 81.24832726 C240.52208138 78.82622313 240.52309509 76.40534476 240.5300293 73.9831543 C240.51721924 73.27589706 240.50440918 72.56863983 240.49121094 71.83995056 C240.54804597 66.36779595 241.71854234 63.2597466 245 59 C250.13874901 56.72014197 255.25004674 56.70796959 260.77758789 56.7253418 C261.62728653 56.72023087 262.47698517 56.71511993 263.35243225 56.70985413 C266.14257986 56.69602873 268.9324786 56.6969091 271.72265625 56.69921875 C273.67126049 56.69532889 275.61986388 56.69099362 277.56846619 56.68623352 C281.64438634 56.67878719 285.72021984 56.67905177 289.79614258 56.68432617 C295.01375632 56.69012884 300.23101601 56.67316282 305.44857121 56.6499815 C309.46949835 56.635239 313.49034022 56.63437299 317.5112896 56.63749123 C319.43497864 56.63697861 321.35867254 56.63175208 323.28233528 56.62167931 C325.97239266 56.60931768 328.66175999 56.61610408 331.35180664 56.62768555 C332.53725067 56.61621994 332.53725067 56.61621994 333.74664307 56.60452271 C338.544632 56.65008949 341.85366374 57.33004802 346 60 C348.54009776 63.81014664 348.3069585 66.9088778 348.31884766 71.3269043 C348.33391609 72.60040237 348.33391609 72.60040237 348.34928894 73.89962769 C348.38019692 76.70781777 348.39717719 79.5159122 348.4140625 82.32421875 C348.43276803 84.27050097 348.45234097 86.21677503 348.4727478 88.16304016 C348.52414002 93.28727412 348.56372779 98.41153439 348.60089111 103.53588867 C348.64088634 108.76422676 348.6919991 113.99245471 348.7421875 119.22070312 C348.83903073 129.48039147 348.92340863 139.74014189 349 150 C351.86908537 150.76356803 354.2177557 151.06191552 357.1875 150.9375 C364.20480713 150.85670864 370.39927206 152.78341752 377 155 C376.99555878 154.40309357 376.99111755 153.80618713 376.98654175 153.19119263 C376.94239419 146.99483629 376.91216941 140.79852442 376.89013672 134.60205078 C376.88006108 132.28757921 376.86640025 129.97312041 376.84912109 127.65869141 C376.82494135 124.33753307 376.8135327 121.0165426 376.8046875 117.6953125 C376.79436493 116.65569366 376.78404236 115.61607483 376.77340698 114.54495239 C376.77325592 113.58410736 376.77310486 112.62326233 376.77294922 111.63330078 C376.768508 110.78502716 376.76406677 109.93675354 376.75949097 109.06277466 C377 107 377 107 379 105 C379.5775 103.906875 380.155 102.81375 380.75 101.6875 C383.22469282 97.24598043 386.5415171 94.19882637 391.16088867 91.94628906 C394.22932775 88.69903082 393.50927327 84.90082163 393.42578125 80.609375 C393.42249313 79.67256897 393.41920502 78.73576294 393.41581726 77.77056885 C393.40005049 74.76324836 393.35608367 71.75703215 393.3125 68.75 C393.30100457 66.77084262 393.29122061 64.79167452 393.28320312 62.8125 C394.60533274 41.65391582 394.60533274 41.65391582 387.28125 23.13671875 C386.6934375 22.65847656 386.105625 22.18023437 385.5 21.6875 C384.9121875 21.19636719 384.324375 20.70523437 383.71875 20.19921875 C379.67481806 17.37765715 375.16872292 17.78088808 370.44287109 17.68798828 C369.56103275 17.66749798 368.67919441 17.64700768 367.7706337 17.62589645 C364.81332841 17.55978705 361.85593925 17.501917 358.8984375 17.4453125 C357.35292772 17.4139086 357.35292772 17.4139086 355.77619553 17.38187027 C331.16927219 16.88902232 306.56269034 16.84634359 281.95166016 16.86962891 C275.74464811 16.87544753 269.53767817 16.87194827 263.3306675 16.86605644 C258.47504353 16.86244668 253.61942965 16.86358927 248.76380539 16.86618423 C246.47138845 16.86684613 244.17897056 16.86605121 241.88655472 16.86370468 C238.7155231 16.861158 235.54456155 16.86504165 232.37353516 16.87060547 C230.98995819 16.86756912 230.98995819 16.86756912 229.57843018 16.86447144 C219.4350676 16.89734763 211.96419246 17.17590978 204 24 Z M52 73 C51.2864782 77.99465258 50.87748844 82.25110885 50.88647461 87.22045898 C50.88632858 87.90423111 50.88618256 88.58800323 50.8860321 89.29249573 C50.88672245 91.52706197 50.89447323 93.76154228 50.90234375 95.99609375 C50.90421105 97.55550593 50.90563348 99.11491869 50.90663147 100.67433167 C50.91043204 104.75956876 50.92024109 108.84476975 50.93133545 112.92999268 C50.94160269 117.10631828 50.94614043 121.28264976 50.95117188 125.45898438 C50.96186577 133.6393394 50.97891235 141.8196652 51 150 C60.22442707 150.85243446 69.35253226 151.13554045 78.61328125 151.09765625 C79.7993396 151.09664917 80.98539795 151.09564209 82.20739746 151.09460449 C86.57577502 151.08943051 90.94413863 151.07546999 95.3125 151.0625 C105.109375 151.041875 114.90625 151.02125 125 151 C125 125.26 125 99.52 125 73 C100.91 73 76.82 73 52 73 Z M259 73 C257.81425712 76.55722863 257.88009807 79.37776544 257.88647461 83.13354492 C257.88632858 83.85574722 257.88618256 84.57794952 257.8860321 85.32203674 C257.88672855 87.70821134 257.8945084 90.09430779 257.90234375 92.48046875 C257.90420888 94.1352789 257.90563234 95.79008961 257.90663147 97.44490051 C257.91044915 101.79981003 257.92027305 106.15468618 257.93133545 110.50958252 C257.94156567 114.95364938 257.94613255 119.39772163 257.95117188 123.84179688 C257.96189598 132.56121323 257.97896343 141.28060246 258 150 C265.99811388 151.009169 273.90665707 151.1458736 281.9609375 151.1328125 C283.26906403 151.13376923 284.57719055 151.13472595 285.92495728 151.13571167 C288.67312827 151.13717482 291.42126645 151.13507694 294.16943359 151.13037109 C297.68648538 151.12464066 301.20346139 151.12798236 304.72051048 151.13394356 C308.09232558 151.13842491 311.46412025 151.13528942 314.8359375 151.1328125 C316.09634857 151.13483673 317.35675964 151.13686096 318.65536499 151.13894653 C319.82403107 151.13579437 320.99269714 151.13264221 322.19677734 151.12939453 C323.2236264 151.12859894 324.25047546 151.12780334 325.30844116 151.12698364 C327.70267884 151.01402716 329.71346478 150.68697063 332 150 C332.78835848 145.82845924 333.12628259 141.88970485 333.12939453 137.64672852 C333.13412277 135.789338 333.13412277 135.789338 333.13894653 133.89442444 C333.13715626 132.55591801 333.13510518 131.21741191 333.1328125 129.87890625 C333.13348706 128.49177534 333.13445835 127.10464455 333.13571167 125.71751404 C333.13718197 122.81679148 333.13505592 119.91609981 333.13037109 117.01538086 C333.12467955 113.31242437 333.12795341 109.60954047 333.13394356 105.90658665 C333.13757177 103.04371095 333.13640013 100.18085222 333.13381577 97.317976 C333.13315247 95.9533379 333.13395387 94.58869822 333.13629532 93.22406197 C333.13885848 91.31026365 333.13425398 89.39645988 333.12939453 87.48266602 C333.12859894 86.39711929 333.12780334 85.31157257 333.12698364 84.19313049 C332.98971053 80.74126109 332.54198176 77.40983826 332 74 C328.37798176 72.8670057 324.99169957 72.87957719 321.21191406 72.88647461 C320.53833359 72.88632858 319.86475311 72.88618256 319.17076111 72.8860321 C316.95234924 72.88672676 314.73402214 72.89449819 312.515625 72.90234375 C310.97434536 72.90420952 309.43306512 72.90563267 307.89178467 72.90663147 C303.84102737 72.91044415 299.79030609 72.92026376 295.73956299 72.93133545 C291.60372403 72.94157644 287.46787924 72.94613485 283.33203125 72.95117188 C275.22133766 72.96188716 267.11067332 72.97894857 259 73 Z M-53.59956646 109.20438766 C-55.57625852 111.73886899 -55.50754579 113.71033131 -55.67842102 116.89849854 C-55.74271616 118.06459908 -55.8070113 119.23069962 -55.87325478 120.43213654 C-56.0650698 125.83170751 -56.14751152 131.22117852 -56.14526367 136.62402344 C-56.14862228 137.81115433 -56.1519809 138.99828522 -56.15544128 140.22138977 C-56.16485232 144.10072914 -56.16688884 147.98002497 -56.16796875 151.859375 C-56.16939497 153.20669829 -56.1709915 154.55402141 -56.17275429 155.9013443 C-56.18196154 162.9467664 -56.1860943 169.99216974 -56.18530273 177.03759766 C-56.18470056 183.57753678 -56.19529153 190.11739381 -56.2110464 196.65731215 C-56.22415402 202.30183348 -56.22948541 207.94632801 -56.22884732 213.59086442 C-56.22859364 216.94951497 -56.2323091 220.30803382 -56.24202538 223.66667938 C-56.25184564 227.40904052 -56.2489399 231.15118999 -56.24291992 234.89355469 C-56.24853943 235.99091446 -56.25415894 237.08827423 -56.25994873 238.21888733 C-56.31841986 249.29875083 -56.31841986 249.29875083 -51.625 258.9375 C-48.10004201 261.70710985 -45.4181432 263.21095559 -40.91630197 263.40912509 C-40.12718411 263.44715171 -39.33806625 263.48517833 -38.52503572 263.52435727 C-37.67933775 263.55467276 -36.83363979 263.58498825 -35.96231461 263.61622238 C-35.07358942 263.65382209 -34.18486423 263.69142179 -33.26920797 263.73016088 C-24.0475798 264.09155037 -14.83040307 264.14569191 -5.60296631 264.14044189 C-3.73937077 264.14303444 -1.87577577 264.14605002 -0.01218152 264.1494453 C5.04649604 264.15741226 10.10515935 264.15929899 15.16384244 264.16004276 C20.64290821 264.16191119 26.12196687 264.16946651 31.60102844 264.17617798 C43.54421421 264.1896812 55.48739659 264.19577145 67.43058872 264.20018864 C74.89231245 264.20296076 82.35403489 264.20719945 89.81575775 264.21169281 C110.49554487 264.22386755 131.17533099 264.23417521 151.85512161 264.2375679 C153.17486415 264.23778747 154.49460669 264.23800703 155.85434143 264.23823325 C157.19044847 264.23845389 158.52655551 264.23867437 159.86266255 264.2388947 C162.54271905 264.23933723 165.22277554 264.23978435 167.90283203 264.24023438 C168.89955289 264.24039846 168.89955289 264.24039846 169.91640952 264.24056586 C191.50415816 264.24420352 213.09187337 264.26016014 234.6796092 264.28342474 C257.5413735 264.30801716 280.40312332 264.32173344 303.26490188 264.32293582 C315.71411841 264.32385265 328.16329099 264.32960836 340.61249542 264.34775543 C351.19917619 264.36313451 361.78579937 264.36828927 372.37248918 264.36001733 C377.7730233 264.3561051 383.17344135 264.35706897 388.57396126 264.37107468 C393.5167463 264.38377665 398.4593276 264.38264878 403.40211222 264.37048396 C405.19034133 264.36852074 406.9785847 264.37163415 408.76679376 264.38032833 C411.19787117 264.39140052 413.62822677 264.38394691 416.05928421 264.3719368 C416.75290225 264.37953199 417.4465203 264.38712718 418.16115707 264.39495254 C424.6490496 264.32578902 429.93938503 262.74704313 434.875 258.5625 C438.32369644 254.40377782 439.249742 251.69104908 439.26069641 246.27565002 C439.26778122 245.10780975 439.27486603 243.93996948 439.28216553 242.73674011 C439.2784494 240.82046562 439.2784494 240.82046562 439.2746582 238.86547852 C439.27900644 237.50355754 439.28418996 236.14163901 439.29014587 234.77972412 C439.30353513 231.08343458 439.30411464 227.3872473 439.30158257 223.69093823 C439.30051282 220.60442276 439.30539633 217.51792797 439.310188 214.43141693 C439.3212829 207.14949333 439.32172067 199.86762132 439.31567383 192.58569336 C439.30963293 185.07504803 439.32194793 177.56458998 439.3432439 170.0539766 C439.36086025 163.60375288 439.36686121 157.15358878 439.36360615 150.7033419 C439.36179322 146.85171697 439.36443043 143.00022565 439.37832069 139.14862251 C439.39089507 135.52637137 439.38895887 131.90441218 439.37590981 128.28216553 C439.3724162 126.3210321 439.38372485 124.35988978 439.39547729 122.39878845 C439.38846298 121.22812836 439.38144867 120.05746826 439.3742218 118.85133362 C439.37438954 117.83610406 439.37455729 116.8208745 439.37473011 115.77488041 C438.93637491 112.52885551 437.89601394 110.64671258 436 108 C431.2884469 104.54442632 424.71913456 105.66663477 419.15551758 105.68432617 C417.07254637 105.68748477 414.9909988 105.66401481 412.90820312 105.63867188 C411.58884766 105.63802734 410.26949219 105.63738281 408.91015625 105.63671875 C407.70496338 105.63373779 406.49977051 105.63075684 405.25805664 105.62768555 C400.91916439 106.1235125 398.50249923 107.56136269 395.3830719 110.54820251 C393.28571042 114.26623452 393.58492489 117.75577077 393.61523438 121.95605469 C393.6098616 122.86062408 393.60448883 123.76519348 393.59895325 124.69717407 C393.58917439 126.66036595 393.58623142 128.62360106 393.58930969 130.58681488 C393.5937876 133.69799901 393.57978644 136.80861426 393.56091309 139.91973877 C393.52411262 146.5298165 393.51042537 153.13983492 393.5 159.75 C393.48791077 167.3973426 393.4662778 175.0444088 393.41999817 182.6916275 C393.40646044 185.74934335 393.41059386 188.80670702 393.41540527 191.86444092 C393.40605939 193.75175417 393.39588924 195.63906358 393.38476562 197.52636719 C393.39398796 198.79225174 393.39398796 198.79225174 393.40339661 200.08370972 C393.32182658 208.00085975 391.10853425 214.7869178 386 221 C380.4277616 225.17353888 375.94196487 227.12290275 368.921628 227.13422108 C367.64218227 227.13867892 366.36273654 227.14313676 365.04451972 227.14772969 C363.61645654 227.14764039 362.18839336 227.14745053 360.7603302 227.14717102 C359.24963988 227.15046955 357.73895044 227.15419509 356.22826213 227.1583125 C352.06610616 227.16834189 347.90396462 227.1720508 343.74179828 227.17470181 C339.25698728 227.17860207 334.77218773 227.18818059 330.28738403 227.19691467 C319.45127788 227.21668682 308.61517078 227.22674619 297.7790511 227.23564246 C292.67806009 227.24002408 287.57707012 227.24539122 282.47607994 227.25063133 C265.52256517 227.26764427 248.56905106 227.28213895 231.61552906 227.28938007 C227.21495882 227.29129002 222.81438858 227.29321034 218.41381836 227.29516602 C217.32005773 227.29564976 216.22629709 227.2961335 215.0993922 227.2966319 C197.37697286 227.30493408 179.65462098 227.3302739 161.93223111 227.36274669 C143.74341654 227.39580284 125.55463627 227.41382752 107.3657915 227.41702431 C97.15083458 227.41919074 86.93597603 227.42795874 76.72104836 227.45348549 C68.02238549 227.47517273 59.32384488 227.48325264 50.62515805 227.47351871 C46.1866915 227.46896829 41.74847732 227.47090324 37.31004524 227.49028015 C33.24545653 227.50787177 29.18130503 227.50694685 25.11671194 227.49138286 C23.64761928 227.48900068 22.17849666 227.49336197 20.70944986 227.50521151 C11.55838893 227.57444318 4.91650679 227.29868027 -2.20703125 221.0703125 C-2.73683594 220.42835938 -3.26664063 219.78640625 -3.8125 219.125 C-4.62654297 218.16980469 -4.62654297 218.16980469 -5.45703125 217.1953125 C-9.64830148 211.23203688 -10.42093325 206.76879395 -10.29296875 199.67749023 C-10.28639755 198.29833939 -10.28639755 198.29833939 -10.2796936 196.8913269 C-10.26830967 194.90244623 -10.24999584 192.91359563 -10.22549438 190.9248333 C-10.18711059 187.77665498 -10.16763452 184.62885699 -10.15307617 181.48048401 C-10.11883739 174.79931843 -10.06110202 168.11846686 -10 161.4375 C-9.92919392 153.69103772 -9.86802661 145.94475551 -9.83218384 138.19804573 C-9.81274329 135.09739754 -9.77522484 131.99730139 -9.73706055 128.89683533 C-9.72616249 126.99560018 -9.71610735 125.09435995 -9.70703125 123.19311523 C-9.69153229 122.33219772 -9.67603333 121.47128021 -9.6600647 120.58427429 C-9.6588172 115.87977642 -9.95116038 112.82554762 -13 109 C-16.85356914 105.96361615 -19.81757407 105.62425141 -24.65625 105.63671875 C-26.56083984 105.63768555 -26.56083984 105.63768555 -28.50390625 105.63867188 C-30.48197266 105.6628418 -30.48197266 105.6628418 -32.5 105.6875 C-33.81871094 105.68427734 -35.13742187 105.68105469 -36.49609375 105.67773438 C-45.57013047 105.48826556 -45.57013047 105.48826556 -53.59956646 109.20438766 Z M8.47265625 173.90234375 C5.89796831 179.39276698 6.38346599 185.63465164 6.4375 191.5625 C6.41365234 192.76841797 6.38980469 193.97433594 6.36523438 195.21679688 C6.26271128 202.29730383 6.26271128 202.29730383 8.72265625 208.77734375 C17.09261463 214.45375176 30.93995829 212.14422777 40.85620117 212.12939453 C42.40165243 212.13075304 43.94710337 212.13253549 45.49255371 212.13470459 C49.64675258 212.1392212 53.80092632 212.13751451 57.95512557 212.1343255 C62.31434807 212.13177685 66.67356855 212.13414592 71.03279114 212.13571167 C78.33802677 212.13752396 85.64325224 212.13514959 92.94848633 212.13037109 C101.39827982 212.12490783 109.84804927 212.12670981 118.2978422 212.1321975 C125.56601804 212.13672878 132.83418662 212.13737978 140.10236341 212.13475883 C144.43828909 212.13319902 148.77420344 212.13299468 153.1101284 212.13629532 C157.17562114 212.13917499 161.24108261 212.13719661 165.30657196 212.13140106 C166.80058299 212.13007494 168.29459664 212.13046509 169.78860664 212.13266373 C171.82128431 212.1353804 173.85396772 212.13137587 175.88664246 212.12698364 C177.02568622 212.12660662 178.16472998 212.12622959 179.33829021 212.12584114 C181.97503471 212.18101381 181.97503471 212.18101381 184 211 C184.08789715 206.68763079 184.1406923 202.3754955 184.1875 198.0625 C184.21263672 196.85013672 184.23777344 195.63777344 184.26367188 194.38867188 C184.32454975 186.90069337 184.38334925 179.37684414 179.60986328 173.20166016 C171.7907928 165.53782961 159.97278787 166.70235266 149.78881836 166.70947266 C148.38324125 166.70347593 146.9776674 166.69666778 145.57209778 166.68911743 C141.78293238 166.67157426 137.9938575 166.66676725 134.20465541 166.66548586 C131.8322493 166.66405793 129.45986576 166.65977643 127.08746529 166.65449142 C118.79714639 166.63603532 110.5068915 166.62781593 102.21655273 166.62939453 C94.50927728 166.63059724 86.80228124 166.60945824 79.0950765 166.5779072 C72.45698392 166.55170846 65.81898249 166.54102862 59.18083864 166.54230535 C55.22516901 166.54281359 51.26974853 166.53720621 47.31413078 166.51594925 C43.594879 166.49650377 39.87611267 166.49648485 36.15684319 166.51098251 C34.15357978 166.51405022 32.15031596 166.49744174 30.14712524 166.48010254 C21.61492056 166.53927823 14.31720172 167.19060142 8.47265625 173.90234375 Z M204.625 173.0625 C198.90622467 180.79644275 199.73610328 190.93644807 199.875 200.125 C199.88402344 201.27226563 199.89304687 202.41953125 199.90234375 203.6015625 C199.92567462 206.40126748 199.95840768 209.20051695 200 212 C221.39242273 212.0467332 242.78483703 212.08199533 264.17730045 212.10362434 C274.11032379 212.11393426 284.04331539 212.12798919 293.97631836 212.15087891 C302.63452677 212.17082145 311.2927122 212.18371851 319.95094293 212.18817699 C324.53484501 212.1907829 329.11868134 212.19690206 333.70256233 212.21146011 C338.01906868 212.22505764 342.33548233 212.22921824 346.65200806 212.22621536 C348.23421673 212.22676455 349.81642858 212.23072906 351.3986187 212.23841095 C353.56391871 212.2484063 355.72887175 212.24595235 357.8941803 212.24050903 C359.10449449 212.24235262 360.31480867 212.24419621 361.56179905 212.24609566 C366.28277339 211.9081831 370.43808256 211.06868036 374.375 208.375 C378.33229295 202.59126415 377.14328484 193.68266968 376.9375 186.9375 C376.93556641 185.98294922 376.93363281 185.02839844 376.93164062 184.04492188 C376.74345891 178.24331965 375.83630262 174.71747172 371.96313477 170.34204102 C365.20002847 165.71863655 356.65663329 166.70968322 348.83813477 166.7253418 C347.40182227 166.72098983 345.96551209 166.71580507 344.52920532 166.70985413 C340.64281666 166.69650556 336.75652549 166.69588077 332.87011838 166.69841743 C329.61970396 166.69948986 326.36930904 166.69459686 323.11889881 166.689812 C315.44798465 166.67873135 307.77711946 166.67827142 300.10620117 166.68432617 C292.20531496 166.69036674 284.3046068 166.67804959 276.40375096 166.6567561 C269.6077758 166.63911709 262.81185721 166.63314233 256.01586002 166.63639385 C251.96241881 166.63820303 247.90910466 166.63560696 243.85568428 166.62167931 C240.04296921 166.60906787 236.23053099 166.61107616 232.41781998 166.62409019 C231.02308622 166.62644826 229.62833276 166.62374902 228.2336216 166.61546707 C215.22822514 166.34633571 215.22822514 166.34633571 204.625 173.0625 Z M-25 280 C-24.979375 281.7325 -24.95875 283.465 -24.9375 285.25 C-24.90409164 288.05630209 -24.87595305 290.51065617 -25.56640625 293.234375 C-26.22439177 295.09090023 -26.22439177 295.09090023 -25 297 C-22.03 297 -19.06 297 -16 297 C-13.89739275 291.44310941 -12.99655118 285.83694261 -12 280 C-16.29 280 -20.58 280 -25 280 Z M397 280 C396.02018632 284.89906839 396.16678709 286.68710501 397.4375 291.3125 C397.86869141 292.91544922 397.86869141 292.91544922 398.30859375 294.55078125 C398.65083984 295.76314453 398.65083984 295.76314453 399 297 C402.3 297 405.6 297 409 297 C409.15873088 288.45175534 409.15873088 288.45175534 408 280 C404.37 280 400.74 280 397 280 Z " fill="#FFFFFF" transform="translate(320,368)"/>
<path d="M0 0 C1.83738235 -0.01441132 1.83738235 -0.01441132 3.71188354 -0.02911377 C5.05027073 -0.03396174 6.38866008 -0.03824057 7.72705078 -0.04199219 C9.10084027 -0.04774636 10.47462973 -0.05350406 11.84841919 -0.05926514 C14.72837701 -0.06976526 17.60830699 -0.07561442 20.48828125 -0.07910156 C24.17260084 -0.08458509 27.85655065 -0.10861378 31.54075432 -0.13707352 C34.37868311 -0.15572745 37.21652329 -0.16090694 40.05450821 -0.16243744 C41.41244657 -0.16545817 42.77038358 -0.17346716 44.12826157 -0.18662262 C46.03074542 -0.20373913 47.9333823 -0.19994996 49.8359375 -0.1953125 C50.91720917 -0.19895813 51.99848083 -0.20260376 53.11251831 -0.20635986 C56.46568965 0.21351441 58.33498702 1.17957041 61.04736328 3.16113281 C62.78260256 5.80530696 63.04736328 6.94579224 63.04736328 10.16113281 C64.03736328 10.65613281 64.03736328 10.65613281 65.04736328 11.16113281 C65.58596802 13.08442688 65.58596802 13.08442688 66.00488281 15.58032227 C66.98535675 20.95588241 68.30058396 26.18166605 69.72705078 31.45410156 C69.98108673 32.40319901 70.23512268 33.35229645 70.49685669 34.33015442 C71.30240589 37.33711533 72.11227779 40.3428912 72.92236328 43.34863281 C73.45781172 45.34399714 73.99297015 47.3394393 74.52783203 49.33496094 C74.78937073 50.30958282 75.05090942 51.28420471 75.32037354 52.2883606 C75.83820505 54.21992835 76.35494301 56.15178962 76.87054443 58.08395386 C77.99936293 62.30570196 79.1415369 66.52054024 80.35693359 70.71826172 C80.550867 71.40140945 80.74480042 72.08455719 80.9446106 72.78840637 C81.44942188 74.56010873 81.96680363 76.3282166 82.48535156 78.09594727 C83.27345313 82.39421624 82.91308285 85.70514989 80.67236328 89.47363281 C73.27267386 94.23057601 61.278905 92.31699079 52.65551758 92.29150391 C50.45728912 92.28606458 48.25925806 92.29152294 46.06103516 92.29785156 C44.659342 92.29719204 43.25764896 92.2959135 41.85595703 92.29394531 C40.59581787 92.29281738 39.33567871 92.29168945 38.03735352 92.29052734 C35.04736328 92.16113281 35.04736328 92.16113281 33.04736328 91.16113281 C33.37736328 92.15113281 33.70736328 93.14113281 34.04736328 94.16113281 C34.10646086 95.61983369 34.10672707 97.08135915 34.0690918 98.54077148 C34.04899551 99.42145798 34.02889923 100.30214447 34.00819397 101.20951843 C33.98115891 102.15648087 33.95412384 103.1034433 33.92626953 104.07910156 C33.89085304 105.53767326 33.89085304 105.53767326 33.85472107 107.02571106 C33.77810705 110.13350098 33.69407273 113.24104031 33.60986328 116.34863281 C33.55664035 118.45474031 33.50389996 120.56086007 33.45166016 122.66699219 C33.32249488 127.83186462 33.18667408 132.99652448 33.04736328 138.16113281 C35.01769531 138.07412109 35.01769531 138.07412109 37.02783203 137.98535156 C38.76347351 137.93844233 40.49915351 137.89294342 42.23486328 137.84863281 C43.53133789 137.78579102 43.53133789 137.78579102 44.85400391 137.72167969 C49.24404976 137.63757919 51.42755927 137.74663402 55.16064453 140.24316406 C57.46714243 143.81035647 57.4562052 145.99094524 57.04736328 150.16113281 C58.17754883 150.14018555 59.30773437 150.11923828 60.47216797 150.09765625 C64.66897897 150.02520585 68.8657348 149.97931497 73.06298828 149.94140625 C74.87883808 149.9213022 76.69462323 149.89401446 78.51025391 149.859375 C81.12174433 149.81080242 83.73237826 149.78815255 86.34423828 149.77050781 C87.15479675 149.74986267 87.96535522 149.72921753 88.80047607 149.70794678 C92.07207643 149.70664704 94.462895 149.78209647 97.24754333 151.58798218 C99.97625438 155.4891416 99.71963632 159.12079361 99.78686523 163.78564453 C99.81536969 164.78932508 99.84387415 165.79300564 99.87324238 166.82710075 C99.95905735 170.27184839 100.0078842 173.71554937 100.04736328 177.16113281 C100.06252865 178.40293556 100.07769402 179.64473831 100.09331894 180.92417145 C100.1920598 190.21952334 100.21303951 199.51436822 100.21462035 208.81018305 C100.21534015 211.19585424 100.21749115 213.58151998 100.22011757 215.96718979 C100.22928956 224.31130072 100.233461 232.65539591 100.23266602 240.99951172 C100.23206072 248.75192491 100.24272095 256.50426955 100.25840968 264.25666535 C100.27147548 270.95354573 100.27685063 277.65040356 100.27621061 284.3472966 C100.27595624 288.33051555 100.2787767 292.3136727 100.28938866 296.29687881 C100.29905857 300.02520205 100.29915659 303.75340394 100.29187202 307.48173141 C100.29032809 309.49755186 100.29867206 311.51337229 100.30731201 313.5291748 C100.30311752 314.73127594 100.29892303 315.93337708 100.29460144 317.17190552 C100.29514621 318.21407793 100.29569098 319.25625034 100.29625225 320.33000374 C100.03095497 323.34777843 99.43734452 325.47436484 98.04736328 328.16113281 C95.0134346 330.18375193 93.09322621 331.21093581 89.42236328 331.03613281 C86.78323246 330.06382146 85.0412246 329.15499413 83.04736328 327.16113281 C83.04736328 325.84113281 83.04736328 324.52113281 83.04736328 323.16113281 C82.38736328 323.16113281 81.72736328 323.16113281 81.04736328 323.16113281 C81.04736328 317.55113281 81.04736328 311.94113281 81.04736328 306.16113281 C81.70736328 306.16113281 82.36736328 306.16113281 83.04736328 306.16113281 C82.71736328 305.58363281 82.38736328 305.00613281 82.04736328 304.41113281 C81.04736328 302.16113281 81.04736328 302.16113281 81.04736328 298.16113281 C40.78736328 298.16113281 0.52736328 298.16113281 -40.95263672 298.16113281 C-40.95263672 306.74113281 -40.95263672 315.32113281 -40.95263672 324.16113281 C-44.59263672 330.22779948 -44.59263672 330.22779948 -47.95263672 331.16113281 C-51.25930731 330.98709752 -53.87898938 330.79051229 -56.76513672 329.09863281 C-60.2842479 323.3569251 -60.24028524 316.45292239 -60.19555664 309.93457031 C-60.19745499 309.04892395 -60.19935333 308.16327759 -60.2013092 307.25079346 C-60.20499038 304.34581426 -60.19434973 301.44108951 -60.18310547 298.53613281 C-60.18191191 296.50406931 -60.18146088 294.47200524 -60.18171692 292.43994141 C-60.18015657 288.1900688 -60.17190168 283.94028097 -60.15844727 279.69042969 C-60.14145828 274.25680259 -60.13763327 268.82326847 -60.13839245 263.38961792 C-60.13811985 259.19619874 -60.13262424 255.00279967 -60.12539101 250.80938721 C-60.12222049 248.80641838 -60.12024073 246.80344728 -60.1194973 244.80047607 C-60.1173165 241.99617677 -60.10853498 239.19197373 -60.09790039 236.38769531 C-60.09835358 235.56875793 -60.09880676 234.74982056 -60.09927368 233.90606689 C-60.071702 228.90540441 -59.63248613 224.11533187 -58.95263672 219.16113281 C-58.91502081 216.70423863 -58.91502081 216.70423863 -59.10888672 214.46582031 C-59.16278564 213.6034375 -59.21668457 212.74105469 -59.2722168 211.85253906 C-59.33175537 210.923125 -59.39129395 209.99371094 -59.45263672 209.03613281 C-59.98760388 198.58952998 -60.016876 188.17251003 -59.8125 177.71783447 C-59.78112857 176.02438388 -59.75646247 174.33079473 -59.73876953 172.637146 C-59.71121532 170.22763749 -59.65762144 167.82001486 -59.59716797 165.41113281 C-59.59276199 164.69732452 -59.58835602 163.98351624 -59.58381653 163.24807739 C-59.39796078 157.70198493 -57.66853544 153.98999871 -54.95263672 149.16113281 C-54.36825836 149.16335342 -53.78388 149.16557404 -53.18179321 149.16786194 C-47.11517954 149.18993669 -41.04857722 149.20504861 -34.98193359 149.21606445 C-32.71597836 149.22110208 -30.45002639 149.22793233 -28.18408203 149.23657227 C-24.93244625 149.24866277 -21.68085333 149.25436673 -18.42919922 149.25878906 C-17.41145416 149.26395035 -16.39370911 149.26911163 -15.34512329 149.27442932 C-14.40429901 149.27450485 -13.46347473 149.27458038 -12.49414062 149.2746582 C-11.6636319 149.27687881 -10.83312317 149.27909943 -9.97744751 149.28138733 C-7.88298708 149.29022463 -7.88298708 149.29022463 -5.95263672 148.16113281 C-5.76701172 146.76894531 -5.76701172 146.76894531 -5.57763672 145.34863281 C-4.8131235 141.4496154 -4.17388687 140.46556561 -0.95263672 138.16113281 C2.14561203 137.67278515 5.17085915 137.78411858 8.29736328 137.91113281 C9.13783203 137.92917969 9.97830078 137.94722656 10.84423828 137.96582031 C12.91243723 138.01282483 14.98004769 138.08456557 17.04736328 138.16113281 C16.88437744 137.19618896 16.7213916 136.23124512 16.5534668 135.23706055 C15.92261396 130.79939232 15.92143484 126.42132242 15.94970703 121.94628906 C15.95112198 121.09054794 15.95253693 120.23480682 15.95399475 119.35313416 C15.95955338 116.6432635 15.97209803 113.93347813 15.98486328 111.22363281 C15.98988363 109.3766288 15.9944456 107.52962349 15.99853516 105.68261719 C16.00950923 101.17542331 16.02674498 96.66829248 16.04736328 92.16113281 C14.90259521 92.17160645 13.75782715 92.18208008 12.57836914 92.19287109 C8.30870726 92.22922264 4.03905892 92.25208824 -0.23071289 92.27099609 C-2.07448634 92.28101924 -3.91824403 92.29464133 -5.76196289 92.31201172 C-8.42061262 92.33642276 -11.07905114 92.34765298 -13.73779297 92.35644531 C-14.55474136 92.36676788 -15.37168976 92.37709045 -16.21339417 92.38772583 C-21.16906173 92.38868525 -25.3052342 91.95251689 -29.95263672 90.16113281 C-32.89162456 85.75265106 -32.31166517 82.01911141 -31.32743835 76.92572021 C-31.0344838 75.81972473 -30.74152924 74.71372925 -30.43969727 73.57421875 C-30.10902756 72.3089032 -29.77835785 71.04358765 -29.43766785 69.7399292 C-29.07175574 68.37507058 -28.70564664 67.01026475 -28.33935547 65.64550781 C-27.96466131 64.22474246 -27.590717 62.80377916 -27.21748352 61.38262939 C-26.23492193 57.64974602 -25.24201902 53.91968978 -24.24694824 50.19012451 C-23.24460802 46.42565242 -22.25247686 42.65849341 -21.25927734 38.89160156 C-19.47365855 32.12735413 -17.6877028 25.3632237 -15.86898804 18.60778809 C-15.27470011 16.37250388 -14.69792374 14.13246173 -14.14199829 11.8873291 C-13.89364227 10.90421753 -13.64528625 9.92110596 -13.3894043 8.90820312 C-13.07825432 7.63266571 -13.07825432 7.63266571 -12.76081848 6.33135986 C-11.8559666 3.90154257 -10.97477263 2.76320628 -8.95263672 1.16113281 C-5.73451892 0.08842688 -3.3844903 0.02140384 0 0 Z M3.04736328 18.16113281 C-2.26154304 36.74230495 -7.13999067 55.44528705 -11.95263672 74.16113281 C12.46736328 74.16113281 36.88736328 74.16113281 62.04736328 74.16113281 C61.34432701 67.9399029 61.34432701 67.9399029 60.03173828 62.01171875 C59.83483398 61.30448669 59.63792969 60.59725464 59.43505859 59.86859131 C59.22461914 59.13497375 59.01417969 58.4013562 58.79736328 57.64550781 C58.57918945 56.86725647 58.36101562 56.08900513 58.13623047 55.28717041 C57.44532632 52.82693634 56.74658027 50.36901572 56.04736328 47.91113281 C55.34997311 45.43848009 54.65417594 42.96538292 53.95849609 40.49224854 C53.52693898 38.96040405 53.09405624 37.42893223 52.65966797 35.89788818 C51.7421023 32.66097254 50.86349223 29.42564861 50.04736328 26.16113281 C49.05736328 23.52113281 48.06736328 20.88113281 47.04736328 18.16113281 C32.52736328 18.16113281 18.00736328 18.16113281 3.04736328 18.16113281 Z M-41.95263672 167.16113281 C-41.98162488 171.0986174 -41.99943136 175.0360746 -42.01513672 178.97363281 C-42.02351563 180.09318359 -42.03189453 181.21273437 -42.04052734 182.36621094 C-42.04375 183.43935547 -42.04697266 184.5125 -42.05029297 185.61816406 C-42.05552979 186.60792236 -42.0607666 187.59768066 -42.06616211 188.61743164 C-42.06333631 191.28506015 -42.06333631 191.28506015 -40.95263672 194.16113281 C-40.29263672 194.16113281 -39.63263672 194.16113281 -38.95263672 194.16113281 C-38.95263672 194.82113281 -38.95263672 195.48113281 -38.95263672 196.16113281 C1.30736328 196.16113281 41.56736328 196.16113281 83.04736328 196.16113281 C82.38736328 195.83113281 81.72736328 195.50113281 81.04736328 195.16113281 C81.20978516 194.50113281 81.37220703 193.84113281 81.53955078 193.16113281 C82.16239164 189.48158066 82.19294661 185.8798542 82.17236328 182.16113281 C82.17623047 181.46246094 82.18009766 180.76378906 82.18408203 180.04394531 C82.17696325 176.27099285 81.79240376 172.84569664 81.04736328 169.16113281 C81.37736328 168.50113281 81.70736328 167.84113281 82.04736328 167.16113281 C81.14904785 167.16113281 80.25073242 167.16113281 79.32519531 167.16113281 C38.8992513 167.16113281 -1.52669271 167.16113281 -41.95263672 167.16113281 Z M-40.95263672 213.16113281 C-41.62661037 217.87894837 -42.07854018 221.86589841 -42.08203125 226.53955078 C-42.08518341 227.75706024 -42.08833557 228.9745697 -42.09158325 230.22897339 C-42.08955902 231.52400787 -42.08753479 232.81904236 -42.08544922 234.15332031 C-42.08612361 235.50855527 -42.08709477 236.86379011 -42.08834839 238.21902466 C-42.08981596 241.0447913 -42.08769918 243.87052614 -42.08300781 246.69628906 C-42.07727815 250.32470123 -42.08061576 253.95303996 -42.08658028 257.58144951 C-42.09018343 260.37287964 -42.08904902 263.16429216 -42.08645248 265.95572281 C-42.08545904 267.9461395 -42.088501 269.93655688 -42.09158325 271.92697144 C-42.08843109 273.12556793 -42.08527893 274.32416443 -42.08203125 275.55908203 C-42.08123566 276.61940643 -42.08044006 277.67973083 -42.07962036 278.77218628 C-42.22206321 281.1145653 -42.22206321 281.1145653 -40.95263672 282.16113281 C-39.37108824 282.25707507 -37.78524547 282.28301241 -36.20079041 282.28138733 C-34.65893822 282.28344933 -34.65893822 282.28344933 -33.0859375 282.28555298 C-31.38014526 282.28016006 -31.38014526 282.28016006 -29.63989258 282.2746582 C-27.85477013 282.27487724 -27.85477013 282.27487724 -26.03358459 282.27510071 C-22.76100398 282.27452176 -19.48846565 282.26949263 -16.21589351 282.26252675 C-12.79925007 282.25629249 -9.38260589 282.25568936 -5.96595764 282.25450134 C0.50805595 282.25138824 6.98205274 282.24317514 13.45605892 282.23315185 C20.82474248 282.22199006 28.19342683 282.2164801 35.56211674 282.21145642 C50.72387497 282.20099251 65.88561745 282.18339348 81.04736328 282.16113281 C81.98124109 278.70218781 82.16825609 275.65797925 82.16088867 272.06323242 C82.16081314 270.831931 82.16073761 269.60062958 82.16065979 268.33201599 C82.1555519 266.99250244 82.15033588 265.6529893 82.14501953 264.31347656 C82.14315294 262.9363256 82.14173017 261.55917396 82.14073181 260.18202209 C82.13691992 256.56149452 82.12710462 252.94100727 82.11602783 249.32049561 C82.10580666 245.63652081 82.10122696 241.95253958 82.09619141 238.26855469 C82.0866249 231.79526721 82.07212581 225.3220097 82.05409241 218.84873962 C82.04934562 216.9528753 82.04736328 215.05700308 82.04736328 213.16113281 C41.45736328 213.16113281 0.86736328 213.16113281 -40.95263672 213.16113281 Z M82.04736328 216.16113281 C83.04736328 218.16113281 83.04736328 218.16113281 83.04736328 218.16113281 Z " fill="#FFFFFF" transform="translate(142.95263671875,349.8388671875)"/>
<path d="M0 0 C1.22176941 -0.00960754 2.44353882 -0.01921509 3.70233154 -0.02911377 C5.0427634 -0.03396266 6.38319743 -0.03824126 7.72363281 -0.04199219 C9.09645591 -0.04774513 10.46927899 -0.05350285 11.84210205 -0.05926514 C14.72384007 -0.06977713 17.60555019 -0.07561791 20.48730469 -0.07910156 C24.17043427 -0.08457487 27.85319202 -0.1085766 31.53620529 -0.13707352 C34.37417658 -0.15575156 37.21205943 -0.16090831 40.05008698 -0.16243744 C42.06523421 -0.16691793 44.08033402 -0.18554331 46.09539795 -0.20440674 C47.329776 -0.20140564 48.56415405 -0.19840454 49.8359375 -0.1953125 C50.91800476 -0.19895813 52.00007202 -0.20260376 53.1149292 -0.20635986 C56.70812569 0.22490967 59.10019112 1.27686462 62.17675781 3.16113281 C63.56420898 5.88183594 63.56420898 5.88183594 64.53222656 9.44238281 C64.72415085 10.12312866 64.91607513 10.80387451 65.11381531 11.50524902 C65.56118686 13.10853085 65.99651093 14.71520053 66.42279053 16.32421875 C67.27885495 19.54528848 68.1714782 22.75519813 69.06591797 25.96582031 C70.87431429 32.4895189 72.63986011 39.02391282 74.38989258 45.56347656 C75.30985709 48.9995158 76.24226159 52.43205406 77.17739582 55.86399078 C77.9039062 58.5389241 78.62142051 61.21621171 79.33653831 63.89421082 C79.83989323 65.77025089 80.35260577 67.64377235 80.86555481 69.51721191 C82.46251052 75.54922168 83.75175786 80.91381012 83.17675781 87.16113281 C81.61425781 89.59863281 81.61425781 89.59863281 79.17675781 91.16113281 C74.56640291 92.00216635 70.11058497 92.28926305 65.43066406 92.29394531 C63.55604492 92.29587891 63.55604492 92.29587891 61.64355469 92.29785156 C59.71092773 92.29205078 59.71092773 92.29205078 57.73925781 92.28613281 C56.45470703 92.29 55.17015625 92.29386719 53.84667969 92.29785156 C51.97012695 92.29591797 51.97012695 92.29591797 50.05566406 92.29394531 C48.92717041 92.29281738 47.79867676 92.29168945 46.63598633 92.29052734 C42.80041896 92.14705563 38.98536812 91.6372091 35.17675781 91.16113281 C34.84675781 106.67113281 34.51675781 122.18113281 34.17675781 138.16113281 C40.44675781 138.16113281 46.71675781 138.16113281 53.17675781 138.16113281 C57.17675781 141.16113281 57.17675781 141.16113281 57.78613281 143.42285156 C57.83253906 144.22335937 57.87894531 145.02386719 57.92675781 145.84863281 C58.01183594 147.06099609 58.01183594 147.06099609 58.09863281 148.29785156 C58.12441406 148.91273438 58.15019531 149.52761719 58.17675781 150.16113281 C58.92022461 150.12560303 59.66369141 150.09007324 60.4296875 150.0534668 C85.49531077 148.89674042 85.49531077 148.89674042 97.67675781 149.34863281 C98.48725586 149.36659912 99.29775391 149.38456543 100.1328125 149.40307617 C103.29901486 149.56193289 105.67880841 149.84248749 108.37541199 151.56808472 C111.17408353 155.59678916 110.77639178 159.49576057 110.77954102 164.29443359 C110.80365712 165.84241701 110.80365712 165.84241701 110.82826042 167.42167282 C110.87652146 170.85832851 110.89605855 174.29451239 110.91503906 177.73144531 C110.94220523 180.1608338 110.97082145 182.59020646 111.00080872 185.01956177 C111.07364124 191.44187928 111.11944829 197.86407481 111.15509796 204.28669739 C111.17622391 208.06563055 111.20155323 211.84451357 111.22796631 215.62341309 C111.32636313 230.29800332 111.36315354 244.97207437 111.36206055 259.64697266 C111.3619562 265.92901878 111.37595559 272.21095864 111.39283276 278.49297905 C111.40391955 283.41546135 111.4059813 288.33791679 111.40545082 293.26041031 C111.40662248 295.58156854 111.4109979 297.90272766 111.41878319 300.22387314 C111.42857819 303.42553454 111.42571438 306.62694793 111.41967773 309.82861328 C111.42529724 310.76229736 111.43091675 311.69598145 111.43670654 312.65795898 C111.41035167 318.15793206 110.86771966 322.90955988 109.17675781 328.16113281 C106.19727671 330.97035786 104.71057944 331.1704981 100.61425781 331.09863281 C97.17675781 330.16113281 97.17675781 330.16113281 93.17675781 326.16113281 C92.84675781 317.25113281 92.51675781 308.34113281 92.17675781 299.16113281 C51.91675781 299.16113281 11.65675781 299.16113281 -29.82324219 299.16113281 C-29.49324219 299.82113281 -29.16324219 300.48113281 -28.82324219 301.16113281 C-28.73461524 304.60139638 -28.96772623 308.03736134 -29.13574219 311.47363281 C-29.17119141 312.42431641 -29.20664062 313.375 -29.24316406 314.35449219 C-29.49915532 319.82200701 -29.80330792 324.33322484 -33.07324219 328.91113281 C-35.66053572 330.75919962 -37.66397853 331.03476227 -40.82324219 331.16113281 C-44.35230285 329.55701433 -45.65097126 328.4195392 -47.82324219 325.16113281 C-48.08330441 322.15100288 -48.08330441 322.15100288 -48.09739685 318.38015747 C-48.10525187 317.34029845 -48.10525187 317.34029845 -48.11326557 316.27943218 C-48.12829553 313.95104133 -48.12897137 311.62286966 -48.12963867 309.29443359 C-48.13725814 307.62724434 -48.14568527 305.96005861 -48.15486145 304.2928772 C-48.17683399 299.7597991 -48.18560901 295.22678846 -48.19068789 290.69366312 C-48.19432813 287.86251808 -48.20056643 285.03139081 -48.20768929 282.20025253 C-48.23219308 272.32603934 -48.24523775 262.45187876 -48.2487793 252.57763672 C-48.2524156 243.36907707 -48.28231527 234.16085051 -48.32418388 224.9523927 C-48.35885647 217.04997236 -48.37432721 209.14766257 -48.37502533 201.24516666 C-48.37581917 196.52376995 -48.38460651 191.80271242 -48.41302299 187.0813942 C-48.43915194 182.64074828 -48.44143807 178.200724 -48.42536736 173.76003647 C-48.42354873 172.13021238 -48.43028086 170.50035297 -48.44618607 168.87060547 C-48.46658204 166.64502314 -48.45613662 164.42162914 -48.43797302 162.19607544 C-48.43998435 160.9509424 -48.44199568 159.70580936 -48.44406796 158.42294502 C-47.65371317 154.27042908 -46.0585634 152.78779432 -42.82324219 150.16113281 C-40.81730652 149.52189636 -40.81730652 149.52189636 -38.85913086 149.50170898 C-38.11874069 149.48206589 -37.37835052 149.46242279 -36.61552429 149.44218445 C-35.83200089 149.4461171 -35.04847748 149.45004974 -34.24121094 149.45410156 C-33.42703201 149.43898026 -32.61285309 149.42385895 -31.77400208 149.40827942 C-29.18596583 149.36545845 -26.59909714 149.35657034 -24.01074219 149.34863281 C-22.25094565 149.32548398 -20.49117678 149.30011783 -18.73144531 149.27246094 C-14.42860799 149.20966449 -10.12649719 149.17728546 -5.82324219 149.16113281 C-5.74074219 147.90300781 -5.65824219 146.64488281 -5.57324219 145.34863281 C-5.43261719 143.20410156 -5.43261719 143.20410156 -4.82324219 141.16113281 C-0.82324219 138.16113281 -0.82324219 138.16113281 17.17675781 138.16113281 C16.84675781 122.98113281 16.51675781 107.80113281 16.17675781 92.16113281 C6.18600652 92.20040763 6.18600652 92.20040763 -3.8046875 92.2512207 C-26.35256761 92.29558376 -26.35256761 92.29558376 -29.59594727 89.79370117 C-31.45830903 87.3163562 -31.60967375 85.22602717 -31.82324219 82.16113281 C-31.26464844 79.09082031 -31.26464844 79.09082031 -30.38574219 76.03613281 C-29.37019227 72.4566609 -28.82324219 69.92519706 -28.82324219 66.16113281 C-28.16324219 66.16113281 -27.50324219 66.16113281 -26.82324219 66.16113281 C-26.74340088 65.61142822 -26.66355957 65.06172363 -26.58129883 64.49536133 C-25.51794919 57.97167021 -23.96015933 51.63038199 -22.25683594 45.25097656 C-22.0170401 44.35263092 -21.77724426 43.45428528 -21.53018188 42.52871704 C-20.5224792 38.76933011 -19.50872908 35.01162914 -18.48852539 31.25561523 C-17.73782979 28.48501413 -16.99684092 25.71194917 -16.25683594 22.93847656 C-16.02765976 22.10589828 -15.79848358 21.27332001 -15.56236267 20.41551208 C-14.03995366 14.68334927 -13.25042268 9.07446767 -12.82324219 3.16113281 C-12.03949219 2.85175781 -11.25574219 2.54238281 -10.44824219 2.22363281 C-6.52791442 0.63683348 -4.30647533 0.02725465 0 0 Z M3.17675781 18.16113281 C-0.30848533 31.15874436 -0.30848533 31.15874436 -3.79321289 44.15649414 C-4.017686 44.99315109 -4.24215912 45.82980804 -4.47343445 46.69181824 C-4.92887245 48.39035619 -5.38348507 50.08911557 -5.83747864 51.78804016 C-7.28956091 57.21296887 -8.78138461 62.6237246 -10.36694336 68.01147461 C-10.99627512 70.61004516 -10.99627512 70.61004516 -10.82324219 75.16113281 C13.59675781 74.83113281 38.01675781 74.50113281 63.17675781 74.16113281 C61.66324039 67.35030443 60.0461146 60.62862297 58.21582031 53.90332031 C58.02458588 53.20022736 57.83335144 52.4971344 57.63632202 51.7727356 C57.23141923 50.28494893 56.82627246 48.79722865 56.42089844 47.30957031 C55.80964917 45.06510928 55.20021065 42.82016165 54.59082031 40.57519531 C54.19509946 39.12203968 53.79926944 37.66891377 53.40332031 36.21582031 C53.22507721 35.55814667 53.04683411 34.90047302 52.8631897 34.22286987 C51.39180033 28.83610409 49.78298665 23.51522893 48.17675781 18.16113281 C33.32675781 18.16113281 18.47675781 18.16113281 3.17675781 18.16113281 Z M-30.82324219 167.16113281 C-30.87734905 168.93162971 -30.91608338 170.7026013 -30.94824219 172.47363281 C-30.97144531 173.45976563 -30.99464844 174.44589844 -31.01855469 175.46191406 C-31.03006858 178.38519808 -31.03006858 178.38519808 -28.82324219 181.16113281 C-29.48324219 181.16113281 -30.14324219 181.16113281 -30.82324219 181.16113281 C-30.82324219 185.45113281 -30.82324219 189.74113281 -30.82324219 194.16113281 C-30.16324219 194.16113281 -29.50324219 194.16113281 -28.82324219 194.16113281 C-28.82324219 194.82113281 -28.82324219 195.48113281 -28.82324219 196.16113281 C11.43675781 196.16113281 51.69675781 196.16113281 93.17675781 196.16113281 C93.17675781 186.59113281 93.17675781 177.02113281 93.17675781 167.16113281 C82.7633247 167.13858165 72.34990768 167.12021765 61.93645573 167.10932064 C57.10158955 167.10409185 52.26674087 167.09699427 47.43188477 167.08569336 C42.76998662 167.07486434 38.10810535 167.06885595 33.4461956 167.06625557 C31.66351493 167.06440135 29.88083522 167.06078078 28.0981617 167.05540276 C25.61009821 167.04819213 23.12210538 167.04714188 20.6340332 167.04760742 C19.8895694 167.04401215 19.14510559 167.04041687 18.37808228 167.03671265 C14.99107898 166.74132285 14.99107898 166.74132285 12.17675781 168.16113281 C12.17675781 167.83113281 12.17675781 167.50113281 12.17675781 167.16113281 C11.41363281 167.16113281 10.65050781 167.16113281 9.86425781 167.16113281 C-3.69824219 167.16113281 -17.26074219 167.16113281 -30.82324219 167.16113281 Z M-30.82324219 213.16113281 C-31.96471849 224.5486328 -31.96471849 224.5486328 -29.82324219 235.16113281 C-29.98824219 236.13050781 -30.15324219 237.09988281 -30.32324219 238.09863281 C-31.07171114 241.19065716 -31.07171114 241.19065716 -29.82324219 244.16113281 C-30.13345105 245.83225799 -30.46998108 247.4985759 -30.82324219 249.16113281 C-30.90182303 251.09861525 -30.93109652 253.03849054 -30.92089844 254.97753906 C-30.91767578 256.07130859 -30.91445313 257.16507813 -30.91113281 258.29199219 C-30.90275391 259.42443359 -30.894375 260.556875 -30.88574219 261.72363281 C-30.88123047 262.85994141 -30.87671875 263.99625 -30.87207031 265.16699219 C-30.86336403 267.27515713 -30.85260206 269.38331532 -30.83911133 271.49145508 C-30.82589619 273.71464801 -30.82324219 275.93790061 -30.82324219 278.16113281 C-30.49324219 279.48113281 -30.16324219 280.80113281 -29.82324219 282.16113281 C10.76675781 282.16113281 51.35675781 282.16113281 93.17675781 282.16113281 C93.17675781 273.25113281 93.17675781 264.34113281 93.17675781 255.16113281 C92.51675781 255.16113281 91.85675781 255.16113281 91.17675781 255.16113281 C91.17675781 254.50113281 91.17675781 253.84113281 91.17675781 253.16113281 C91.83675781 253.16113281 92.49675781 253.16113281 93.17675781 253.16113281 C93.21930138 251.16158535 93.21756564 249.16071645 93.17675781 247.16113281 C92.84675781 246.83113281 92.51675781 246.50113281 92.17675781 246.16113281 C92.34175781 245.56300781 92.50675781 244.96488281 92.67675781 244.34863281 C93.2502733 241.83950254 92.93624509 240.59149211 92.17675781 238.16113281 C91.84342448 236.82779948 91.51009115 235.49446615 91.17675781 234.16113281 C92.16675781 233.66613281 92.16675781 233.66613281 93.17675781 233.16113281 C93.17675781 232.4740625 93.17675781 231.78699219 93.17675781 231.07910156 C93.17675781 225.10644531 93.17675781 219.13378906 93.17675781 213.16113281 C52.25675781 213.16113281 11.33675781 213.16113281 -30.82324219 213.16113281 Z " fill="#FFFFFF" transform="translate(828.8232421875,349.8388671875)"/>
<path d="M0 0 C5.28 0 10.56 0 16 0 C16 0.33 16 0.66 16 1 C10.72 1 5.44 1 0 1 C0 0.67 0 0.34 0 0 Z " fill="#FFFFFF" transform="translate(856,518)"/>
<path d="M0 0 C3.63 0 7.26 0 11 0 C11 0.33 11 0.66 11 1 C7.37 1 3.74 1 0 1 C0 0.67 0 0.34 0 0 Z " fill="#FFFFFF" transform="translate(882,518)"/>
<path d="M0 0 C2.64 0 5.28 0 8 0 C5 2 5 2 2.3125 1.625 C1.1678125 1.315625 1.1678125 1.315625 0 1 C0 0.67 0 0.34 0 0 Z " fill="#FFFFFF" transform="translate(176,518)"/>
<path d="M0 0 C2.31 0 4.62 0 7 0 C7 0.33 7 0.66 7 1 C4.69 1 2.38 1 0 1 C0 0.67 0 0.34 0 0 Z " fill="#FFFFFF" transform="translate(814,518)"/>
<path d="M0 0 C1.65 0 3.3 0 5 0 C4.67 0.66 4.34 1.32 4 2 C2.68 1.34 1.36 0.68 0 0 Z " fill="#FFFFFF" transform="translate(160,518)"/>
<path d="M0 0 C1.65 0 3.3 0 5 0 C5 0.33 5 0.66 5 1 C3.35 1 1.7 1 0 1 C0 0.67 0 0.34 0 0 Z " fill="#FFFFFF" transform="translate(883,544)"/>
<path d="M0 0 C1.65 0 3.3 0 5 0 C5 0.33 5 0.66 5 1 C3.35 1 1.7 1 0 1 C0 0.67 0 0.34 0 0 Z " fill="#FFFFFF" transform="translate(808,518)"/>
<path d="M0 0 C0.99 0.33 1.98 0.66 3 1 C2.01 1 1.02 1 0 1 C0 0.67 0 0.34 0 0 Z " fill="#FFFFFF" transform="translate(586,597)"/>
<path d="M0 0 C0.66 0 1.32 0 2 0 C2 0.66 2 1.32 2 2 C1.34 2 0.68 2 0 2 C0 1.34 0 0.68 0 0 Z " fill="#FFFFFF" transform="translate(371,597)"/>
<path d="M0 0 C4 1 4 1 4 1 Z " fill="#FFFFFF" transform="translate(822,518)"/>
<path d="M0 0 C4 1 4 1 4 1 Z " fill="#FFFFFF" transform="translate(169,518)"/>
<path d="M0 0 C4 1 4 1 4 1 Z " fill="#FFFFFF" transform="translate(153,518)"/>
<path d="M0 0 C4 1 4 1 4 1 Z " fill="#FFFFFF" transform="translate(142,518)"/>
<path d="M0 0 C4 1 4 1 4 1 Z " fill="#FFFFFF" transform="translate(134,518)"/>
<path d="M0 0 C4 1 4 1 4 1 Z " fill="#FFFFFF" transform="translate(118,518)"/>
<path d="" fill="#FFFFFF" transform="translate(0,0)"/>
<path d="" fill="#FFFFFF" transform="translate(0,0)"/>
<path d="M0 0 C0.66 0.66 1.32 1.32 2 2 C1.34 2 0.68 2 0 2 C0 1.34 0 0.68 0 0 Z " fill="#FFFFFF" transform="translate(595,597)"/>
<path d="M0 0 C0.66 0 1.32 0 2 0 C1.67 0.66 1.34 1.32 1 2 C0.67 1.34 0.34 0.68 0 0 Z " fill="#FFFFFF" transform="translate(619,597)"/>
<path d="M0 0 C0.99 0.495 0.99 0.495 2 1 C1.01 1.495 1.01 1.495 0 2 C0 1.34 0 0.68 0 0 Z " fill="#FFFFFF" transform="translate(443,597)"/>
<path d="M0 0 C3 1 3 1 3 1 Z " fill="#FFFFFF" transform="translate(206,544)"/>
<path d="M0 0 C3 1 3 1 3 1 Z " fill="#FFFFFF" transform="translate(895,518)"/>
<path d="M0 0 C3 1 3 1 3 1 Z " fill="#FFFFFF" transform="translate(874,518)"/>
<path d="M0 0 C3 1 3 1 3 1 Z " fill="#FFFFFF" transform="translate(852,518)"/>
<path d="M0 0 C0.66 0 1.32 0 2 0 C1.67 0.66 1.34 1.32 1 2 C0.67 1.34 0.34 0.68 0 0 Z " fill="#FFFFFF" transform="translate(219,518)"/>
<path d="M0 0 C3 1 3 1 3 1 Z " fill="#FFFFFF" transform="translate(233,498)"/>
<path d="M0 0 C3 1 3 1 3 1 Z " fill="#FFFFFF" transform="translate(223,498)"/>
<path d="" fill="#FFFFFF" transform="translate(0,0)"/>
<path d="" fill="#FFFFFF" transform="translate(0,0)"/>
<path d="" fill="#FFFFFF" transform="translate(0,0)"/>
<path d="" fill="#FFFFFF" transform="translate(0,0)"/>
<path d="" fill="#FFFFFF" transform="translate(0,0)"/>
<path d="" fill="#FFFFFF" transform="translate(0,0)"/>
<path d="" fill="#FFFFFF" transform="translate(0,0)"/>
<path d="" fill="#FFFFFF" transform="translate(0,0)"/>
<path d="" fill="#FFFFFF" transform="translate(0,0)"/>
<path d="" fill="#FFFFFF" transform="translate(0,0)"/>
<path d="" fill="#FFFFFF" transform="translate(0,0)"/>
<path d="" fill="#FFFFFF" transform="translate(0,0)"/>
<path d="M0 0 C2 1 2 1 2 1 Z " fill="#FFFFFF" transform="translate(634,597)"/>
<path d="M0 0 C2 1 2 1 2 1 Z " fill="#FFFFFF" transform="translate(507,597)"/>
<path d="M0 0 C2 1 2 1 2 1 Z " fill="#FFFFFF" transform="translate(480,597)"/>
<path d="M0 0 C2 1 2 1 2 1 Z " fill="#FFFFFF" transform="translate(376,597)"/>
<path d="M0 0 C2 1 2 1 2 1 Z " fill="#FFFFFF" transform="translate(688,577)"/>
<path d="M0 0 C2 1 2 1 2 1 Z " fill="#FFFFFF" transform="translate(441,577)"/>
<path d="" fill="#FFFFFF" transform="translate(0,0)"/>
<path d="" fill="#FFFFFF" transform="translate(0,0)"/>
<path d="M0 0 C2 1 2 1 2 1 Z " fill="#FFFFFF" transform="translate(849,564)"/>
<path d="M0 0 C2 1 2 1 2 1 Z " fill="#FFFFFF" transform="translate(134,564)"/>
<path d="M0 0 C2 1 2 1 2 1 Z " fill="#FFFFFF" transform="translate(895,544)"/>
<path d="M0 0 C2 1 2 1 2 1 Z " fill="#FFFFFF" transform="translate(880,544)"/>
<path d="M0 0 C2 1 2 1 2 1 Z " fill="#FFFFFF" transform="translate(200,544)"/>
<path d="M0 0 C2 1 2 1 2 1 Z " fill="#FFFFFF" transform="translate(184,544)"/>
<path d="M0 0 C2 1 2 1 2 1 Z " fill="#FFFFFF" transform="translate(179,544)"/>
<path d="M0 0 C2 1 2 1 2 1 Z " fill="#FFFFFF" transform="translate(176,544)"/>
<path d="M0 0 C2 1 2 1 2 1 Z " fill="#FFFFFF" transform="translate(160,544)"/>
<path d="M0 0 C2 1 2 1 2 1 Z " fill="#FFFFFF" transform="translate(151,544)"/>
<path d="M0 0 C2 1 2 1 2 1 Z " fill="#FFFFFF" transform="translate(144,544)"/>
<path d="" fill="#FFFFFF" transform="translate(0,0)"/>
<path d="" fill="#FFFFFF" transform="translate(0,0)"/>
<path d="" fill="#FFFFFF" transform="translate(0,0)"/>
<path d="M0 0 C2 1 2 1 2 1 Z " fill="#FFFFFF" transform="translate(907,518)"/>
<path d="M0 0 C2 1 2 1 2 1 Z " fill="#FFFFFF" transform="translate(899,518)"/>
<path d="M0 0 C2 1 2 1 2 1 Z " fill="#FFFFFF" transform="translate(843,518)"/>
<path d="M0 0 C2 1 2 1 2 1 Z " fill="#FFFFFF" transform="translate(827,518)"/>
<path d="M0 0 C2 1 2 1 2 1 Z " fill="#FFFFFF" transform="translate(803,518)"/>
<path d="M0 0 C2 1 2 1 2 1 Z " fill="#FFFFFF" transform="translate(211,518)"/>
<path d="M0 0 C2 1 2 1 2 1 Z " fill="#FFFFFF" transform="translate(203,518)"/>
<path d="M0 0 C2 1 2 1 2 1 Z " fill="#FFFFFF" transform="translate(187,518)"/>
<path d="M0 0 C2 1 2 1 2 1 Z " fill="#FFFFFF" transform="translate(147,518)"/>
<path d="M0 0 C2 1 2 1 2 1 Z " fill="#FFFFFF" transform="translate(139,518)"/>
<path d="M0 0 C2 1 2 1 2 1 Z " fill="#FFFFFF" transform="translate(115,518)"/>
<path d="M0 0 C2 1 2 1 2 1 Z " fill="#FFFFFF" transform="translate(104,518)"/>
<path d="M0 0 C2 1 2 1 2 1 Z " fill="#FFFFFF" transform="translate(670,516)"/>
<path d="" fill="#FFFFFF" transform="translate(0,0)"/>
<path d="" fill="#FFFFFF" transform="translate(0,0)"/>
<path d="M0 0 C2 1 2 1 2 1 Z " fill="#FFFFFF" transform="translate(784,499)"/>
<path d="M0 0 C2 1 2 1 2 1 Z " fill="#FFFFFF" transform="translate(928,498)"/>
<path d="M0 0 C2 1 2 1 2 1 Z " fill="#FFFFFF" transform="translate(919,498)"/>
<path d="M0 0 C2 1 2 1 2 1 Z " fill="#FFFFFF" transform="translate(911,498)"/>
<path d="M0 0 C2 1 2 1 2 1 Z " fill="#FFFFFF" transform="translate(798,498)"/>
<path d="M0 0 C2 1 2 1 2 1 Z " fill="#FFFFFF" transform="translate(230,498)"/>
<path d="" fill="#FFFFFF" transform="translate(0,0)"/>
<path d="" fill="#FFFFFF" transform="translate(0,0)"/>
<path d="" fill="#FFFFFF" transform="translate(0,0)"/>
<path d="M0 0 C2 1 2 1 2 1 Z " fill="#FFFFFF" transform="translate(456,424)"/>
<path d="" fill="#FFFFFF" transform="translate(0,0)"/>
<path d="" fill="#FFFFFF" transform="translate(0,0)"/>
<path d="" fill="#FFFFFF" transform="translate(0,0)"/>
<path d="" fill="#FFFFFF" transform="translate(0,0)"/>
<path d="M0 0 C2 1 2 1 2 1 Z " fill="#FFFFFF" transform="translate(535,387)"/>
<path d="" fill="#FFFFFF" transform="translate(0,0)"/>
<path d="" fill="#FFFFFF" transform="translate(0,0)"/>
<path d="" fill="#FFFFFF" transform="translate(0,0)"/>
<path d="" fill="#FFFFFF" transform="translate(0,0)"/>
<path d="" fill="#FFFFFF" transform="translate(0,0)"/>
<path d="" fill="#FFFFFF" transform="translate(0,0)"/>
<path d="" fill="#FFFFFF" transform="translate(0,0)"/>
<path d="" fill="#FFFFFF" transform="translate(0,0)"/>
<path d="" fill="#FFFFFF" transform="translate(0,0)"/>
<path d="" fill="#FFFFFF" transform="translate(0,0)"/>
<path d="" fill="#FFFFFF" transform="translate(0,0)"/>
<path d="" fill="#FFFFFF" transform="translate(0,0)"/>
<path d="" fill="#FFFFFF" transform="translate(0,0)"/>
<path d="" fill="#FFFFFF" transform="translate(0,0)"/>
<path d="" fill="#FFFFFF" transform="translate(0,0)"/>
<path d="" fill="#FFFFFF" transform="translate(0,0)"/>
<path d="" fill="#FFFFFF" transform="translate(0,0)"/>
<path d="" fill="#FFFFFF" transform="translate(0,0)"/>
<path d="" fill="#FFFFFF" transform="translate(0,0)"/>
<path d="" fill="#FFFFFF" transform="translate(0,0)"/>
<path d="" fill="#FFFFFF" transform="translate(0,0)"/>
<path d="" fill="#FFFFFF" transform="translate(0,0)"/>
<path d="" fill="#FFFFFF" transform="translate(0,0)"/>
<path d="" fill="#FFFFFF" transform="translate(0,0)"/>
<path d="" fill="#FFFFFF" transform="translate(0,0)"/>
<path d="" fill="#FFFFFF" transform="translate(0,0)"/>
<path d="" fill="#FFFFFF" transform="translate(0,0)"/>
<path d="" fill="#FFFFFF" transform="translate(0,0)"/>
<path d="" fill="#FFFFFF" transform="translate(0,0)"/>
<path d="" fill="#FFFFFF" transform="translate(0,0)"/>
<path d="" fill="#FFFFFF" transform="translate(0,0)"/>
<path d="" fill="#FFFFFF" transform="translate(0,0)"/>
<path d="" fill="#FFFFFF" transform="translate(0,0)"/>
<path d="" fill="#FFFFFF" transform="translate(0,0)"/>
<path d="" fill="#FFFFFF" transform="translate(0,0)"/>
<path d="" fill="#FFFFFF" transform="translate(0,0)"/>
<path d="" fill="#FFFFFF" transform="translate(0,0)"/>
<path d="" fill="#FFFFFF" transform="translate(0,0)"/>
<path d="" fill="#FFFFFF" transform="translate(0,0)"/>
<path d="" fill="#FFFFFF" transform="translate(0,0)"/>
<path d="" fill="#FFFFFF" transform="translate(0,0)"/>
<path d="" fill="#FFFFFF" transform="translate(0,0)"/>
<path d="" fill="#FFFFFF" transform="translate(0,0)"/>
<path d="" fill="#FFFFFF" transform="translate(0,0)"/>
<path d="" fill="#FFFFFF" transform="translate(0,0)"/>
<path d="" fill="#FFFFFF" transform="translate(0,0)"/>
<path d="" fill="#FFFFFF" transform="translate(0,0)"/>
<path d="" fill="#FFFFFF" transform="translate(0,0)"/>
<path d="" fill="#FFFFFF" transform="translate(0,0)"/>
<path d="" fill="#FFFFFF" transform="translate(0,0)"/>
<path d="" fill="#FFFFFF" transform="translate(0,0)"/>
<path d="" fill="#FFFFFF" transform="translate(0,0)"/>
<path d="" fill="#FFFFFF" transform="translate(0,0)"/>
<path d="" fill="#FFFFFF" transform="translate(0,0)"/>
<path d="" fill="#FFFFFF" transform="translate(0,0)"/>
<path d="" fill="#FFFFFF" transform="translate(0,0)"/>
<path d="" fill="#FFFFFF" transform="translate(0,0)"/>
<path d="" fill="#FFFFFF" transform="translate(0,0)"/>
<path d="" fill="#FFFFFF" transform="translate(0,0)"/>
<path d="" fill="#FFFFFF" transform="translate(0,0)"/>
<path d="" fill="#FFFFFF" transform="translate(0,0)"/>
<path d="" fill="#FFFFFF" transform="translate(0,0)"/>
<path d="" fill="#FFFFFF" transform="translate(0,0)"/>
<path d="" fill="#FFFFFF" transform="translate(0,0)"/>
<path d="" fill="#FFFFFF" transform="translate(0,0)"/>
<path d="" fill="#FFFFFF" transform="translate(0,0)"/>
<path d="" fill="#FFFFFF" transform="translate(0,0)"/>
<path d="" fill="#FFFFFF" transform="translate(0,0)"/>
<path d="" fill="#FFFFFF" transform="translate(0,0)"/>
<path d="" fill="#FFFFFF" transform="translate(0,0)"/>
<path d="" fill="#FFFFFF" transform="translate(0,0)"/>
<path d="" fill="#FFFFFF" transform="translate(0,0)"/>
<path d="" fill="#FFFFFF" transform="translate(0,0)"/>
<path d="" fill="#FFFFFF" transform="translate(0,0)"/>
<path d="" fill="#FFFFFF" transform="translate(0,0)"/>
<path d="" fill="#FFFFFF" transform="translate(0,0)"/>
<path d="" fill="#FFFFFF" transform="translate(0,0)"/>
<path d="" fill="#FFFFFF" transform="translate(0,0)"/>
<path d="" fill="#FFFFFF" transform="translate(0,0)"/>
<path d="" fill="#FFFFFF" transform="translate(0,0)"/>
<path d="" fill="#FFFFFF" transform="translate(0,0)"/>
<path d="" fill="#FFFFFF" transform="translate(0,0)"/>
<path d="" fill="#FFFFFF" transform="translate(0,0)"/>
<path d="" fill="#FFFFFF" transform="translate(0,0)"/>
<path d="" fill="#FFFFFF" transform="translate(0,0)"/>
<path d="" fill="#FFFFFF" transform="translate(0,0)"/>
<path d="" fill="#FFFFFF" transform="translate(0,0)"/>
<path d="" fill="#FFFFFF" transform="translate(0,0)"/>
<path d="" fill="#FFFFFF" transform="translate(0,0)"/>
<path d="" fill="#FFFFFF" transform="translate(0,0)"/>
<path d="" fill="#FFFFFF" transform="translate(0,0)"/>
<path d="" fill="#FFFFFF" transform="translate(0,0)"/>
<path d="" fill="#FFFFFF" transform="translate(0,0)"/>
<path d="" fill="#FFFFFF" transform="translate(0,0)"/>
<path d="" fill="#FFFFFF" transform="translate(0,0)"/>
<path d="" fill="#FFFFFF" transform="translate(0,0)"/>
<path d="" fill="#FFFFFF" transform="translate(0,0)"/>
<path d="" fill="#FFFFFF" transform="translate(0,0)"/>
<path d="" fill="#FFFFFF" transform="translate(0,0)"/>
<path d="" fill="#FFFFFF" transform="translate(0,0)"/>
<path d="" fill="#FFFFFF" transform="translate(0,0)"/>
<path d="" fill="#FFFFFF" transform="translate(0,0)"/>
<path d="" fill="#FFFFFF" transform="translate(0,0)"/>
<path d="" fill="#FFFFFF" transform="translate(0,0)"/>
<path d="" fill="#FFFFFF" transform="translate(0,0)"/>
<path d="" fill="#FFFFFF" transform="translate(0,0)"/>
<path d="" fill="#FFFFFF" transform="translate(0,0)"/>
<path d="" fill="#FFFFFF" transform="translate(0,0)"/>
<path d="" fill="#FFFFFF" transform="translate(0,0)"/>
<path d="" fill="#FFFFFF" transform="translate(0,0)"/>
<path d="" fill="#FFFFFF" transform="translate(0,0)"/>
<path d="" fill="#FFFFFF" transform="translate(0,0)"/>
<path d="" fill="#FFFFFF" transform="translate(0,0)"/>
<path d="" fill="#FFFFFF" transform="translate(0,0)"/>
<path d="" fill="#FFFFFF" transform="translate(0,0)"/>
<path d="" fill="#FFFFFF" transform="translate(0,0)"/>
<path d="" fill="#FFFFFF" transform="translate(0,0)"/>
<path d="" fill="#FFFFFF" transform="translate(0,0)"/>
<path d="" fill="#FFFFFF" transform="translate(0,0)"/>
<path d="" fill="#FFFFFF" transform="translate(0,0)"/>
<path d="" fill="#FFFFFF" transform="translate(0,0)"/>
<path d="" fill="#FFFFFF" transform="translate(0,0)"/>
<path d="" fill="#FFFFFF" transform="translate(0,0)"/>
<path d="" fill="#FFFFFF" transform="translate(0,0)"/>
<path d="" fill="#FFFFFF" transform="translate(0,0)"/>
<path d="" fill="#FFFFFF" transform="translate(0,0)"/>
<path d="" fill="#FFFFFF" transform="translate(0,0)"/>
<path d="" fill="#FFFFFF" transform="translate(0,0)"/>
<path d="" fill="#FFFFFF" transform="translate(0,0)"/>
<path d="" fill="#FFFFFF" transform="translate(0,0)"/>
<path d="" fill="#FFFFFF" transform="translate(0,0)"/>
<path d="" fill="#FFFFFF" transform="translate(0,0)"/>
<path d="" fill="#FFFFFF" transform="translate(0,0)"/>
<path d="" fill="#FFFFFF" transform="translate(0,0)"/>
<path d="" fill="#FFFFFF" transform="translate(0,0)"/>
<path d="" fill="#FFFFFF" transform="translate(0,0)"/>
<path d="" fill="#FFFFFF" transform="translate(0,0)"/>
<path d="" fill="#FFFFFF" transform="translate(0,0)"/>
<path d="" fill="#FFFFFF" transform="translate(0,0)"/>
<path d="" fill="#FFFFFF" transform="translate(0,0)"/>
<path d="" fill="#FFFFFF" transform="translate(0,0)"/>
<path d="" fill="#FFFFFF" transform="translate(0,0)"/>
<path d="" fill="#FFFFFF" transform="translate(0,0)"/>
<path d="" fill="#FFFFFF" transform="translate(0,0)"/>
<path d="" fill="#FFFFFF" transform="translate(0,0)"/>
<path d="" fill="#FFFFFF" transform="translate(0,0)"/>
<path d="" fill="#FFFFFF" transform="translate(0,0)"/>
<path d="" fill="#FFFFFF" transform="translate(0,0)"/>
<path d="" fill="#FFFFFF" transform="translate(0,0)"/>
<path d="" fill="#FFFFFF" transform="translate(0,0)"/>
<path d="" fill="#FFFFFF" transform="translate(0,0)"/>
<path d="" fill="#FFFFFF" transform="translate(0,0)"/>
<path d="" fill="#FFFFFF" transform="translate(0,0)"/>
<path d="" fill="#FFFFFF" transform="translate(0,0)"/>
<path d="" fill="#FFFFFF" transform="translate(0,0)"/>
<path d="" fill="#FFFFFF" transform="translate(0,0)"/>
<path d="" fill="#FFFFFF" transform="translate(0,0)"/>
<path d="" fill="#FFFFFF" transform="translate(0,0)"/>
<path d="" fill="#FFFFFF" transform="translate(0,0)"/>
<path d="" fill="#FFFFFF" transform="translate(0,0)"/>
<path d="" fill="#FFFFFF" transform="translate(0,0)"/>
<path d="" fill="#FFFFFF" transform="translate(0,0)"/>
<path d="" fill="#FFFFFF" transform="translate(0,0)"/>
<path d="" fill="#FFFFFF" transform="translate(0,0)"/>
<path d="" fill="#FFFFFF" transform="translate(0,0)"/>
<path d="" fill="#FFFFFF" transform="translate(0,0)"/>
<path d="" fill="#FFFFFF" transform="translate(0,0)"/>
<path d="" fill="#FFFFFF" transform="translate(0,0)"/>
<path d="" fill="#FFFFFF" transform="translate(0,0)"/>
<path d="" fill="#FFFFFF" transform="translate(0,0)"/>
<path d="" fill="#FFFFFF" transform="translate(0,0)"/>
<path d="" fill="#FFFFFF" transform="translate(0,0)"/>
<path d="" fill="#FFFFFF" transform="translate(0,0)"/>
<path d="" fill="#FFFFFF" transform="translate(0,0)"/>
<path d="" fill="#FFFFFF" transform="translate(0,0)"/>
<path d="" fill="#FFFFFF" transform="translate(0,0)"/>
<path d="" fill="#FFFFFF" transform="translate(0,0)"/>
<path d="" fill="#FFFFFF" transform="translate(0,0)"/>
<path d="" fill="#FFFFFF" transform="translate(0,0)"/>
<path d="" fill="#FFFFFF" transform="translate(0,0)"/>
<path d="" fill="#FFFFFF" transform="translate(0,0)"/>
<path d="" fill="#FFFFFF" transform="translate(0,0)"/>
<path d="" fill="#FFFFFF" transform="translate(0,0)"/>
<path d="" fill="#FFFFFF" transform="translate(0,0)"/>
<path d="" fill="#FFFFFF" transform="translate(0,0)"/>
<path d="" fill="#FFFFFF" transform="translate(0,0)"/>
<path d="" fill="#FFFFFF" transform="translate(0,0)"/>
<path d="" fill="#FFFFFF" transform="translate(0,0)"/>
<path d="" fill="#FFFFFF" transform="translate(0,0)"/>
<path d="" fill="#FFFFFF" transform="translate(0,0)"/>
<path d="" fill="#FFFFFF" transform="translate(0,0)"/>
<path d="" fill="#FFFFFF" transform="translate(0,0)"/>
<path d="" fill="#FFFFFF" transform="translate(0,0)"/>
<path d="" fill="#FFFFFF" transform="translate(0,0)"/>
<path d="" fill="#FFFFFF" transform="translate(0,0)"/>
<path d="" fill="#FFFFFF" transform="translate(0,0)"/>
<path d="" fill="#FFFFFF" transform="translate(0,0)"/>
<path d="" fill="#FFFFFF" transform="translate(0,0)"/>
<path d="" fill="#FFFFFF" transform="translate(0,0)"/>
<path d="" fill="#FFFFFF" transform="translate(0,0)"/>
<path d="" fill="#FFFFFF" transform="translate(0,0)"/>
<path d="" fill="#FFFFFF" transform="translate(0,0)"/>
<path d="" fill="#FFFFFF" transform="translate(0,0)"/>
<path d="" fill="#FFFFFF" transform="translate(0,0)"/>
<path d="" fill="#FFFFFF" transform="translate(0,0)"/>
<path d="" fill="#FFFFFF" transform="translate(0,0)"/>
<path d="" fill="#FFFFFF" transform="translate(0,0)"/>
<path d="" fill="#FFFFFF" transform="translate(0,0)"/>
<path d="" fill="#FFFFFF" transform="translate(0,0)"/>
<path d="" fill="#FFFFFF" transform="translate(0,0)"/>
<path d="" fill="#FFFFFF" transform="translate(0,0)"/>
<path d="" fill="#FFFFFF" transform="translate(0,0)"/>
<path d="" fill="#FFFFFF" transform="translate(0,0)"/>
<path d="" fill="#FFFFFF" transform="translate(0,0)"/>
<path d="" fill="#FFFFFF" transform="translate(0,0)"/>
<path d="" fill="#FFFFFF" transform="translate(0,0)"/>
<path d="" fill="#FFFFFF" transform="translate(0,0)"/>
<path d="" fill="#FFFFFF" transform="translate(0,0)"/>
<path d="" fill="#FFFFFF" transform="translate(0,0)"/>
<path d="" fill="#FFFFFF" transform="translate(0,0)"/>
<path d="" fill="#FFFFFF" transform="translate(0,0)"/>
<path d="" fill="#FFFFFF" transform="translate(0,0)"/>
<path d="" fill="#FFFFFF" transform="translate(0,0)"/>
<path d="" fill="#FFFFFF" transform="translate(0,0)"/>
<path d="" fill="#FFFFFF" transform="translate(0,0)"/>
<path d="" fill="#FFFFFF" transform="translate(0,0)"/>
<path d="" fill="#FFFFFF" transform="translate(0,0)"/>
<path d="" fill="#FFFFFF" transform="translate(0,0)"/>
<path d="" fill="#FFFFFF" transform="translate(0,0)"/>
<path d="" fill="#FFFFFF" transform="translate(0,0)"/>
<path d="" fill="#FFFFFF" transform="translate(0,0)"/>
<path d="" fill="#FFFFFF" transform="translate(0,0)"/>
<path d="" fill="#FFFFFF" transform="translate(0,0)"/>
<path d="" fill="#FFFFFF" transform="translate(0,0)"/>
<path d="" fill="#FFFFFF" transform="translate(0,0)"/>
<path d="" fill="#FFFFFF" transform="translate(0,0)"/>
<path d="" fill="#FFFFFF" transform="translate(0,0)"/>
<path d="" fill="#FFFFFF" transform="translate(0,0)"/>
<path d="" fill="#FFFFFF" transform="translate(0,0)"/>
<path d="" fill="#FFFFFF" transform="translate(0,0)"/>
<path d="" fill="#FFFFFF" transform="translate(0,0)"/>
<path d="" fill="#FFFFFF" transform="translate(0,0)"/>
<path d="" fill="#FFFFFF" transform="translate(0,0)"/>
<path d="" fill="#FFFFFF" transform="translate(0,0)"/>
<path d="" fill="#FFFFFF" transform="translate(0,0)"/>
<path d="" fill="#FFFFFF" transform="translate(0,0)"/>
<path d="" fill="#FFFFFF" transform="translate(0,0)"/>
<path d="" fill="#FFFFFF" transform="translate(0,0)"/>
<path d="" fill="#FFFFFF" transform="translate(0,0)"/>
<path d="" fill="#FFFFFF" transform="translate(0,0)"/>
<path d="" fill="#FFFFFF" transform="translate(0,0)"/>
<path d="" fill="#FFFFFF" transform="translate(0,0)"/>
<path d="" fill="#FFFFFF" transform="translate(0,0)"/>
<path d="" fill="#FFFFFF" transform="translate(0,0)"/>
<path d="" fill="#FFFFFF" transform="translate(0,0)"/>
<path d="" fill="#FFFFFF" transform="translate(0,0)"/>
<path d="" fill="#FFFFFF" transform="translate(0,0)"/>
<path d="" fill="#FFFFFF" transform="translate(0,0)"/>
<path d="" fill="#FFFFFF" transform="translate(0,0)"/>
<path d="" fill="#FFFFFF" transform="translate(0,0)"/>
<path d="" fill="#FFFFFF" transform="translate(0,0)"/>
<path d="" fill="#FFFFFF" transform="translate(0,0)"/>
<path d="" fill="#FFFFFF" transform="translate(0,0)"/>
<path d="" fill="#FFFFFF" transform="translate(0,0)"/>
<path d="" fill="#FFFFFF" transform="translate(0,0)"/>
<path d="" fill="#FFFFFF" transform="translate(0,0)"/>
<path d="" fill="#FFFFFF" transform="translate(0,0)"/>
<path d="" fill="#FFFFFF" transform="translate(0,0)"/>
<path d="" fill="#FFFFFF" transform="translate(0,0)"/>
<path d="" fill="#FFFFFF" transform="translate(0,0)"/>
<path d="" fill="#FFFFFF" transform="translate(0,0)"/>
<path d="" fill="#FFFFFF" transform="translate(0,0)"/>
<path d="" fill="#FFFFFF" transform="translate(0,0)"/>
<path d="" fill="#FFFFFF" transform="translate(0,0)"/>
<path d="" fill="#FFFFFF" transform="translate(0,0)"/>
<path d="" fill="#FFFFFF" transform="translate(0,0)"/>
<path d="" fill="#FFFFFF" transform="translate(0,0)"/>
<path d="" fill="#FFFFFF" transform="translate(0,0)"/>
<path d="" fill="#FFFFFF" transform="translate(0,0)"/>
<path d="" fill="#FFFFFF" transform="translate(0,0)"/>
<path d="" fill="#FFFFFF" transform="translate(0,0)"/>
<path d="" fill="#FFFFFF" transform="translate(0,0)"/>
<path d="" fill="#FFFFFF" transform="translate(0,0)"/>
<path d="" fill="#FFFFFF" transform="translate(0,0)"/>
<path d="" fill="#FFFFFF" transform="translate(0,0)"/>
<path d="" fill="#FFFFFF" transform="translate(0,0)"/>
<path d="" fill="#FFFFFF" transform="translate(0,0)"/>
<path d="" fill="#FFFFFF" transform="translate(0,0)"/>
<path d="" fill="#FFFFFF" transform="translate(0,0)"/>
<path d="" fill="#FFFFFF" transform="translate(0,0)"/>
<path d="" fill="#FFFFFF" transform="translate(0,0)"/>
<path d="" fill="#FFFFFF" transform="translate(0,0)"/>
<path d="" fill="#FFFFFF" transform="translate(0,0)"/>
<path d="" fill="#FFFFFF" transform="translate(0,0)"/>
<path d="" fill="#FFFFFF" transform="translate(0,0)"/>
<path d="" fill="#FFFFFF" transform="translate(0,0)"/>
<path d="" fill="#FFFFFF" transform="translate(0,0)"/>
<path d="" fill="#FFFFFF" transform="translate(0,0)"/>
<path d="" fill="#FFFFFF" transform="translate(0,0)"/>
<path d="" fill="#FFFFFF" transform="translate(0,0)"/>
<path d="" fill="#FFFFFF" transform="translate(0,0)"/>
<path d="" fill="#FFFFFF" transform="translate(0,0)"/>
<path d="" fill="#FFFFFF" transform="translate(0,0)"/>
<path d="" fill="#FFFFFF" transform="translate(0,0)"/>
<path d="" fill="#FFFFFF" transform="translate(0,0)"/>
<path d="" fill="#FFFFFF" transform="translate(0,0)"/>
<path d="" fill="#FFFFFF" transform="translate(0,0)"/>
<path d="" fill="#FFFFFF" transform="translate(0,0)"/>
<path d="" fill="#FFFFFF" transform="translate(0,0)"/>
<path d="" fill="#FFFFFF" transform="translate(0,0)"/>
<path d="" fill="#FFFFFF" transform="translate(0,0)"/>
<path d="" fill="#FFFFFF" transform="translate(0,0)"/>
<path d="" fill="#FFFFFF" transform="translate(0,0)"/>
</svg>
