<?xml version="1.0" encoding="UTF-8"?>
<svg version="1.1" xmlns="http://www.w3.org/2000/svg" width="1024" height="1024">
<path d="M0 0 C1.85792795 0.41341244 3.7159995 0.82618013 5.57421875 1.23828125 C20.39435409 4.56339266 35.13185442 8.23056103 49.87823486 11.86523438 C71.39868578 17.16539149 92.96102187 22.2847876 114.52571106 27.40126801 C139.08642659 33.22888225 163.63937489 39.06694216 188.1105957 45.26196289 C200.31462716 48.34895369 212.5457269 51.31162816 224.79022217 54.23388672 C241.41204432 58.2012014 258.02995076 62.18463431 274.61865234 66.28857422 C276.51288602 66.75627435 278.40772853 67.22151675 280.30322266 67.68408203 C308.96893006 74.6869036 308.96893006 74.6869036 317.3125 86.1875 C321.97605315 95.46540031 322.43594392 105.6057356 322.37231445 115.77978516 C322.37474947 117.1150694 322.37847563 118.4503518 322.38337708 119.78562927 C322.39269088 123.37441832 322.38344283 126.96293008 322.37004495 130.55169725 C322.35862909 134.32795216 322.3628456 138.10419541 322.36479187 141.88046265 C322.36567145 148.21657782 322.35466328 154.55258531 322.33618164 160.88867188 C322.31500088 168.19145422 322.31151008 175.49407923 322.3177436 182.79688609 C322.32345699 189.85446327 322.31776956 196.91198563 322.30657005 203.9695549 C322.30195202 206.9589274 322.30103797 209.94826607 322.3031559 212.93764114 C322.30540592 217.11817776 322.29086413 221.2984981 322.2746582 225.47900391 C322.27837433 227.31837273 322.27837433 227.31837273 322.28216553 229.19490051 C322.19694733 243.01714618 319.92522701 254.92482072 310.19921875 265.26171875 C303.13687807 271.71118223 294.207014 276.19296606 286 281 C284.76024727 281.74103332 283.52176355 282.48419829 282.28515625 283.23046875 C279.99160066 284.61409564 277.69516403 285.99158552 275.39453125 287.36328125 C271.73548469 289.55159561 268.0913008 291.76407864 264.44921875 293.98046875 C263.85841522 294.33998627 263.26761169 294.69950378 262.65890503 295.06991577 C261.43491189 295.81479195 260.21092311 296.55967528 258.98693848 297.30456543 C248.64060936 303.60000112 238.25946809 309.82693191 227.8046875 315.94091797 C217.74015586 321.8472949 207.7871589 327.94377617 197.8125 334 C196.91268402 334.54625534 196.91268402 334.54625534 195.99468994 335.10354614 C189.8986615 338.80459759 183.80390391 342.50767205 177.71694946 346.22363281 C162.6865393 355.39866134 147.56500947 364.39973482 132.359375 373.28125 C123.14689714 378.66274372 114.01049372 384.16281977 104.90234375 389.71875 C102.56028703 391.14647617 100.21778549 392.57347002 97.875 394 C97.27764038 394.36380768 96.68028076 394.72761536 96.06481934 395.10244751 C86.22064559 401.09287006 76.30543699 406.95308234 66.35122681 412.75842285 C57.26168271 418.06132693 48.24071437 423.46636291 39.26635742 428.96240234 C30.89452666 434.08390588 22.44963871 439.07626354 13.9921875 444.0546875 C9.85471874 446.49114505 5.73559673 448.95607847 1.625 451.4375 C-51.4559822 483.36132813 -51.4559822 483.36132813 -74.40576172 478.23999023 C-84.33856819 475.56728205 -94.07258753 472.42670046 -103.8125 469.125 C-105.32602576 468.6154512 -106.83969745 468.10633565 -108.35351562 467.59765625 C-114.58590467 465.50170198 -120.81757303 463.40410472 -127.04052734 461.28027344 C-128.6767213 460.7258037 -130.31295068 460.17143847 -131.94921875 459.6171875 C-132.71224808 459.35471222 -133.4752774 459.09223694 -134.26142883 458.82180786 C-137.29227473 457.79910007 -139.77802179 457 -143 457 C-143 456.34 -143 455.68 -143 455 C-144.87196045 454.62149902 -144.87196045 454.62149902 -146.78173828 454.23535156 C-152.49074189 452.96402409 -157.96061731 451.11787572 -163.4921875 449.234375 C-165.68211599 448.50207861 -167.87222547 447.77032327 -170.0625 447.0390625 C-173.48803799 445.89030221 -176.91201447 444.73742491 -180.33300781 443.57519531 C-183.6530138 442.44959305 -186.9782313 441.34074383 -190.3046875 440.234375 C-191.33278534 439.88034607 -192.36088318 439.52631714 -193.4201355 439.16156006 C-194.37187653 438.84753235 -195.32361755 438.53350464 -196.30419922 438.20996094 C-197.14087128 437.92731384 -197.97754333 437.64466675 -198.83956909 437.35345459 C-201.28945997 436.700589 -201.28945997 436.700589 -204 439 C-204.99 438.67 -205.98 438.34 -207 438 C-207 437.01 -207 436.02 -207 435 C-229.687853 427.39243261 -252.41364829 419.91040789 -275.17835999 412.53616333 C-283.30487409 409.90309014 -291.42703504 407.25672348 -299.54882812 404.60913086 C-303.19024785 403.42218138 -306.83216783 402.23678853 -310.47460938 401.05297852 C-312.24349326 400.47803864 -314.0123735 399.90308759 -315.78125 399.328125 C-317.0725885 398.90840675 -317.0725885 398.90840675 -318.39001465 398.48020935 C-323.34045431 396.86975573 -328.28737348 395.24908183 -333.23097229 393.61775208 C-336.16040436 392.65194951 -339.09160551 391.69159887 -342.02316284 390.73226929 C-343.37082901 390.28966204 -344.71763166 389.84441586 -346.06350708 389.39639282 C-347.88519093 388.79016501 -349.71008564 388.1936105 -351.53515625 387.59765625 C-352.549729 387.26258057 -353.56430176 386.92750488 -354.60961914 386.58227539 C-356.99533368 385.72841981 -356.99533368 385.72841981 -359 387 C-359 386.01 -359 385.02 -359 384 C-360.15266357 383.85618896 -360.15266357 383.85618896 -361.32861328 383.70947266 C-366.27361705 382.75388142 -370.95804142 381.20761711 -375.7421875 379.6484375 C-376.78335724 379.31131744 -377.82452698 378.97419739 -378.89724731 378.62686157 C-381.10183139 377.91122179 -383.30566325 377.19326113 -385.50878906 376.47314453 C-388.82591886 375.39101153 -392.14710104 374.32207342 -395.46875 373.25390625 C-406.17632876 369.78068352 -416.67094227 366.15964434 -426.89501953 361.43212891 C-428.83263163 360.53843237 -430.79617769 359.6968269 -432.7902832 358.9375 C-438.77444564 356.39864421 -443.635927 348.12244978 -446.18487549 342.26341248 C-449.98001739 331.72518009 -449.29475009 320.08707339 -449.265625 309.05859375 C-449.26697565 307.2412155 -449.2689195 305.4238376 -449.27142334 303.60646057 C-449.27435504 299.81678797 -449.27013983 296.0272103 -449.26074219 292.23754883 C-449.24934067 287.40737837 -449.25592406 282.57743008 -449.26788712 277.74726772 C-449.27515178 274.00065978 -449.27279688 270.25410357 -449.26763153 266.50749397 C-449.26630817 264.72749873 -449.26789607 262.94749862 -449.27259064 261.16750908 C-449.32332825 236.53386742 -449.32332825 236.53386742 -443.08059692 228.79574585 C-440.89609209 225.16551575 -441.35909223 221.01064333 -441.43359375 216.89453125 C-441.42514183 215.45384529 -441.42514183 215.45384529 -441.41651917 213.98405457 C-441.40013208 210.92636794 -441.41553389 207.87013488 -441.4375 204.8125 C-441.61110738 173.21847312 -441.61110738 173.21847312 -430.81640625 162.28515625 C-425.87616669 158.27677879 -420.40629893 155.77041242 -414.64160156 153.19140625 C-411.61730874 151.82739987 -408.61754147 150.41587754 -405.6171875 149 C-393.08726769 143.10434485 -380.48975363 137.37756347 -367.78540039 131.8659668 C-356.50272043 126.96032709 -345.40151992 121.66713302 -334.28041077 116.40878296 C-320.73229714 110.00338195 -307.15640264 103.67143645 -293.5 97.5 C-280.69111192 91.71142868 -267.95629953 85.77785139 -255.24707031 79.77392578 C-245.72204208 75.27491352 -236.17414849 70.82937058 -226.60351562 66.42797852 C-219.20032766 63.02148065 -211.81379025 59.58040059 -204.43310547 56.12548828 C-191.2392253 49.95043552 -178.00539974 43.86635206 -164.75048828 37.82348633 C-157.16509348 34.3647676 -149.58897428 30.88820799 -142.02905273 27.37402344 C-129.39269737 21.50240416 -116.67066311 15.84006168 -103.90795898 10.24975586 C-102.53626041 9.64835493 -101.16459635 9.04687528 -99.79296875 8.4453125 C-99.1300885 8.15503677 -98.46720825 7.86476105 -97.78424072 7.56568909 C-93.471592 5.66981569 -89.20089902 3.69946662 -84.9375 1.6953125 C-57.23286447 -11.14732996 -28.70670416 -6.56458537 0 0 Z M-98.4921875 26.7734375 C-101 28 -101 28 -103.7824707 28.90600586 C-106.979146 29.99290942 -109.93758304 31.28657326 -112.98828125 32.73046875 C-114.73383301 33.55200439 -114.73383301 33.55200439 -116.51464844 34.39013672 C-117.43981262 34.82806549 -117.43981262 34.82806549 -118.38366699 35.27484131 C-121.74293935 36.86433563 -125.10767711 38.44216203 -128.47265625 40.01953125 C-129.17437958 40.34860474 -129.87610291 40.67767822 -130.59909058 41.01672363 C-137.44237627 44.21929506 -144.32164929 47.34031549 -151.20678711 50.45162964 C-163.28893176 55.91180186 -175.32289875 61.4644158 -187.3125 67.125 C-188.02648956 67.46208984 -188.74047913 67.79917969 -189.47610474 68.14648438 C-192.31067682 69.48495314 -195.14521166 70.82350072 -197.97966003 72.16223145 C-212.54916222 79.03928594 -227.18290228 85.77935029 -241.8125 92.52734375 C-243.09674614 93.11977875 -243.09674614 93.11977875 -244.40693665 93.72418213 C-248.62518021 95.66995803 -252.84380334 97.61490165 -257.06323242 99.55810547 C-264.61643632 103.03875705 -272.15974601 106.53783861 -279.6796875 110.08984375 C-287.05407747 113.57142535 -294.46541589 116.96597047 -301.89569092 120.3263855 C-305.48526741 121.95013423 -309.07278428 123.57841898 -312.66015625 125.20703125 C-313.37627075 125.53212173 -314.09238525 125.85721222 -314.8302002 126.19215393 C-322.23286543 129.55551986 -329.61423371 132.96444721 -336.99243164 136.38110352 C-343.02826029 139.17371775 -349.07172847 141.94858243 -355.125 144.703125 C-376.17214312 154.28415896 -397.11364859 164.07337246 -418 174 C-418 174.66 -418 175.32 -418 176 C-400.22483984 181.14000447 -382.43305733 186.20100912 -364.5625 191 C-352.94527023 194.12103778 -341.33759927 197.27056347 -329.75 200.5 C-329.05841797 200.6926947 -328.36683594 200.8853894 -327.65429688 201.08392334 C-326.1895029 201.49207168 -324.72471005 201.90022411 -323.25991821 202.30838013 C-322.48707489 202.52372406 -321.71423157 202.73906799 -320.91796875 202.9609375 C-319.71338516 203.29664261 -319.71338516 203.29664261 -318.48446655 203.63912964 C-306.11617278 207.08422464 -293.74165368 210.50692726 -281.36804199 213.93286133 C-277.8667537 214.90227878 -274.36553332 215.87194121 -270.86433601 216.8416872 C-267.50464962 217.77220747 -264.14491382 218.70254925 -260.78515625 219.6328125 C-260.12386341 219.81591791 -259.46257057 219.99902332 -258.78123856 220.18767738 C-250.43125269 222.49946639 -242.07976718 224.80572905 -233.72685242 227.10691833 C-219.39119984 231.05663529 -205.067199 235.04645061 -190.75 239.0625 C-188.68491121 239.6413309 -186.61980701 240.22010684 -184.5546875 240.79882812 C-182.48958235 241.37760067 -180.42447818 241.9563767 -178.359375 242.53515625 C-177.34529572 242.81936432 -176.33121643 243.10357239 -175.28640747 243.39639282 C-170.03544829 244.86822061 -164.7848126 246.34118708 -159.53466797 247.81591797 C-147.24604054 251.26561699 -134.94919843 254.6795372 -122.625 258 C-121.85225739 258.20833466 -121.07951477 258.41666931 -120.28335571 258.63131714 C-114.85711536 260.09333413 -109.42910082 261.54864432 -104 263 C-103.3017511 263.18685364 -102.6035022 263.37370728 -101.88409424 263.56622314 C-97.48786761 264.74177381 -93.08866923 265.90555807 -88.6875 267.0625 C-87.61000488 267.34931641 -86.53250977 267.63613281 -85.42236328 267.93164062 C-56.6597966 275.42647061 -31.69783339 269.471563 -5.875 255.8125 C-4.58909666 255.13881062 -3.30287798 254.46572284 -2.01635742 253.79321289 C0.51709956 252.46737939 3.04842394 251.13762274 5.57763672 249.80371094 C8.4455284 248.29222687 11.31687583 246.78786288 14.19140625 245.2890625 C30.78485752 236.62247538 47.29970032 227.78695606 63.625 218.625 C69.42942126 215.37175978 75.29338951 212.31406405 81.2668457 209.38476562 C89.45249868 205.33699142 97.46743677 200.96320664 105.5078125 196.63671875 C106.72264355 195.98304931 107.93748717 195.32940324 109.15234375 194.67578125 C109.74602753 194.35630524 110.3397113 194.03682922 110.9513855 193.70767212 C115.9087509 191.04276391 120.88729366 188.42003998 125.875 185.8125 C132.41829324 182.38901967 138.90395922 178.87046257 145.375 175.3125 C154.01242322 170.56770639 162.73597475 166.00471953 171.5 161.5 C180.82101075 156.7079399 190.08098076 151.82659937 199.26171875 146.76953125 C207.79069119 142.08355512 216.39343508 137.54122474 225 133 C235.24430496 127.5932332 245.47086128 122.16275287 255.61230469 116.56445312 C261.16468574 113.51053795 266.76052761 110.55127997 272.3828125 107.62890625 C274.60296753 106.46946953 276.82272505 105.30927464 279.04241943 104.1489563 C280.50429402 103.38810977 281.96834742 102.63143377 283.43463135 101.87911987 C285.48793753 100.82543026 287.53348846 99.75789181 289.578125 98.6875 C290.5077153 98.21788597 290.5077153 98.21788597 291.45608521 97.73878479 C294.9278315 95.90183448 296.44278842 94.56402029 298 91 C291.08775457 88.59263176 284.14006726 86.67573861 277.0390625 84.91015625 C275.85578873 84.61331436 274.67251495 84.31647247 273.4533844 84.01063538 C270.19486281 83.19473655 266.93550171 82.38239089 263.67553329 81.57230377 C261.61529673 81.06008757 259.55536838 80.54664842 257.49551392 80.03289795 C232.67891562 73.84583574 207.82826881 67.79886091 182.96648407 61.79624557 C180.19592262 61.12703443 177.42560571 60.45681889 174.65533447 59.78640747 C170.25604383 58.72214752 165.85591756 57.66141087 161.45512199 56.60339165 C159.83171616 56.21268371 158.20854488 55.8209996 156.58563423 55.42823982 C148.85732369 53.55903101 141.16079481 51.71802621 133.29756165 50.49191284 C130.71493621 49.93896724 128.43516938 49.01218109 126 48 C124.33926774 47.63825801 122.67173545 47.30690303 121 47 C118.78362553 46.46339119 116.57040109 45.91370565 114.359375 45.35546875 C112.99073426 45.01110297 111.62208126 44.66678592 110.25341797 44.32250977 C109.52394958 44.13858673 108.7944812 43.9546637 108.04290771 43.76516724 C85.06614573 37.97648132 62.05324042 32.33476207 39.02935791 26.73681641 C36.06410068 26.01559091 33.09917841 25.29300052 30.13427734 24.5703125 C18.10585936 21.64211171 6.06610349 18.7690646 -6 16 C-6.66990967 15.84533264 -7.33981934 15.69066528 -8.0300293 15.53131104 C-41.18350513 7.90306835 -68.3610381 10.67350991 -98.4921875 26.7734375 Z M299.171875 157.640625 C298.15440186 158.21103516 297.13692871 158.78144531 296.08862305 159.36914062 C294.98687744 159.98982422 293.88513184 160.61050781 292.75 161.25 C291.6256958 161.88099609 290.5013916 162.51199219 289.34301758 163.16210938 C282.10047362 167.23332867 274.88832 171.35545744 267.6875 175.5 C261.66142866 178.9652966 255.61696806 182.24576971 249.359375 185.27734375 C244.61642204 187.70948591 240.00478573 190.36010462 235.375 193 C226.83286525 197.87006496 218.2310349 202.60863926 209.5625 207.25 C200.73610742 211.97863088 191.96322468 216.77873666 183.25634766 221.72314453 C178.3885442 224.47780933 173.50538517 227.20521136 168.625 229.9375 C167.54661865 230.54174805 166.4682373 231.14599609 165.35717773 231.76855469 C159.81368203 234.87294586 154.26317609 237.96377825 148.70092773 241.03442383 C141.42851973 245.05098727 134.22521591 249.16415046 127.09375 253.42675781 C118.08553894 258.79073803 108.79873684 263.64794277 99.53662109 268.55493164 C88.15456627 274.58691928 76.84698766 280.71383878 65.66577148 287.11303711 C56.58990524 292.28580645 47.37541664 297.19142216 38.13623047 302.06469727 C37.00459473 302.66467529 35.87295898 303.26465332 34.70703125 303.8828125 C33.19846558 304.67776123 33.19846558 304.67776123 31.65942383 305.48876953 C29.26811335 306.84764329 27.17910183 308.3326065 25 310 C22.72044495 311.18548289 20.43920232 312.32450781 18.125 313.4375 C11.32469858 316.764106 4.68686886 320.33709341 -1.9375 324 C-16.16009906 331.79213621 -29.39753478 338.33901255 -45.24609375 342.08984375 C-48.78637213 342.79990753 -48.78637213 342.79990753 -51 344 C-51 382.61 -51 421.22 -51 461 C-41.87039772 457.95679924 -34.08377395 453.52253714 -25.9453125 448.43359375 C-21.05474659 445.39340783 -16.08695634 442.48412417 -11.125 439.5625 C-2.97485394 434.75979679 5.15576615 429.92745927 13.25976562 425.04736328 C16.23372103 423.25748271 19.21079776 421.47280722 22.1875 419.6875 C23.43100416 418.94143055 24.67449332 418.19533609 25.91796875 417.44921875 C35.24739583 411.8515625 44.57682292 406.25390625 53.90625 400.65625 C54.50453613 400.29724609 55.10282227 399.93824219 55.71923828 399.56835938 C56.91541269 398.85072032 58.1117035 398.13327524 59.30810547 397.41601562 C62.65869463 395.40690671 66.00656513 393.39340681 69.3515625 391.375 C79.35887131 385.34388401 89.41431789 379.39881604 99.5 373.5 C110.1845922 367.25027505 120.83058371 360.94137213 131.43017578 354.54833984 C136.34478966 351.58724529 141.26687395 348.6385886 146.1875 345.6875 C148.32032661 344.40757559 150.45313904 343.12762756 152.5859375 341.84765625 C156.77744462 339.33262492 160.97020236 336.81969924 165.1640625 334.30859375 C176.06597293 327.77872234 186.95155153 321.22274957 197.8125 314.625 C198.39471313 314.27134369 198.97692627 313.91768738 199.57678223 313.55331421 C205.48305187 309.96512185 211.38737066 306.3737405 217.28900146 302.77792358 C220.21285446 300.99671937 223.13747834 299.21678432 226.0625 297.4375 C226.6356897 297.08876831 227.20887939 296.74003662 227.79943848 296.3807373 C237.77049294 290.31802712 247.79591367 284.35012507 257.85766602 278.43920898 C263.7705475 274.95626622 269.59956455 271.37594894 275.37231445 267.66552734 C277.89616149 266.06581681 280.44728522 264.5281796 283.01953125 263.0078125 C283.81423828 262.52957031 284.60894531 262.05132813 285.42773438 261.55859375 C287.02853946 260.59627521 288.63815861 259.6484808 290.25585938 258.71484375 C297.31743768 254.4074542 301.7185992 249.39021686 304.05986023 241.36880493 C305.10265431 237.05451084 305.27013553 232.98643259 305.22705078 228.56445312 C305.22748886 227.36301163 305.22748886 227.36301163 305.22793579 226.13729858 C305.22655455 223.51850129 305.21105086 220.89999692 305.1953125 218.28125 C305.19157807 216.45422521 305.18873313 214.62719841 305.18673706 212.8001709 C305.17913444 208.01292299 305.1595152 203.22579821 305.1373291 198.43859863 C305.11679774 193.54502019 305.10771981 188.65142168 305.09765625 183.7578125 C305.07626589 174.17182118 305.04217101 164.58592086 305 155 C302.94681553 155 300.8931779 156.67403313 299.171875 157.640625 Z M299.1171875 111.484375 C298.11429688 112.00773437 297.11140625 112.53109375 296.078125 113.0703125 C294.49257812 113.90175781 294.49257812 113.90175781 292.875 114.75 C291.32425781 115.55824219 291.32425781 115.55824219 289.7421875 116.3828125 C284.43320271 119.15919485 279.18959844 122.00755623 274 125 C272.66941716 125.67213951 271.33580585 126.33830147 270 127 C258.59078335 132.85919454 247.24184089 138.8256084 236 145 C225.63821666 150.68925998 215.17186993 156.16381896 204.6796875 161.60791016 C184.74364153 171.96462792 164.8383105 182.43498201 145.25 193.4375 C139.98157521 196.39573513 134.67317849 199.21111401 129.25 201.875 C121.02840025 205.91391479 113.01688167 210.31142937 104.98828125 214.71875 C83.32024058 226.61295275 61.45216051 238.12391734 39.53295898 249.54614258 C34.38235897 252.23104351 29.23670834 254.92473985 24.10083008 257.63769531 C21.00245073 259.27303604 17.89979579 260.90019668 14.79736328 262.52783203 C12.73394067 263.61374915 10.67274586 264.70390197 8.61279297 265.79638672 C-27.95957514 285.1923059 -27.95957514 285.1923059 -44 287 C-45.01707031 287.13277344 -46.03414062 287.26554688 -47.08203125 287.40234375 C-74.5540878 290.24869187 -102.15431148 280.84308387 -128.24414062 273.24707031 C-141.9738068 269.25410503 -155.7627872 265.492816 -169.5625 261.75 C-187.56208927 256.86309243 -205.54408597 251.92010426 -223.5 246.875 C-224.52586212 246.58677368 -225.55172424 246.29854736 -226.6086731 246.00158691 C-228.14441483 245.57009338 -228.14441483 245.57009338 -229.71118164 245.12988281 C-231.76577355 244.55268377 -233.8203796 243.9755351 -235.875 243.3984375 C-236.88392807 243.11504517 -237.89285614 242.83165283 -238.93235779 242.53967285 C-249.77975953 239.49574327 -260.63948666 236.49674236 -271.5 233.5 C-293.07834556 227.54436385 -314.6366103 221.51806246 -336.18946838 215.47090149 C-341.16150171 214.07592626 -346.13393341 212.68240035 -351.10717773 211.29174805 C-360.71486644 208.60486207 -370.32088279 205.91261327 -379.91955566 203.19366455 C-384.28845334 201.95653067 -388.65844665 200.72329449 -393.02856445 199.49047852 C-395.25595251 198.86106048 -397.48282505 198.22981578 -399.70922852 197.59692383 C-402.98840216 196.66525175 -406.26937437 195.74017714 -409.55078125 194.81640625 C-410.54539871 194.53213272 -411.54001617 194.24785919 -412.56477356 193.95497131 C-413.94483833 193.56842628 -413.94483833 193.56842628 -415.3527832 193.17407227 C-416.15674026 192.9464772 -416.96069733 192.71888214 -417.78901672 192.48439026 C-420.27398422 191.85732807 -420.27398422 191.85732807 -424 192 C-424.04944705 196.50234373 -424.08574161 201.0045293 -424.10986328 205.50708008 C-424.11991935 207.03868361 -424.133566 208.57026795 -424.15087891 210.10180664 C-424.17514498 212.30359636 -424.18648688 214.50513219 -424.1953125 216.70703125 C-424.20563507 217.39150833 -424.21595764 218.07598541 -424.22659302 218.78120422 C-424.22745382 222.43061661 -424.08567666 223.87148502 -422 227 C-419.62023999 227.88967262 -417.3484501 228.59954883 -414.90234375 229.25 C-414.1506189 229.46015747 -413.39889404 229.67031494 -412.62438965 229.88684082 C-410.95688519 230.35195902 -409.28796483 230.81202174 -407.6178894 231.26782227 C-402.88441405 232.56082292 -398.16194737 233.89321821 -393.4375 235.21875 C-392.39444199 235.51027954 -391.35138397 235.80180908 -390.27671814 236.10217285 C-376.67032302 239.9140419 -363.11539957 243.90294702 -349.55628204 247.87889481 C-346.01746797 248.91627183 -342.47819846 249.95209255 -338.93896484 250.98803711 C-333.45745907 252.59266319 -327.97618744 254.19808614 -322.49511719 255.80419922 C-315.96870069 257.71657738 -309.44158137 259.6265444 -302.9140625 261.53515625 C-300.29196615 262.30197233 -297.66987736 263.06881423 -295.04779053 263.83566284 C-293.39500746 264.31902852 -291.74221616 264.80236607 -290.0894165 265.28567505 C-281.91552912 267.67625199 -273.74350482 270.07269581 -265.578125 272.4921875 C-248.95691692 277.41397843 -232.30426228 282.21586441 -215.625 286.9375 C-214.13632919 287.35973343 -214.13632919 287.35973343 -212.61758423 287.79049683 C-198.69465107 291.76660022 -198.69465107 291.76660022 -184.64599609 295.26391602 C-181.78845391 296.05884955 -179.07060209 297.11567048 -176.30252075 298.17457581 C-171.81088235 299.78477063 -167.20312561 301.01083504 -162.609375 302.29296875 C-161.51936691 302.60028931 -160.42935883 302.90760986 -159.30632019 303.22424316 C-155.78847922 304.21534537 -152.26931279 305.20163806 -148.75 306.1875 C-143.93329586 307.54060791 -139.11704152 308.89531319 -134.30078125 310.25 C-132.54363548 310.74363289 -132.54363548 310.74363289 -130.75099182 311.24723816 C-124.48511038 313.00973185 -118.22572451 314.79074016 -111.98046875 316.625 C-94.9093954 321.63719908 -78.58327547 326.26445548 -60.6875 326.5 C-59.74551758 326.51869141 -58.80353516 326.53738281 -57.83300781 326.55664062 C-44.13571913 326.43336977 -32.07397364 321.59740553 -20 315.5625 C-18.73199923 314.93907263 -17.46384848 314.31595025 -16.19555664 313.69311523 C-6.56116425 308.92687709 2.80264363 303.73605546 12.109375 298.359375 C18.76451772 294.52845438 25.53422508 290.91873101 32.3125 287.3125 C40.69473979 282.84808435 49.05056454 278.34636479 57.3371582 273.70629883 C63.52693224 270.24611016 69.7604673 266.86949384 76 263.5 C91.12271226 255.32751165 106.11863227 246.9369899 121.11328125 238.5324707 C134.99436491 230.75583277 148.91019463 223.04171391 162.82421875 215.32421875 C176.61362127 207.67336419 190.36869349 199.96130943 204.12353516 192.24853516 C219.3891338 183.68868008 234.67602334 175.1681944 249.97949219 166.67626953 C253.44297841 164.75416345 256.90572262 162.83072561 260.36816406 160.90673828 C261.81270326 160.10410936 263.25736161 159.30169482 264.70214844 158.49951172 C268.327082 156.48668864 271.95004345 154.47042093 275.5703125 152.44921875 C277.10929503 151.59100242 278.64835699 150.7329285 280.1875 149.875 C281.29544922 149.25661255 281.29544922 149.25661255 282.42578125 148.62573242 C286.07316942 146.59747796 289.73326125 144.60169206 293.4296875 142.6640625 C294.12682861 142.29812988 294.82396973 141.93219727 295.54223633 141.55517578 C296.8569886 140.86848584 298.1744181 140.18688966 299.49487305 139.51123047 C302.8476776 137.89623169 302.8476776 137.89623169 305 135 C305.08510205 133.0406396 305.10717656 131.07837206 305.09765625 129.1171875 C305.09443359 127.95058594 305.09121094 126.78398437 305.08789062 125.58203125 C305.07951172 124.35871094 305.07113281 123.13539063 305.0625 121.875 C305.05573242 120.02841797 305.05573242 120.02841797 305.04882812 118.14453125 C305.0370133 115.09630608 305.02054028 112.04817686 305 109 C302.94326912 109 300.87915841 110.56408619 299.1171875 111.484375 Z M-430 242 C-432.50174166 244.50174166 -432.24307852 246.0023627 -432.27105713 249.41615295 C-432.26700867 250.1709343 -432.26296021 250.92571564 -432.25878906 251.70336914 C-432.2622937 252.49875092 -432.26579834 253.29413269 -432.26940918 254.11361694 C-432.27824025 256.75421783 -432.27236866 259.39455242 -432.265625 262.03515625 C-432.26697219 263.87161816 -432.26891318 265.70807972 -432.27142334 267.54454041 C-432.27437723 271.40236796 -432.27007195 275.26010309 -432.26074219 279.11791992 C-432.24940351 284.04498021 -432.25586979 288.97182127 -432.26788712 293.89887333 C-432.27514657 297.69689048 -432.27279813 301.49485652 -432.26763153 305.29287529 C-432.26630339 307.1080166 -432.26791327 308.92316265 -432.27259064 310.73829842 C-432.27771685 313.28927834 -432.26985846 315.83991454 -432.25878906 318.39086914 C-432.26283752 319.13148087 -432.26688599 319.87209259 -432.27105713 320.63514709 C-432.20183352 329.32369831 -430.94024624 336.49725376 -424.64599609 342.79150391 C-415.92632569 350.06942774 -402.58981309 352.93691863 -391.90982056 356.32156372 C-387.48888116 357.7228239 -383.0751971 359.14669459 -378.66015625 360.56640625 C-377.7627623 360.85424484 -376.86536835 361.14208344 -375.94078064 361.43864441 C-367.94558553 364.00640502 -359.97784502 366.6524554 -352.01654053 369.32315063 C-339.28243751 373.59482843 -326.52895485 377.80191755 -313.75 381.9375 C-312.98999695 382.18347931 -312.2299939 382.42945862 -311.44696045 382.68289185 C-307.56078097 383.9403242 -303.67426932 385.19672659 -299.78759766 386.45263672 C-272.08166963 395.40596997 -244.4222666 404.4857081 -216.81292725 413.73248291 C-211.68842703 415.44857928 -206.56337401 417.16301116 -201.4375 418.875 C-200.70591675 419.11936798 -199.9743335 419.36373596 -199.22058105 419.61550903 C-185.75476051 424.11007595 -172.25803719 428.50738248 -158.7557373 432.89093018 C-146.21678746 436.96274765 -133.69267149 441.07558926 -121.1875 445.25 C-119.72119572 445.73861971 -118.25488717 446.22722662 -116.78857422 446.71582031 C-110.33886716 448.86729631 -103.89385991 451.03110995 -97.46107483 453.23272705 C-94.67539257 454.18526786 -91.88756406 455.13143071 -89.09951782 456.07702637 C-87.1840813 456.72986336 -85.27203096 457.39260933 -83.36010742 458.05566406 C-81.63884644 458.63912598 -81.63884644 458.63912598 -79.8828125 459.234375 C-78.88652832 459.57694336 -77.89024414 459.91951172 -76.86376953 460.27246094 C-73.52324469 461.24622777 -73.52324469 461.24622777 -68 461 C-68 422.39 -68 383.78 -68 344 C-71.3 343.34 -74.6 342.68 -78 342 C-81.94869615 341.12963702 -85.88039449 340.19233398 -89.8125 339.25 C-90.89039795 338.9919458 -91.9682959 338.7338916 -93.07885742 338.46801758 C-102.80485202 336.10663258 -112.42210031 333.41986863 -122.01489258 330.5690918 C-123.2890279 330.20382191 -124.56919285 329.85864142 -125.85557556 329.53916931 C-128.01390662 328.99650348 -130.1540246 328.408446 -132.29589844 327.80419922 C-133.13990204 327.56636215 -133.98390564 327.32852509 -134.85348511 327.08348083 C-135.76292877 326.82647903 -136.67237244 326.56947723 -137.609375 326.3046875 C-138.5604715 326.03628555 -139.51156799 325.76788361 -140.4914856 325.49134827 C-143.57786319 324.61996012 -146.66394091 323.7475154 -149.75 322.875 C-150.79577209 322.57965363 -151.84154419 322.28430725 -152.91900635 321.98001099 C-165.51249793 318.42281437 -178.09232482 314.82922874 -190.6418457 311.11962891 C-197.20691884 309.19325046 -203.8043651 307.48557541 -210.46484375 305.921875 C-212.99272643 305.26267024 -215.37367289 304.55381423 -217.83300781 303.70556641 C-224.2370455 301.55413311 -230.72407139 299.68569015 -237.20703125 297.7890625 C-238.59818422 297.38072706 -239.98929134 296.97223539 -241.38035583 296.56359863 C-244.32780432 295.69807212 -247.27553667 294.83352226 -250.22351074 293.9697876 C-254.85943163 292.61148176 -259.4947289 291.25105722 -264.12988281 289.89013672 C-264.90030725 289.66393709 -265.6707317 289.43773746 -266.46450233 289.2046833 C-268.01648915 288.74901001 -269.56847394 288.29332981 -271.1204567 287.83764267 C-273.4391356 287.15691663 -275.75787656 286.47640231 -278.07662964 285.79592896 C-289.28066265 282.50753386 -300.47986344 279.20304822 -311.67584229 275.8873291 C-329.59981396 270.57919854 -347.54157312 265.33372388 -365.49169922 260.11474609 C-374.97178087 257.35628267 -384.44551921 254.57946908 -393.90234375 251.7421875 C-395.18536629 251.35781021 -395.18536629 251.35781021 -396.49430847 250.96566772 C-400.46742272 249.77477607 -404.43898705 248.57913629 -408.40795898 247.37451172 C-419.0394162 243.79161023 -419.0394162 243.79161023 -430 242 Z " fill="#3D3A36" transform="translate(575,273)"/>
<path d="M0 0 C2.66058731 2.14144833 3.7253011 3.56867416 4.37109375 6.93359375 C4.61139858 10.78575305 4.2437079 12.61819095 2.125 15.9375 C-0.77372935 18.75097261 -1.62217779 18.96221778 -5.75 19.375 C-8.87952857 19.312181 -10.91385706 18.85432761 -13.5 17.0625 C-16.42564939 13.4785795 -16.82821175 11.66479618 -16.53515625 7.15625 C-15.68336565 3.72421781 -13.74511226 2.0915141 -11 0 C-7.48463561 -1.7576822 -3.7179506 -0.94434624 0 0 Z " fill="#3D3A36" transform="translate(373,626)"/>
<path d="M0 0 C2.74629765 2.23136684 2.98409081 3.93863598 3.875 7.375 C4.0193228 11.56036128 3.2669928 13.51854677 1 17 C-2.69609672 19.46406448 -5.71027391 19.67864807 -10 19 C-13.05819759 17.20497098 -14.57636146 15.68150548 -16.4375 12.6875 C-17.24573421 8.82593656 -16.57039023 6.59881095 -15 3 C-10.35054432 -1.53605433 -5.99542986 -1.81394145 0 0 Z " fill="#3D3A36" transform="translate(265,595)"/>
<path d="M0 0 C1.32 0.33 2.64 0.66 4 1 C2.68 1.33 1.36 1.66 0 2 C0 1.34 0 0.68 0 0 Z " fill="#3D3A36" transform="translate(464,741)"/>
<path d="M0 0 C0.66 0 1.32 0 2 0 C2.33 0.99 2.66 1.98 3 3 C2.01 2.67 1.02 2.34 0 2 C0 1.34 0 0.68 0 0 Z " fill="#3D3A36" transform="translate(137,629)"/>
<path d="M0 0 C1.32 0 2.64 0 4 0 C3.67 0.66 3.34 1.32 3 2 C2.01 1.34 1.02 0.68 0 0 Z " fill="#3D3A36" transform="translate(536,285)"/>
<path d="M0 0 C0.66 0.33 1.32 0.66 2 1 C1.01 1 0.02 1 -1 1 C-0.67 0.67 -0.34 0.34 0 0 Z " fill="#3D3A36" transform="translate(490,749)"/>
<path d="M0 0 C0.99 0 1.98 0 3 0 C2.67 0.66 2.34 1.32 2 2 C1.34 1.34 0.68 0.68 0 0 Z " fill="#3D3A36" transform="translate(416,595)"/>
<path d="M0 0 C0.99 0.33 1.98 0.66 3 1 C2.01 1.33 1.02 1.66 0 2 C0 1.34 0 0.68 0 0 Z " fill="#3D3A36" transform="translate(373,504)"/>
<path d="M0 0 C0 3 0 3 0 3 Z " fill="#3D3A36" transform="translate(181,437)"/>
<path d="M0 0 C0.66 0.66 1.32 1.32 2 2 C1.34 2 0.68 2 0 2 C0 1.34 0 0.68 0 0 Z " fill="#3D3A36" transform="translate(395,717)"/>
<path d="M0 0 C0.33 0.66 0.66 1.32 1 2 C0.34 1.67 -0.32 1.34 -1 1 C-0.67 0.67 -0.34 0.34 0 0 Z " fill="#3D3A36" transform="translate(505,699)"/>
<path d="M0 0 C0.66 0 1.32 0 2 0 C1.67 0.66 1.34 1.32 1 2 C0.67 1.34 0.34 0.68 0 0 Z " fill="#3D3A36" transform="translate(313,691)"/>
<path d="M0 0 C0.66 0 1.32 0 2 0 C1.67 0.66 1.34 1.32 1 2 C0.67 1.34 0.34 0.68 0 0 Z " fill="#3D3A36" transform="translate(594,688)"/>
<path d="M0 0 C0.66 0 1.32 0 2 0 C1.67 0.66 1.34 1.32 1 2 C0.67 1.34 0.34 0.68 0 0 Z " fill="#3D3A36" transform="translate(278,656)"/>
<path d="M0 0 C0.66 0.66 1.32 1.32 2 2 C1.34 2 0.68 2 0 2 C0 1.34 0 0.68 0 0 Z " fill="#3D3A36" transform="translate(712,616)"/>
<path d="" fill="#3D3A36" transform="translate(0,0)"/>
<path d="M0 0 C0.66 0 1.32 0 2 0 C1.67 0.66 1.34 1.32 1 2 C0.67 1.34 0.34 0.68 0 0 Z " fill="#3D3A36" transform="translate(756,592)"/>
<path d="M0 0 C0.66 0 1.32 0 2 0 C1.67 0.66 1.34 1.32 1 2 C0.67 1.34 0.34 0.68 0 0 Z " fill="#3D3A36" transform="translate(367,581)"/>
<path d="M0 0 C0.66 0 1.32 0 2 0 C1.67 0.66 1.34 1.32 1 2 C0.67 1.34 0.34 0.68 0 0 Z " fill="#3D3A36" transform="translate(339,574)"/>
<path d="M0 0 C3 1 3 1 3 1 Z " fill="#3D3A36" transform="translate(314,566)"/>
<path d="M0 0 C3 1 3 1 3 1 Z " fill="#3D3A36" transform="translate(370,561)"/>
<path d="M0 0 C3 1 3 1 3 1 Z " fill="#3D3A36" transform="translate(339,552)"/>
<path d="M0 0 C3 1 3 1 3 1 Z " fill="#3D3A36" transform="translate(421,520)"/>
<path d="M0 0 C0.66 0.66 1.32 1.32 2 2 C1.34 2 0.68 2 0 2 C0 1.34 0 0.68 0 0 Z " fill="#3D3A36" transform="translate(713,498)"/>
<path d="M0 0 C3 1 3 1 3 1 Z " fill="#3D3A36" transform="translate(240,491)"/>
<path d="M0 0 C0.66 0 1.32 0 2 0 C1.67 0.66 1.34 1.32 1 2 C0.67 1.34 0.34 0.68 0 0 Z " fill="#3D3A36" transform="translate(196,478)"/>
<path d="M0 0 C0.33 0.66 0.66 1.32 1 2 C0.34 1.67 -0.32 1.34 -1 1 C-0.67 0.67 -0.34 0.34 0 0 Z " fill="#3D3A36" transform="translate(681,465)"/>
<path d="M0 0 C0.99 0.495 0.99 0.495 2 1 C1.01 1.495 1.01 1.495 0 2 C0 1.34 0 0.68 0 0 Z " fill="#3D3A36" transform="translate(152,426)"/>
<path d="M0 0 C0.66 0.66 1.32 1.32 2 2 C1.34 2 0.68 2 0 2 C0 1.34 0 0.68 0 0 Z " fill="#3D3A36" transform="translate(856,370)"/>
<path d="M0 0 C0.99 0.495 0.99 0.495 2 1 C1.01 1.495 1.01 1.495 0 2 C0 1.34 0 0.68 0 0 Z " fill="#3D3A36" transform="translate(868,366)"/>
<path d="M0 0 C3 1 3 1 3 1 Z " fill="#3D3A36" transform="translate(741,312)"/>
<path d="M0 0 C0.66 0 1.32 0 2 0 C1.67 0.66 1.34 1.32 1 2 C0.67 1.34 0.34 0.68 0 0 Z " fill="#3D3A36" transform="translate(647,310)"/>
<path d="M0 0 C2 1 2 1 2 1 Z " fill="#3D3A36" transform="translate(392,717)"/>
<path d="M0 0 C2 1 2 1 2 1 Z " fill="#3D3A36" transform="translate(362,707)"/>
<path d="" fill="#3D3A36" transform="translate(0,0)"/>
<path d="" fill="#3D3A36" transform="translate(0,0)"/>
<path d="M0 0 C2 1 2 1 2 1 Z " fill="#3D3A36" transform="translate(312,693)"/>
<path d="" fill="#3D3A36" transform="translate(0,0)"/>
<path d="" fill="#3D3A36" transform="translate(0,0)"/>
<path d="" fill="#3D3A36" transform="translate(0,0)"/>
<path d="M0 0 C2 1 2 1 2 1 Z " fill="#3D3A36" transform="translate(269,679)"/>
<path d="M0 0 C2 1 2 1 2 1 Z " fill="#3D3A36" transform="translate(267,678)"/>
<path d="" fill="#3D3A36" transform="translate(0,0)"/>
<path d="M0 0 C2 1 2 1 2 1 Z " fill="#3D3A36" transform="translate(241,667)"/>
<path d="" fill="#3D3A36" transform="translate(0,0)"/>
<path d="M0 0 C2 1 2 1 2 1 Z " fill="#3D3A36" transform="translate(181,626)"/>
<path d="" fill="#3D3A36" transform="translate(0,0)"/>
<path d="M0 0 C2 1 2 1 2 1 Z " fill="#3D3A36" transform="translate(257,592)"/>
<path d="M0 0 C2 1 2 1 2 1 Z " fill="#3D3A36" transform="translate(403,591)"/>
<path d="M0 0 C2 1 2 1 2 1 Z " fill="#3D3A36" transform="translate(619,574)"/>
<path d="M0 0 C2 1 2 1 2 1 Z " fill="#3D3A36" transform="translate(342,574)"/>
<path d="M0 0 C2 1 2 1 2 1 Z " fill="#3D3A36" transform="translate(405,568)"/>
<path d="M0 0 C2 1 2 1 2 1 Z " fill="#3D3A36" transform="translate(483,558)"/>
<path d="" fill="#3D3A36" transform="translate(0,0)"/>
<path d="" fill="#3D3A36" transform="translate(0,0)"/>
<path d="" fill="#3D3A36" transform="translate(0,0)"/>
<path d="M0 0 C2 1 2 1 2 1 Z " fill="#3D3A36" transform="translate(608,552)"/>
<path d="M0 0 C2 1 2 1 2 1 Z " fill="#3D3A36" transform="translate(624,546)"/>
<path d="M0 0 C2 1 2 1 2 1 Z " fill="#3D3A36" transform="translate(318,544)"/>
<path d="M0 0 C2 1 2 1 2 1 Z " fill="#3D3A36" transform="translate(879,543)"/>
<path d="" fill="#3D3A36" transform="translate(0,0)"/>
<path d="M0 0 C2 1 2 1 2 1 Z " fill="#3D3A36" transform="translate(482,537)"/>
<path d="M0 0 C2 1 2 1 2 1 Z " fill="#3D3A36" transform="translate(593,535)"/>
<path d="" fill="#3D3A36" transform="translate(0,0)"/>
<path d="" fill="#3D3A36" transform="translate(0,0)"/>
<path d="M0 0 C2 1 2 1 2 1 Z " fill="#3D3A36" transform="translate(692,533)"/>
<path d="" fill="#3D3A36" transform="translate(0,0)"/>
<path d="M0 0 C2 1 2 1 2 1 Z " fill="#3D3A36" transform="translate(171,526)"/>
<path d="M0 0 C2 1 2 1 2 1 Z " fill="#3D3A36" transform="translate(177,525)"/>
<path d="M0 0 C2 1 2 1 2 1 Z " fill="#3D3A36" transform="translate(629,519)"/>
<path d="" fill="#3D3A36" transform="translate(0,0)"/>
<path d="M0 0 C2 1 2 1 2 1 Z " fill="#3D3A36" transform="translate(396,513)"/>
<path d="M0 0 C2 1 2 1 2 1 Z " fill="#3D3A36" transform="translate(339,497)"/>
<path d="M0 0 C2 1 2 1 2 1 Z " fill="#3D3A36" transform="translate(764,493)"/>
<path d="M0 0 C2 1 2 1 2 1 Z " fill="#3D3A36" transform="translate(223,486)"/>
<path d="M0 0 C2 1 2 1 2 1 Z " fill="#3D3A36" transform="translate(280,481)"/>
<path d="M0 0 C2 1 2 1 2 1 Z " fill="#3D3A36" transform="translate(193,478)"/>
<path d="" fill="#3D3A36" transform="translate(0,0)"/>
<path d="" fill="#3D3A36" transform="translate(0,0)"/>
<path d="M0 0 C2 1 2 1 2 1 Z " fill="#3D3A36" transform="translate(223,465)"/>
<path d="" fill="#3D3A36" transform="translate(0,0)"/>
<path d="M0 0 C2 1 2 1 2 1 Z " fill="#3D3A36" transform="translate(728,463)"/>
<path d="" fill="#3D3A36" transform="translate(0,0)"/>
<path d="M0 0 C2 1 2 1 2 1 Z " fill="#3D3A36" transform="translate(177,439)"/>
<path d="" fill="#3D3A36" transform="translate(0,0)"/>
<path d="" fill="#3D3A36" transform="translate(0,0)"/>
<path d="M0 0 C2 1 2 1 2 1 Z " fill="#3D3A36" transform="translate(756,424)"/>
<path d="" fill="#3D3A36" transform="translate(0,0)"/>
<path d="M0 0 C2 1 2 1 2 1 Z " fill="#3D3A36" transform="translate(775,416)"/>
<path d="M0 0 C2 1 2 1 2 1 Z " fill="#3D3A36" transform="translate(251,406)"/>
<path d="" fill="#3D3A36" transform="translate(0,0)"/>
<path d="" fill="#3D3A36" transform="translate(0,0)"/>
<path d="" fill="#3D3A36" transform="translate(0,0)"/>
<path d="" fill="#3D3A36" transform="translate(0,0)"/>
<path d="M0 0 C2 1 2 1 2 1 Z " fill="#3D3A36" transform="translate(849,359)"/>
<path d="M0 0 C2 1 2 1 2 1 Z " fill="#3D3A36" transform="translate(841,357)"/>
<path d="" fill="#3D3A36" transform="translate(0,0)"/>
<path d="M0 0 C2 1 2 1 2 1 Z " fill="#3D3A36" transform="translate(715,326)"/>
<path d="M0 0 C2 1 2 1 2 1 Z " fill="#3D3A36" transform="translate(419,305)"/>
<path d="M0 0 C2 1 2 1 2 1 Z " fill="#3D3A36" transform="translate(421,304)"/>
<path d="M0 0 C2 1 2 1 2 1 Z " fill="#3D3A36" transform="translate(432,298)"/>
<path d="M0 0 C2 1 2 1 2 1 Z " fill="#3D3A36" transform="translate(675,296)"/>
<path d="M0 0 C2 1 2 1 2 1 Z " fill="#3D3A36" transform="translate(544,286)"/>
<path d="" fill="#3D3A36" transform="translate(0,0)"/>
<path d="M0 0 C2 1 2 1 2 1 Z " fill="#3D3A36" transform="translate(531,264)"/>
<path d="" fill="#3D3A36" transform="translate(0,0)"/>
<path d="" fill="#3D3A36" transform="translate(0,0)"/>
<path d="" fill="#3D3A36" transform="translate(0,0)"/>
<path d="" fill="#3D3A36" transform="translate(0,0)"/>
<path d="" fill="#3D3A36" transform="translate(0,0)"/>
<path d="" fill="#3D3A36" transform="translate(0,0)"/>
<path d="" fill="#3D3A36" transform="translate(0,0)"/>
<path d="" fill="#3D3A36" transform="translate(0,0)"/>
<path d="" fill="#3D3A36" transform="translate(0,0)"/>
<path d="" fill="#3D3A36" transform="translate(0,0)"/>
<path d="" fill="#3D3A36" transform="translate(0,0)"/>
<path d="" fill="#3D3A36" transform="translate(0,0)"/>
<path d="" fill="#3D3A36" transform="translate(0,0)"/>
<path d="" fill="#3D3A36" transform="translate(0,0)"/>
<path d="" fill="#3D3A36" transform="translate(0,0)"/>
<path d="" fill="#3D3A36" transform="translate(0,0)"/>
<path d="" fill="#3D3A36" transform="translate(0,0)"/>
<path d="" fill="#3D3A36" transform="translate(0,0)"/>
<path d="" fill="#3D3A36" transform="translate(0,0)"/>
<path d="" fill="#3D3A36" transform="translate(0,0)"/>
<path d="" fill="#3D3A36" transform="translate(0,0)"/>
<path d="" fill="#3D3A36" transform="translate(0,0)"/>
<path d="" fill="#3D3A36" transform="translate(0,0)"/>
<path d="" fill="#3D3A36" transform="translate(0,0)"/>
<path d="" fill="#3D3A36" transform="translate(0,0)"/>
<path d="" fill="#3D3A36" transform="translate(0,0)"/>
<path d="" fill="#3D3A36" transform="translate(0,0)"/>
<path d="" fill="#3D3A36" transform="translate(0,0)"/>
<path d="" fill="#3D3A36" transform="translate(0,0)"/>
<path d="" fill="#3D3A36" transform="translate(0,0)"/>
<path d="" fill="#3D3A36" transform="translate(0,0)"/>
<path d="" fill="#3D3A36" transform="translate(0,0)"/>
<path d="" fill="#3D3A36" transform="translate(0,0)"/>
<path d="" fill="#3D3A36" transform="translate(0,0)"/>
<path d="" fill="#3D3A36" transform="translate(0,0)"/>
<path d="" fill="#3D3A36" transform="translate(0,0)"/>
<path d="" fill="#3D3A36" transform="translate(0,0)"/>
<path d="" fill="#3D3A36" transform="translate(0,0)"/>
<path d="" fill="#3D3A36" transform="translate(0,0)"/>
<path d="" fill="#3D3A36" transform="translate(0,0)"/>
<path d="" fill="#3D3A36" transform="translate(0,0)"/>
<path d="" fill="#3D3A36" transform="translate(0,0)"/>
<path d="" fill="#3D3A36" transform="translate(0,0)"/>
<path d="" fill="#3D3A36" transform="translate(0,0)"/>
<path d="" fill="#3D3A36" transform="translate(0,0)"/>
<path d="" fill="#3D3A36" transform="translate(0,0)"/>
<path d="" fill="#3D3A36" transform="translate(0,0)"/>
<path d="" fill="#3D3A36" transform="translate(0,0)"/>
<path d="" fill="#3D3A36" transform="translate(0,0)"/>
<path d="" fill="#3D3A36" transform="translate(0,0)"/>
<path d="" fill="#3D3A36" transform="translate(0,0)"/>
<path d="" fill="#3D3A36" transform="translate(0,0)"/>
<path d="" fill="#3D3A36" transform="translate(0,0)"/>
<path d="" fill="#3D3A36" transform="translate(0,0)"/>
<path d="" fill="#3D3A36" transform="translate(0,0)"/>
<path d="" fill="#3D3A36" transform="translate(0,0)"/>
<path d="" fill="#3D3A36" transform="translate(0,0)"/>
<path d="" fill="#3D3A36" transform="translate(0,0)"/>
<path d="" fill="#3D3A36" transform="translate(0,0)"/>
<path d="" fill="#3D3A36" transform="translate(0,0)"/>
<path d="" fill="#3D3A36" transform="translate(0,0)"/>
<path d="" fill="#3D3A36" transform="translate(0,0)"/>
<path d="" fill="#3D3A36" transform="translate(0,0)"/>
<path d="" fill="#3D3A36" transform="translate(0,0)"/>
<path d="" fill="#3D3A36" transform="translate(0,0)"/>
<path d="" fill="#3D3A36" transform="translate(0,0)"/>
<path d="" fill="#3D3A36" transform="translate(0,0)"/>
<path d="" fill="#3D3A36" transform="translate(0,0)"/>
<path d="" fill="#3D3A36" transform="translate(0,0)"/>
<path d="" fill="#3D3A36" transform="translate(0,0)"/>
<path d="" fill="#3D3A36" transform="translate(0,0)"/>
<path d="" fill="#3D3A36" transform="translate(0,0)"/>
<path d="" fill="#3D3A36" transform="translate(0,0)"/>
<path d="" fill="#3D3A36" transform="translate(0,0)"/>
<path d="" fill="#3D3A36" transform="translate(0,0)"/>
<path d="" fill="#3D3A36" transform="translate(0,0)"/>
<path d="" fill="#3D3A36" transform="translate(0,0)"/>
<path d="" fill="#3D3A36" transform="translate(0,0)"/>
<path d="" fill="#3D3A36" transform="translate(0,0)"/>
<path d="" fill="#3D3A36" transform="translate(0,0)"/>
<path d="" fill="#3D3A36" transform="translate(0,0)"/>
<path d="" fill="#3D3A36" transform="translate(0,0)"/>
<path d="" fill="#3D3A36" transform="translate(0,0)"/>
<path d="" fill="#3D3A36" transform="translate(0,0)"/>
<path d="" fill="#3D3A36" transform="translate(0,0)"/>
<path d="" fill="#3D3A36" transform="translate(0,0)"/>
<path d="" fill="#3D3A36" transform="translate(0,0)"/>
<path d="" fill="#3D3A36" transform="translate(0,0)"/>
<path d="" fill="#3D3A36" transform="translate(0,0)"/>
<path d="" fill="#3D3A36" transform="translate(0,0)"/>
<path d="" fill="#3D3A36" transform="translate(0,0)"/>
<path d="" fill="#3D3A36" transform="translate(0,0)"/>
<path d="" fill="#3D3A36" transform="translate(0,0)"/>
<path d="" fill="#3D3A36" transform="translate(0,0)"/>
<path d="" fill="#3D3A36" transform="translate(0,0)"/>
<path d="" fill="#3D3A36" transform="translate(0,0)"/>
<path d="" fill="#3D3A36" transform="translate(0,0)"/>
<path d="" fill="#3D3A36" transform="translate(0,0)"/>
<path d="" fill="#3D3A36" transform="translate(0,0)"/>
<path d="" fill="#3D3A36" transform="translate(0,0)"/>
<path d="" fill="#3D3A36" transform="translate(0,0)"/>
<path d="" fill="#3D3A36" transform="translate(0,0)"/>
<path d="" fill="#3D3A36" transform="translate(0,0)"/>
<path d="" fill="#3D3A36" transform="translate(0,0)"/>
<path d="" fill="#3D3A36" transform="translate(0,0)"/>
<path d="" fill="#3D3A36" transform="translate(0,0)"/>
<path d="" fill="#3D3A36" transform="translate(0,0)"/>
<path d="" fill="#3D3A36" transform="translate(0,0)"/>
<path d="" fill="#3D3A36" transform="translate(0,0)"/>
<path d="" fill="#3D3A36" transform="translate(0,0)"/>
<path d="" fill="#3D3A36" transform="translate(0,0)"/>
<path d="" fill="#3D3A36" transform="translate(0,0)"/>
<path d="" fill="#3D3A36" transform="translate(0,0)"/>
<path d="" fill="#3D3A36" transform="translate(0,0)"/>
<path d="" fill="#3D3A36" transform="translate(0,0)"/>
<path d="" fill="#3D3A36" transform="translate(0,0)"/>
<path d="" fill="#3D3A36" transform="translate(0,0)"/>
<path d="" fill="#3D3A36" transform="translate(0,0)"/>
<path d="" fill="#3D3A36" transform="translate(0,0)"/>
<path d="" fill="#3D3A36" transform="translate(0,0)"/>
<path d="" fill="#3D3A36" transform="translate(0,0)"/>
<path d="" fill="#3D3A36" transform="translate(0,0)"/>
<path d="" fill="#3D3A36" transform="translate(0,0)"/>
<path d="" fill="#3D3A36" transform="translate(0,0)"/>
<path d="" fill="#3D3A36" transform="translate(0,0)"/>
<path d="" fill="#3D3A36" transform="translate(0,0)"/>
<path d="" fill="#3D3A36" transform="translate(0,0)"/>
<path d="" fill="#3D3A36" transform="translate(0,0)"/>
<path d="" fill="#3D3A36" transform="translate(0,0)"/>
<path d="" fill="#3D3A36" transform="translate(0,0)"/>
<path d="" fill="#3D3A36" transform="translate(0,0)"/>
<path d="" fill="#3D3A36" transform="translate(0,0)"/>
<path d="" fill="#3D3A36" transform="translate(0,0)"/>
<path d="" fill="#3D3A36" transform="translate(0,0)"/>
<path d="" fill="#3D3A36" transform="translate(0,0)"/>
<path d="" fill="#3D3A36" transform="translate(0,0)"/>
<path d="" fill="#3D3A36" transform="translate(0,0)"/>
<path d="" fill="#3D3A36" transform="translate(0,0)"/>
<path d="" fill="#3D3A36" transform="translate(0,0)"/>
<path d="" fill="#3D3A36" transform="translate(0,0)"/>
<path d="" fill="#3D3A36" transform="translate(0,0)"/>
<path d="" fill="#3D3A36" transform="translate(0,0)"/>
<path d="" fill="#3D3A36" transform="translate(0,0)"/>
<path d="" fill="#3D3A36" transform="translate(0,0)"/>
<path d="" fill="#3D3A36" transform="translate(0,0)"/>
<path d="" fill="#3D3A36" transform="translate(0,0)"/>
<path d="" fill="#3D3A36" transform="translate(0,0)"/>
<path d="" fill="#3D3A36" transform="translate(0,0)"/>
<path d="" fill="#3D3A36" transform="translate(0,0)"/>
<path d="" fill="#3D3A36" transform="translate(0,0)"/>
<path d="" fill="#3D3A36" transform="translate(0,0)"/>
<path d="" fill="#3D3A36" transform="translate(0,0)"/>
<path d="" fill="#3D3A36" transform="translate(0,0)"/>
<path d="" fill="#3D3A36" transform="translate(0,0)"/>
<path d="" fill="#3D3A36" transform="translate(0,0)"/>
<path d="" fill="#3D3A36" transform="translate(0,0)"/>
<path d="" fill="#3D3A36" transform="translate(0,0)"/>
<path d="" fill="#3D3A36" transform="translate(0,0)"/>
<path d="" fill="#3D3A36" transform="translate(0,0)"/>
<path d="" fill="#3D3A36" transform="translate(0,0)"/>
<path d="" fill="#3D3A36" transform="translate(0,0)"/>
<path d="" fill="#3D3A36" transform="translate(0,0)"/>
<path d="" fill="#3D3A36" transform="translate(0,0)"/>
<path d="" fill="#3D3A36" transform="translate(0,0)"/>
<path d="" fill="#3D3A36" transform="translate(0,0)"/>
<path d="" fill="#3D3A36" transform="translate(0,0)"/>
<path d="" fill="#3D3A36" transform="translate(0,0)"/>
<path d="" fill="#3D3A36" transform="translate(0,0)"/>
<path d="" fill="#3D3A36" transform="translate(0,0)"/>
<path d="" fill="#3D3A36" transform="translate(0,0)"/>
<path d="" fill="#3D3A36" transform="translate(0,0)"/>
<path d="" fill="#3D3A36" transform="translate(0,0)"/>
<path d="" fill="#3D3A36" transform="translate(0,0)"/>
<path d="" fill="#3D3A36" transform="translate(0,0)"/>
<path d="" fill="#3D3A36" transform="translate(0,0)"/>
<path d="" fill="#3D3A36" transform="translate(0,0)"/>
<path d="" fill="#3D3A36" transform="translate(0,0)"/>
<path d="" fill="#3D3A36" transform="translate(0,0)"/>
<path d="" fill="#3D3A36" transform="translate(0,0)"/>
<path d="" fill="#3D3A36" transform="translate(0,0)"/>
<path d="" fill="#3D3A36" transform="translate(0,0)"/>
<path d="" fill="#3D3A36" transform="translate(0,0)"/>
<path d="" fill="#3D3A36" transform="translate(0,0)"/>
<path d="" fill="#3D3A36" transform="translate(0,0)"/>
<path d="" fill="#3D3A36" transform="translate(0,0)"/>
<path d="" fill="#3D3A36" transform="translate(0,0)"/>
<path d="" fill="#3D3A36" transform="translate(0,0)"/>
<path d="" fill="#3D3A36" transform="translate(0,0)"/>
<path d="" fill="#3D3A36" transform="translate(0,0)"/>
<path d="" fill="#3D3A36" transform="translate(0,0)"/>
<path d="" fill="#3D3A36" transform="translate(0,0)"/>
<path d="" fill="#3D3A36" transform="translate(0,0)"/>
<path d="" fill="#3D3A36" transform="translate(0,0)"/>
<path d="" fill="#3D3A36" transform="translate(0,0)"/>
<path d="" fill="#3D3A36" transform="translate(0,0)"/>
<path d="" fill="#3D3A36" transform="translate(0,0)"/>
<path d="" fill="#3D3A36" transform="translate(0,0)"/>
<path d="" fill="#3D3A36" transform="translate(0,0)"/>
<path d="" fill="#3D3A36" transform="translate(0,0)"/>
<path d="" fill="#3D3A36" transform="translate(0,0)"/>
<path d="" fill="#3D3A36" transform="translate(0,0)"/>
<path d="" fill="#3D3A36" transform="translate(0,0)"/>
<path d="" fill="#3D3A36" transform="translate(0,0)"/>
<path d="" fill="#3D3A36" transform="translate(0,0)"/>
<path d="" fill="#3D3A36" transform="translate(0,0)"/>
<path d="" fill="#3D3A36" transform="translate(0,0)"/>
<path d="" fill="#3D3A36" transform="translate(0,0)"/>
<path d="" fill="#3D3A36" transform="translate(0,0)"/>
<path d="" fill="#3D3A36" transform="translate(0,0)"/>
<path d="" fill="#3D3A36" transform="translate(0,0)"/>
<path d="" fill="#3D3A36" transform="translate(0,0)"/>
<path d="" fill="#3D3A36" transform="translate(0,0)"/>
<path d="" fill="#3D3A36" transform="translate(0,0)"/>
<path d="" fill="#3D3A36" transform="translate(0,0)"/>
<path d="" fill="#3D3A36" transform="translate(0,0)"/>
<path d="" fill="#3D3A36" transform="translate(0,0)"/>
<path d="" fill="#3D3A36" transform="translate(0,0)"/>
<path d="" fill="#3D3A36" transform="translate(0,0)"/>
<path d="" fill="#3D3A36" transform="translate(0,0)"/>
<path d="" fill="#3D3A36" transform="translate(0,0)"/>
<path d="" fill="#3D3A36" transform="translate(0,0)"/>
<path d="" fill="#3D3A36" transform="translate(0,0)"/>
<path d="" fill="#3D3A36" transform="translate(0,0)"/>
<path d="" fill="#3D3A36" transform="translate(0,0)"/>
<path d="" fill="#3D3A36" transform="translate(0,0)"/>
<path d="" fill="#3D3A36" transform="translate(0,0)"/>
<path d="" fill="#3D3A36" transform="translate(0,0)"/>
<path d="" fill="#3D3A36" transform="translate(0,0)"/>
<path d="" fill="#3D3A36" transform="translate(0,0)"/>
<path d="" fill="#3D3A36" transform="translate(0,0)"/>
<path d="" fill="#3D3A36" transform="translate(0,0)"/>
<path d="" fill="#3D3A36" transform="translate(0,0)"/>
<path d="" fill="#3D3A36" transform="translate(0,0)"/>
<path d="" fill="#3D3A36" transform="translate(0,0)"/>
<path d="" fill="#3D3A36" transform="translate(0,0)"/>
<path d="" fill="#3D3A36" transform="translate(0,0)"/>
<path d="" fill="#3D3A36" transform="translate(0,0)"/>
<path d="" fill="#3D3A36" transform="translate(0,0)"/>
<path d="" fill="#3D3A36" transform="translate(0,0)"/>
<path d="" fill="#3D3A36" transform="translate(0,0)"/>
<path d="" fill="#3D3A36" transform="translate(0,0)"/>
<path d="" fill="#3D3A36" transform="translate(0,0)"/>
<path d="" fill="#3D3A36" transform="translate(0,0)"/>
<path d="" fill="#3D3A36" transform="translate(0,0)"/>
<path d="" fill="#3D3A36" transform="translate(0,0)"/>
<path d="" fill="#3D3A36" transform="translate(0,0)"/>
<path d="" fill="#3D3A36" transform="translate(0,0)"/>
<path d="" fill="#3D3A36" transform="translate(0,0)"/>
<path d="" fill="#3D3A36" transform="translate(0,0)"/>
<path d="" fill="#3D3A36" transform="translate(0,0)"/>
<path d="" fill="#3D3A36" transform="translate(0,0)"/>
<path d="" fill="#3D3A36" transform="translate(0,0)"/>
<path d="" fill="#3D3A36" transform="translate(0,0)"/>
<path d="" fill="#3D3A36" transform="translate(0,0)"/>
<path d="" fill="#3D3A36" transform="translate(0,0)"/>
<path d="" fill="#3D3A36" transform="translate(0,0)"/>
<path d="" fill="#3D3A36" transform="translate(0,0)"/>
<path d="" fill="#3D3A36" transform="translate(0,0)"/>
<path d="" fill="#3D3A36" transform="translate(0,0)"/>
<path d="" fill="#3D3A36" transform="translate(0,0)"/>
<path d="" fill="#3D3A36" transform="translate(0,0)"/>
<path d="" fill="#3D3A36" transform="translate(0,0)"/>
<path d="" fill="#3D3A36" transform="translate(0,0)"/>
<path d="" fill="#3D3A36" transform="translate(0,0)"/>
<path d="" fill="#3D3A36" transform="translate(0,0)"/>
<path d="" fill="#3D3A36" transform="translate(0,0)"/>
<path d="" fill="#3D3A36" transform="translate(0,0)"/>
<path d="" fill="#3D3A36" transform="translate(0,0)"/>
<path d="" fill="#3D3A36" transform="translate(0,0)"/>
<path d="" fill="#3D3A36" transform="translate(0,0)"/>
<path d="" fill="#3D3A36" transform="translate(0,0)"/>
<path d="" fill="#3D3A36" transform="translate(0,0)"/>
<path d="" fill="#3D3A36" transform="translate(0,0)"/>
<path d="" fill="#3D3A36" transform="translate(0,0)"/>
<path d="" fill="#3D3A36" transform="translate(0,0)"/>
<path d="" fill="#3D3A36" transform="translate(0,0)"/>
<path d="" fill="#3D3A36" transform="translate(0,0)"/>
<path d="" fill="#3D3A36" transform="translate(0,0)"/>
<path d="" fill="#3D3A36" transform="translate(0,0)"/>
<path d="" fill="#3D3A36" transform="translate(0,0)"/>
<path d="" fill="#3D3A36" transform="translate(0,0)"/>
<path d="" fill="#3D3A36" transform="translate(0,0)"/>
<path d="" fill="#3D3A36" transform="translate(0,0)"/>
<path d="" fill="#3D3A36" transform="translate(0,0)"/>
<path d="" fill="#3D3A36" transform="translate(0,0)"/>
<path d="" fill="#3D3A36" transform="translate(0,0)"/>
<path d="" fill="#3D3A36" transform="translate(0,0)"/>
<path d="" fill="#3D3A36" transform="translate(0,0)"/>
<path d="" fill="#3D3A36" transform="translate(0,0)"/>
<path d="" fill="#3D3A36" transform="translate(0,0)"/>
<path d="" fill="#3D3A36" transform="translate(0,0)"/>
<path d="" fill="#3D3A36" transform="translate(0,0)"/>
<path d="" fill="#3D3A36" transform="translate(0,0)"/>
<path d="" fill="#3D3A36" transform="translate(0,0)"/>
<path d="" fill="#3D3A36" transform="translate(0,0)"/>
<path d="" fill="#3D3A36" transform="translate(0,0)"/>
<path d="" fill="#3D3A36" transform="translate(0,0)"/>
<path d="" fill="#3D3A36" transform="translate(0,0)"/>
<path d="" fill="#3D3A36" transform="translate(0,0)"/>
<path d="" fill="#3D3A36" transform="translate(0,0)"/>
<path d="" fill="#3D3A36" transform="translate(0,0)"/>
<path d="" fill="#3D3A36" transform="translate(0,0)"/>
<path d="" fill="#3D3A36" transform="translate(0,0)"/>
<path d="" fill="#3D3A36" transform="translate(0,0)"/>
<path d="" fill="#3D3A36" transform="translate(0,0)"/>
<path d="" fill="#3D3A36" transform="translate(0,0)"/>
<path d="" fill="#3D3A36" transform="translate(0,0)"/>
<path d="" fill="#3D3A36" transform="translate(0,0)"/>
<path d="" fill="#3D3A36" transform="translate(0,0)"/>
<path d="" fill="#3D3A36" transform="translate(0,0)"/>
<path d="" fill="#3D3A36" transform="translate(0,0)"/>
<path d="" fill="#3D3A36" transform="translate(0,0)"/>
<path d="" fill="#3D3A36" transform="translate(0,0)"/>
<path d="" fill="#3D3A36" transform="translate(0,0)"/>
<path d="" fill="#3D3A36" transform="translate(0,0)"/>
<path d="" fill="#3D3A36" transform="translate(0,0)"/>
<path d="" fill="#3D3A36" transform="translate(0,0)"/>
<path d="" fill="#3D3A36" transform="translate(0,0)"/>
<path d="" fill="#3D3A36" transform="translate(0,0)"/>
<path d="" fill="#3D3A36" transform="translate(0,0)"/>
<path d="" fill="#3D3A36" transform="translate(0,0)"/>
<path d="" fill="#3D3A36" transform="translate(0,0)"/>
<path d="" fill="#3D3A36" transform="translate(0,0)"/>
<path d="" fill="#3D3A36" transform="translate(0,0)"/>
<path d="" fill="#3D3A36" transform="translate(0,0)"/>
<path d="" fill="#3D3A36" transform="translate(0,0)"/>
<path d="" fill="#3D3A36" transform="translate(0,0)"/>
<path d="" fill="#3D3A36" transform="translate(0,0)"/>
<path d="" fill="#3D3A36" transform="translate(0,0)"/>
<path d="" fill="#3D3A36" transform="translate(0,0)"/>
<path d="" fill="#3D3A36" transform="translate(0,0)"/>
<path d="" fill="#3D3A36" transform="translate(0,0)"/>
<path d="" fill="#3D3A36" transform="translate(0,0)"/>
<path d="" fill="#3D3A36" transform="translate(0,0)"/>
<path d="" fill="#3D3A36" transform="translate(0,0)"/>
<path d="" fill="#3D3A36" transform="translate(0,0)"/>
<path d="" fill="#3D3A36" transform="translate(0,0)"/>
<path d="" fill="#3D3A36" transform="translate(0,0)"/>
<path d="" fill="#3D3A36" transform="translate(0,0)"/>
<path d="" fill="#3D3A36" transform="translate(0,0)"/>
<path d="" fill="#3D3A36" transform="translate(0,0)"/>
<path d="" fill="#3D3A36" transform="translate(0,0)"/>
<path d="" fill="#3D3A36" transform="translate(0,0)"/>
<path d="" fill="#3D3A36" transform="translate(0,0)"/>
<path d="" fill="#3D3A36" transform="translate(0,0)"/>
<path d="" fill="#3D3A36" transform="translate(0,0)"/>
<path d="" fill="#3D3A36" transform="translate(0,0)"/>
<path d="" fill="#3D3A36" transform="translate(0,0)"/>
<path d="" fill="#3D3A36" transform="translate(0,0)"/>
<path d="" fill="#3D3A36" transform="translate(0,0)"/>
<path d="" fill="#3D3A36" transform="translate(0,0)"/>
<path d="" fill="#3D3A36" transform="translate(0,0)"/>
<path d="" fill="#3D3A36" transform="translate(0,0)"/>
<path d="" fill="#3D3A36" transform="translate(0,0)"/>
<path d="" fill="#3D3A36" transform="translate(0,0)"/>
<path d="" fill="#3D3A36" transform="translate(0,0)"/>
<path d="" fill="#3D3A36" transform="translate(0,0)"/>
<path d="" fill="#3D3A36" transform="translate(0,0)"/>
<path d="" fill="#3D3A36" transform="translate(0,0)"/>
<path d="" fill="#3D3A36" transform="translate(0,0)"/>
<path d="" fill="#3D3A36" transform="translate(0,0)"/>
<path d="" fill="#3D3A36" transform="translate(0,0)"/>
<path d="" fill="#3D3A36" transform="translate(0,0)"/>
<path d="" fill="#3D3A36" transform="translate(0,0)"/>
<path d="" fill="#3D3A36" transform="translate(0,0)"/>
<path d="" fill="#3D3A36" transform="translate(0,0)"/>
<path d="" fill="#3D3A36" transform="translate(0,0)"/>
<path d="" fill="#3D3A36" transform="translate(0,0)"/>
<path d="" fill="#3D3A36" transform="translate(0,0)"/>
<path d="" fill="#3D3A36" transform="translate(0,0)"/>
<path d="" fill="#3D3A36" transform="translate(0,0)"/>
<path d="" fill="#3D3A36" transform="translate(0,0)"/>
<path d="" fill="#3D3A36" transform="translate(0,0)"/>
<path d="" fill="#3D3A36" transform="translate(0,0)"/>
<path d="" fill="#3D3A36" transform="translate(0,0)"/>
<path d="" fill="#3D3A36" transform="translate(0,0)"/>
<path d="" fill="#3D3A36" transform="translate(0,0)"/>
<path d="" fill="#3D3A36" transform="translate(0,0)"/>
<path d="" fill="#3D3A36" transform="translate(0,0)"/>
<path d="" fill="#3D3A36" transform="translate(0,0)"/>
<path d="" fill="#3D3A36" transform="translate(0,0)"/>
<path d="" fill="#3D3A36" transform="translate(0,0)"/>
<path d="" fill="#3D3A36" transform="translate(0,0)"/>
<path d="" fill="#3D3A36" transform="translate(0,0)"/>
<path d="" fill="#3D3A36" transform="translate(0,0)"/>
<path d="" fill="#3D3A36" transform="translate(0,0)"/>
<path d="" fill="#3D3A36" transform="translate(0,0)"/>
<path d="" fill="#3D3A36" transform="translate(0,0)"/>
<path d="" fill="#3D3A36" transform="translate(0,0)"/>
<path d="" fill="#3D3A36" transform="translate(0,0)"/>
<path d="" fill="#3D3A36" transform="translate(0,0)"/>
<path d="" fill="#3D3A36" transform="translate(0,0)"/>
<path d="" fill="#3D3A36" transform="translate(0,0)"/>
<path d="" fill="#3D3A36" transform="translate(0,0)"/>
<path d="" fill="#3D3A36" transform="translate(0,0)"/>
<path d="" fill="#3D3A36" transform="translate(0,0)"/>
<path d="" fill="#3D3A36" transform="translate(0,0)"/>
<path d="" fill="#3D3A36" transform="translate(0,0)"/>
<path d="" fill="#3D3A36" transform="translate(0,0)"/>
<path d="" fill="#3D3A36" transform="translate(0,0)"/>
<path d="" fill="#3D3A36" transform="translate(0,0)"/>
<path d="" fill="#3D3A36" transform="translate(0,0)"/>
<path d="" fill="#3D3A36" transform="translate(0,0)"/>
<path d="" fill="#3D3A36" transform="translate(0,0)"/>
<path d="" fill="#3D3A36" transform="translate(0,0)"/>
<path d="" fill="#3D3A36" transform="translate(0,0)"/>
<path d="" fill="#3D3A36" transform="translate(0,0)"/>
<path d="" fill="#3D3A36" transform="translate(0,0)"/>
<path d="" fill="#3D3A36" transform="translate(0,0)"/>
<path d="" fill="#3D3A36" transform="translate(0,0)"/>
<path d="" fill="#3D3A36" transform="translate(0,0)"/>
<path d="" fill="#3D3A36" transform="translate(0,0)"/>
<path d="" fill="#3D3A36" transform="translate(0,0)"/>
<path d="" fill="#3D3A36" transform="translate(0,0)"/>
<path d="" fill="#3D3A36" transform="translate(0,0)"/>
<path d="" fill="#3D3A36" transform="translate(0,0)"/>
<path d="" fill="#3D3A36" transform="translate(0,0)"/>
<path d="" fill="#3D3A36" transform="translate(0,0)"/>
<path d="" fill="#3D3A36" transform="translate(0,0)"/>
<path d="" fill="#3D3A36" transform="translate(0,0)"/>
<path d="" fill="#3D3A36" transform="translate(0,0)"/>
<path d="" fill="#3D3A36" transform="translate(0,0)"/>
<path d="" fill="#3D3A36" transform="translate(0,0)"/>
<path d="" fill="#3D3A36" transform="translate(0,0)"/>
<path d="" fill="#3D3A36" transform="translate(0,0)"/>
<path d="" fill="#3D3A36" transform="translate(0,0)"/>
<path d="" fill="#3D3A36" transform="translate(0,0)"/>
<path d="" fill="#3D3A36" transform="translate(0,0)"/>
<path d="" fill="#3D3A36" transform="translate(0,0)"/>
<path d="" fill="#3D3A36" transform="translate(0,0)"/>
<path d="" fill="#3D3A36" transform="translate(0,0)"/>
<path d="" fill="#3D3A36" transform="translate(0,0)"/>
<path d="" fill="#3D3A36" transform="translate(0,0)"/>
<path d="" fill="#3D3A36" transform="translate(0,0)"/>
<path d="" fill="#3D3A36" transform="translate(0,0)"/>
<path d="" fill="#3D3A36" transform="translate(0,0)"/>
<path d="" fill="#3D3A36" transform="translate(0,0)"/>
<path d="" fill="#3D3A36" transform="translate(0,0)"/>
<path d="" fill="#3D3A36" transform="translate(0,0)"/>
<path d="" fill="#3D3A36" transform="translate(0,0)"/>
<path d="" fill="#3D3A36" transform="translate(0,0)"/>
<path d="" fill="#3D3A36" transform="translate(0,0)"/>
<path d="" fill="#3D3A36" transform="translate(0,0)"/>
<path d="" fill="#3D3A36" transform="translate(0,0)"/>
<path d="" fill="#3D3A36" transform="translate(0,0)"/>
<path d="" fill="#3D3A36" transform="translate(0,0)"/>
<path d="" fill="#3D3A36" transform="translate(0,0)"/>
<path d="" fill="#3D3A36" transform="translate(0,0)"/>
<path d="" fill="#3D3A36" transform="translate(0,0)"/>
<path d="" fill="#3D3A36" transform="translate(0,0)"/>
<path d="" fill="#3D3A36" transform="translate(0,0)"/>
<path d="" fill="#3D3A36" transform="translate(0,0)"/>
<path d="" fill="#3D3A36" transform="translate(0,0)"/>
<path d="" fill="#3D3A36" transform="translate(0,0)"/>
<path d="" fill="#3D3A36" transform="translate(0,0)"/>
<path d="" fill="#3D3A36" transform="translate(0,0)"/>
<path d="" fill="#3D3A36" transform="translate(0,0)"/>
<path d="" fill="#3D3A36" transform="translate(0,0)"/>
<path d="" fill="#3D3A36" transform="translate(0,0)"/>
<path d="" fill="#3D3A36" transform="translate(0,0)"/>
<path d="" fill="#3D3A36" transform="translate(0,0)"/>
<path d="" fill="#3D3A36" transform="translate(0,0)"/>
<path d="" fill="#3D3A36" transform="translate(0,0)"/>
<path d="" fill="#3D3A36" transform="translate(0,0)"/>
<path d="" fill="#3D3A36" transform="translate(0,0)"/>
<path d="" fill="#3D3A36" transform="translate(0,0)"/>
<path d="" fill="#3D3A36" transform="translate(0,0)"/>
<path d="" fill="#3D3A36" transform="translate(0,0)"/>
<path d="" fill="#3D3A36" transform="translate(0,0)"/>
<path d="" fill="#3D3A36" transform="translate(0,0)"/>
<path d="" fill="#3D3A36" transform="translate(0,0)"/>
<path d="" fill="#3D3A36" transform="translate(0,0)"/>
<path d="" fill="#3D3A36" transform="translate(0,0)"/>
<path d="" fill="#3D3A36" transform="translate(0,0)"/>
<path d="" fill="#3D3A36" transform="translate(0,0)"/>
<path d="" fill="#3D3A36" transform="translate(0,0)"/>
<path d="" fill="#3D3A36" transform="translate(0,0)"/>
<path d="" fill="#3D3A36" transform="translate(0,0)"/>
<path d="" fill="#3D3A36" transform="translate(0,0)"/>
<path d="" fill="#3D3A36" transform="translate(0,0)"/>
<path d="" fill="#3D3A36" transform="translate(0,0)"/>
</svg>
