<?xml version="1.0" encoding="UTF-8"?>
<svg version="1.1" xmlns="http://www.w3.org/2000/svg" width="512" height="512">
<path d="M0 0 C1.01790619 0.00215515 2.03581238 0.0043103 3.08456421 0.00653076 C17.69363523 0.05620146 32.02575853 0.30709809 46.375 3.3125 C47.34985352 3.51117676 48.32470703 3.70985352 49.32910156 3.91455078 C97.7109774 14.03517194 141.69928269 35.9516877 177.375 70.3125 C178.3640332 71.26068604 178.3640332 71.26068604 179.37304688 72.22802734 C188.86130305 81.37247479 197.6012044 90.66984009 205.375 101.3125 C206.23306152 102.46355017 207.09113451 103.61459177 207.94921875 104.765625 C213.98677396 112.95525981 219.36957302 121.45788276 224.375 130.3125 C224.7771875 131.01971191 225.179375 131.72692383 225.59375 132.45556641 C238.6191741 155.59095836 247.36801461 180.76212409 252.6875 206.75 C252.83485596 207.46889404 252.98221191 208.18778809 253.1340332 208.9284668 C256.10789088 224.57475609 256.74800362 240.04818046 256.6875 255.9375 C256.68534485 256.95540619 256.6831897 257.97331238 256.68096924 259.02206421 C256.63129854 273.63113523 256.38040191 287.96325853 253.375 302.3125 C253.07698486 303.77478027 253.07698486 303.77478027 252.77294922 305.26660156 C242.65232806 353.6484774 220.7358123 397.63678269 186.375 433.3125 C185.74287598 433.97185547 185.11075195 434.63121094 184.45947266 435.31054688 C175.31502521 444.79880305 166.01765991 453.5387044 155.375 461.3125 C154.22394983 462.17056152 153.07290823 463.02863451 151.921875 463.88671875 C143.73224019 469.92427396 135.22961724 475.30707302 126.375 480.3125 C125.66778809 480.7146875 124.96057617 481.116875 124.23193359 481.53125 C92.33512228 499.48942835 55.19251127 511.339219 18.4375 511.55078125 C17.76870819 511.55485678 17.09991638 511.5589323 16.41085815 511.56313133 C12.85593998 511.58391541 9.30105928 511.59823794 5.74609375 511.60766602 C2.86045618 511.61643426 -0.02468534 511.6370975 -2.91015625 511.66918945 C-25.27657525 511.91224308 -46.71920811 510.46284962 -68.3125 504.0625 C-69.33956055 503.76512939 -70.36662109 503.46775879 -71.42480469 503.16137695 C-106.24956012 492.83268329 -138.00254117 475.91637753 -165.625 452.3125 C-166.37394531 451.67570312 -167.12289062 451.03890625 -167.89453125 450.3828125 C-181.39020621 438.56547532 -194.06058025 425.82698412 -204.625 411.3125 C-205.48149066 410.16255169 -206.33826433 409.01281411 -207.1953125 407.86328125 C-213.23534209 399.67315742 -218.61867614 391.16870382 -223.625 382.3125 C-224.0271875 381.60528809 -224.429375 380.89807617 -224.84375 380.16943359 C-237.8691741 357.03404164 -246.61801461 331.86287591 -251.9375 305.875 C-252.08485596 305.15610596 -252.23221191 304.43721191 -252.3840332 303.6965332 C-255.35789088 288.05024391 -255.99800362 272.57681954 -255.9375 256.6875 C-255.93534485 255.66959381 -255.9331897 254.65168762 -255.93096924 253.60293579 C-255.88129854 238.99386477 -255.63040191 224.66174147 -252.625 210.3125 C-252.42632324 209.33764648 -252.22764648 208.36279297 -252.02294922 207.35839844 C-241.90232806 158.9765226 -219.9858123 114.98821731 -185.625 79.3125 C-184.99287598 78.65314453 -184.36075195 77.99378906 -183.70947266 77.31445312 C-174.56502521 67.82619695 -165.26765991 59.0862956 -154.625 51.3125 C-153.47394983 50.45443848 -152.32290823 49.59636549 -151.171875 48.73828125 C-142.98224019 42.70072604 -134.47961724 37.31792698 -125.625 32.3125 C-124.91778809 31.9103125 -124.21057617 31.508125 -123.48193359 31.09375 C-100.34654164 18.0683259 -75.17537591 9.31948539 -49.1875 4 C-48.46860596 3.85264404 -47.74971191 3.70528809 -47.0090332 3.5534668 C-31.36274391 0.57960912 -15.88931954 -0.06050362 0 0 Z M-87.625 100.3125 C-88.95328326 100.9891726 -90.28504913 101.65923597 -91.625 102.3125 C-91.625 102.9725 -91.625 103.6325 -91.625 104.3125 C-92.48351562 104.53550781 -93.34203125 104.75851563 -94.2265625 104.98828125 C-98.15443823 106.51879834 -100.9005629 108.73370599 -104 111.5 C-104.56654297 111.99322754 -105.13308594 112.48645508 -105.71679688 112.99462891 C-106.84420675 113.97773803 -107.9683323 114.9646284 -109.08886719 115.95556641 C-110.40702758 117.11995539 -111.73749647 118.27038434 -113.0703125 119.41796875 C-116.73669906 122.57552219 -120.35778285 125.73898124 -123.625 129.3125 C-123.625 129.9725 -123.625 130.6325 -123.625 131.3125 C-124.615 131.6425 -125.605 131.9725 -126.625 132.3125 C-126.625 132.9725 -126.625 133.6325 -126.625 134.3125 C-127.285 134.3125 -127.945 134.3125 -128.625 134.3125 C-155.94630103 166.78402329 -165.73440888 207.29022101 -162.31640625 248.9453125 C-161.88931316 252.44520809 -161.32096958 255.85651393 -160.625 259.3125 C-160.50141113 259.98104004 -160.37782227 260.64958008 -160.25048828 261.33837891 C-157.51557563 275.93452482 -152.38201294 289.57766647 -141.625 300.3125 C-140.92761719 300.64765625 -140.23023438 300.9828125 -139.51171875 301.328125 C-137.08532 302.59407218 -136.8005714 303.88873504 -135.625 306.3125 C-127.50660962 313.7985105 -111.88000359 321.61786831 -100.625 321.3125 C-94.9240713 317.96630272 -93.41831395 311.35596801 -91.625 305.3125 C-88.17891466 291.24098485 -92.50166418 279.41854061 -99.6875 267.4765625 C-100.86726524 265.54992975 -102.05317003 263.62701625 -103.25 261.7109375 C-106.30119529 256.38868208 -107.14019412 251.58058425 -107.75 245.5625 C-107.83636719 244.80195313 -107.92273438 244.04140625 -108.01171875 243.2578125 C-110.07235552 223.95978563 -107.20273331 205.71234648 -98.625 188.3125 C-98.18285156 187.4153125 -97.74070312 186.518125 -97.28515625 185.59375 C-93.97713583 179.21595995 -89.9947046 173.58230979 -85.578125 167.94140625 C-83.96050354 165.76408776 -82.72124317 163.77904714 -81.625 161.3125 C-80.965 161.3125 -80.305 161.3125 -79.625 161.3125 C-77.88806842 159.55728052 -77.88806842 159.55728052 -76.125 157.375 C-72.82741692 153.41370846 -72.82741692 153.41370846 -70.625 152.3125 C-70.625 151.6525 -70.625 150.9925 -70.625 150.3125 C-69.77035156 149.91417969 -69.77035156 149.91417969 -68.8984375 149.5078125 C-66.49922821 148.24637257 -64.43487227 146.79073392 -62.25 145.1875 C-36.23446338 126.93496921 -4.7862535 117.89819498 26.93334961 123.39575195 C40.22820313 126.0738225 52.16965174 131.35263073 63.3359375 139.02734375 C65.25528469 140.49023336 65.25528469 140.49023336 67.375 140.3125 C67.375 140.9725 67.375 141.6325 67.375 142.3125 C70.43058423 145.33767909 70.43058423 145.33767909 74.375 146.3125 C74.7771875 147.2715625 74.7771875 147.2715625 75.1875 148.25 C76.26167752 150.64381686 76.26167752 150.64381686 79.375 151.3125 C80.09756395 152.95570527 80.7578325 154.62687652 81.375 156.3125 C82.27397058 157.7334535 83.21310063 159.12967055 84.1875 160.5 C90.97517185 170.59067519 94.01413344 180.50055152 96.375 192.3125 C96.52743164 193.04033691 96.67986328 193.76817383 96.83691406 194.51806641 C102.03177825 219.66771668 99.48755603 245.9722141 91.375 270.3125 C91.13241455 271.06031738 90.8898291 271.80813477 90.63989258 272.57861328 C89.92637827 274.74756311 89.18629104 276.90550511 88.4375 279.0625 C88.19837891 279.77792969 87.95925781 280.49335938 87.71289062 281.23046875 C86.1377945 285.76042858 84.12184809 289.34293485 81.375 293.3125 C80.52554922 295.34184024 80.52554922 295.34184024 80.125 297.1875 C79.75375 298.734375 79.75375 298.734375 79.375 300.3125 C78.715 300.3125 78.055 300.3125 77.375 300.3125 C76.16014615 302.03671427 75.02681296 303.81884884 73.9375 305.625 C71.94919378 308.91021439 70.08645654 311.6176273 67.375 314.3125 C67.375 314.9725 67.375 315.6325 67.375 316.3125 C66.715 316.3125 66.055 316.3125 65.375 316.3125 C65.375 316.9725 65.375 317.6325 65.375 318.3125 C64.776875 318.60125 64.17875 318.89 63.5625 319.1875 C61.18172208 320.35992026 61.18172208 320.35992026 58.375 322.3125 C58.375 322.9725 58.375 323.6325 58.375 324.3125 C57.81425781 324.42722656 57.25351562 324.54195312 56.67578125 324.66015625 C53.23260752 325.63640415 50.25379808 327.38182058 47.10546875 329.05859375 C40.84618798 331.93302741 35.20720651 332.63105399 28.4375 332.5625 C27.67759766 332.57023437 26.91769531 332.57796875 26.13476562 332.5859375 C19.39906124 332.56292912 13.13930034 331.5470817 7.125 328.3125 C6.50109375 327.9825 5.8771875 327.6525 5.234375 327.3125 C4.62078125 326.9825 4.0071875 326.6525 3.375 326.3125 C2.30185547 325.81943359 2.30185547 325.81943359 1.20703125 325.31640625 C-1.5015648 323.83216492 -1.69141519 322.23773241 -2.625 319.3125 C-2.88410156 318.70664062 -3.14320313 318.10078125 -3.41015625 317.4765625 C-10.79746337 298.99111492 -2.08341773 277.18861265 3.375 259.3125 C3.69227051 258.26980957 4.00954102 257.22711914 4.33642578 256.15283203 C6.89100854 247.75807602 6.89100854 247.75807602 7.97729492 244.23876953 C13.91330208 224.94011534 20.73735898 201.648963 11.375 182.3125 C6.24884751 174.83275346 -2.32215921 170.02670546 -10.98046875 167.671875 C-22.85864892 166.05770576 -34.37894245 166.35776335 -44.515625 173.2890625 C-47.01212447 175.20676461 -49.40124177 177.083918 -51.625 179.3125 C-51.625 179.9725 -51.625 180.6325 -51.625 181.3125 C-52.285 181.3125 -52.945 181.3125 -53.625 181.3125 C-55.34352366 183.65504765 -55.34352366 183.65504765 -57.0625 186.5625 C-60.46976041 192.12597488 -60.46976041 192.12597488 -62.15625 194.15234375 C-73.46844377 210.78969256 -73.65327795 237.0873356 -70.40625 256.1875 C-69.54248184 259.64257265 -68.30663658 262.77657222 -66.9375 266.0625 C-64.60567117 271.81984728 -64.1904767 275.34334263 -65.625 281.3125 C-65.82738281 282.35921875 -66.02976562 283.4059375 -66.23828125 284.484375 C-67.67251428 291.69560253 -69.57526622 298.69521969 -71.65625 305.7421875 C-72.65808893 309.4344487 -73.4149429 313.11632818 -74.125 316.875 C-75.24014296 322.72196581 -76.76385497 328.26871352 -78.5859375 333.9296875 C-80.16173002 339.05989923 -81.41825747 344.25974062 -82.6875 349.47265625 C-83.49050671 352.76163789 -84.33403034 356.03642116 -85.1875 359.3125 C-86.55419729 364.73472296 -87.58648063 370.19863528 -88.53540039 375.70703125 C-89.04876794 378.60845183 -89.63701442 381.34700486 -90.60693359 384.13256836 C-91.6521392 387.39726933 -92.20063949 390.46103736 -92.66015625 393.85546875 C-92.91442383 395.71461914 -92.91442383 395.71461914 -93.17382812 397.61132812 C-93.4280957 399.5362207 -93.4280957 399.5362207 -93.6875 401.5 C-93.86087891 402.76392578 -94.03425781 404.02785156 -94.21289062 405.33007812 C-95.67411344 416.15208464 -96.78284226 426.81217004 -96.7578125 437.73828125 C-96.75924759 439.1633625 -96.75924759 439.1633625 -96.76071167 440.61723328 C-96.76138678 442.61127794 -96.75957964 444.60532489 -96.75537109 446.59936523 C-96.7500314 449.60731084 -96.75532985 452.61510593 -96.76171875 455.62304688 C-97.3006438 474.75114984 -97.3006438 474.75114984 -93.625 493.3125 C-90.70085608 494.20201231 -89.252519 494.64000079 -86.484375 493.1953125 C-77.84909005 485.99924171 -70.28881639 478.37663312 -63.625 469.3125 C-63.18542969 468.74015625 -62.74585938 468.1678125 -62.29296875 467.578125 C-52.85095266 454.98877022 -46.22665738 439.20464431 -41.55859375 424.24609375 C-40.47226298 420.83256065 -39.23768008 417.48646734 -38 414.125 C-36.41434578 409.70541058 -35.05139679 405.418537 -34.14453125 400.81640625 C-33.45138124 397.47573592 -32.59396864 394.17991263 -31.75 390.875 C-30.21337039 384.78822724 -28.75791904 378.68605554 -27.375 372.5625 C-27.19984863 371.8001001 -27.02469727 371.0377002 -26.84423828 370.25219727 C-26.07986255 366.82482271 -25.625 363.84382262 -25.625 360.3125 C-23.315 360.6425 -21.005 360.9725 -18.625 361.3125 C-18.625 361.9725 -18.625 362.6325 -18.625 363.3125 C4.36344617 379.92375263 29.06227538 385.11579761 56.91723633 380.79296875 C73.05520128 377.97525358 91.80531673 371.05326111 104.375 360.3125 C104.375 359.6525 104.375 358.9925 104.375 358.3125 C105.05820312 358.11785156 105.74140625 357.92320312 106.4453125 357.72265625 C110.48901165 355.77628906 113.14636731 352.94484217 116.25 349.75 C116.86697754 349.12319336 117.48395508 348.49638672 118.11962891 347.85058594 C126.25665602 340.54372021 126.25665602 340.54372021 130.375 331.3125 C131.035 331.3125 131.695 331.3125 132.375 331.3125 C132.91125 330.343125 133.4475 329.37375 134 328.375 C135.61947055 325.52337782 137.3762661 322.82984941 139.24609375 320.13671875 C142.26329761 315.6270305 144.6253206 311.02014008 146.8125 306.0625 C147.19156494 305.21131592 147.57062988 304.36013184 147.96118164 303.4831543 C154.2343174 289.06691721 159.17612399 274.145091 161.4375 258.5625 C162.30092418 252.65410971 162.30092418 252.65410971 162.89199829 249.92829895 C163.36264324 247.37942067 163.52739763 245.03266602 163.56787109 242.4440918 C163.58393402 241.5008757 163.59999695 240.55765961 163.61654663 239.58586121 C163.66192111 235.21195693 163.70220478 230.83819819 163.72509766 226.46411133 C163.74145544 224.18861521 163.76846773 221.91316592 163.80712891 219.63793945 C164.29382528 190.76414832 158.19426055 167.45211343 144.375 142.3125 C143.715 142.3125 143.055 142.3125 142.375 142.3125 C142.29894531 141.76464844 142.22289062 141.21679688 142.14453125 140.65234375 C141.08915748 137.44336461 139.24078873 135.44545201 137.0625 132.875 C136.28261719 131.94816406 135.50273437 131.02132812 134.69921875 130.06640625 C133.93222656 129.15761719 133.16523438 128.24882812 132.375 127.3125 C131.04021638 125.6469946 129.70657895 123.98056866 128.375 122.3125 C126.85492158 120.53972741 126.85492158 120.53972741 125.375 119.3125 C124.715 119.3125 124.055 119.3125 123.375 119.3125 C123.375 118.6525 123.375 117.9925 123.375 117.3125 C121.94524649 115.91575856 121.94524649 115.91575856 120.04296875 114.51953125 C118.97767944 113.70295044 118.97767944 113.70295044 117.89086914 112.86987305 C117.12250732 112.29406494 116.35414551 111.71825684 115.5625 111.125 C114.77931396 110.53565674 113.99612793 109.94631348 113.18920898 109.33911133 C56.50031553 67.01085893 -27.11303978 65.29134655 -87.625 100.3125 Z " fill="#FFFFFF" transform="translate(255.625,0.6875)"/>
</svg>
