<?xml version="1.0" encoding="UTF-8"?>
<svg xmlns="http://www.w3.org/2000/svg" width="512" height="320" viewBox="0 0 512 320">
  <path d="M 405.0,262.5 L 397.0,259.0 L 390.5,122.0 L 121.5,122.0 L 114.5,259.0 L 106.5,262.5 L 100.0,257.0 L 106.5,120.0 L 96.0,114.0 L 96.0,101.0 L 103.0,93.5 L 130.5,88.0 L 180.0,58.0 L 332.0,58.0 L 381.0,88.0 L 409.0,93.5 L 416.0,101.0 L 416.0,114.0 L 405.5,120.0 L 412.0,257.0 L 405.0,262.5 Z M 379.0,106.5 L 380.0,101.5 L 330.0,74.0 L 183.0,74.0 L 132.5,101.5 L 133.0,106.5 L 379.0,106.5 Z M 182.0,262.5 L 174.0,258.0 L 175.0,154.0 L 183.0,147.5 L 192.0,154.0 L 190.0,258.0 L 182.0,262.5 Z M 330.0,262.5 L 322.0,258.0 L 322.5,154.0 L 330.5,147.5 L 339.0,154.0 L 338.0,258.0 L 330.0,262.5 Z M 256.0,262.5 L 248.0,258.0 L 248.0,154.0 L 256.0,147.5 L 264.0,154.0 L 264.0,258.0 L 256.0,262.5 Z" fill="#3d3a36" fill-rule="evenodd" stroke="#3d3a36" stroke-width="6px"/>
</svg>
