<?xml version="1.0" encoding="UTF-8"?>
<svg xmlns="http://www.w3.org/2000/svg" width="512" height="320" viewBox="0 0 512 320">
  <path d="M 368.0,255.5 L 187.0,255.5 L 110.0,248.5 L 99.5,240.0 L 93.5,227.0 L 95.5,207.0 L 109.5,191.0 L 96.5,169.0 L 98.5,148.0 L 102.5,140.0 L 117.0,128.5 L 165.0,121.5 L 138.0,108.5 L 132.5,98.0 L 142.0,88.5 L 190.0,67.5 L 214.0,63.5 L 297.0,62.5 L 340.0,70.5 L 384.5,95.0 L 385.5,104.0 L 380.0,109.5 L 353.5,124.0 L 378.0,128.5 L 395.0,139.5 L 407.5,155.0 L 415.5,177.0 L 416.5,209.0 L 408.5,232.0 L 392.0,247.5 L 368.0,255.5 Z M 314.5,124.0 L 342.0,119.5 L 376.5,100.0 L 333.0,78.5 L 290.0,72.5 L 204.0,74.5 L 175.0,83.5 L 142.5,100.0 L 194.0,122.5 L 194.5,116.0 L 201.0,113.5 L 206.0,119.5 L 219.0,123.5 L 314.5,124.0 Z M 370.5,245.0 L 394.5,233.0 L 406.5,209.0 L 406.5,184.0 L 401.5,164.0 L 395.5,154.0 L 376.0,138.5 L 349.0,133.5 L 173.0,130.5 L 127.0,135.5 L 114.0,141.5 L 107.5,151.0 L 108.5,174.0 L 121.0,186.5 L 194.5,193.0 L 193.0,200.5 L 121.0,196.5 L 114.0,199.5 L 105.5,209.0 L 102.5,222.0 L 107.5,234.0 L 116.0,240.5 L 184.0,245.5 L 370.5,245.0 Z M 205.0,227.5 L 124.0,223.5 L 121.5,218.0 L 125.0,214.5 L 201.0,218.5 L 212.5,211.0 L 216.5,202.0 L 213.5,184.0 L 203.0,175.5 L 138.0,173.5 L 133.5,170.0 L 134.5,165.0 L 201.0,164.5 L 213.0,169.5 L 223.5,182.0 L 226.5,201.0 L 220.5,216.0 L 205.0,227.5 Z M 352.0,204.5 L 247.0,204.5 L 243.5,198.0 L 247.0,194.5 L 374.0,193.5 L 376.5,197.0 L 371.0,203.5 L 352.0,204.5 Z" fill="#3d3a36" fill-rule="evenodd" stroke="#3d3a36" stroke-width="6px"/>
</svg>
